<svg width="374.91" height="374.915" xmlns="http://www.w3.org/2000/svg">

 <g>
  <title>background</title>
  <rect fill="none" id="canvas_background" height="376.915" width="376.91" y="-1" x="-1"/>
 </g>
 <g>
  <title>Layer 1</title>
  <path fill="#2962ff" stroke="null" stroke-width="0" id="svg_2" d="m366.845292,392.95702l0,22.415l-410.916,0l0,-384.771l22.413,0l0,362.355l388.503,0l0,0.001zm-321.723,-59.776l11.208,0l0,-50.431l10.27,0l0,-119.532l-10.27,0l0,-52.296l-11.208,0l0,52.296l-10.276,0l0,119.533l10.277,0l0,50.43l-0.001,0zm63.497,-73.78l11.207,0l0,-51.365l10.276,0l0,-119.536l-10.276,0l0,-51.365l-11.207,0l0,51.365l-10.27,0l0,119.536l10.27,0l0,51.365zm63.037,37.357l11.207,0l0,-49.488l10.271,0l0,-119.547l-10.271,0l0,-53.231l-11.207,0l0,53.231l-10.276,0l0,119.536l10.276,0l0,49.499zm71.442,21.014l11.21,0l0,-49.965l10.273,0l0,-119.536l-10.273,0l0,-52.766l-11.21,0l0,52.767l-10.269,0l0,119.536l10.269,0l0,49.964zm73.315,-57.894l11.206,0l0,-51.833l10.271,0l0,-119.545l-10.271,0l0,-50.894l-11.206,0l0,50.895l-10.276,0l0,119.536l10.276,0l0,51.841z"/>
 </g>
</svg>