<?xml version="1.0" encoding="iso-8859-1"?>
<!-- Generator: Adobe Illustrator 16.0.0, SVG Export Plug-In . SVG Version: 6.00 Build 0)  -->
<!DOCTYPE svg PUBLIC "-//W3C//DTD SVG 1.1//EN" "http://www.w3.org/Graphics/SVG/1.1/DTD/svg11.dtd">
<svg version="1.1" id="Capa_1" xmlns="http://www.w3.org/2000/svg" xmlns:xlink="http://www.w3.org/1999/xlink" x="0px" y="0px"
	 width="108px" height="108px" viewBox="0 0 108 108" style="enable-background:new 0 0 108 108;" xml:space="preserve">
<g>
	<path d="M108,38.182c0-16.518-22.282-29.455-50.728-29.455c-27.854,0-49.785,12.408-50.685,28.432H6.545v18.241l-4.289,1.035
		C1.817,56.469,1.381,56.623,1,56.904c-0.663,0.485-1.009,1.243-1,2.008v29.453c0,0.879,0.47,1.689,1.232,2.127
		c0.625,0.358,15.427,8.781,26.994,8.781h0.001c0.001,0,0.001,0,0.001,0c0.218,0,0.43-0.038,0.636-0.094
		c0.051-0.016,0.098-0.028,0.148-0.047c0.198-0.065,0.388-0.15,0.563-0.266c0.005-0.004,0.01-0.004,0.015-0.009
		c0.135-0.09,0.262-0.192,0.378-0.31c0.036-0.036,0.063-0.078,0.096-0.117c0.037-0.041,0.07-0.083,0.104-0.127
		c0.135-0.176,0.253-0.363,0.335-0.566c0-0.003,0.003-0.005,0.003-0.008l19.227-48.001c0.084-0.209,0.126-0.424,0.15-0.639
		c0.363-0.724,0.361-1.594-0.061-2.324c-0.544-0.938-1.641-1.411-2.699-1.154l-35.669,8.603v-7.154l42.808-5.981l-4.547,25.464
		h-0.026l0.001,0.14l-0.118,0.66l0.121,0.006l0.118,28.373l2.308,0.13c1.645,0.091,3.305,0.137,4.936,0.137
		c28.444,0,50.727-12.937,50.727-29.453V41.128h-0.024C107.916,40.16,108,39.179,108,38.182z M4.909,86.906V64.638
		c4.081,3.116,10.978,6.616,20.732,5.75l0.119,23.837C17.703,93.354,8.239,88.668,4.909,86.906z M40.246,52.322L28.208,65.078
		c-10.404,1.95-17.344-1.89-20.921-4.808L40.246,52.322z M55.388,62.705l4.896-27.422l-48.244,6.74
		c-0.388-1.273-0.585-2.561-0.585-3.842c0-13.305,20.982-24.546,45.818-24.546c24.836,0,45.817,11.241,45.817,24.546
		C103.091,51.822,81.088,63.287,55.388,62.705z"/>
</g>
<g>
</g>
<g>
</g>
<g>
</g>
<g>
</g>
<g>
</g>
<g>
</g>
<g>
</g>
<g>
</g>
<g>
</g>
<g>
</g>
<g>
</g>
<g>
</g>
<g>
</g>
<g>
</g>
<g>
</g>
</svg>
