<?xml version="1.0" encoding="iso-8859-1"?>
<!-- Generator: Adobe Illustrator 16.0.0, SVG Export Plug-In . SVG Version: 6.00 Build 0)  -->
<!DOCTYPE svg PUBLIC "-//W3C//DTD SVG 1.1//EN" "http://www.w3.org/Graphics/SVG/1.1/DTD/svg11.dtd">
<svg version="1.1" id="Capa_1" xmlns="http://www.w3.org/2000/svg" xmlns:xlink="http://www.w3.org/1999/xlink" x="0px" y="0px"
	 width="87.093px" height="87.094px" viewBox="0 0 87.093 87.094" style="enable-background:new 0 0 87.093 87.094;"
	 xml:space="preserve">
<g>
	<path d="M12.086,49.111l-3.551-3.521l4.002-4.038l3.551,3.52L12.086,49.111z M16.523,37.538l3.551,3.522l4.793-4.833l-3.551-3.521
		L16.523,37.538z M60.245,6.953l1.777,4.674l7.362-2.795L53.5,29.488l-13.41-15.72L24.238,29.756l3.551,3.52l12.024-12.127
		L53.7,37.428l19.859-25.82v9.39h5V0L60.245,6.953z M19.306,57.428h-6.513c-1.105,0-2,0.895-2,2v25.666c0,1.104,0.895,2,2,2h6.513
		c1.104,0,2-0.896,2-2V59.428C21.306,58.322,20.41,57.428,19.306,57.428z M40.637,37.428h-6.513c-1.105,0-2,0.895-2,2v45.666
		c0,1.104,0.895,2,2,2h6.513c1.104,0,2-0.896,2-2V39.428C42.637,38.322,41.741,37.428,40.637,37.428z M61.638,47.76h-6.512
		c-1.105,0-2,0.896-2,2v35.334c0,1.104,0.895,2,2,2h6.512c1.104,0,2-0.896,2-2V49.76C63.638,48.656,62.743,47.76,61.638,47.76z"/>
</g>
<g>
</g>
<g>
</g>
<g>
</g>
<g>
</g>
<g>
</g>
<g>
</g>
<g>
</g>
<g>
</g>
<g>
</g>
<g>
</g>
<g>
</g>
<g>
</g>
<g>
</g>
<g>
</g>
<g>
</g>
</svg>
