<?xml version="1.0" encoding="iso-8859-1"?>
<!-- Generator: Adobe Illustrator 16.0.0, SVG Export Plug-In . SVG Version: 6.00 Build 0)  -->
<!DOCTYPE svg PUBLIC "-//W3C//DTD SVG 1.1//EN" "http://www.w3.org/Graphics/SVG/1.1/DTD/svg11.dtd">
<svg version="1.1" id="Capa_1" xmlns="http://www.w3.org/2000/svg" xmlns:xlink="http://www.w3.org/1999/xlink" x="0px" y="0px"
	 width="87.125px" height="87.124px" viewBox="0 0 87.125 87.124" style="enable-background:new 0 0 87.125 87.124;"
	 xml:space="preserve">
<g>
	<g>
		<polygon points="60.261,6.954 62.037,11.627 69.398,8.832 53.513,29.488 40.103,13.767 8.552,45.591 12.103,49.111 39.828,21.148 
			53.714,37.427 73.572,11.607 73.572,20.999 78.572,20.999 78.572,0 		"/>
		<path d="M19.398,57.458h-6.513c-1.105,0-2,0.896-2,2v25.666c0,1.104,0.895,2,2,2h6.513c1.104,0,2-0.896,2-2V59.458
			C21.398,58.354,20.502,57.458,19.398,57.458z"/>
		<path d="M40.729,37.458h-6.513c-1.105,0-2,0.896-2,2v45.666c0,1.104,0.895,2,2,2h6.513c1.104,0,2-0.896,2-2V39.458
			C42.729,38.353,41.833,37.458,40.729,37.458z"/>
		<path d="M61.731,47.791h-6.513c-1.105,0-2,0.896-2,2v35.333c0,1.104,0.895,2,2,2h6.513c1.104,0,2-0.896,2-2V49.791
			C63.731,48.686,62.835,47.791,61.731,47.791z"/>
	</g>
</g>
<g>
</g>
<g>
</g>
<g>
</g>
<g>
</g>
<g>
</g>
<g>
</g>
<g>
</g>
<g>
</g>
<g>
</g>
<g>
</g>
<g>
</g>
<g>
</g>
<g>
</g>
<g>
</g>
<g>
</g>
</svg>
