<?xml version="1.0" encoding="iso-8859-1"?>
<!-- Generator: Adobe Illustrator 18.0.0, SVG Export Plug-In . SVG Version: 6.00 Build 0)  -->
<!DOCTYPE svg PUBLIC "-//W3C//DTD SVG 1.1//EN" "http://www.w3.org/Graphics/SVG/1.1/DTD/svg11.dtd">
<svg version="1.1" id="Capa_1" xmlns="http://www.w3.org/2000/svg" xmlns:xlink="http://www.w3.org/1999/xlink" x="0px" y="0px"
	 viewBox="0 0 352.039 352.039" style="enable-background:new 0 0 352.039 352.039;" xml:space="preserve">
<g>
	<polygon points="133.4,168.292 137.646,168.292 137.646,143.095 128.469,143.095 128.469,146.874 133.4,146.874 	"/>
	<path d="M134.982,210.4c6.875,0,10.691-4.535,10.691-12.707c0-8.171-3.816-12.706-10.691-12.706
		c-6.912,0-10.727,4.535-10.727,12.706C124.256,205.865,128.07,210.4,134.982,210.4z M134.982,188.335
		c4.211,0,6.336,2.951,6.336,9.358c0,6.371-2.125,9.359-6.336,9.359c-4.248,0-6.371-2.988-6.371-9.359
		C128.611,191.286,130.734,188.335,134.982,188.335z"/>
	<polygon points="96.896,168.292 101.143,168.292 101.143,143.095 91.965,143.095 91.965,146.874 96.896,146.874 	"/>
	<polygon points="120.619,126.292 124.867,126.292 124.867,101.095 115.688,101.095 115.688,104.874 120.619,104.874 	"/>
	<path d="M116.73,142.987c-6.91,0-10.727,4.535-10.727,12.706c0,8.171,3.816,12.707,10.727,12.707
		c6.875,0,10.691-4.535,10.691-12.707C127.422,147.522,123.605,142.987,116.73,142.987z M116.73,165.052
		c-4.246,0-6.371-2.987-6.371-9.359c0-6.407,2.125-9.358,6.371-9.358c4.213,0,6.336,2.951,6.336,9.358
		C123.066,162.065,120.943,165.052,116.73,165.052z"/>
	<path d="M103.951,126.4c6.875,0,10.691-4.535,10.691-12.707c0-8.171-3.816-12.706-10.691-12.706
		c-6.912,0-10.727,4.535-10.727,12.706C93.225,121.865,97.039,126.4,103.951,126.4z M103.951,104.335
		c4.211,0,6.336,2.951,6.336,9.358c0,6.372-2.125,9.359-6.336,9.359c-4.248,0-6.371-2.987-6.371-9.359
		C97.58,107.286,99.703,104.335,103.951,104.335z"/>
	<path d="M158.705,210.4c6.875,0,10.691-4.535,10.691-12.707c0-8.171-3.816-12.706-10.691-12.706
		c-6.91,0-10.727,4.535-10.727,12.706C147.979,205.865,151.795,210.4,158.705,210.4z M158.705,188.335
		c4.213,0,6.336,2.951,6.336,9.358c0,6.371-2.123,9.359-6.336,9.359c-4.246,0-6.371-2.988-6.371-9.359
		C152.334,191.286,154.459,188.335,158.705,188.335z"/>
	<path d="M140.455,126.4c6.875,0,10.691-4.535,10.691-12.707c0-8.171-3.816-12.706-10.691-12.706
		c-6.912,0-10.727,4.535-10.727,12.706C129.729,121.865,133.543,126.4,140.455,126.4z M140.455,104.335
		c4.211,0,6.336,2.951,6.336,9.358c0,6.372-2.125,9.359-6.336,9.359c-4.248,0-6.371-2.987-6.371-9.359
		C134.084,107.286,136.207,104.335,140.455,104.335z"/>
	<polygon points="110.215,188.875 115.146,188.875 115.146,210.292 119.395,210.292 119.395,185.096 110.215,185.096 	"/>
	<polygon points="170.443,188.875 175.375,188.875 175.375,210.292 179.621,210.292 179.621,185.096 170.443,185.096 	"/>
	<polygon points="73.713,188.875 78.645,188.875 78.645,210.292 82.891,210.292 82.891,185.096 73.713,185.096 	"/>
	<polygon points="157.123,126.292 161.371,126.292 161.371,101.095 152.191,101.095 152.191,104.874 157.123,104.874 	"/>
	<path d="M166.014,142.987c-6.91,0-10.727,4.535-10.727,12.706c0,8.171,3.816,12.707,10.727,12.707
		c6.875,0,10.691-4.535,10.691-12.707C176.705,147.522,172.889,142.987,166.014,142.987z M166.014,165.052
		c-4.246,0-6.371-2.987-6.371-9.359c0-6.407,2.125-9.358,6.371-9.358c4.213,0,6.336,2.951,6.336,9.358
		C172.35,162.065,170.227,165.052,166.014,165.052z"/>
	<polygon points="169.902,126.292 174.15,126.292 174.15,101.095 164.971,101.095 164.971,104.874 169.902,104.874 	"/>
	<polygon points="150.426,168.292 150.426,143.095 141.248,143.095 141.248,146.874 146.18,146.874 146.18,168.292 	"/>
	<path d="M61.975,210.4c6.875,0,10.691-4.535,10.691-12.707c0-8.171-3.816-12.706-10.691-12.706
		c-6.912,0-10.727,4.535-10.727,12.706C51.248,205.865,55.063,210.4,61.975,210.4z M61.975,188.335c4.211,0,6.336,2.951,6.336,9.358
		c0,6.371-2.125,9.359-6.336,9.359c-4.248,0-6.371-2.988-6.371-9.359C55.604,191.286,57.727,188.335,61.975,188.335z"/>
	<path d="M80.227,142.987c-6.91,0-10.727,4.535-10.727,12.706c0,8.171,3.816,12.707,10.727,12.707
		c6.875,0,10.691-4.535,10.691-12.707C90.918,147.522,87.102,142.987,80.227,142.987z M80.227,165.052
		c-4.246,0-6.371-2.987-6.371-9.359c0-6.407,2.125-9.358,6.371-9.358c4.213,0,6.336,2.951,6.336,9.358
		C86.563,162.065,84.439,165.052,80.227,165.052z"/>
	<polygon points="84.117,126.292 88.363,126.292 88.363,101.095 79.186,101.095 79.186,104.874 84.117,104.874 	"/>
	<path d="M67.447,126.4c6.875,0,10.691-4.535,10.691-12.707c0-8.171-3.816-12.706-10.691-12.706
		c-6.912,0-10.726,4.535-10.726,12.706C56.721,121.865,60.535,126.4,67.447,126.4z M67.447,104.335c4.211,0,6.336,2.951,6.336,9.358
		c0,6.372-2.125,9.359-6.336,9.359c-4.248,0-6.371-2.987-6.371-9.359C61.076,107.286,63.199,104.335,67.447,104.335z"/>
	<polygon points="60.393,168.292 64.639,168.292 64.639,143.095 55.461,143.095 55.461,146.874 60.393,146.874 	"/>
	<path d="M330.549,206.095h-46.012l-22.854-14.787c-1.432-0.926-3.1-1.419-4.803-1.419H230.26v-25.784h96.514
		c4.883,0,8.84-3.958,8.84-8.84c0-4.882-3.957-8.84-8.84-8.84H230.26V120.64h26.621c1.703,0,3.371-0.493,4.803-1.418l22.854-14.789
		h46.012c4.883,0,8.84-3.958,8.84-8.84c0-4.882-3.957-8.84-8.84-8.84h-48.621c-1.705,0-3.373,0.493-4.803,1.419l-22.855,14.789
		h-24.01V19.149C230.26,8.59,221.67,0,211.111,0H31.799C21.24,0,12.65,8.59,12.65,19.149v313.742
		c0,10.559,8.59,19.148,19.148,19.148h179.313c10.559,0,19.148-8.59,19.148-19.148V207.57h24.01l22.855,14.787
		c1.43,0.926,3.098,1.419,4.803,1.419h48.621c4.883,0,8.84-3.958,8.84-8.841S335.432,206.095,330.549,206.095z M121.455,320.232
		c-8.541,0-15.465-6.922-15.465-15.464s6.924-15.466,15.465-15.466c8.541,0,15.465,6.924,15.465,15.466
		S129.996,320.232,121.455,320.232z M197.061,206.813c-0.566,0.154-1.18,0.239-1.852,0.239c-4.246,0-6.371-2.988-6.371-9.359
		c0-6.407,2.125-9.358,6.371-9.358c0.672,0,1.285,0.084,1.852,0.236V206.813z M197.061,103.642
		c-1.785-1.738-4.244-2.654-7.322-2.654c-6.912,0-10.727,4.535-10.727,12.706c0,8.171,3.814,12.707,10.727,12.707
		c3.078,0,5.537-0.916,7.322-2.654v21.896c-1.785-1.738-4.244-2.654-7.322-2.654c-6.912,0-10.727,4.535-10.727,12.706
		c0,8.171,3.814,12.707,10.727,12.707c3.078,0,5.537-0.916,7.322-2.654v19.374c-0.594-0.079-1.205-0.133-1.852-0.133
		c-6.91,0-10.727,4.535-10.727,12.706c0,8.172,3.816,12.707,10.727,12.707c0.646,0,1.258-0.053,1.852-0.133v63.274H45.848v-63.25
		h0.539v-25.196h-0.539v-38.221h1.766v21.418h4.246v-25.197h-6.012v-38.221h1.766v21.418h4.246v-25.197h-6.012V35.464h151.213
		V103.642z M196.074,113.693c0,6.372-2.125,9.359-6.336,9.359c-4.248,0-6.371-2.987-6.371-9.359c0-6.407,2.123-9.358,6.371-9.358
		C193.949,104.335,196.074,107.286,196.074,113.693z M196.074,155.693c0,6.372-2.125,9.359-6.336,9.359
		c-4.248,0-6.371-2.987-6.371-9.359c0-6.407,2.123-9.358,6.371-9.358C193.949,146.335,196.074,149.286,196.074,155.693z"/>
	<path d="M98.479,210.4c6.875,0,10.691-4.535,10.691-12.707c0-8.171-3.816-12.706-10.691-12.706
		c-6.912,0-10.727,4.535-10.727,12.706C87.752,205.865,91.566,210.4,98.479,210.4z M98.479,188.335c4.211,0,6.336,2.951,6.336,9.358
		c0,6.371-2.125,9.359-6.336,9.359c-4.248,0-6.371-2.988-6.371-9.359C92.107,191.286,94.23,188.335,98.479,188.335z"/>
</g>
<g>
</g>
<g>
</g>
<g>
</g>
<g>
</g>
<g>
</g>
<g>
</g>
<g>
</g>
<g>
</g>
<g>
</g>
<g>
</g>
<g>
</g>
<g>
</g>
<g>
</g>
<g>
</g>
<g>
</g>
</svg>
