<?xml version="1.0" encoding="iso-8859-1"?>
<!-- Generator: Adobe Illustrator 16.0.0, SVG Export Plug-In . SVG Version: 6.00 Build 0)  -->
<!DOCTYPE svg PUBLIC "-//W3C//DTD SVG 1.1//EN" "http://www.w3.org/Graphics/SVG/1.1/DTD/svg11.dtd">
<svg version="1.1" id="Capa_1" xmlns="http://www.w3.org/2000/svg" xmlns:xlink="http://www.w3.org/1999/xlink" x="0px" y="0px"
	 width="108.727px" height="108.727px" viewBox="0 0 108.727 108.727" style="enable-background:new 0 0 108.727 108.727;"
	 xml:space="preserve">
<g>
	<path d="M0,7.988v92.75h108.727V7.988H0z M93.264,24.488h12.321v-0.5H93.264v-13h12.462v13.517L94.465,37.641
		c-0.344-0.404-0.75-0.754-1.201-1.039V24.488z M93.264,39.488h0.044c0.236,0.443,0.382,0.94,0.382,1.477
		c0,0.569-0.162,1.096-0.427,1.558L93.264,39.488L93.264,39.488z M93.264,45.328c1.453-0.916,2.428-2.523,2.428-4.363
		c0-0.517-0.1-1.006-0.242-1.477h10.137v-0.5H95.295c-0.145-0.349-0.34-0.668-0.555-0.972l0.414,0.355l10.571-12.332v26.204
		l-1.495,1.745H93.264V45.328z M93.264,54.488h10.537l-8.582,10.011c-0.551-0.526-1.214-0.938-1.955-1.187V54.488z M93.264,65.488
		c0.92,0.555,1.543,1.555,1.543,2.704c0,0.276-0.047,0.54-0.113,0.796h-1.431L93.264,65.488L93.264,65.488z M93.264,69.488h1.26
		c-0.268,0.59-0.709,1.077-1.26,1.408V69.488z M85.359,40.944l-7.096,1.212v-2.668h7.334C85.458,39.953,85.361,40.436,85.359,40.944
		z M65.4,39.488h12.364v2.753l-10.414,1.779c0.015-0.162,0.043-0.319,0.043-0.485C67.393,41.887,66.604,40.436,65.4,39.488z
		 M63.264,10.988h14.5v13h-14.5V10.988z M63.264,24.488h14.5v14.5H64.628c-0.427-0.227-0.876-0.415-1.364-0.516V24.488z
		 M63.264,40.557c1.235,0.432,2.129,1.597,2.129,2.978s-0.894,2.545-2.129,2.978V40.557z M63.264,48.597
		c1.848-0.379,3.323-1.752,3.88-3.527l10.62-1.814v10.732h-14.5V48.597z M68.332,69.488h9.433v0.119l-9.298,1.588
		c0.012-0.145,0.044-0.284,0.044-0.434C68.51,70.32,68.438,69.898,68.332,69.488z M78.264,69.488h0.196l-0.196,0.033V69.488z
		 M63.264,54.488h14.5v14.5h-9.588c-0.729-1.975-2.609-3.393-4.833-3.393c-0.026,0-0.052,0.008-0.079,0.008V54.488z M63.264,67.604
		c0.027,0,0.053-0.008,0.079-0.008c1.089,0,2.052,0.553,2.621,1.393h-2.7V67.604z M63.264,69.488h2.973
		c0.174,0.391,0.272,0.82,0.272,1.273c0,1.746-1.421,3.168-3.167,3.168c-0.027,0-0.053-0.008-0.079-0.008L63.264,69.488
		L63.264,69.488z M33.264,10.988h14.5v13h-14.5V10.988z M33.264,24.488h14.5v11.124l-5.02-2.266
		c0.229-0.583,0.365-1.212,0.365-1.875c0-2.849-2.318-5.167-5.167-5.167c-2.076,0-3.857,1.237-4.678,3.007V24.488z M48.264,36.936
		l4.546,2.053h-4.546V36.936z M33.892,58.699c0,0.865,0.234,1.668,0.611,2.387l-1.239,0.676v-7.272h2.82
		C34.763,55.426,33.892,56.961,33.892,58.699z M33.264,39.488h14.5v14.5h-6.605c-0.643-0.288-1.351-0.456-2.1-0.456
		s-1.457,0.168-2.1,0.456h-3.695V39.488z M32.764,39.488v14.5h-14.5v-5.193c0.943-0.937,1.529-2.232,1.529-3.663
		c0-0.795-0.195-1.539-0.518-2.212l6.291-3.432H32.764z M26.484,38.988l6.281-3.426v3.426H26.484z M18.264,70.465
		c0.399,0.529,0.646,1.183,0.646,1.896s-0.246,1.364-0.646,1.896V70.465z M19.627,68.988c-0.387-0.445-0.845-0.818-1.362-1.111
		V54.488h14.5v7.545l-12.75,6.955H19.627z M39.059,55.532c1.746,0,3.167,1.421,3.167,3.167s-1.421,3.167-3.167,3.167
		c-1.746,0-3.167-1.421-3.167-3.167S37.313,55.532,39.059,55.532z M42.034,54.488h5.73v8.086l-3.982-1.798
		c0.282-0.638,0.444-1.337,0.444-2.077C44.226,56.961,43.356,55.426,42.034,54.488z M33.264,38.988v-3.699l0.794-0.433
		c0.944,1.09,2.332,1.782,3.884,1.782c1.829,0,3.43-0.962,4.348-2.399l5.474,2.471v2.278H33.264z M37.943,34.638
		c-1.746,0-3.167-1.421-3.167-3.167s1.421-3.167,3.167-3.167s3.167,1.421,3.167,3.167S39.689,34.638,37.943,34.638z M33.485,34.031
		l-0.22,0.12v-0.52C33.329,33.771,33.409,33.899,33.485,34.031z M18.264,10.988h14.5v13h-14.5V10.988z M18.264,24.488h14.5v9.936
		l-8.367,4.564h-6.133V24.488z M18.264,39.488h5.216l-4.721,2.575c-0.154-0.207-0.311-0.413-0.494-0.595L18.264,39.488
		L18.264,39.488z M17.764,97.738H3v-13.6l0.141-0.123v0.473h14.624L17.764,97.738L17.764,97.738z M17.764,83.988H3.173l9.031-7.884
		c0.926,0.876,2.167,1.422,3.539,1.422c0.717,0,1.4-0.147,2.021-0.413V83.988z M17.764,74.776c-0.55,0.461-1.25,0.75-2.021,0.75
		c-1.746,0-3.167-1.421-3.167-3.167c0-1.273,0.761-2.369,1.85-2.871h2.635c0.257,0.118,0.49,0.273,0.704,0.454L17.764,74.776
		L17.764,74.776z M17.764,67.605c-0.622-0.266-1.304-0.413-2.021-0.413c-1.555,0-2.936,0.705-3.884,1.796H3.14v0.5h8.311
		c-0.552,0.822-0.875,1.811-0.875,2.871c0,1.117,0.365,2.146,0.97,2.992L3,82.812V56.317l2.096-1.829h12.669L17.764,67.605
		L17.764,67.605z M17.764,53.988H5.668l5.643-4.926c0.9,0.76,2.047,1.236,3.315,1.236c1.186,0,2.265-0.417,3.138-1.091V53.988z
		 M17.764,45.417c-0.146,1.61-1.49,2.882-3.138,2.882c-1.746,0-3.167-1.421-3.167-3.167s1.421-3.167,3.167-3.167
		c1.648,0,2.992,1.271,3.138,2.882V45.417z M17.764,23.988H3.14v0.5h14.624v14.5H3.14v0.5h14.624v1.567
		c-0.873-0.674-1.953-1.091-3.138-1.091c-2.849,0-5.167,2.318-5.167,5.167c0,1.22,0.443,2.328,1.153,3.213l-6.465,5.644H3.14v0.5
		h0.434L2.999,54.99V10.988h14.765V23.988z M32.764,97.738h-14.5v-13.25h14.5V97.738z M32.764,83.988h-14.5v-7.146
		c1.57-0.889,2.646-2.554,2.646-4.481c0-0.865-0.224-1.677-0.602-2.394l0.875-0.479h11.581V83.988z M22.1,68.988l10.664-5.816v5.816
		H22.1z M47.764,97.738h-14.5v-13.25h14.5V97.738z M47.764,83.988h-14.5v-14.5h14.5V83.988z M33.264,68.988v-6.09l1.79-0.977
		c0.948,1.176,2.381,1.943,4.005,1.943c1.75,0,3.294-0.88,4.229-2.215l4.476,2.021v5.315L33.264,68.988L33.264,68.988z
		 M48.264,63.897l10.419,4.704c-0.06,0.128-0.125,0.253-0.174,0.387H48.264V63.897z M62.764,97.738h-14.5v-13.25h14.5V97.738z
		 M62.764,83.988h-14.5v-14.5h10.09c-0.104,0.41-0.178,0.832-0.178,1.273c0,2.65,2.014,4.816,4.588,5.108V83.988z M62.764,73.871
		c-1.47-0.273-2.588-1.561-2.588-3.107c0-0.455,0.1-0.885,0.271-1.274h2.316V73.871z M62.764,68.988h-2.042
		c0.466-0.688,1.196-1.177,2.042-1.334V68.988z M62.764,65.654c-1.47,0.166-2.75,0.943-3.579,2.076l-10.921-4.932v-8.312h14.5
		V65.654z M62.764,53.988h-14.5v-14.5h5.653l3.731,1.685c-0.373,0.706-0.59,1.507-0.59,2.362c0,2.849,2.318,5.167,5.167,5.167
		c0.185,0,0.359-0.035,0.538-0.055V53.988z M58.205,40.326l-1.856-0.838h2.704C58.738,39.734,58.455,40.016,58.205,40.326z
		 M62.764,46.647c-0.176,0.03-0.354,0.055-0.538,0.055c-1.745,0-3.167-1.421-3.167-3.167s1.422-3.167,3.167-3.167
		c0.185,0,0.362,0.024,0.538,0.055V46.647z M62.764,38.423c-0.179-0.02-0.354-0.055-0.538-0.055c-0.872,0-1.681,0.237-2.401,0.62
		h-4.583l-6.978-3.15v-11.35h14.5L62.764,38.423L62.764,38.423z M62.764,23.988h-14.5v-13h14.5V23.988z M77.764,97.738h-14.5v-13.25
		h14.5V97.738z M63.264,83.988v-8.066c0.027,0,0.053,0.008,0.079,0.008c2.331,0,4.283-1.562,4.924-3.686l9.497-1.622v13.366H63.264z
		 M92.764,97.738h-14.5v-13.25h14.5V97.738z M92.764,83.988h-14.5V70.537l6.139-1.049h2.256c0.578,2.22,2.582,3.871,4.981,3.871
		c0.388,0,0.761-0.051,1.124-0.131V83.988z M92.764,71.144c-0.352,0.134-0.727,0.216-1.124,0.216c-1.284,0-2.386-0.771-2.883-1.871
		h4.006L92.764,71.144L92.764,71.144z M92.764,68.988h-4.177c-0.067-0.256-0.114-0.52-0.114-0.796c0-1.746,1.421-3.167,3.167-3.167
		c0.397,0,0.772,0.082,1.124,0.216V68.988z M92.764,63.156c-0.363-0.081-0.736-0.131-1.124-0.131c-2.823,0-5.118,2.279-5.159,5.093
		l-5.094,0.87h-3.124v-14.5h14.5L92.764,63.156L92.764,63.156z M92.764,53.988h-14.5V43.171l7.191-1.229
		c0.459,2.382,2.554,4.189,5.068,4.189c0.805,0,1.56-0.202,2.239-0.532L92.764,53.988L92.764,53.988z M92.764,43.201
		c-0.574,0.574-1.365,0.931-2.24,0.931c-1.746,0-3.166-1.421-3.166-3.167c0-0.536,0.146-1.033,0.381-1.477h5.025V43.201z
		 M92.764,38.988H88.07c0.58-0.72,1.459-1.19,2.453-1.19c0.875,0,1.668,0.356,2.24,0.931V38.988z M92.764,36.33
		c-0.681-0.33-1.434-0.532-2.24-0.532c-2.148,0-3.992,1.32-4.771,3.19h-7.489v-14.5h14.5V36.33z M92.764,23.988h-14.5v-13h14.5
		V23.988z M93.264,97.738v-13.25h12.321v-0.5H93.264V73.072c1.646-0.55,2.917-1.893,3.357-3.584h8.964v-0.5h-8.858
		c0.041-0.262,0.081-0.523,0.081-0.796c0-1.091-0.349-2.095-0.931-2.924l9.24-10.78h0.469v-0.5h-0.039l0.18-0.21v43.96H93.264z"/>
</g>
<g>
</g>
<g>
</g>
<g>
</g>
<g>
</g>
<g>
</g>
<g>
</g>
<g>
</g>
<g>
</g>
<g>
</g>
<g>
</g>
<g>
</g>
<g>
</g>
<g>
</g>
<g>
</g>
<g>
</g>
</svg>
