<?xml version="1.0" encoding="iso-8859-1"?>
<!-- Generator: Adobe Illustrator 16.0.0, SVG Export Plug-In . SVG Version: 6.00 Build 0)  -->
<!DOCTYPE svg PUBLIC "-//W3C//DTD SVG 1.1//EN" "http://www.w3.org/Graphics/SVG/1.1/DTD/svg11.dtd">
<svg version="1.1" id="Capa_1" xmlns="http://www.w3.org/2000/svg" xmlns:xlink="http://www.w3.org/1999/xlink" x="0px" y="0px"
	 width="109.814px" height="109.814px" viewBox="0 0 109.814 109.814" style="enable-background:new 0 0 109.814 109.814;"
	 xml:space="preserve">
<g>
	<path d="M52.996,11.231l5.39,1.806l-1.807,5.389L51.19,16.62L52.996,11.231z M56.155,1.807L50.766,0l-1.807,5.39l5.389,1.807
		L56.155,1.807z M70.469,9.6l-5.392-1.808l-1.808,5.39l5.392,1.808L70.469,9.6z M83.017,25.799l1.809-5.389l-5.389-1.808
		l-1.723,5.136l-5.389-1.807l1.723-5.134l-5.391-1.808l-1.808,5.39l5.39,1.806l-1.722,5.135l5.39,1.808l1.722-5.136L83.017,25.799z
		 M66.795,20.547l-5.39-1.807l-1.809,5.389l5.391,1.807l-1.664,4.967l5.39,1.807l1.807-5.39l-5.389-1.807L66.795,20.547z
		 M93.262,68.206c-1.347-0.292-2.683,0.56-2.978,1.908l-2.375,10.867H40.237L23.282,26.242c-0.324-1.047-1.292-1.761-2.388-1.761
		h-10.5c-1.381,0-2.5,1.119-2.5,2.5c0,1.381,1.119,2.5,2.5,2.5h8.657l16.955,54.739c0.324,1.047,1.292,1.761,2.388,1.761h51.528
		c1.176,0,2.19-0.818,2.442-1.966l2.806-12.834C95.465,69.834,94.61,68.502,93.262,68.206z M101.346,36.885
		c-0.476-0.572-1.181-0.903-1.924-0.903H79.603l1.693-5.047l-5.389-1.807l-1.807,5.39l4.367,1.464H73.61l0.34-1.014L68.56,33.16
		l-0.945,2.821H40.394c-1.381,0-2.5,1.119-2.5,2.5c0,1.381,1.119,2.5,2.5,2.5h56.016l-3.562,19H55.394c-1.381,0-2.5,1.118-2.5,2.5
		c0,1.381,1.119,2.5,2.5,2.5h39.528c1.202,0,2.235-0.856,2.457-2.039l4.5-24C102.015,38.212,101.821,37.457,101.346,36.885z
		 M52.394,100.648c0,5.054-4.112,9.166-9.167,9.166c-5.055,0-9.167-4.112-9.167-9.166c0-5.055,4.113-9.167,9.167-9.167
		C48.282,91.481,52.394,95.594,52.394,100.648z M47.394,100.648c0-2.299-1.869-4.167-4.167-4.167c-2.298,0-4.167,1.868-4.167,4.167
		c0,2.297,1.87,4.166,4.167,4.166C45.525,104.814,47.394,102.945,47.394,100.648z M90.256,100.648c0,5.054-4.111,9.166-9.166,9.166
		c-5.056,0-9.168-4.112-9.168-9.166c0-5.055,4.112-9.167,9.168-9.167C86.142,91.481,90.256,95.594,90.256,100.648z M85.256,100.648
		c0-2.299-1.869-4.167-4.166-4.167c-2.3,0-4.168,1.868-4.168,4.167c0,2.297,1.87,4.166,4.168,4.166
		C83.387,104.814,85.256,102.945,85.256,100.648z"/>
</g>
<g>
</g>
<g>
</g>
<g>
</g>
<g>
</g>
<g>
</g>
<g>
</g>
<g>
</g>
<g>
</g>
<g>
</g>
<g>
</g>
<g>
</g>
<g>
</g>
<g>
</g>
<g>
</g>
<g>
</g>
</svg>
