<?xml version="1.0" encoding="iso-8859-1"?>
<!-- Generator: Adobe Illustrator 18.0.0, SVG Export Plug-In . SVG Version: 6.00 Build 0)  -->
<!DOCTYPE svg PUBLIC "-//W3C//DTD SVG 1.1//EN" "http://www.w3.org/Graphics/SVG/1.1/DTD/svg11.dtd">
<svg version="1.1" id="Capa_1" xmlns="http://www.w3.org/2000/svg" xmlns:xlink="http://www.w3.org/1999/xlink" x="0px" y="0px"
	 viewBox="0 0 349 349" style="enable-background:new 0 0 349 349;" xml:space="preserve">
<g>
	<path d="M344,32.039H5c-2.761,0-5,2.239-5,5v226.053c0,2.761,2.239,5,5,5h108.982v16.617l-21.531,23.907
		c-1.322,1.467-1.656,3.575-0.853,5.379c0.804,1.804,2.593,2.967,4.568,2.967h156.667c0.007,0,0.013,0,0.02,0c2.761,0,5-2.239,5-5
		c0-1.426-0.597-2.712-1.554-3.622l-21.282-23.63v-16.617H344c2.761,0,5-2.239,5-5V37.039C349,34.277,346.761,32.039,344,32.039z
		 M320,239.091H29V61.039h291V239.091z"/>
	<path d="M96.98,168.58l4.511-3.94l4.328,4.141l1.625,1.555l15.262,14.607l32.524-28.031l-3.144-3.807
		c-1.858-2.242-2.406-5.34-1.43-8.081c0.971-2.727,3.334-4.782,6.181-5.363l40.498-8.196c0.541-0.109,1.095-0.165,1.646-0.165
		c2.493,0,4.83,1.102,6.414,3.025c1.946,2.363,2.436,5.594,1.271,8.444l-15.721,38.224c-1.105,2.675-3.569,4.608-6.431,5.044
		l-0.028,0.004l-0.028,0.004c-0.403,0.058-0.794,0.086-1.194,0.086c-2.488,0-4.824-1.102-6.406-3.02l-4.146-5.021l-38.048,25.767
		c1.79,0.221,3.608,0.348,5.458,0.348h81.96c24.402,0,44.184-19.78,44.184-44.184c0-24.402-19.782-44.182-44.184-44.182
		c-5.388,0-10.547,0.964-15.319,2.728c-4.697-19.359-22.137-33.734-42.938-33.734c-21.468,0-39.356,15.311-43.351,35.606
		c-14.543,7.234-24.535,22.239-24.535,39.583c0,2.983,0.3,5.895,0.863,8.712L96.98,168.58z"/>
	<path d="M119.314,202.141l2.228,2.693l3.289-2.227l49.142-33.28l7.938,9.615c0.338,0.41,0.837,0.64,1.354,0.64
		c0.09,0,0.174-0.007,0.263-0.02c0.611-0.093,1.128-0.499,1.363-1.069l15.717-38.215c0.246-0.6,0.144-1.287-0.269-1.788
		c-0.337-0.409-0.837-0.639-1.357-0.639c-0.115,0-0.232,0.012-0.349,0.035l-40.497,8.196c-0.607,0.124-1.101,0.556-1.308,1.138
		c-0.208,0.583-0.093,1.229,0.301,1.705l7.234,8.763l-41.89,36.103l-19.561-18.722l-1.625-1.554l-1.49,1.302l-30.08,26.286
		l31.066-21.353L119.314,202.141z"/>
</g>
<g>
</g>
<g>
</g>
<g>
</g>
<g>
</g>
<g>
</g>
<g>
</g>
<g>
</g>
<g>
</g>
<g>
</g>
<g>
</g>
<g>
</g>
<g>
</g>
<g>
</g>
<g>
</g>
<g>
</g>
</svg>
