<?xml version="1.0" encoding="iso-8859-1"?>
<!-- Generator: Adobe Illustrator 16.0.0, SVG Export Plug-In . SVG Version: 6.00 Build 0)  -->
<!DOCTYPE svg PUBLIC "-//W3C//DTD SVG 1.1//EN" "http://www.w3.org/Graphics/SVG/1.1/DTD/svg11.dtd">
<svg version="1.1" id="Capa_1" xmlns="http://www.w3.org/2000/svg" xmlns:xlink="http://www.w3.org/1999/xlink" x="0px" y="0px"
	 width="89.004px" height="89.004px" viewBox="0 0 89.004 89.004" style="enable-background:new 0 0 89.004 89.004;"
	 xml:space="preserve">
<g>
	<g>
		<path d="M36.213,20.231c12.741,0,27.619-2.649,27.619-10.115C63.832,2.65,48.954,0,36.213,0S8.593,2.649,8.593,10.115
			C8.593,17.581,23.472,20.231,36.213,20.231z M36.213,2.777c13.93,0,24.842,3.223,24.842,7.338c0,4.115-10.912,7.338-24.842,7.338
			c-13.931,0-24.843-3.223-24.843-7.338C11.37,6,22.282,2.777,36.213,2.777z"/>
		<path d="M64.546,47.666l-0.001-31.145l-3.107,2.068c-3.43,2.282-12.559,4.584-25.225,4.584c-12.668,0-21.797-2.302-25.224-4.583
			l-3.108-2.07L7.879,70.604c0,0.545,0,2.383,0,2.793c0,7.787,14.688,11.334,28.334,11.334c3.583,0,7.232-0.25,10.673-0.754
			l-0.11,0.133c3.76,3.156,8.531,4.895,13.437,4.895c11.532,0,20.913-9.375,20.913-20.898
			C81.124,58.137,74.125,49.675,64.546,47.666z M60.211,85.977c-3.846,0-7.585-1.261-10.66-3.548
			c-3.468-3.364-5.63-8.067-5.63-13.28c0-10.229,8.293-18.522,18.522-18.522c0.641,0,1.27,0.044,1.893,0.108
			C72.311,52.609,78.1,59.729,78.1,68.105C78.1,77.959,70.074,85.977,60.211,85.977z"/>
		<path d="M74.486,69.936c-0.072-0.324-0.164-0.729-0.295-1.017c-0.146-0.419-0.321-0.74-0.474-1.003
			c-0.129-0.254-0.267-0.443-0.397-0.627c-0.055-0.076-0.109-0.153-0.187-0.264l-0.121-0.155l0.003-0.015
			c0.355-1.272-0.003-2.645-0.936-3.576l-5.078-5.078c-0.656-0.656-1.532-1.035-2.466-1.066l-0.039-0.002l0.012-0.038
			c0.263-0.866,0.033-1.795-0.597-2.425c-0.948-0.948-2.491-0.948-3.44,0l-2.12,2.123c-0.949,0.948-0.949,2.491,0,3.438
			c0.61,0.611,1.518,0.848,2.363,0.614l0.037-0.01l0.001,0.04c0.021,0.949,0.399,1.839,1.067,2.507l1.256,1.255L50.252,77.462
			c-1.143,1.142-1.288,2.151-0.438,3.004c0.854,0.853,1.863,0.706,3.004-0.437l12.828-12.825l0.818,0.819
			c0.79,0.791,2.53,1.744,3.925,1.392l0.021-0.004l0.079,0.103c0.076,0.096,0.152,0.192,0.242,0.318
			c0.115,0.146,0.238,0.326,0.381,0.535c0.072,0.093,0.133,0.197,0.203,0.32c0.045,0.078,0.092,0.157,0.135,0.22
			c0.046,0.065,0.07,0.12,0.109,0.206l0.073,0.146c0.07,0.12,0.106,0.184,0.118,0.246c0.018,0.074,0.046,0.145,0.086,0.207
			l-0.006,0.003c0.049,0.114,0.1,0.232,0.127,0.405l0.08,0.334l0.023,0.271c0.008,0.129,0.017,0.225,0.024,0.291l0.004,0.032
			c0.002,0.068-0.007,0.134-0.017,0.211l-0.008,0.082c-0.011,0.112-0.017,0.192-0.021,0.272l-0.009,0.14
			c-0.019,0.247,0.11,0.481,0.329,0.595c0.222,0.113,0.486,0.084,0.678-0.074l0.352-0.308c0.08-0.071,0.158-0.145,0.262-0.265
			c0.065-0.088,0.154-0.221,0.25-0.367l0.101-0.156c0.062-0.093,0.122-0.188,0.188-0.338l0.17-0.469
			c0.141-0.367,0.176-0.749,0.215-1.18C74.6,70.838,74.574,70.457,74.486,69.936z"/>
	</g>
</g>
<g>
</g>
<g>
</g>
<g>
</g>
<g>
</g>
<g>
</g>
<g>
</g>
<g>
</g>
<g>
</g>
<g>
</g>
<g>
</g>
<g>
</g>
<g>
</g>
<g>
</g>
<g>
</g>
<g>
</g>
</svg>
