<?xml version="1.0" encoding="iso-8859-1"?>
<!-- Generator: Adobe Illustrator 18.0.0, SVG Export Plug-In . SVG Version: 6.00 Build 0)  -->
<!DOCTYPE svg PUBLIC "-//W3C//DTD SVG 1.1//EN" "http://www.w3.org/Graphics/SVG/1.1/DTD/svg11.dtd">
<svg version="1.1" id="Capa_1" xmlns="http://www.w3.org/2000/svg" xmlns:xlink="http://www.w3.org/1999/xlink" x="0px" y="0px"
	 viewBox="0 0 380.426 380.426" style="enable-background:new 0 0 380.426 380.426;" xml:space="preserve">
<g>
	<rect x="275.982" y="23.642" width="66.49" height="23.867"/>
	<rect x="0" y="96.527" width="66.49" height="23.867"/>
	<rect x="314.789" y="333.77" width="65.638" height="23.015"/>
	<path d="M283.326,332.768c23.874-2.867,45.435-11.734,48.415-26.173l-0.003-16.072c0-4.866-2.047-9.177-5.589-12.922
		c2.876-2.935,4.838-6.228,5.592-9.883l-0.003-16.073c0-4.868-2.047-9.18-5.589-12.923c2.876-2.934,4.838-6.225,5.592-9.882
		l-0.003-16.073c0-4.87-2.047-9.179-5.589-12.923c2.876-2.933,4.838-6.228,5.592-9.882l-0.003-16.076
		c0-15.439-20.453-25.342-44.499-28.977l-0.001-12.568c0-6.197-2.603-11.687-7.114-16.451c3.66-3.736,6.156-7.929,7.117-12.581
		l-0.003-20.465c0-16.414-18.155-27.913-41.967-33.956l8.267-11.179h18.957v-4.263h-21.107l-10.629,14.375
		c-11.661-2.554-24.429-3.862-36.954-3.862c-40.446,0-83.432,13.626-83.432,38.889l0.019,20.033l0.044,0.428
		c0.959,4.636,3.438,8.816,7.072,12.539c-1.65,1.742-3.041,3.582-4.148,5.515c-0.997-0.019-1.994-0.031-2.988-0.031
		c-5.322,0-10.693,0.276-15.979,0.813L92.697,106.33H71.59v4.263h18.957l8.971,12.13c-27.586,3.708-51.553,14.784-51.553,32.354
		l0.017,17.386l0.041,0.37c0.833,4.022,2.983,7.651,6.136,10.884c-3.929,4.144-6.193,8.921-6.193,14.309l0.017,17.389l0.041,0.367
		c0.833,4.025,2.983,7.652,6.136,10.886c-3.929,4.145-6.193,8.919-6.193,14.31l0.017,17.386l0.041,0.371
		c0.833,4.026,2.983,7.652,6.136,10.885c-3.929,4.143-6.193,8.918-6.193,14.311l0.017,17.386l0.041,0.369
		c4.071,19.726,39.478,30.045,72.348,30.045c32.866,0,68.334-10.319,72.403-30.045v-15.608c2.808,0.169,5.618,0.27,8.419,0.31
		c-0.337,1.332-0.533,2.707-0.533,4.135l0.017,15.738l0.037,0.334c3.684,17.858,35.734,27.197,65.484,27.197
		c4.048,0,8.139-0.179,12.196-0.523l10.454,14.138h21.106v-4.263h-18.957L283.326,332.768z M266.199,228.874
		c-31.696,0-51.098-10.429-51.098-16.107c0-1.372,1.151-3.021,3.315-4.734c12.799,6.027,30.667,9.125,47.782,9.125
		c17.105,0,34.985-3.092,47.796-9.114c2.153,1.708,3.302,3.354,3.302,4.723C317.297,218.445,297.895,228.874,266.199,228.874z
		 M317.297,251.645c0,5.677-19.403,16.107-51.099,16.107c-31.696,0-51.098-10.43-51.098-16.107c0-1.372,1.151-3.021,3.315-4.731
		c12.799,6.025,30.667,9.125,47.782,9.125c17.105,0,34.985-3.096,47.796-9.117C316.148,248.629,317.297,250.274,317.297,251.645z
		 M317.297,173.885c0,5.683-19.403,16.108-51.099,16.108c-31.696,0-51.098-10.425-51.098-16.108
		c0-5.676,19.401-16.105,51.098-16.105C297.895,157.78,317.297,168.209,317.297,173.885z M203.804,62.34
		c40.35,0,65.051,13.277,65.051,20.503c0,7.231-24.701,20.505-65.051,20.505c-40.351,0-65.05-13.274-65.05-20.505
		C138.754,75.617,163.454,62.34,203.804,62.34z M120.371,301.724c-35.019,0-56.453-11.521-56.453-17.792
		c0-1.519,1.273-3.34,3.662-5.232c14.142,6.661,33.88,10.083,52.791,10.083c18.896,0,38.649-3.421,52.805-10.068
		c2.378,1.884,3.646,3.704,3.646,5.218C176.821,290.204,155.385,301.724,120.371,301.724z M120.371,258.773
		c-35.019,0-56.453-11.523-56.453-17.794c0-1.517,1.273-3.337,3.662-5.229c14.142,6.656,33.88,10.083,52.791,10.083
		c18.896,0,38.649-3.422,52.805-10.071c2.378,1.885,3.646,3.703,3.646,5.216C176.821,247.251,155.385,258.773,120.371,258.773z
		 M120.371,215.821c-35.019,0-56.453-11.521-56.453-17.795c0-1.516,1.273-3.337,3.662-5.227
		c14.142,6.658,33.88,10.082,52.791,10.082c18.896,0,38.649-3.418,52.805-10.07c2.378,1.888,3.646,3.703,3.646,5.215
		C176.821,204.299,155.385,215.821,120.371,215.821z M120.371,172.869c-35.019,0-56.453-11.518-56.453-17.795
		c0-6.27,21.435-17.791,56.453-17.791c35.015,0,56.45,11.52,56.45,17.791C176.821,161.351,155.385,172.869,120.371,172.869z
		 M200.66,251.647l0.001,0.153c-2.703-0.047-5.336-0.149-7.887-0.309v-10.512c0-1.53-0.202-3.004-0.554-4.434
		c3.864,0.245,7.739,0.374,11.584,0.374c0.295,0,0.593-0.009,0.889-0.01c0.491,0.606,1.009,1.204,1.573,1.783
		C202.71,242.444,200.66,246.766,200.66,251.647z M204.187,202.337c-0.129,0.001-0.253,0.004-0.383,0.004
		c-3.82,0-7.499-0.12-11.03-0.341v-3.974c0-4.094-1.317-7.826-3.669-11.2c3.85,0.31,7.717,0.501,11.57,0.568l0.003,2.232
		l0.037,0.335c0.751,3.643,2.699,6.927,5.551,9.85C205.496,200.626,204.811,201.47,204.187,202.337z M203.804,152.844
		c-3.893,0-7.636-0.126-11.229-0.356c-0.859-6.186-4.783-11.499-10.786-15.895c7.26,0.883,14.69,1.34,22.015,1.34
		c21.774,0,44.538-3.94,60.85-11.604c2.741,2.173,4.202,4.268,4.202,6.012C268.855,139.568,244.154,152.844,203.804,152.844z
		 M266.199,306.628c-31.696,0-51.098-10.428-51.098-16.104c0-1.374,1.151-3.021,3.315-4.733c12.799,6.029,30.667,9.127,47.782,9.127
		c17.105,0,34.985-3.098,47.796-9.115c2.153,1.708,3.302,3.353,3.302,4.721C317.297,296.2,297.895,306.628,266.199,306.628z"/>
</g>
<g>
</g>
<g>
</g>
<g>
</g>
<g>
</g>
<g>
</g>
<g>
</g>
<g>
</g>
<g>
</g>
<g>
</g>
<g>
</g>
<g>
</g>
<g>
</g>
<g>
</g>
<g>
</g>
<g>
</g>
</svg>
