<?xml version="1.0" encoding="iso-8859-1"?>
<!-- Generator: Adobe Illustrator 16.0.0, SVG Export Plug-In . SVG Version: 6.00 Build 0)  -->
<!DOCTYPE svg PUBLIC "-//W3C//DTD SVG 1.1//EN" "http://www.w3.org/Graphics/SVG/1.1/DTD/svg11.dtd">
<svg version="1.1" id="Capa_1" xmlns="http://www.w3.org/2000/svg" xmlns:xlink="http://www.w3.org/1999/xlink" x="0px" y="0px"
	 width="111.226px" height="111.226px" viewBox="0 0 111.226 111.226" style="enable-background:new 0 0 111.226 111.226;"
	 xml:space="preserve">
<g>
	<path d="M55.675,43.674c10.917,0,19.795-8.88,19.795-19.796c0-10.915-8.879-19.795-19.795-19.795s-19.796,8.88-19.796,19.795
		C35.879,34.794,44.759,43.674,55.675,43.674z M55.675,7.794c8.87,0,16.084,7.216,16.084,16.084c0,8.869-7.215,16.085-16.084,16.085
		S39.59,32.747,39.59,23.878C39.59,15.009,46.805,7.794,55.675,7.794z M91.429,67.55c-10.916,0-19.795,8.881-19.795,19.797
		c0,10.914,8.879,19.795,19.795,19.795s19.797-8.881,19.797-19.795C111.226,76.43,102.345,67.55,91.429,67.55z M91.429,103.43
		c-8.869,0-16.084-7.217-16.084-16.084c0-8.868,7.216-16.086,16.084-16.086c8.869,0,16.086,7.218,16.086,16.086
		C107.515,96.215,100.301,103.43,91.429,103.43z M19.795,67.55C8.88,67.55,0,76.431,0,87.347c0,10.914,8.88,19.795,19.795,19.795
		S39.59,98.261,39.59,87.347C39.59,76.43,30.71,67.55,19.795,67.55z M19.795,103.43c-8.868,0-16.084-7.217-16.084-16.084
		c0-8.868,7.216-16.086,16.084-16.086c8.868,0,16.084,7.218,16.084,16.086C35.879,96.215,28.663,103.43,19.795,103.43z
		 M69.617,42.552l12.668,22l-3.217,1.854l-12.668-22L69.617,42.552z M39.67,42.549l3.217,1.852L30.222,66.404l-3.217-1.854
		L39.67,42.549z M43.679,85.492h24.333v3.711H43.679V85.492z M53.06,26.716h5.438l1.938,5.705h3.961l-6.658-19.519h-3.815
		l-6.63,19.519h3.884L53.06,26.716z M55.48,19.159c0.098-0.303,0.191-0.613,0.286-0.938c0.097,0.318,0.199,0.645,0.312,0.979
		l1.467,4.307h-3.534L55.48,19.159z M24.633,86.445c1.351-0.931,2.146-2.345,2.146-3.929c0-1.59-0.617-2.889-1.762-3.737
		c-1.257-1.021-2.926-1.474-5.413-1.474c-1.573,0-3.267,0.147-4.42,0.394l-0.549,0.113v19.002l0.595,0.082
		c0.598,0.084,1.876,0.225,3.729,0.225c3.15,0,5.354-0.613,6.749-1.891c1.157-1.123,1.745-2.511,1.745-4.13
		C27.454,88.777,26.13,87.257,24.633,86.445z M18.358,80.551c0.383-0.043,0.844-0.063,1.381-0.063c3.291,0,3.291,1.649,3.291,2.271
		c0,1.43-1.271,2.352-3.237,2.352h-1.435V80.551z M19.631,93.91c-0.515,0-0.936-0.012-1.272-0.035v-5.607h1.246
		c1.489,0,3.992,0.363,3.992,2.809C23.596,93.417,21.441,93.91,19.631,93.91z M85.64,87.439c0,4.135,2.347,6.604,6.279,6.604
		c1.303,0,2.651-0.262,3.521-0.686l0.758-0.369l0.838,3.219l-0.502,0.248c-0.906,0.453-2.719,0.934-5.101,0.934
		c-5.86,0-9.649-3.871-9.649-9.865c0-6.016,4.182-10.217,10.164-10.217c2.723,0,4.229,0.678,4.625,0.887l0.502,0.264l-0.957,3.236
		l-0.732-0.356c-0.525-0.255-1.658-0.685-3.355-0.685C88.029,80.652,85.64,83.189,85.64,87.439z"/>
</g>
<g>
</g>
<g>
</g>
<g>
</g>
<g>
</g>
<g>
</g>
<g>
</g>
<g>
</g>
<g>
</g>
<g>
</g>
<g>
</g>
<g>
</g>
<g>
</g>
<g>
</g>
<g>
</g>
<g>
</g>
</svg>
