<?xml version="1.0" encoding="iso-8859-1"?>
<!-- Generator: Adobe Illustrator 16.0.0, SVG Export Plug-In . SVG Version: 6.00 Build 0)  -->
<!DOCTYPE svg PUBLIC "-//W3C//DTD SVG 1.1//EN" "http://www.w3.org/Graphics/SVG/1.1/DTD/svg11.dtd">
<svg version="1.1" id="Capa_1" xmlns="http://www.w3.org/2000/svg" xmlns:xlink="http://www.w3.org/1999/xlink" x="0px" y="0px"
	 width="82.54px" height="82.54px" viewBox="0 0 82.54 82.54" style="enable-background:new 0 0 82.54 82.54;" xml:space="preserve"
	>
<g>
	<g>
		<path d="M41.27,18.852c13.646,0,28.333-2.95,28.333-9.426C69.603,2.95,54.917,0,41.27,0C27.624,0,12.936,2.95,12.936,9.426
			C12.936,15.902,27.624,18.852,41.27,18.852z"/>
		<path d="M69.604,68.414l-0.002-54.083l-3.107,2.068c-3.43,2.282-12.559,4.584-25.225,4.584c-12.668,0-21.797-2.302-25.224-4.583
			l-3.108-2.07l-0.002,54.084c0,0.544,0,2.381,0,2.793c0,7.787,14.688,11.333,28.334,11.333c13.646,0,28.333-3.547,28.333-11.333
			C69.603,70.797,69.604,68.959,69.604,68.414z M41.27,24.983c9.914,0,18.786-1.361,24.334-3.647v43.68
			c-5.296-3.5-15.053-5.142-24.334-5.142c-9.28,0-19.037,1.644-24.334,5.142v-43.68C22.483,23.622,31.354,24.983,41.27,24.983z"/>
	</g>
</g>
<g>
</g>
<g>
</g>
<g>
</g>
<g>
</g>
<g>
</g>
<g>
</g>
<g>
</g>
<g>
</g>
<g>
</g>
<g>
</g>
<g>
</g>
<g>
</g>
<g>
</g>
<g>
</g>
<g>
</g>
</svg>
