<?xml version="1.0" encoding="iso-8859-1"?>
<!-- Generator: Adobe Illustrator 16.0.0, SVG Export Plug-In . SVG Version: 6.00 Build 0)  -->
<!DOCTYPE svg PUBLIC "-//W3C//DTD SVG 1.1//EN" "http://www.w3.org/Graphics/SVG/1.1/DTD/svg11.dtd">
<svg version="1.1" id="Capa_1" xmlns="http://www.w3.org/2000/svg" xmlns:xlink="http://www.w3.org/1999/xlink" x="0px" y="0px"
	 width="93.528px" height="93.528px" viewBox="0 0 93.528 93.528" style="enable-background:new 0 0 93.528 93.528;"
	 xml:space="preserve">
<g>
	<g>
		<polygon points="4.514,0 4.514,62.348 9.514,62.348 9.514,5 84.014,5 84.014,62.348 89.014,62.348 89.014,0 		"/>
		<path d="M32.887,37.472c0.372,0.684,1.076,1.071,1.803,1.071c0.331,0,0.666-0.08,0.977-0.249c0.994-0.54,1.363-1.784,0.822-2.779
			l-4.863-8.955c-0.289-0.532-0.799-0.909-1.392-1.03c-0.595-0.121-1.21,0.028-1.684,0.404l-8.253,6.558
			c-0.886,0.704-1.034,1.993-0.33,2.879c0.704,0.886,1.994,1.033,2.879,0.329l3.75-2.979L22.53,57.122
			c-0.187,1.117,0.568,2.172,1.684,2.358c0.114,0.02,0.228,0.027,0.339,0.027c0.984,0,1.852-0.709,2.019-1.711l4.075-24.45
			L32.887,37.472z"/>
		<path d="M77.223,35.33l-8.252-6.558c-0.475-0.376-1.089-0.524-1.684-0.404c-0.594,0.121-1.104,0.498-1.393,1.03l-4.863,8.955
			c-0.541,0.995-0.172,2.239,0.822,2.779c0.311,0.169,0.646,0.249,0.977,0.249c0.728,0,1.432-0.388,1.804-1.071l2.239-4.125
			l4.076,24.45c0.166,1.002,1.035,1.713,2.019,1.713c0.112,0,0.226-0.01,0.339-0.028c1.116-0.187,1.871-1.242,1.686-2.358
			L70.924,35.56l3.75,2.979c0.885,0.704,2.175,0.557,2.879-0.33C78.258,37.324,78.11,36.035,77.223,35.33z"/>
		<path d="M41.652,52.316c-0.289-0.532-0.799-0.909-1.392-1.03c-0.595-0.121-1.21,0.028-1.684,0.403l-8.252,6.559
			c-0.886,0.705-1.034,1.994-0.33,2.879c0.704,0.887,1.994,1.034,2.879,0.33l3.75-2.979l-4.067,24.4
			c-0.186,1.117,0.568,2.172,1.685,2.358c0.114,0.019,0.227,0.028,0.339,0.028c0.984,0,1.852-0.711,2.019-1.713l4.075-24.449
			l2.24,4.125c0.371,0.684,1.075,1.07,1.803,1.07c0.33,0,0.665-0.08,0.976-0.248c0.994-0.541,1.363-1.785,0.823-2.779L41.652,52.316
			z"/>
		<path d="M68.616,66.512l-8.252-6.559c-0.475-0.376-1.088-0.523-1.685-0.404c-0.593,0.121-1.103,0.498-1.392,1.03l-4.863,8.955
			c-0.541,0.995-0.172,2.239,0.822,2.778c0.311,0.17,0.646,0.25,0.976,0.25c0.728,0,1.433-0.389,1.804-1.072l2.239-4.124
			l4.075,24.448c0.167,1.002,1.035,1.714,2.02,1.714c0.111,0,0.225-0.009,0.338-0.028c1.116-0.186,1.871-1.242,1.685-2.357
			l-4.066-24.401l3.75,2.979c0.886,0.703,2.175,0.557,2.88-0.33S69.502,67.217,68.616,66.512z"/>
		<path d="M53.235,51.217c1.115-0.187,1.869-1.242,1.684-2.359l-4.066-24.4l3.75,2.979c0.885,0.704,2.176,0.557,2.879-0.33
			c0.705-0.886,0.557-2.175-0.328-2.879l-8.254-6.558c-0.474-0.376-1.088-0.524-1.684-0.404c-0.593,0.121-1.103,0.498-1.392,1.03
			L40.96,27.25c-0.541,0.995-0.172,2.239,0.822,2.779c0.311,0.169,0.646,0.249,0.976,0.249c0.728,0,1.432-0.388,1.803-1.072
			l2.24-4.124l4.074,24.449c0.168,1.002,1.035,1.713,2.02,1.713C53.007,51.244,53.12,51.235,53.235,51.217z"/>
	</g>
</g>
<g>
</g>
<g>
</g>
<g>
</g>
<g>
</g>
<g>
</g>
<g>
</g>
<g>
</g>
<g>
</g>
<g>
</g>
<g>
</g>
<g>
</g>
<g>
</g>
<g>
</g>
<g>
</g>
<g>
</g>
</svg>
