<?xml version="1.0" encoding="iso-8859-1"?>
<!-- Generator: Adobe Illustrator 18.0.0, SVG Export Plug-In . SVG Version: 6.00 Build 0)  -->
<!DOCTYPE svg PUBLIC "-//W3C//DTD SVG 1.1//EN" "http://www.w3.org/Graphics/SVG/1.1/DTD/svg11.dtd">
<svg version="1.1" id="Capa_1" xmlns="http://www.w3.org/2000/svg" xmlns:xlink="http://www.w3.org/1999/xlink" x="0px" y="0px"
	 viewBox="0 0 383.756 383.756" style="enable-background:new 0 0 383.756 383.756;" xml:space="preserve">
<g>
	<path d="M352.686,157.351C339.168,94.324,289.432,44.588,226.405,31.069C224.574,13.634,209.789,0,191.877,0
		s-32.696,13.634-34.527,31.069C94.324,44.588,44.588,94.324,31.069,157.351C13.634,159.182,0,173.967,0,191.879
		c0,17.91,13.634,32.694,31.069,34.525c13.519,63.027,63.254,112.765,126.282,126.283c1.831,17.435,16.616,31.068,34.528,31.068
		c17.912,0,32.696-13.634,34.527-31.068c63.027-13.519,112.763-63.256,126.282-126.283c17.435-1.831,31.069-16.615,31.069-34.526
		C383.756,173.966,370.122,159.182,352.686,157.351z M191.877,11.878c12.616,0,22.843,10.226,22.843,22.843
		c0,12.616-10.227,22.842-22.843,22.842c-12.616,0-22.842-10.226-22.842-22.842C169.035,22.104,179.262,11.878,191.877,11.878z
		 M11.878,191.879c0-12.616,10.226-22.843,22.843-22.843c12.616,0,22.842,10.228,22.842,22.843
		c0,12.615-10.226,22.841-22.842,22.841C22.104,214.72,11.878,204.494,11.878,191.879z M191.878,371.878
		c-12.616,0-22.843-10.227-22.843-22.842c0-12.616,10.228-22.844,22.843-22.844c12.616,0,22.842,10.227,22.842,22.844
		C214.721,361.651,204.494,371.878,191.878,371.878z M224.814,338.071c-4.602-13.787-17.622-23.757-32.936-23.757
		c-15.314,0-28.335,9.97-32.937,23.757c-56.232-12.662-100.595-57.025-113.256-113.258c13.786-4.602,23.756-17.622,23.756-32.934
		c0-15.314-9.97-28.335-23.756-32.937C58.347,102.71,102.709,58.347,158.941,45.686c4.602,13.786,17.623,23.756,32.936,23.756
		c15.314,0,28.335-9.97,32.937-23.756c56.232,12.661,100.595,57.024,113.256,113.256c-13.786,4.602-23.756,17.623-23.756,32.936
		s9.97,28.334,23.756,32.936C325.409,281.046,281.047,325.409,224.814,338.071z M349.035,214.72
		c-12.616,0-22.842-10.227-22.842-22.842c0-12.616,10.226-22.843,22.842-22.843c12.617,0,22.843,10.227,22.843,22.843
		C371.878,204.493,361.652,214.72,349.035,214.72z"/>
	<path d="M251.266,133.266c0-17.98-30.6-27.679-59.39-27.679c-28.79,0-59.389,9.699-59.389,27.681l0.014,14.259l0.031,0.306
		c0.682,3.299,2.446,6.275,5.033,8.924c-3.223,3.403-5.079,7.32-5.079,11.739l0.014,14.264l0.031,0.302
		c0.682,3.301,2.446,6.276,5.033,8.929c-3.223,3.398-5.079,7.317-5.079,11.737l0.014,14.259l0.031,0.308
		c0.682,3.3,2.446,6.275,5.033,8.927c-3.223,3.397-5.079,7.315-5.079,11.738l0.014,14.263l0.031,0.302
		c3.34,16.18,32.382,24.645,59.343,24.645c26.962,0,56.052-8.465,59.392-24.645l-0.002-14.564c0-4.414-1.852-8.32-5.063-11.709
		c2.603-2.66,4.382-5.646,5.065-8.956l-0.002-14.568c0-4.412-1.852-8.315-5.063-11.708c2.603-2.661,4.382-5.642,5.065-8.956
		l-0.002-14.566c0-4.41-1.852-8.317-5.063-11.708c2.603-2.66,4.382-5.645,5.065-8.956L251.266,133.266z M191.876,253.556
		c-28.721,0-46.304-9.451-46.304-14.596c0-1.246,1.044-2.736,3.003-4.29c11.6,5.461,27.791,8.271,43.301,8.271
		c15.499,0,31.704-2.809,43.314-8.26c1.95,1.544,2.992,3.036,2.992,4.278C238.182,244.105,220.599,253.556,191.876,253.556z
		 M191.876,218.327c-28.721,0-46.304-9.451-46.304-14.601c0-1.242,1.044-2.737,3.003-4.286c11.6,5.459,27.791,8.271,43.301,8.271
		c15.499,0,31.704-2.808,43.314-8.265c1.95,1.55,2.992,3.039,2.992,4.279C238.182,208.876,220.599,218.327,191.876,218.327z
		 M191.876,183.092c-28.721,0-46.304-9.451-46.304-14.596c0-1.242,1.044-2.736,3.003-4.288c11.6,5.463,27.791,8.27,43.301,8.27
		c15.499,0,31.704-2.804,43.314-8.259c1.95,1.547,2.992,3.039,2.992,4.277C238.182,173.642,220.599,183.092,191.876,183.092z
		 M191.876,147.862c-28.721,0-46.304-9.45-46.304-14.596c0-5.143,17.583-14.595,46.304-14.595c28.723,0,46.306,9.452,46.306,14.595
		C238.182,138.412,220.599,147.862,191.876,147.862z"/>
</g>
<g>
</g>
<g>
</g>
<g>
</g>
<g>
</g>
<g>
</g>
<g>
</g>
<g>
</g>
<g>
</g>
<g>
</g>
<g>
</g>
<g>
</g>
<g>
</g>
<g>
</g>
<g>
</g>
<g>
</g>
</svg>
