<?xml version="1.0" encoding="iso-8859-1"?>
<!-- Generator: Adobe Illustrator 16.0.0, SVG Export Plug-In . SVG Version: 6.00 Build 0)  -->
<!DOCTYPE svg PUBLIC "-//W3C//DTD SVG 1.1//EN" "http://www.w3.org/Graphics/SVG/1.1/DTD/svg11.dtd">
<svg version="1.1" id="Capa_1" xmlns="http://www.w3.org/2000/svg" xmlns:xlink="http://www.w3.org/1999/xlink" x="0px" y="0px"
	 width="101.648px" height="101.648px" viewBox="0 0 101.648 101.648" style="enable-background:new 0 0 101.648 101.648;"
	 xml:space="preserve">
<g>
	<g>
		<g>
			<path d="M51.604,89.708c-21.448,0-38.897-17.449-38.897-38.897c0-21.448,17.449-38.898,38.897-38.898h1.5v36.061h37.313
				l0.056,1.579c0.015,0.418,0.029,0.836,0.029,1.258C90.503,72.259,73.054,89.708,51.604,89.708z M50.104,14.944
				c-19.1,0.789-34.397,16.575-34.397,35.866c0,19.795,16.104,35.897,35.897,35.897c19.739,0,35.81-16.015,35.897-35.734H50.104
				V14.944z"/>
		</g>
		<g>
			<path d="M7.766,50.81c0-11.71,4.561-22.719,12.84-30.999C35.963,4.455,59.968,2.907,77.082,15.143h-3.145c-1.656,0-3,1.343-3,3
				c0,1.657,1.344,3,3,3h11.141c0.795,0,1.56-0.316,2.121-0.879c0.562-0.563,0.879-1.325,0.879-2.121v-11.5c0-1.657-1.344-3-3-3
				c-1.657,0-3,1.344-3,3v3.482C62.179-4.799,33.746-3.228,15.657,14.862C6.055,24.464,0.766,37.231,0.766,50.81
				c0,13.579,5.289,26.347,14.891,35.947c7.557,7.559,17.105,12.471,27.615,14.208l1.142-6.906
				c-9.058-1.498-17.29-5.733-23.808-12.251C12.327,73.528,7.766,62.519,7.766,50.81z"/>
		</g>
		<g>
			<path d="M63.849,92.913c-4.628,1.341-9.425,1.905-14.256,1.688l-0.318,6.992c0.782,0.036,1.562,0.055,2.341,0.055
				c4.806,0,9.565-0.676,14.182-2.014c1.528-0.441,3.06-0.966,4.549-1.555l-2.573-6.51C66.486,92.079,65.168,92.531,63.849,92.913z"
				/>
		</g>
		<g>
			<path d="M76.809,86.687c-1.98,1.396-4.09,2.634-6.27,3.677l3.021,6.313c2.531-1.211,4.979-2.646,7.279-4.268
				c2.38-1.675,4.639-3.576,6.713-5.651l-4.95-4.949C80.811,83.6,78.863,85.242,76.809,86.687z"/>
		</g>
		<g>
			<path d="M88.826,73.99c-0.73,1.173-1.526,2.32-2.364,3.415c-0.457,0.598-0.931,1.185-1.423,1.763l5.334,4.533
				c0.568-0.67,1.123-1.356,1.646-2.041c0.973-1.271,1.896-2.604,2.746-3.965c0.961-1.54,1.848-3.15,2.637-4.785L91.1,69.867
				C90.42,71.276,89.654,72.663,88.826,73.99z"/>
		</g>
		<g>
			<path d="M94.097,61.62c-0.501,1.978-1.146,3.936-1.917,5.82l6.479,2.649c0.896-2.187,1.644-4.458,2.225-6.752L94.097,61.62z"/>
		</g>
	</g>
</g>
<g>
</g>
<g>
</g>
<g>
</g>
<g>
</g>
<g>
</g>
<g>
</g>
<g>
</g>
<g>
</g>
<g>
</g>
<g>
</g>
<g>
</g>
<g>
</g>
<g>
</g>
<g>
</g>
<g>
</g>
</svg>
