<?xml version="1.0" encoding="iso-8859-1"?>
<!-- Generator: Adobe Illustrator 16.0.0, SVG Export Plug-In . SVG Version: 6.00 Build 0)  -->
<!DOCTYPE svg PUBLIC "-//W3C//DTD SVG 1.1//EN" "http://www.w3.org/Graphics/SVG/1.1/DTD/svg11.dtd">
<svg version="1.1" id="Capa_1" xmlns="http://www.w3.org/2000/svg" xmlns:xlink="http://www.w3.org/1999/xlink" x="0px" y="0px"
	 width="105.373px" height="105.373px" viewBox="0 0 105.373 105.373" style="enable-background:new 0 0 105.373 105.373;"
	 xml:space="preserve">
<g>
	<path d="M103.717,63.025l-9.203-9.205c-1.068-1.067-2.486-1.655-3.994-1.655c-1.51,0-2.928,0.588-3.994,1.653
		c-1.066,1.066-1.654,2.486-1.654,3.994c0,1.179,0.357,2.301,1.021,3.244h-5.068V22.432c0-2.052-1.672-3.723-3.725-3.723H3.722
		C1.67,18.708,0,20.379,0,22.432v60.511c0,2.052,1.67,3.722,3.722,3.722h59.967c-0.004-0.042-0.004-0.085-0.01-0.127h13.422
		c2.051,0,3.722-1.669,3.722-3.722V72.353h4.438c-0.587,0.834-0.936,1.814-1.008,2.857c-0.104,1.508,0.387,2.962,1.38,4.1
		c1.072,1.229,2.624,1.935,4.257,1.935c1.366,0,2.686-0.494,3.713-1.392l9.834-8.578c1.172-1.024,1.877-2.504,1.933-4.064
		C105.422,65.652,104.82,64.125,103.717,63.025z M73.352,23.017c1.342,0,2.428,1.088,2.428,2.429c0,1.341-1.086,2.429-2.428,2.429
		c-1.34,0-2.427-1.088-2.427-2.429C70.925,24.104,72.012,23.017,73.352,23.017z M62.656,23.017c1.339,0,2.427,1.088,2.427,2.429
		c0,1.341-1.088,2.429-2.427,2.429c-1.344,0-2.43-1.088-2.43-2.429C60.227,24.104,61.312,23.017,62.656,23.017z M52.02,23.017
		c1.341,0,2.428,1.088,2.428,2.429c0,1.341-1.087,2.429-2.428,2.429c-1.341,0-2.427-1.088-2.427-2.429
		C49.593,24.104,50.679,23.017,52.02,23.017z M77.633,82.816c0,0.293-0.238,0.531-0.531,0.531H17.343
		c-0.002,0.043-0.005,0.086-0.007,0.127H3.722c-0.294,0-0.532-0.238-0.532-0.531V32.535h73.908c0.188,0,0.363-0.03,0.532-0.074v0.06
		l-0.005,0.015v24.868h0.008v3.652H62.588c-3.115,0-5.648,2.533-5.648,5.648s2.533,5.648,5.648,5.648h15.045V82.816z
		 M101.454,69.382l-9.834,8.577c-0.595,0.521-1.33,0.772-2.062,0.772c-0.875,0-1.746-0.362-2.367-1.073
		c-1.139-1.308-1.004-3.289,0.303-4.429l3.885-3.39H62.254c-1.732,0-3.138-1.403-3.138-3.138s1.405-3.139,3.138-3.139H91.5
		l-3.533-3.533c-1.227-1.227-1.227-3.213,0-4.438c1.227-1.227,3.211-1.227,4.438,0l9.205,9.204c0.615,0.615,0.947,1.457,0.918,2.325
		C102.497,67.994,102.107,68.812,101.454,69.382z"/>
</g>
<g>
</g>
<g>
</g>
<g>
</g>
<g>
</g>
<g>
</g>
<g>
</g>
<g>
</g>
<g>
</g>
<g>
</g>
<g>
</g>
<g>
</g>
<g>
</g>
<g>
</g>
<g>
</g>
<g>
</g>
</svg>
