<?xml version="1.0" encoding="iso-8859-1"?>
<!-- Generator: Adobe Illustrator 16.0.0, SVG Export Plug-In . SVG Version: 6.00 Build 0)  -->
<!DOCTYPE svg PUBLIC "-//W3C//DTD SVG 1.1//EN" "http://www.w3.org/Graphics/SVG/1.1/DTD/svg11.dtd">
<svg version="1.1" id="Capa_1" xmlns="http://www.w3.org/2000/svg" xmlns:xlink="http://www.w3.org/1999/xlink" x="0px" y="0px"
	 width="100.838px" height="100.838px" viewBox="0 0 100.838 100.838" style="enable-background:new 0 0 100.838 100.838;"
	 xml:space="preserve">
<g>
	<g>
		<path d="M96.088,17.935c0-6.065-4.935-11-11-11c-2.634,0-5.054,0.933-6.95,2.482C70.446,3.52,60.839,0,50.419,0
			c-9.781,0-18.842,3.105-26.28,8.362c-1.886-1.519-4.278-2.433-6.883-2.433c-6.065,0-11,4.935-11,11
			c0,3.167,1.353,6.017,3.501,8.026C6.571,31.179,4.749,38.21,4.749,45.669c0,21.392,14.79,39.378,34.677,44.313
			c0.078,5.998,4.976,10.855,10.993,10.855c6.016,0,10.912-4.855,10.993-10.852C81.3,85.052,96.089,67.061,96.089,45.669
			c0-6.817-1.525-13.277-4.216-19.092C94.435,24.561,96.088,21.44,96.088,17.935z M93.088,17.935c0,4.411-3.589,8-8,8s-8-3.589-8-8
			c0-4.411,3.589-8,8-8S93.088,13.524,93.088,17.935z M76.087,11.631c-1.255,1.787-1.999,3.958-1.999,6.304
			c0,1.925,0.5,3.734,1.373,5.309L57.92,37.646c-1.967-1.84-4.601-2.977-7.501-2.977c-2.931,0-5.591,1.159-7.564,3.034
			L25.867,23.755c1.491-1.877,2.39-4.247,2.39-6.826c0-2.37-0.761-4.562-2.041-6.359C33.099,5.806,41.434,3,50.42,3
			C60.053,3,68.938,6.224,76.087,11.631z M50.419,53.669c-4.411,0-8-3.589-8-8s3.589-8,8-8s8,3.589,8,8S54.83,53.669,50.419,53.669z
			 M9.256,16.929c0-4.411,3.589-8,8-8s8,3.589,8,8c0,4.411-3.589,8-8,8S9.256,21.34,9.256,16.929z M7.75,45.669
			c0-6.814,1.619-13.252,4.473-18.97c1.51,0.781,3.219,1.229,5.034,1.229c2.399,0,4.614-0.781,6.423-2.089l17.302,14.206
			c-0.986,1.648-1.563,3.567-1.563,5.623c0,5.556,4.144,10.149,9.5,10.885v22.399c-4.407,0.605-7.983,3.824-9.114,8.043
			C21.396,82.266,7.75,65.533,7.75,45.669z M50.419,97.838c-4.411,0-8-3.589-8-8s3.589-8,8-8s8,3.589,8,8
			S54.83,97.838,50.419,97.838z M93.088,45.669c0,19.864-13.646,36.597-32.056,41.328c-1.131-4.22-4.706-7.438-9.113-8.043v-22.4
			c5.355-0.735,9.5-5.329,9.5-10.885c0-2.086-0.594-4.031-1.607-5.695l17.447-14.325c1.996,2.026,4.768,3.286,7.83,3.286
			c1.482,0,2.895-0.298,4.188-0.833C91.711,33.465,93.088,39.406,93.088,45.669z"/>
	</g>
</g>
<g>
</g>
<g>
</g>
<g>
</g>
<g>
</g>
<g>
</g>
<g>
</g>
<g>
</g>
<g>
</g>
<g>
</g>
<g>
</g>
<g>
</g>
<g>
</g>
<g>
</g>
<g>
</g>
<g>
</g>
</svg>
