<?xml version="1.0" encoding="iso-8859-1"?>
<!-- Generator: Adobe Illustrator 16.0.0, SVG Export Plug-In . SVG Version: 6.00 Build 0)  -->
<!DOCTYPE svg PUBLIC "-//W3C//DTD SVG 1.1//EN" "http://www.w3.org/Graphics/SVG/1.1/DTD/svg11.dtd">
<svg version="1.1" id="Capa_1" xmlns="http://www.w3.org/2000/svg" xmlns:xlink="http://www.w3.org/1999/xlink" x="0px" y="0px"
	 width="88.358px" height="88.357px" viewBox="0 0 88.358 88.357" style="enable-background:new 0 0 88.358 88.357;"
	 xml:space="preserve">
<g>
	<g>
		<rect x="17.205" y="19.658" width="3.289" height="1.88"/>
		<rect x="21.552" y="19.658" width="39.714" height="1.88"/>
		<rect x="17.205" y="28.719" width="3.289" height="1.88"/>
		<rect x="21.552" y="28.719" width="39.714" height="1.88"/>
		<rect x="21.552" y="38.275" width="39.714" height="1.88"/>
		<rect x="17.205" y="38.275" width="3.289" height="1.88"/>
		<rect x="17.205" y="48.833" width="3.289" height="1.88"/>
		<rect x="21.552" y="48.833" width="39.714" height="1.88"/>
		<path d="M76.606,0H11.749C9.936,0,8.459,1.477,8.459,3.291v81.776c0,1.813,1.476,3.291,3.289,3.291h64.854
			c1.812,0,3.289-1.477,3.289-3.291v-8.644v-2.819V49.234h0.007V3.29C79.898,1.477,78.42,0,76.606,0z M77.076,3.33l-0.005,0.014
			v81.723c0,0.26-0.21,0.471-0.471,0.471H11.749c-0.26,0-0.47-0.211-0.47-0.471V3.344h65.325c0.166,0,0.322-0.027,0.472-0.066V3.33z
			"/>
		<polygon points="74.375,16.469 74.375,6.964 64.871,6.964 		"/>
	</g>
</g>
<g>
</g>
<g>
</g>
<g>
</g>
<g>
</g>
<g>
</g>
<g>
</g>
<g>
</g>
<g>
</g>
<g>
</g>
<g>
</g>
<g>
</g>
<g>
</g>
<g>
</g>
<g>
</g>
<g>
</g>
</svg>
