<?xml version="1.0" encoding="iso-8859-1"?>
<!-- Generator: Adobe Illustrator 16.0.0, SVG Export Plug-In . SVG Version: 6.00 Build 0)  -->
<!DOCTYPE svg PUBLIC "-//W3C//DTD SVG 1.1//EN" "http://www.w3.org/Graphics/SVG/1.1/DTD/svg11.dtd">
<svg version="1.1" id="Capa_1" xmlns="http://www.w3.org/2000/svg" xmlns:xlink="http://www.w3.org/1999/xlink" x="0px" y="0px"
	 width="101.579px" height="101.579px" viewBox="0 0 101.579 101.579" style="enable-background:new 0 0 101.579 101.579;"
	 xml:space="preserve">
<g>
	<g>
		<path d="M31.083,24.002c1.858,0,3.369-1.511,3.369-3.369c0-1.857-1.511-3.369-3.369-3.369c-1.857,0-3.368,1.511-3.368,3.369
			C27.715,22.491,29.225,24.002,31.083,24.002z"/>
		<path d="M40.484,24.002c1.857,0,3.369-1.511,3.369-3.369c0-1.857-1.512-3.369-3.369-3.369s-3.369,1.511-3.369,3.369
			C37.115,22.491,38.626,24.002,40.484,24.002z"/>
		<path d="M21.812,24.002c1.858,0,3.369-1.511,3.369-3.369c0-1.857-1.511-3.369-3.369-3.369c-1.857,0-3.369,1.511-3.369,3.369
			C18.444,22.491,19.955,24.002,21.812,24.002z"/>
		<path d="M36.227,41.723l8.481,6.264H16.671l37.582,19.453l39.603-19.453H56.552c0.367-0.998,0.455-2.101,0.194-3.177l-3.092-12.85
			V9.99c0-5.508-4.48-9.99-9.99-9.99H17.713c-5.509,0-9.99,4.481-9.99,9.99v21.744c0,5.508,4.481,9.99,9.99,9.99L36.227,41.723
			L36.227,41.723z M12.242,31.733V9.989c0-3.027,2.463-5.49,5.49-5.49h25.953c3.027,0,5.49,2.462,5.49,5.49v22.503l3.217,13.369
			c0.099,0.408-0.069,0.833-0.419,1.066c-0.167,0.11-0.359,0.166-0.552,0.166c-0.208,0-0.417-0.065-0.592-0.195l-13.1-9.676H17.732
			C14.705,37.223,12.242,34.76,12.242,31.733z"/>
		<path d="M16.671,50.173v49.406c0,1.104,0.896,2,2,2h72.667c1.104,0,2-0.896,2-2V51.312L54.971,73.236L16.671,50.173z"/>
	</g>
</g>
<g>
</g>
<g>
</g>
<g>
</g>
<g>
</g>
<g>
</g>
<g>
</g>
<g>
</g>
<g>
</g>
<g>
</g>
<g>
</g>
<g>
</g>
<g>
</g>
<g>
</g>
<g>
</g>
<g>
</g>
</svg>
