<?xml version="1.0" encoding="iso-8859-1"?>
<!-- Generator: Adobe Illustrator 16.0.0, SVG Export Plug-In . SVG Version: 6.00 Build 0)  -->
<!DOCTYPE svg PUBLIC "-//W3C//DTD SVG 1.1//EN" "http://www.w3.org/Graphics/SVG/1.1/DTD/svg11.dtd">
<svg version="1.1" id="Capa_1" xmlns="http://www.w3.org/2000/svg" xmlns:xlink="http://www.w3.org/1999/xlink" x="0px" y="0px"
	 width="106.757px" height="106.757px" viewBox="0 0 106.757 106.757" style="enable-background:new 0 0 106.757 106.757;"
	 xml:space="preserve">
<g>
	<g>
		<path d="M75.345,41.032c0.007,0.009,0.013,0.018,0.019,0.026c0.188-0.105,0.377-0.207,0.568-0.304
			c-0.646-0.699-1.304-1.374-1.979-2.013c0.018,0.033,0.034,0.068,0.053,0.101l0.626,1.188l0.846,0.873l-0.119,0.115
			c0.008,0.009,0.018,0.017,0.024,0.026C75.371,41.041,75.357,41.037,75.345,41.032L75.345,41.032z"/>
		<path d="M79.736,39.394c-2.594-2.081-5.375-3.872-8.315-5.314c0.213,0.373,0.423,0.744,0.629,1.115
			c2.394,1.247,4.679,2.72,6.83,4.405C79.166,39.521,79.452,39.454,79.736,39.394z"/>
		<path d="M60.052,43.111c0.025,0.112,0.054,0.219,0.077,0.332c0.062-0.108,0.13-0.205,0.193-0.31
			C60.232,43.126,60.143,43.118,60.052,43.111z"/>
		<path d="M102.415,62.126c0.155,0.964,0.271,1.923,0.328,2.873c0.354,0.96,0.688,1.933,0.985,2.916
			c-0.293-0.729-0.627-1.438-0.963-2.149c0.02,0.567,0.019,1.131-0.004,1.688c0.789,1.851,1.451,3.751,1.961,5.704
			c-0.566-1.418-1.261-2.797-2.052-4.143l-0.101,1.072c1.127,2.055,2.006,4.19,2.594,6.399c-1.021-2.279-2.557-4.451-4.523-6.483
			l-0.843-0.079c3.021,2.986,5.069,6.289,5.886,9.797c-1.199-2.271-3.535-4.403-6.812-6.312c-0.294-1.817-0.666-3.603-1.115-5.351
			c0.316,0.264,0.612,0.534,0.913,0.805l0.051-0.545c0.005-0.045,0.005-0.094,0.009-0.14c-0.388-0.336-0.783-0.67-1.195-0.995
			c-0.562-2.059-1.238-4.056-2.004-5.996c1.141,1.059,2.195,2.164,3.168,3.308c-0.032-0.351-0.067-0.702-0.114-1.056
			c-1.099-1.229-2.283-2.416-3.571-3.543c-1.441-3.412-3.199-6.615-5.213-9.574c2.846,2.365,5.383,5.005,7.559,7.867
			c-0.226-0.684-0.469-1.359-0.739-2.026c-2.418-2.901-5.19-5.563-8.302-7.908c-1.342-1.782-2.789-3.457-4.322-5.021
			c-0.37-0.062-0.741-0.104-1.112-0.12c1.175,1.155,2.302,2.374,3.368,3.658c-1.846-1.255-3.793-2.397-5.816-3.438
			c-0.344,0.076-0.685,0.167-1.025,0.28c2.996,1.482,5.818,3.197,8.41,5.143c2.31,3.078,4.314,6.463,5.965,10.103
			c-2.893-2.354-6.192-4.451-9.826-6.241c-1.564-3.176-3.376-6.079-5.375-8.695c-0.189,0.08-0.377,0.169-0.566,0.261
			c1.854,2.411,3.539,5.079,5.021,7.981c-2.408-1.133-4.962-2.125-7.623-2.975c-0.371-0.829-0.757-1.634-1.153-2.419l-0.424,0.376
			c0.3,0.6,0.604,1.198,0.887,1.823c-2.406-0.739-4.904-1.358-7.48-1.844c-0.355-1.088-0.732-2.117-1.121-3.117
			c-0.157-0.035-0.312-0.064-0.469-0.098c0.39,1.001,0.77,2.032,1.129,3.123c-1.223-0.222-2.467-0.402-3.721-0.562
			c-0.096,0.196-0.185,0.4-0.273,0.605c1.426,0.181,2.839,0.388,4.224,0.646c0.792,2.497,1.502,5.211,2.117,8.106
			c-2.188-0.364-4.438-0.647-6.735-0.858c-0.213-1.703-0.447-3.343-0.697-4.927c-0.073,0.239-0.141,0.482-0.209,0.725
			c0.203,1.34,0.396,2.731,0.572,4.17c-0.488-0.043-0.992-0.063-1.486-0.102c-0.029,0.184-0.064,0.368-0.094,0.551
			c0.549,0.038,1.106,0.062,1.649,0.11c0.347,2.876,0.64,5.937,0.874,9.142c-3.064-0.199-6.217-0.31-9.44-0.312V55.11
			c0.988,0,1.958,0.039,2.932,0.07c0.027-0.183,0.061-0.369,0.09-0.555c-1.004-0.032-2.004-0.068-3.021-0.07v-8.079
			c1.716,0.004,3.404,0.088,5.078,0.206c0.079-0.205,0.152-0.415,0.234-0.616c-1.75-0.128-3.516-0.218-5.312-0.223v-2.568
			c-0.117,0.015-0.234,0.031-0.351,0.047v2.521c-2.425,0.006-4.809,0.132-7.148,0.358c0.065-0.342,0.135-0.66,0.202-0.993
			c-0.12,0.05-0.238,0.104-0.357,0.156c-0.022,0.109-0.045,0.209-0.067,0.32c-0.035,0.178-0.068,0.366-0.103,0.546
			c-0.719,0.073-1.429,0.165-2.139,0.257c-0.487,0.266-0.97,0.544-1.445,0.84c1.143-0.174,2.294-0.331,3.463-0.452
			c-0.467,2.519-0.88,5.229-1.237,8.099c-2.297,0.211-4.548,0.493-6.736,0.857c0.482-2.269,1.023-4.42,1.616-6.449
			c-0.187,0.148-0.373,0.298-0.558,0.452c-0.549,1.921-1.054,3.949-1.506,6.077c-1.727,0.297-3.4,0.653-5.044,1.041
			c-0.164,0.229-0.33,0.448-0.491,0.681c1.763-0.426,3.558-0.819,5.417-1.143c-0.583,2.822-1.078,5.805-1.47,8.924
			c-3.12,0.394-6.103,0.887-8.924,1.471c0.056-0.321,0.13-0.625,0.188-0.944c-0.312,0.65-0.618,1.316-0.918,1.996
			c-0.327,2.037-0.592,4.121-0.788,6.25c-2.868,0.355-5.579,0.771-8.098,1.236c0.206-1.99,0.493-3.941,0.85-5.854
			c1.093-0.348,2.236-0.676,3.41-0.989l0.2-0.48c-1.212,0.321-2.39,0.659-3.52,1.018c0.508-2.625,1.155-5.168,1.929-7.613
			c1.877-0.821,3.865-1.577,5.947-2.257c0.136-0.232,0.271-0.466,0.409-0.696c-2.15,0.688-4.204,1.452-6.147,2.288
			c0.892-2.719,1.943-5.31,3.133-7.75c2.442-1.19,5.032-2.241,7.751-3.133c-0.515,1.197-1.002,2.438-1.462,3.714
			c0.36-0.478,0.726-0.944,1.095-1.398c0.333-0.859,0.673-1.707,1.032-2.525c0.528-0.167,1.079-0.305,1.616-0.46
			c0.308-0.314,0.619-0.619,0.932-0.918c-0.734,0.199-1.477,0.386-2.195,0.607c1.597-3.505,3.432-6.616,5.461-9.236
			c1.846-0.507,3.736-0.925,5.664-1.255c-0.792,1.445-1.537,3.068-2.242,4.819c0.186-0.108,0.373-0.215,0.56-0.319
			c0.684-1.666,1.407-3.207,2.171-4.576c1.363-0.221,2.741-0.405,4.138-0.533c-0.271,0.836-0.532,1.755-0.788,2.716
			c0.116-0.038,0.231-0.077,0.348-0.114c0.248-0.928,0.501-1.82,0.765-2.633c1.673-0.144,3.37-0.219,5.085-0.224v1.62
			c0.116-0.014,0.234-0.023,0.351-0.036v-1.589c1.715,0.005,3.413,0.08,5.084,0.224c0.125,0.38,0.241,0.793,0.361,1.199
			c0.105,0.005,0.213,0.005,0.319,0.01c-0.118-0.4-0.235-0.804-0.356-1.179c1.397,0.128,2.774,0.313,4.139,0.534
			c0.188,0.339,0.371,0.709,0.556,1.067l0.017-0.011l0,0l0,0l0.312-0.212c-0.132-0.253-0.259-0.523-0.394-0.768
			c0.396,0.068,0.784,0.156,1.178,0.231l0.145-0.098l0.062,0.092c0.361-0.176,0.732-0.324,1.109-0.454
			c-0.965-0.205-1.939-0.392-2.924-0.551c-1.908-3.279-4.04-5.616-6.312-6.812c3.91,0.91,7.565,3.345,10.811,6.959
			c0.221-0.037,0.441-0.064,0.664-0.085c-2.518-2.872-5.29-5.035-8.238-6.354c2.342,0.623,4.602,1.579,6.766,2.806
			c-0.229-0.367-0.459-0.73-0.692-1.087c-0.899-0.469-1.81-0.905-2.74-1.276c0.793,0.207,1.575,0.446,2.353,0.699
			c-0.355-0.521-0.717-1.033-1.09-1.518c-3.645-0.789-7.422-1.214-11.298-1.214c-1.916,0-3.807,0.106-5.67,0.304
			c-0.46,0.435-0.892,0.896-1.305,1.371c0.091-0.025,0.179-0.06,0.271-0.084c-0.117,0.053-0.232,0.117-0.349,0.172
			c-0.292,0.339-0.573,0.685-0.838,1.039c1.431-0.788,2.906-1.376,4.42-1.729c-2.272,1.198-4.404,3.535-6.312,6.813
			c-0.292,0.047-0.577,0.109-0.867,0.16l-0.042,0.107l-0.171-0.068c-1.443,0.26-2.871,0.556-4.27,0.915
			c0.565-0.682,1.148-1.311,1.74-1.917l-0.553-0.219c-0.706,0.734-1.395,1.519-2.063,2.359c-2.057,0.563-4.054,1.239-5.996,2.005
			c2.598-2.799,5.469-5.095,8.535-6.832c0.15-0.327,0.313-0.653,0.484-0.979c-3.756,1.995-7.233,4.814-10.31,8.329
			c-3.412,1.442-6.614,3.199-9.573,5.213c5.472-6.586,12.408-11.525,20.196-14.134c0.289-0.51,0.611-1.014,0.95-1.513
			C17.845,36.486,0,57.788,0,83.192c0,0.225,0.014,0.442,0.017,0.668h0.028h0.041h0.046h0.069h0.121h0.329h0.018h0.018h0.032H0.75
			h0.023c-0.002-0.164-0.008-0.328-0.013-0.491h6.335c0.003,0.164,0.009,0.327,0.011,0.491h0.705
			c-0.002-0.164-0.007-0.328-0.011-0.491h8.227c0.003,0.164,0.007,0.327,0.009,0.491h0.633c-0.001-0.164-0.006-0.328-0.009-0.491
			h8.082c0.002,0.164,0.006,0.327,0.007,0.491h0.554c-0.001-0.164-0.005-0.328-0.007-0.491h9.219
			c0.001,0.164,0.004,0.327,0.004,0.491h0.449c0-0.164-0.003-0.328-0.004-0.491h7.808c0,0.164,0.001,0.327,0.002,0.491h0.336
			c0-0.164-0.001-0.328-0.002-0.491h10.095v0.491h0.351v-0.491h10.095c0,0.164-0.002,0.327-0.002,0.491h0.336
			c0.002-0.164,0.002-0.328,0.002-0.491h7.809c-0.001,0.164-0.004,0.327-0.004,0.491h0.449c0-0.166,0.002-0.328,0.004-0.491h9.219
			c-0.002,0.164-0.005,0.327-0.007,0.491h0.554c0.001-0.166,0.004-0.328,0.008-0.491h8.081c-0.003,0.164-0.007,0.327-0.009,0.491
			h0.633c0.001-0.166,0.006-0.328,0.01-0.491h8.228c-0.003,0.164-0.011,0.327-0.013,0.491h0.705
			c0.002-0.166,0.008-0.328,0.013-0.491h6.335c-0.005,0.164-0.012,0.327-0.014,0.491h0.022h0.031h0.032h0.018h0.018h0.33h0.121
			h0.068h0.046h0.041h0.028c0.002-0.224,0.017-0.443,0.017-0.668C106.756,75.715,105.204,68.595,102.415,62.126z M62.648,37.622
			c-1.295-0.198-2.604-0.367-3.931-0.481c-1.136-3.299-2.389-5.509-3.709-6.503C57.773,31.336,60.365,33.795,62.648,37.622z
			 M53.553,30.577c0.26,0.001,0.517,0.015,0.775,0.02c1.466,0.695,2.843,2.983,4.066,6.522c-1.596-0.13-3.209-0.203-4.843-0.207
			L53.553,30.577L53.553,30.577z M53.203,30.577v6.335c-1.632,0.004-3.247,0.077-4.842,0.207c1.224-3.539,2.601-5.827,4.067-6.522
			C52.687,30.591,52.943,30.578,53.203,30.577z M51.747,30.637c-1.32,0.994-2.574,3.204-3.71,6.503
			c-1.326,0.115-2.633,0.284-3.929,0.481C46.389,33.795,48.981,31.336,51.747,30.637z M17.312,69.336
			c-3.296,1.079-6.201,2.305-8.647,3.645c0.33-1.927,0.748-3.816,1.255-5.664c2.621-2.028,5.731-3.863,9.236-5.461
			C18.417,64.264,17.798,66.761,17.312,69.336z M19.376,61.165c-3.471,1.551-6.562,3.336-9.208,5.308
			c0.632-2.176,1.376-4.289,2.239-6.328c2.889-2.488,6.232-4.709,9.943-6.602C21.217,55.95,20.226,58.502,19.376,61.165z
			 M30.328,42.224c2.038-0.863,4.153-1.607,6.327-2.239c-1.97,2.646-3.755,5.737-5.306,9.208c-2.663,0.85-5.215,1.842-7.623,2.975
			C25.619,48.456,27.839,45.111,30.328,42.224z M29.045,42.793c-2.354,2.892-4.451,6.192-6.241,9.826
			c-3.634,1.79-6.935,3.886-9.826,6.241c1.649-3.64,3.655-7.024,5.965-10.103C22.021,46.449,25.406,44.442,29.045,42.793z
			 M38.1,32.841c-7.675,3.104-14.428,8.475-19.659,15.416C11.5,53.488,6.129,60.241,3.025,67.916
			C8.118,51.167,21.351,37.934,38.1,32.841z M16.959,50.326c-2.014,2.959-3.771,6.161-5.213,9.573
			c-4.419,3.869-7.761,8.36-9.714,13.26C4.342,64.295,9.638,56.407,16.959,50.326z M11.229,61.188
			c-0.766,1.94-1.443,3.938-2.005,5.996c-3.513,2.791-6.123,5.934-7.633,9.303C3.095,70.83,6.454,65.621,11.229,61.188z M9,68.061
			c-0.449,1.748-0.821,3.532-1.115,5.351c-3.279,1.907-5.616,4.04-6.813,6.312C2.062,75.468,4.841,71.508,9,68.061z M7.096,83.02
			H0.761c0.001-0.262,0.015-0.518,0.02-0.775c0.695-1.467,2.983-2.844,6.522-4.067C7.173,79.772,7.1,81.386,7.096,83.02z
			 M7.324,77.854c-3.299,1.137-5.509,2.391-6.503,3.711c0.699-2.769,3.158-5.358,6.984-7.641C7.608,75.22,7.439,76.526,7.324,77.854
			z M16.027,83.02H7.8c0.005-1.716,0.08-3.412,0.224-5.086c2.33-0.757,5.145-1.449,8.361-2.062
			C16.159,78.209,16.033,80.593,16.027,83.02z M16.415,75.544c-0.18,0.035-0.368,0.066-0.546,0.104
			c-3.023,0.594-5.63,1.254-7.813,1.959c0.128-1.396,0.312-2.774,0.533-4.138c2.418-1.352,5.324-2.585,8.63-3.672
			C16.878,71.675,16.612,73.595,16.415,75.544z M24.742,83.02H16.66c0.006-2.469,0.135-4.894,0.371-7.27
			c2.483-0.458,5.192-0.871,8.094-1.229C24.88,77.289,24.747,80.126,24.742,83.02z M37.52,56.409
			c2.201-0.371,4.468-0.66,6.782-0.875c-0.351,2.9-0.643,5.955-0.876,9.13c-2.527,0.17-4.991,0.403-7.379,0.696
			C36.441,62.23,36.936,59.235,37.52,56.409z M34.515,83.02h-9.219c0.005-2.918,0.142-5.779,0.391-8.567
			c2.876-0.347,5.935-0.64,9.141-0.874C34.628,76.645,34.519,79.795,34.515,83.02z M34.849,73.241
			c-3.174,0.232-6.23,0.525-9.13,0.875c0.215-2.312,0.504-4.58,0.875-6.781c2.827-0.583,5.819-1.079,8.952-1.473
			C35.253,68.251,35.019,70.714,34.849,73.241z M42.772,83.02h-7.808c0.004-3.236,0.113-6.399,0.313-9.477
			c2.479-0.177,5.047-0.314,7.683-0.419C42.838,76.354,42.774,79.661,42.772,83.02z M42.971,72.786
			c-2.618,0.104-5.181,0.244-7.673,0.421c0.17-2.535,0.404-5.005,0.696-7.396c2.393-0.293,4.863-0.527,7.398-0.697
			C43.214,67.605,43.073,70.168,42.971,72.786z M53.203,83.02H43.108c0.002-3.388,0.068-6.697,0.189-9.906
			c3.209-0.121,6.52-0.188,9.906-0.189V83.02z M53.203,72.587c-3.357,0.002-6.666,0.066-9.894,0.188
			c0.103-2.635,0.243-5.203,0.419-7.684c3.075-0.197,6.239-0.31,9.475-0.312V72.587z M53.203,64.33
			c-3.223,0.004-6.375,0.114-9.44,0.313c0.234-3.207,0.528-6.267,0.874-9.143c2.789-0.249,5.649-0.386,8.567-0.392L53.203,64.33
			L53.203,64.33z M53.203,54.559c-2.893,0.006-5.729,0.139-8.497,0.383c0.358-2.901,0.771-5.61,1.229-8.093
			c2.376-0.235,4.801-0.365,7.268-0.371V54.559z M98.091,72.98c-2.444-1.34-5.353-2.564-8.646-3.645
			c-0.486-2.575-1.105-5.072-1.844-7.48c3.504,1.598,6.614,3.433,9.234,5.461C97.343,69.162,97.761,71.052,98.091,72.98z
			 M78.768,58.589c2.857,0.84,5.559,1.814,8.062,2.913c0.772,2.444,1.42,4.987,1.929,7.614c-2.5-0.791-5.209-1.5-8.097-2.112
			C80.156,64.08,79.521,61.271,78.768,58.589z M80.081,66.886c-2.822-0.584-5.806-1.077-8.925-1.471
			c-0.393-3.12-0.887-6.104-1.471-8.924c2.945,0.511,5.779,1.154,8.474,1.922C78.925,61.106,79.568,63.94,80.081,66.886z
			 M94.35,60.145c0.862,2.039,1.606,4.152,2.238,6.328c-2.646-1.972-5.736-3.757-9.208-5.308c-0.851-2.663-1.842-5.215-2.976-7.623
			C88.115,55.436,91.46,57.653,94.35,60.145z M83.484,53.086c1.189,2.442,2.24,5.032,3.134,7.75
			c-2.503-1.077-5.183-2.039-8.021-2.862c-0.824-2.841-1.785-5.52-2.863-8.021C78.454,50.845,81.043,51.896,83.484,53.086z
			 M67.456,47.814c2.626,0.508,5.169,1.155,7.612,1.929c1.1,2.504,2.074,5.203,2.914,8.062c-2.682-0.756-5.492-1.393-8.416-1.896
			C68.954,53.023,68.246,50.314,67.456,47.814z M62.454,55.534c2.313,0.215,4.581,0.504,6.78,0.875
			c0.584,2.826,1.08,5.818,1.475,8.951c-2.389-0.291-4.854-0.525-7.379-0.696C63.098,61.489,62.807,58.436,62.454,55.534z
			 M53.553,64.778c3.235,0.004,6.399,0.113,9.477,0.312c0.176,2.479,0.314,5.049,0.418,7.684c-3.229-0.121-6.536-0.187-9.895-0.188
			V64.778z M53.553,83.02V72.923c3.387,0.002,6.696,0.068,9.906,0.189c0.121,3.209,0.188,6.52,0.188,9.906L53.553,83.02
			L53.553,83.02z M63.363,65.112c2.535,0.17,5.006,0.404,7.397,0.697c0.292,2.393,0.526,4.861,0.696,7.396
			c-2.493-0.177-5.055-0.316-7.673-0.421C63.684,70.168,63.542,67.605,63.363,65.112z M63.982,83.02
			c-0.002-3.357-0.064-6.666-0.188-9.896c2.637,0.104,5.204,0.242,7.684,0.419c0.198,3.075,0.31,6.239,0.312,9.477H63.982z
			 M71.211,65.862c3.132,0.394,6.125,0.889,8.952,1.473c0.371,2.201,0.659,4.469,0.875,6.781c-2.9-0.35-5.956-0.643-9.132-0.875
			C71.736,70.714,71.503,68.251,71.211,65.862z M72.24,83.02c-0.004-3.225-0.113-6.375-0.312-9.44
			c3.206,0.233,6.266,0.528,9.143,0.874c0.248,2.789,0.386,5.648,0.391,8.566H72.24L72.24,83.02z M80.738,67.451
			c2.896,0.614,5.611,1.325,8.106,2.116c0.357,1.912,0.644,3.865,0.851,5.854c-2.52-0.467-5.229-0.88-8.098-1.235
			C81.387,71.891,81.105,69.641,80.738,67.451z M82.016,83.02c-0.007-2.895-0.14-5.729-0.385-8.498
			c2.9,0.357,5.609,0.771,8.096,1.229c0.233,2.376,0.363,4.801,0.369,7.27H82.016z M89.536,69.798
			c3.307,1.087,6.212,2.32,8.63,3.672c0.221,1.362,0.404,2.739,0.531,4.138c-2.182-0.705-4.789-1.365-7.812-1.959
			c-0.178-0.035-0.364-0.068-0.546-0.104C90.145,73.595,89.878,71.675,89.536,69.798z M90.73,83.02
			c-0.006-2.427-0.134-4.811-0.358-7.148c3.216,0.613,6.03,1.307,8.36,2.062c0.145,1.674,0.219,3.37,0.225,5.086H90.73z
			 M98.949,73.923c3.826,2.281,6.285,4.873,6.984,7.64c-0.994-1.32-3.205-2.574-6.504-3.709
			C99.316,76.526,99.148,75.22,98.949,73.923z M99.66,83.02c-0.006-1.634-0.077-3.248-0.207-4.844
			c3.537,1.225,5.826,2.602,6.521,4.067c0.004,0.259,0.02,0.515,0.021,0.775L99.66,83.02L99.66,83.02z"/>
		<path d="M82.031,39.113c0.484-0.016,0.968-0.007,1.449,0.03c-3.945-2.705-8.274-4.886-12.883-6.461
			c0.205,0.34,0.408,0.68,0.606,1.022C75.043,35.091,78.667,36.918,82.031,39.113z"/>
		<path d="M42.298,36.139c2.155-5.445,8.331-11.245,14.617-11.245c0.062,0,0.126,0,0.188,0.002
			c5.83,0.087,10.227,7.697,13.521,13.917c-2.032-0.424-4.394,0.035-6.396,1.407l0,0c-0.125,0.086-0.229,0.166-0.341,0.248
			c-18.539-2.978-32.474,6.392-41.443,27.918l1.846,0.771c8.313-19.95,21.018-28.98,37.8-26.919
			c-3.534,4.495-5.34,13.928-4.97,18.981l1.994-0.146c-0.37-5.064,1.748-15.193,5.346-18.479c0.695,0.125,1.398,0.264,2.109,0.426
			c2.048,0.468,4.145,1.087,6.24,1.833l0.887,1c0.404-0.358,0.82-0.698,1.271-1.038c4.301-3.242,8.646-3.678,12.916-1.296
			c7.156,3.991,12.682,15.592,11.822,24.826l1.99,0.187c0.924-9.926-5.075-22.429-12.84-26.758
			c-3.234-1.806-8.196-3.071-13.92,0.626c-0.271-0.685-0.646-1.285-1.111-1.8l-0.717-1.355c-3.599-6.852-8.526-16.235-15.974-16.346
			c-7.307-0.157-14.223,6.253-16.698,12.507L42.298,36.139z M66.96,41.058c1.955-0.716,3.998-0.48,5.231,0.725
			c0.166,0.311,0.328,0.614,0.488,0.905c-1.902-0.646-3.803-1.193-5.664-1.619C66.997,41.064,66.98,41.062,66.96,41.058z"/>
	</g>
</g>
<g>
</g>
<g>
</g>
<g>
</g>
<g>
</g>
<g>
</g>
<g>
</g>
<g>
</g>
<g>
</g>
<g>
</g>
<g>
</g>
<g>
</g>
<g>
</g>
<g>
</g>
<g>
</g>
<g>
</g>
</svg>
