<?xml version="1.0" encoding="iso-8859-1"?>
<!-- Generator: Adobe Illustrator 16.0.0, SVG Export Plug-In . SVG Version: 6.00 Build 0)  -->
<!DOCTYPE svg PUBLIC "-//W3C//DTD SVG 1.1//EN" "http://www.w3.org/Graphics/SVG/1.1/DTD/svg11.dtd">
<svg version="1.1" id="Capa_1" xmlns="http://www.w3.org/2000/svg" xmlns:xlink="http://www.w3.org/1999/xlink" x="0px" y="0px"
	 width="89.876px" height="89.876px" viewBox="0 0 89.876 89.876" style="enable-background:new 0 0 89.876 89.876;"
	 xml:space="preserve">
<g>
	<g>
		<rect x="11.127" y="17.718" width="2.965" height="1.694"/>
		<rect x="15.045" y="17.718" width="35.794" height="1.694"/>
		<rect x="11.127" y="25.885" width="2.965" height="1.694"/>
		<rect x="15.045" y="25.885" width="35.794" height="1.694"/>
		<rect x="15.045" y="34.498" width="35.794" height="1.694"/>
		<rect x="11.127" y="34.498" width="2.965" height="1.694"/>
		<rect x="11.127" y="44.014" width="2.965" height="1.694"/>
		<path d="M72.864,34.318H67.63l0.002-31.352C67.632,1.331,66.3,0,64.665,0H6.21C4.575,0,3.245,1.331,3.245,2.966v73.705
			c0,1.636,1.33,2.966,2.965,2.966h52.463v1.281c0,4.939,4.02,8.958,8.958,8.958c4.94,0,8.958-4.019,8.958-8.958V61.342
			c5.787-1.629,10.042-6.955,10.042-13.256C86.632,40.494,80.456,34.318,72.864,34.318z M61.681,3.432
			c1.068,0,1.934,0.866,1.934,1.935c0,1.069-0.864,1.935-1.934,1.935c-1.068,0-1.934-0.866-1.934-1.935
			C59.747,4.298,60.612,3.432,61.681,3.432z M53.16,3.432c1.065,0,1.934,0.866,1.934,1.935c0,1.069-0.866,1.935-1.934,1.935
			c-1.07,0-1.937-0.866-1.937-1.935C51.224,4.298,52.089,3.432,53.16,3.432z M44.687,3.432c1.068,0,1.934,0.866,1.934,1.935
			c0,1.069-0.865,1.935-1.934,1.935s-1.934-0.866-1.934-1.935C42.753,4.298,43.619,3.432,44.687,3.432z M58.674,77.096H6.21
			c-0.234,0-0.424-0.191-0.424-0.425V11.014h58.879c0.148,0,0.289-0.024,0.424-0.06v0.047l-0.004,0.012v23.305h-2.686
			c-6.174,0-11.412,4.086-13.152,9.696H15.045v1.694h33.808c-0.137,0.774-0.221,1.565-0.221,2.378
			c0,6.301,4.254,11.626,10.042,13.256V77.096z M73.144,56.115h-1.848V81.7c0,1.989-1.611,3.603-3.602,3.603
			s-3.604-1.613-3.604-3.603V78.1l2.475-2.148l-2.475-2.744v-1.768c1.316-0.785,2.98-2.383,0-4.498v-3.489h2.475v-2.409h-2.475
			v-4.928h-1.847c-4.757,0-8.611-3.855-8.611-8.612c0-4.756,3.854-8.611,8.611-8.611h10.899c4.756,0,8.61,3.855,8.61,8.611
			C81.754,52.26,77.899,56.115,73.144,56.115z"/>
		<path d="M70.125,42.512h-4.86c-2.752,0-4.994,2.239-4.994,4.992s2.24,4.992,4.994,4.992h4.86c2.753,0,4.992-2.239,4.992-4.992
			S72.877,42.512,70.125,42.512z M70.125,50.496h-4.86c-1.65,0-2.994-1.342-2.994-2.992s1.344-2.992,2.994-2.992h4.86
			c1.649,0,2.992,1.342,2.992,2.992S71.774,50.496,70.125,50.496z"/>
	</g>
</g>
<g>
</g>
<g>
</g>
<g>
</g>
<g>
</g>
<g>
</g>
<g>
</g>
<g>
</g>
<g>
</g>
<g>
</g>
<g>
</g>
<g>
</g>
<g>
</g>
<g>
</g>
<g>
</g>
<g>
</g>
</svg>
