<?xml version="1.0" encoding="iso-8859-1"?>
<!-- Generator: Adobe Illustrator 16.0.0, SVG Export Plug-In . SVG Version: 6.00 Build 0)  -->
<!DOCTYPE svg PUBLIC "-//W3C//DTD SVG 1.1//EN" "http://www.w3.org/Graphics/SVG/1.1/DTD/svg11.dtd">
<svg version="1.1" id="Capa_1" xmlns="http://www.w3.org/2000/svg" xmlns:xlink="http://www.w3.org/1999/xlink" x="0px" y="0px"
	 width="102.594px" height="102.595px" viewBox="0 0 102.594 102.595" style="enable-background:new 0 0 102.594 102.595;"
	 xml:space="preserve">
<g>
	<g>
		<path d="M86.002,0H27.951c-1.624,0-2.944,1.321-2.944,2.945V16.46h-8.414c-1.623,0-2.944,1.321-2.944,2.944v73.195
			c0,1.624,1.321,2.945,2.944,2.945h56.945l4.94,5.42c0.944,1.036,2.292,1.631,3.694,1.631c1.25,0,2.444-0.464,3.369-1.306
			c2.035-1.857,2.182-5.025,0.325-7.063l-8.278-9.081v-6.062h8.414c1.623,0,2.943-1.32,2.943-2.944V2.945
			C88.947,1.321,87.625,0,86.002,0z M83.038,3.407c1.062,0,1.922,0.86,1.922,1.922c0,1.061-0.859,1.921-1.922,1.921
			c-1.062,0-1.921-0.86-1.921-1.921C81.117,4.268,81.977,3.407,83.038,3.407z M74.575,3.407c1.061,0,1.922,0.86,1.922,1.922
			c0,1.061-0.861,1.921-1.922,1.921c-1.062,0-1.921-0.86-1.921-1.921C72.654,4.268,73.514,3.407,74.575,3.407z M66.162,3.407
			c1.062,0,1.921,0.86,1.921,1.922c0,1.061-0.859,1.921-1.921,1.921S64.24,6.39,64.24,5.329C64.24,4.268,65.101,3.407,66.162,3.407z
			 M16.593,93.021c-0.231,0-0.42-0.188-0.42-0.422V27.398h58.472c0.146,0,0.285-0.025,0.421-0.06v35.507
			c-0.8-3.223-2.375-6.284-4.729-8.868c-3.896-4.275-9.459-6.727-15.261-6.727c-5.156,0-10.091,1.909-13.896,5.377
			c-0.071,0.064-0.131,0.138-0.201,0.203c-0.132-0.018-0.267-0.002-0.38,0.076l-3.021,2.105c-0.25,0.174-0.311,0.516-0.138,0.766
			c0.174,0.248,0.516,0.31,0.765,0.137l0.131-0.092c-5.58,7.748-5.188,18.627,1.495,25.959c3.891,4.268,9.443,6.715,15.234,6.715
			c3.454,0,6.803-0.848,9.8-2.467l6.372,6.99H16.593V93.021z M52.883,21.788c0-1.061,0.858-1.921,1.92-1.921s1.922,0.86,1.922,1.921
			c0,1.062-0.86,1.922-1.922,1.922S52.883,22.85,52.883,21.788z M61.295,21.788c0-1.061,0.859-1.921,1.922-1.921
			c1.061,0,1.92,0.86,1.92,1.921c0,1.062-0.859,1.922-1.92,1.922C62.155,23.71,61.295,22.85,61.295,21.788z M69.76,21.788
			c0-1.061,0.858-1.921,1.92-1.921s1.922,0.86,1.922,1.921c0,1.062-0.86,1.922-1.922,1.922S69.76,22.85,69.76,21.788z
			 M84.049,95.812c0.931,1.021,0.856,2.602-0.162,3.531c-1.021,0.93-2.603,0.855-3.532-0.163l-15-16.456
			c-7.345,5.037-17.481,4.036-23.646-2.727c-6.736-7.391-6.205-18.887,1.186-25.623c7.392-6.737,18.886-6.205,25.623,1.186
			c6.164,6.764,6.227,16.95,0.531,23.797L84.049,95.812z M75.066,72.893v9.484l-2.812-3.084
			C73.575,77.305,74.508,75.136,75.066,72.893z M86.424,76.141c0,0.232-0.189,0.422-0.422,0.422H77.59V19.404
			c0-1.623-1.321-2.944-2.945-2.944H27.53v-5.522h58.473c0.146,0,0.287-0.024,0.422-0.06V76.141z"/>
		<path d="M54.887,53.883c-3.531,0-6.911,1.309-9.519,3.684c-5.76,5.252-6.174,14.211-0.923,19.974
			c2.669,2.928,6.479,4.606,10.454,4.606h0.001c3.531,0,6.912-1.309,9.518-3.684c2.787-2.54,4.418-6.02,4.592-9.795
			c0.175-3.776-1.129-7.391-3.668-10.178C62.672,55.562,58.862,53.883,54.887,53.883z M46.147,61.941
			c0-0.457,0.373-0.828,0.827-0.828h3.867c0.456,0,0.828,0.371,0.828,0.828v7.729c0,0.457-0.372,0.828-0.828,0.828h-3.867
			c-0.454,0-0.827-0.371-0.827-0.828V61.941z M63.071,76.984c-2.236,2.039-5.139,3.162-8.17,3.162H54.9
			c-3.413,0-6.685-1.441-8.976-3.955c-3.703-4.062-4.118-9.973-1.412-14.453c-0.006,0.067-0.021,0.134-0.021,0.203v7.729
			c0,1.37,1.112,2.485,2.481,2.485h3.867c1.371,0,2.484-1.115,2.484-2.485v-7.729c0-1.371-1.113-2.484-2.484-2.484h-3.867
			c-0.285,0-0.556,0.059-0.811,0.146c0.182-0.188,0.357-0.38,0.554-0.559c2.236-2.039,5.139-3.162,8.17-3.162
			c3.414,0,6.686,1.441,8.977,3.955c2.182,2.393,3.299,5.495,3.148,8.736C66.862,71.818,65.463,74.805,63.071,76.984z"/>
		<path d="M24.477,29.836h-2.564c-0.908,0-1.648,0.739-1.648,1.648v5.128c0,0.908,0.74,1.647,1.648,1.647h2.564
			c0.909,0,1.647-0.739,1.647-1.647v-5.128C26.124,30.575,25.386,29.836,24.477,29.836z M25.026,36.612
			c0,0.303-0.246,0.549-0.549,0.549h-2.564c-0.302,0-0.55-0.246-0.55-0.549v-5.128c0-0.303,0.248-0.549,0.55-0.549h2.564
			c0.303,0,0.549,0.246,0.549,0.549V36.612z"/>
		<path d="M38.12,38.26h2.563c0.909,0,1.648-0.739,1.648-1.647v-5.128c0-0.909-0.739-1.648-1.648-1.648H38.12
			c-0.909,0-1.647,0.739-1.647,1.648v5.128C36.473,37.521,37.211,38.26,38.12,38.26z M37.571,31.485
			c0-0.303,0.246-0.549,0.549-0.549h2.563c0.303,0,0.55,0.246,0.55,0.549v5.128c0,0.303-0.247,0.549-0.55,0.549H38.12
			c-0.303,0-0.549-0.246-0.549-0.549V31.485z"/>
		<path d="M29.148,43.937v5.128c0,0.909,0.738,1.648,1.646,1.648h2.564c0.909,0,1.648-0.739,1.648-1.648v-5.128
			c0-0.908-0.739-1.647-1.648-1.647h-2.564C29.886,42.289,29.148,43.028,29.148,43.937z M33.907,43.937v5.128
			c0,0.303-0.246,0.549-0.549,0.549h-2.564c-0.302,0-0.549-0.246-0.549-0.549v-5.128c0-0.303,0.247-0.549,0.549-0.549h2.564
			C33.661,43.388,33.907,43.634,33.907,43.937z"/>
		<path d="M23.974,53.357H21.41c-0.908,0-1.648,0.74-1.648,1.648v5.128c0,0.909,0.74,1.647,1.648,1.647h2.564
			c0.908,0,1.646-0.738,1.646-1.647v-5.128C25.62,54.098,24.882,53.357,23.974,53.357z M24.523,60.134
			c0,0.304-0.246,0.549-0.549,0.549H21.41c-0.303,0-0.55-0.245-0.55-0.549v-5.128c0-0.303,0.247-0.549,0.55-0.549h2.564
			c0.303,0,0.549,0.246,0.549,0.549V60.134z"/>
		<path d="M35.007,60.134v-5.128c0-0.908-0.739-1.648-1.648-1.648h-2.564c-0.908,0-1.646,0.74-1.646,1.648v5.128
			c0,0.909,0.738,1.647,1.646,1.647h2.564C34.268,61.781,35.007,61.043,35.007,60.134z M33.907,60.134
			c0,0.304-0.246,0.549-0.549,0.549h-2.564c-0.302,0-0.549-0.245-0.549-0.549v-5.128c0-0.303,0.247-0.549,0.549-0.549h2.564
			c0.303,0,0.549,0.246,0.549,0.549V60.134z"/>
		<path d="M31.527,30.889v6.822c0,0.304,0.246,0.549,0.55,0.549c0.303,0,0.549-0.245,0.549-0.549v-7.875
			c0-0.205-0.114-0.393-0.295-0.487c-0.183-0.096-0.401-0.081-0.568,0.036l-3.022,2.105c-0.249,0.174-0.31,0.517-0.136,0.766
			c0.173,0.249,0.516,0.31,0.764,0.137L31.527,30.889z"/>
		<path d="M24.202,50.988c0.304,0,0.55-0.246,0.55-0.55v-7.875c0-0.204-0.114-0.393-0.296-0.487c-0.182-0.094-0.4-0.08-0.568,0.037
			l-3.021,2.105c-0.249,0.173-0.31,0.517-0.137,0.765c0.174,0.248,0.516,0.31,0.765,0.137l2.159-1.504v6.822
			C23.653,50.742,23.898,50.988,24.202,50.988z"/>
		<path d="M41.168,42.076c-0.182-0.095-0.401-0.08-0.569,0.037l-3.021,2.105c-0.25,0.173-0.311,0.517-0.138,0.765
			c0.174,0.248,0.516,0.31,0.765,0.137l2.158-1.504v6.822c0,0.304,0.246,0.55,0.55,0.55c0.303,0,0.549-0.246,0.549-0.55v-7.875
			C41.462,42.36,41.348,42.171,41.168,42.076z"/>
		<path d="M62.613,59.136c-0.272-0.144-0.604-0.121-0.858,0.056l-4.553,3.174c-0.377,0.263-0.469,0.779-0.208,1.154
			c0.263,0.373,0.777,0.467,1.152,0.205l3.254-2.267v10.284c0,0.457,0.371,0.828,0.829,0.828c0.456,0,0.826-0.371,0.826-0.828V59.87
			C63.057,59.562,62.883,59.279,62.613,59.136z"/>
	</g>
</g>
<g>
</g>
<g>
</g>
<g>
</g>
<g>
</g>
<g>
</g>
<g>
</g>
<g>
</g>
<g>
</g>
<g>
</g>
<g>
</g>
<g>
</g>
<g>
</g>
<g>
</g>
<g>
</g>
<g>
</g>
</svg>
