<?xml version="1.0" encoding="iso-8859-1"?>
<!-- Generator: Adobe Illustrator 16.0.0, SVG Export Plug-In . SVG Version: 6.00 Build 0)  -->
<!DOCTYPE svg PUBLIC "-//W3C//DTD SVG 1.1//EN" "http://www.w3.org/Graphics/SVG/1.1/DTD/svg11.dtd">
<svg version="1.1" id="Capa_1" xmlns="http://www.w3.org/2000/svg" xmlns:xlink="http://www.w3.org/1999/xlink" x="0px" y="0px"
	 width="83.166px" height="83.166px" viewBox="0 0 83.166 83.166" style="enable-background:new 0 0 83.166 83.166;"
	 xml:space="preserve">
<g>
	<g>
		<path d="M10,34.338H1c-0.553,0-1,0.448-1,1v40.995c0,0.552,0.447,1,1,1h9c0.552,0,1-0.448,1-1V35.338
			C11,34.786,10.552,34.338,10,34.338z M9,75.333H2V36.338h7V75.333z"/>
		<path d="M22.5,5.833h-9c-0.553,0-1,0.448-1,1v69.5c0,0.552,0.447,1,1,1h9c0.552,0,1-0.448,1-1v-69.5
			C23.5,6.281,23.052,5.833,22.5,5.833z"/>
		<path d="M39.333,51.838h-9c-0.552,0-1,0.448-1,1v23.495c0,0.552,0.448,1,1,1h9c0.553,0,1-0.448,1-1V52.838
			C40.333,52.286,39.886,51.838,39.333,51.838z M38.333,75.333h-7V53.838h7V75.333z"/>
		<path d="M51.833,33.333h-9c-0.552,0-1,0.448-1,1v42c0,0.552,0.448,1,1,1h9c0.554,0,1-0.448,1-1v-42
			C52.833,33.781,52.387,33.333,51.833,33.333z"/>
		<path d="M69.666,9.338h-9c-0.553,0-1,0.448-1,1v65.995c0,0.552,0.447,1,1,1h9c0.553,0,1-0.448,1-1V10.338
			C70.666,9.786,70.219,9.338,69.666,9.338z M68.666,75.333h-7V11.338h7V75.333z"/>
		<path d="M82.166,23.333h-9c-0.553,0-1,0.448-1,1v52c0,0.552,0.447,1,1,1h9c0.553,0,1-0.448,1-1v-52
			C83.166,23.781,82.719,23.333,82.166,23.333z"/>
	</g>
</g>
<g>
</g>
<g>
</g>
<g>
</g>
<g>
</g>
<g>
</g>
<g>
</g>
<g>
</g>
<g>
</g>
<g>
</g>
<g>
</g>
<g>
</g>
<g>
</g>
<g>
</g>
<g>
</g>
<g>
</g>
</svg>
