<?xml version="1.0" encoding="iso-8859-1"?>
<!-- Generator: Adobe Illustrator 16.0.0, SVG Export Plug-In . SVG Version: 6.00 Build 0)  -->
<!DOCTYPE svg PUBLIC "-//W3C//DTD SVG 1.1//EN" "http://www.w3.org/Graphics/SVG/1.1/DTD/svg11.dtd">
<svg version="1.1" id="Capa_1" xmlns="http://www.w3.org/2000/svg" xmlns:xlink="http://www.w3.org/1999/xlink" x="0px" y="0px"
	 width="96.996px" height="96.995px" viewBox="0 0 96.996 96.995" style="enable-background:new 0 0 96.996 96.995;"
	 xml:space="preserve">
<g>
	<g>
		<path d="M87.025,2.966C87.025,1.331,85.693,0,84.058,0H25.603c-1.635,0-2.965,1.331-2.965,2.966v14.393h-9.703
			c-1.635,0-2.965,1.331-2.965,2.966V94.03c0,1.635,1.33,2.965,2.965,2.965h47.773c-0.004-0.033-0.004-0.067-0.008-0.101h10.69
			c1.635,0,2.965-1.33,2.965-2.965V79.535h9.703c1.635,0,2.965-1.33,2.965-2.965V22.808c0,0-0.002,0-0.002,0.001L87.025,2.966z
			 M81.074,3.432c1.068,0,1.934,0.866,1.934,1.935c0,1.069-0.864,1.935-1.934,1.935c-1.068,0-1.934-0.866-1.934-1.935
			C79.14,4.298,80.005,3.432,81.074,3.432z M72.553,3.432c1.065,0,1.934,0.866,1.934,1.935c0,1.069-0.866,1.935-1.934,1.935
			c-1.07,0-1.937-0.866-1.937-1.935C70.617,4.298,71.482,3.432,72.553,3.432z M64.08,3.432c1.068,0,1.935,0.866,1.935,1.935
			c0,1.069-0.865,1.935-1.935,1.935c-1.068,0-1.934-0.866-1.934-1.935C62.146,4.298,63.012,3.432,64.08,3.432z M71.816,93.93
			c0,0.232-0.189,0.424-0.424,0.424H23.787c-0.002,0.033-0.004,0.066-0.006,0.101H12.936c-0.234,0-0.424-0.19-0.424-0.424V28.372
			h58.879c0.147,0,0.289-0.024,0.424-0.06v0.048l-0.004,0.012v19.812c0.002,0,0.004,0,0.006,0L71.816,93.93L71.816,93.93z
			 M49.478,22.725c0-1.068,0.865-1.935,1.934-1.935c1.069,0,1.935,0.866,1.935,1.935s-0.865,1.935-1.935,1.935
			C50.343,24.66,49.478,23.793,49.478,22.725z M57.949,22.725c0-1.068,0.865-1.935,1.937-1.935c1.065,0,1.934,0.866,1.934,1.935
			s-0.866,1.935-1.934,1.935C58.814,24.659,57.949,23.793,57.949,22.725z M66.473,22.725c0-1.068,0.864-1.935,1.935-1.935
			c1.068,0,1.934,0.866,1.934,1.935s-0.865,1.935-1.934,1.935C67.337,24.66,66.473,23.793,66.473,22.725z M84.484,76.57
			c0,0.232-0.189,0.424-0.424,0.424h-9.703V40.167c0,0,0,0-0.002,0l0.002-19.843c0-1.635-1.332-2.966-2.967-2.966H25.18v-6.345
			h58.879c0.147,0,0.289-0.024,0.424-0.06V11l-0.004,0.013v19.811c0.002,0,0.004,0.001,0.006,0.001L84.484,76.57L84.484,76.57z"/>
		<polygon points="16.727,60.65 34.773,69.947 34.773,65.477 22.156,59.15 34.773,52.827 34.773,48.357 16.727,57.652 		"/>
		<polygon points="45.262,43.592 34.805,70.762 39.102,70.762 49.596,43.592 		"/>
		<polygon points="49.557,52.829 62.268,59.15 49.557,65.475 49.557,69.944 67.602,60.688 67.602,57.614 49.557,48.359 		"/>
	</g>
</g>
<g>
</g>
<g>
</g>
<g>
</g>
<g>
</g>
<g>
</g>
<g>
</g>
<g>
</g>
<g>
</g>
<g>
</g>
<g>
</g>
<g>
</g>
<g>
</g>
<g>
</g>
<g>
</g>
<g>
</g>
</svg>
