<?xml version="1.0" encoding="iso-8859-1"?>
<!-- Generator: Adobe Illustrator 16.0.0, SVG Export Plug-In . SVG Version: 6.00 Build 0)  -->
<!DOCTYPE svg PUBLIC "-//W3C//DTD SVG 1.1//EN" "http://www.w3.org/Graphics/SVG/1.1/DTD/svg11.dtd">
<svg version="1.1" id="Capa_1" xmlns="http://www.w3.org/2000/svg" xmlns:xlink="http://www.w3.org/1999/xlink" x="0px" y="0px"
	 width="93.049px" height="93.049px" viewBox="0 0 93.049 93.049" style="enable-background:new 0 0 93.049 93.049;"
	 xml:space="preserve">
<g>
	<g>
		<g>
			<path d="M51.972,49.13l-1.923-0.71c0.152-1.4,0.104-2.829-0.161-4.25l1.856-0.855c1.158-0.533,1.667-1.91,1.133-3.07
				l-1.082-2.352c-0.534-1.159-1.911-1.668-3.068-1.135l-1.857,0.856c-0.908-1.125-1.962-2.091-3.125-2.887l0.709-1.921
				c0.441-1.196-0.173-2.531-1.369-2.973l-2.43-0.897c-1.16-0.428-2.545,0.21-2.973,1.369l-0.709,1.922
				c-1.401-0.152-2.831-0.103-4.251,0.161l-0.855-1.855c-0.534-1.16-1.911-1.668-3.07-1.135l-2.353,1.084
				c-1.158,0.534-1.668,1.911-1.135,3.07l0.855,1.856c-1.123,0.908-2.09,1.963-2.886,3.126l-1.919-0.709
				c-1.158-0.43-2.546,0.208-2.975,1.368l-0.896,2.431c-0.215,0.581-0.189,1.209,0.068,1.771c0.26,0.561,0.723,0.989,1.301,1.201
				l1.921,0.71c-0.151,1.4-0.103,2.83,0.162,4.251l-1.856,0.854c-1.159,0.533-1.668,1.912-1.134,3.068l1.084,2.354
				c0.534,1.157,1.911,1.666,3.069,1.133l1.857-0.854c0.908,1.125,1.962,2.091,3.126,2.887l-0.71,1.92
				c-0.215,0.58-0.19,1.207,0.068,1.77s0.721,0.989,1.301,1.203l2.43,0.897c0.58,0.214,1.209,0.19,1.77-0.067
				c0.563-0.26,0.989-0.723,1.203-1.301l0.709-1.922c1.4,0.15,2.83,0.104,4.252-0.162l0.854,1.855
				c0.535,1.16,1.912,1.668,3.07,1.136l2.354-1.085c1.159-0.534,1.668-1.911,1.134-3.07l-0.855-1.855
				c1.124-0.91,2.091-1.963,2.886-3.125l1.922,0.709c0.58,0.215,1.209,0.189,1.77-0.069c0.562-0.257,0.988-0.722,1.203-1.3
				l0.896-2.43C53.781,50.905,53.168,49.573,51.972,49.13z M38.744,54.093c-3.993,1.84-8.72,0.094-10.56-3.898
				c-1.839-3.992-0.094-8.72,3.898-10.561c3.994-1.838,8.721-0.094,10.561,3.899C44.482,47.526,42.737,52.254,38.744,54.093z"/>
			<path d="M35.413,42.201c-2.574,0-4.669,2.095-4.669,4.669s2.095,4.669,4.669,4.669c2.574,0,4.67-2.095,4.67-4.669
				S37.987,42.201,35.413,42.201z M35.413,49.95c-1.697,0-3.08-1.383-3.08-3.08s1.383-3.08,3.08-3.08c1.699,0,3.08,1.383,3.08,3.08
				S37.112,49.95,35.413,49.95z"/>
		</g>
		<g>
			<circle cx="64.854" cy="69.738" r="2.171"/>
			<path d="M62.507,64.638c-2.813,1.297-4.043,4.629-2.748,7.443c1.297,2.812,4.628,4.043,7.442,2.747
				c2.812-1.296,4.044-4.628,2.748-7.442C68.652,64.573,65.322,63.343,62.507,64.638z M64.854,73.028
				c-1.813,0-3.289-1.477-3.289-3.291c0-1.813,1.476-3.291,3.289-3.291s3.291,1.478,3.291,3.291
				C68.145,71.552,66.668,73.028,64.854,73.028z"/>
			<path d="M70.725,61.181c0.819,0.561,1.562,1.241,2.202,2.034l1.31-0.604c0.416-0.19,0.871-0.189,1.271-0.035l0.306-0.83
				c-0.586-0.4-1.117-0.889-1.576-1.455l-0.936,0.432c-0.584,0.27-1.277,0.014-1.548-0.57l-0.431-0.938
				c0.006,0.204-0.023,0.411-0.098,0.613L70.725,61.181z"/>
			<path d="M92.275,55.353c0.096-0.188,0.182-0.381,0.256-0.582c0.478-1.295,0.424-2.699-0.153-3.951l-0.547-1.187
				c-0.673-1.459-1.984-2.506-3.511-2.867c-0.471-1.463-1.584-2.704-3.133-3.275l-1.215-0.448c-1.488-0.552-3.207-0.344-4.507,0.457
				c-1.364-0.709-3.09-0.773-4.537-0.108L73.74,43.94c-1.5,0.692-2.512,2.02-2.863,3.518c-0.018,0.005-0.031,0.014-0.048,0.02V9.547
				c0-1.75-1.421-3.171-3.173-3.171H3.172C1.42,6.376,0,7.797,0,9.547v64.485c0,1.75,1.42,3.172,3.172,3.172H49.27l0.338,0.732
				c0.867,1.879,2.709,3.129,4.758,3.26c0.076,0.533,0.229,1.06,0.461,1.562c0.63,1.371,1.757,2.413,3.166,2.932l1.72,0.636
				c0.627,0.229,1.28,0.347,1.946,0.347c0.818,0,1.611-0.175,2.347-0.514c0.509-0.233,0.974-0.535,1.381-0.896
				c1.591,1.193,3.86,1.479,5.737,0.615l1.654-0.764c1.367-0.629,2.406-1.754,2.929-3.166c0.192-0.52,0.306-1.057,0.34-1.596
				c0.541-0.076,1.063-0.229,1.556-0.457c1.366-0.625,2.409-1.748,2.938-3.17l0.633-1.716c0.736-2.003,0.26-4.163-1.062-5.668
				c0.24-0.319,0.445-0.665,0.615-1.034c1.307,0.572,2.891,0.576,4.227-0.041l1.181-0.545c1.255-0.574,2.209-1.605,2.688-2.9
				c0.072-0.199,0.135-0.401,0.184-0.605c0.195-0.062,0.387-0.138,0.572-0.225c1.252-0.569,2.209-1.596,2.703-2.912l0.451-1.223
				C93.3,58.31,93.081,56.66,92.275,55.353z M57.613,12.189c2.189,0,3.966,1.775,3.966,3.964s-1.775,3.965-3.966,3.965
				c-2.188,0-3.963-1.776-3.963-3.965S55.426,12.189,57.613,12.189z M42.549,12.189c2.189,0,3.965,1.775,3.965,3.964
				s-1.775,3.965-3.965,3.965c-2.188,0-3.963-1.776-3.963-3.965S40.362,12.189,42.549,12.189z M49.029,63.146l-0.637,1.721
				c-0.516,1.408-0.455,2.934,0.178,4.311c0.23,0.5,0.529,0.955,0.884,1.357c-0.077,0.104-0.14,0.218-0.209,0.326H6.343V25.932
				h58.142v28.461c-0.098,0.073-0.201,0.144-0.293,0.225c-1.59-1.2-3.863-1.49-5.746-0.623l-1.664,0.766
				c-1.939,0.896-3.129,2.77-3.256,4.771C51.496,59.827,49.746,61.205,49.029,63.146z M89.048,58.269l-0.451,1.227
				c-0.108,0.291-0.323,0.525-0.606,0.654c-0.282,0.131-0.6,0.144-0.894,0.035l-0.968-0.359c-0.4,0.588-0.889,1.119-1.455,1.576
				l0.432,0.937c0.27,0.585,0.014,1.278-0.572,1.548l-1.187,0.547c-0.584,0.271-1.278,0.014-1.548-0.57l-0.432-0.938
				c-0.717,0.135-1.438,0.158-2.143,0.082l-0.357,0.969c-0.107,0.291-0.322,0.525-0.606,0.655c-0.282,0.132-0.599,0.144-0.892,0.035
				l-0.475-0.175l0.267,0.578c0.377,0.816,0.019,1.787-0.798,2.164l-1.309,0.603c0.186,1.001,0.221,2.008,0.113,2.995l1.355,0.5
				c0.842,0.312,1.273,1.252,0.963,2.096l-0.631,1.713c-0.151,0.407-0.453,0.734-0.849,0.916c-0.396,0.184-0.839,0.2-1.248,0.049
				l-1.354-0.5c-0.561,0.819-1.241,1.562-2.033,2.203l0.604,1.307c0.377,0.818,0.018,1.789-0.8,2.164l-1.657,0.766
				c-0.816,0.376-1.787,0.018-2.164-0.8l-0.603-1.31c-1.002,0.188-2.011,0.223-2.996,0.114l-0.5,1.354
				c-0.149,0.406-0.451,0.734-0.849,0.916c-0.396,0.183-0.838,0.199-1.246,0.049l-1.713-0.633c-0.409-0.15-0.735-0.453-0.918-0.848
				c-0.182-0.396-0.198-0.84-0.047-1.248l0.5-1.354c-0.819-0.561-1.562-1.241-2.203-2.034l-1.31,0.603
				c-0.815,0.377-1.786,0.02-2.163-0.797l-0.764-1.66c-0.377-0.814-0.018-1.787,0.799-2.162l1.309-0.604
				c-0.187-1.001-0.221-2.009-0.113-2.996l-1.354-0.5c-0.408-0.148-0.734-0.451-0.918-0.847c-0.182-0.396-0.199-0.839-0.049-1.248
				l0.633-1.713c0.303-0.817,1.279-1.267,2.096-0.964l1.354,0.5c0.562-0.82,1.242-1.563,2.034-2.203l-0.604-1.309
				c-0.375-0.817-0.016-1.787,0.801-2.164l1.658-0.765c0.816-0.376,1.787-0.019,2.162,0.8l0.604,1.309
				c1-0.186,2.008-0.221,2.995-0.113l0.5-1.354c0.302-0.817,1.277-1.268,2.095-0.965l1.713,0.631
				c0.377,0.141,0.665,0.408,0.849,0.732c0.006-0.436,0.248-0.854,0.67-1.048l0.937-0.431c-0.134-0.717-0.157-1.438-0.081-2.145
				l-0.969-0.357c-0.291-0.106-0.524-0.322-0.656-0.604c-0.13-0.282-0.143-0.601-0.035-0.894l0.453-1.225
				c0.217-0.586,0.915-0.906,1.499-0.691l0.968,0.359c0.401-0.588,0.889-1.119,1.455-1.576l-0.432-0.938
				c-0.27-0.584-0.012-1.277,0.572-1.548l1.186-0.546c0.585-0.27,1.279-0.013,1.548,0.573l0.433,0.936
				c0.715-0.133,1.437-0.158,2.144-0.082l0.356-0.969c0.215-0.584,0.914-0.906,1.498-0.689l1.226,0.451
				c0.604,0.223,0.913,0.896,0.69,1.5l-0.357,0.968c0.587,0.401,1.117,0.888,1.576,1.455l0.937-0.433
				c0.584-0.268,1.277-0.012,1.548,0.572l0.545,1.187c0.271,0.585,0.014,1.278-0.57,1.548l-0.936,0.432
				c0.133,0.717,0.157,1.437,0.082,2.143l0.969,0.357C88.962,56.994,89.271,57.666,89.048,58.269z"/>
			<circle cx="80.01" cy="55.63" r="1.553"/>
			<path d="M78.332,51.981c-2.014,0.929-2.893,3.312-1.967,5.326c0.929,2.012,3.312,2.891,5.324,1.965
				c2.014-0.928,2.894-3.312,1.967-5.324C82.729,51.935,80.345,51.056,78.332,51.981z M80.01,57.983
				c-1.298,0-2.354-1.055-2.354-2.354c0-1.298,1.056-2.354,2.354-2.354c1.299,0,2.354,1.057,2.354,2.354S81.309,57.983,80.01,57.983
				z"/>
			<path d="M71.207,58.964l0.115,0.25c-0.01-0.266-0.086-0.521-0.215-0.75C71.105,58.632,71.131,58.802,71.207,58.964z"/>
		</g>
	</g>
</g>
<g>
</g>
<g>
</g>
<g>
</g>
<g>
</g>
<g>
</g>
<g>
</g>
<g>
</g>
<g>
</g>
<g>
</g>
<g>
</g>
<g>
</g>
<g>
</g>
<g>
</g>
<g>
</g>
<g>
</g>
</svg>
