<?xml version="1.0" encoding="iso-8859-1"?>
<!-- Generator: Adobe Illustrator 16.0.0, SVG Export Plug-In . SVG Version: 6.00 Build 0)  -->
<!DOCTYPE svg PUBLIC "-//W3C//DTD SVG 1.1//EN" "http://www.w3.org/Graphics/SVG/1.1/DTD/svg11.dtd">
<svg version="1.1" id="Capa_1" xmlns="http://www.w3.org/2000/svg" xmlns:xlink="http://www.w3.org/1999/xlink" x="0px" y="0px"
	 width="113.969px" height="113.969px" viewBox="0 0 113.969 113.969" style="enable-background:new 0 0 113.969 113.969;"
	 xml:space="preserve">
<g>
	<g>
		<path d="M104.984,68.938h-6.333V10.272h6.333c1.657,0,3-1.344,3-3c0-1.657-1.343-3-3-3h-9.333H56.984V1.479
			C56.984,0.663,56.322,0,55.505,0s-1.479,0.662-1.479,1.479v2.793H18.317H8.984c-1.657,0-3,1.343-3,3c0,1.656,1.343,3,3,3h6.333
			v58.666H8.984c-1.657,0-3,1.344-3,3s1.343,3,3,3h9.333h39.437c-0.092,0.055-0.181,0.112-0.265,0.178
			c-0.05,0.041-0.099,0.078-0.146,0.121c-0.101,0.092-0.19,0.193-0.274,0.301c-0.022,0.029-0.053,0.051-0.075,0.082L40.631,98.482
			c-0.803,1.123-0.544,2.685,0.578,3.487c1.123,0.802,2.685,0.546,3.488-0.577l11.83-16.531v26.607c0,1.381,1.119,2.5,2.5,2.5
			s2.5-1.119,2.5-2.5V84.861l11.83,16.531c0.488,0.682,1.256,1.045,2.035,1.045c0.504,0,1.012-0.152,1.453-0.468
			c1.123-0.804,1.381-2.364,0.578-3.487L61.061,75.619c-0.021-0.031-0.053-0.053-0.075-0.082c-0.084-0.107-0.174-0.209-0.274-0.301
			c-0.047-0.043-0.096-0.08-0.146-0.121c-0.083-0.065-0.173-0.123-0.265-0.178h35.351h9.333c1.657,0,3-1.344,3-3
			S106.642,68.938,104.984,68.938z M94.817,68.938H19.151V10.272h75.667L94.817,68.938L94.817,68.938z"/>
		<path d="M25.985,39.698c1.149,0,2.136-0.676,2.606-1.648l11.243-0.896c0.513,0.825,1.42,1.38,2.46,1.38
			c0.388,0,0.757-0.079,1.095-0.218l8.932,8.112c-0.015,0.115-0.036,0.229-0.036,0.349c0,1.6,1.302,2.902,2.903,2.902
			c1.6,0,2.901-1.302,2.901-2.902c0-0.159-0.022-0.312-0.045-0.464l7.151-6.481c0.329,0.13,0.685,0.208,1.06,0.208
			c0.688,0,1.312-0.251,1.81-0.651l7.28,3.64c0.152,1.458,1.375,2.603,2.873,2.603c1.6,0,2.902-1.302,2.902-2.902
			c0-0.347-0.072-0.676-0.185-0.985l6.427-7.803c0.199,0.044,0.407,0.07,0.62,0.07c1.601,0,2.903-1.302,2.903-2.902
			s-1.303-2.902-2.903-2.902s-2.901,1.302-2.901,2.902c0,0.346,0.07,0.674,0.182,0.982l-6.426,7.805
			c-0.201-0.044-0.405-0.07-0.619-0.07c-0.672,0-1.283,0.24-1.775,0.624l-7.316-3.658c-0.175-1.437-1.387-2.558-2.869-2.558
			c-1.6,0-2.901,1.302-2.901,2.902c0,0.186,0.021,0.367,0.055,0.543l-7.09,6.425c-0.348-0.148-0.729-0.229-1.13-0.229
			c-0.435,0-0.845,0.103-1.216,0.276l-8.826-8.016c0.028-0.164,0.05-0.331,0.05-0.502c0-1.6-1.302-2.903-2.903-2.903
			c-1.141,0-2.123,0.669-2.596,1.631L28.438,35.26c-0.514-0.815-1.417-1.364-2.451-1.364c-1.601,0-2.903,1.302-2.903,2.903
			C23.083,38.396,24.384,39.698,25.985,39.698z M87.983,29.604c0.832,0,1.505,0.673,1.505,1.504s-0.674,1.504-1.505,1.504
			s-1.504-0.673-1.504-1.504S87.152,29.604,87.983,29.604z M78.219,41.223c0.83,0,1.504,0.673,1.504,1.505
			c0,0.83-0.674,1.504-1.504,1.504c-0.832,0-1.506-0.674-1.506-1.504C76.713,41.896,77.387,41.223,78.219,41.223z M66.258,35.631
			c0.83,0,1.504,0.673,1.504,1.504c0,0.832-0.674,1.505-1.504,1.505c-0.832,0-1.504-0.673-1.504-1.505
			C64.754,36.304,65.426,35.631,66.258,35.631z M55.19,45.272c0.831,0,1.504,0.673,1.504,1.504s-0.673,1.504-1.504,1.504
			c-0.832,0-1.504-0.673-1.504-1.504S54.358,45.272,55.19,45.272z M42.295,34.126c0.831,0,1.505,0.674,1.505,1.505
			s-0.674,1.504-1.505,1.504s-1.504-0.673-1.504-1.504S41.464,34.126,42.295,34.126z M25.985,35.291
			c0.831,0,1.504,0.674,1.504,1.505S26.816,38.3,25.985,38.3c-0.832,0-1.505-0.674-1.505-1.504
			C24.48,35.965,25.154,35.291,25.985,35.291z"/>
	</g>
</g>
<g>
</g>
<g>
</g>
<g>
</g>
<g>
</g>
<g>
</g>
<g>
</g>
<g>
</g>
<g>
</g>
<g>
</g>
<g>
</g>
<g>
</g>
<g>
</g>
<g>
</g>
<g>
</g>
<g>
</g>
</svg>
