<?xml version="1.0" encoding="iso-8859-1"?>
<!-- Generator: Adobe Illustrator 16.0.0, SVG Export Plug-In . SVG Version: 6.00 Build 0)  -->
<!DOCTYPE svg PUBLIC "-//W3C//DTD SVG 1.1//EN" "http://www.w3.org/Graphics/SVG/1.1/DTD/svg11.dtd">
<svg version="1.1" id="Capa_1" xmlns="http://www.w3.org/2000/svg" xmlns:xlink="http://www.w3.org/1999/xlink" x="0px" y="0px"
	 width="92.666px" height="92.666px" viewBox="0 0 92.666 92.666" style="enable-background:new 0 0 92.666 92.666;"
	 xml:space="preserve">
<g>
	<g>
		<path d="M65.692,0H12.499v92.666h67.668v-75.72L65.692,0z M65.001,3.81l11.125,13.023H65.001V3.81z M77.167,89.666H15.499V3
			h46.502v16.833h15.166V89.666z"/>
		<path d="M47.004,42.185c-0.955-0.165-1.915-0.249-2.852-0.249c-9.163,0-16.618,7.455-16.618,16.619
			c0,9.162,7.455,16.617,16.618,16.617c9.164,0,16.617-7.455,16.617-16.617c0-0.578-0.033-1.181-0.098-1.791l-0.095-0.896H47.833
			v-13.54L47.004,42.185z"/>
		<path d="M50.979,38.446l-1.172-0.203v15.886h14.959l-0.119-1.107C63.86,45.697,58.24,39.703,50.979,38.446z M51.81,52.13V40.67
			c5.453,1.417,9.653,5.918,10.688,11.46H51.81z"/>
		<polygon points="58.167,20.5 58.167,18.166 33,18.166 19.667,18.166 19.667,20.5 33,20.5 		"/>
		<polygon points="58.167,27 58.167,24.666 33,24.666 19.667,24.666 19.667,27 33,27 		"/>
		<polygon points="58.167,33.5 58.167,31.166 33,31.166 19.667,31.166 19.667,33.5 33,33.5 		"/>
		<rect x="20.416" y="81.333" width="49.584" height="2.333"/>
	</g>
</g>
<g>
</g>
<g>
</g>
<g>
</g>
<g>
</g>
<g>
</g>
<g>
</g>
<g>
</g>
<g>
</g>
<g>
</g>
<g>
</g>
<g>
</g>
<g>
</g>
<g>
</g>
<g>
</g>
<g>
</g>
</svg>
