<?xml version="1.0" encoding="iso-8859-1"?>
<!-- Generator: Adobe Illustrator 16.0.0, SVG Export Plug-In . SVG Version: 6.00 Build 0)  -->
<!DOCTYPE svg PUBLIC "-//W3C//DTD SVG 1.1//EN" "http://www.w3.org/Graphics/SVG/1.1/DTD/svg11.dtd">
<svg version="1.1" id="Capa_1" xmlns="http://www.w3.org/2000/svg" xmlns:xlink="http://www.w3.org/1999/xlink" x="0px" y="0px"
	 width="105.913px" height="105.913px" viewBox="0 0 105.913 105.913" style="enable-background:new 0 0 105.913 105.913;"
	 xml:space="preserve">
<g>
	<path d="M28.237,11.234l5.39,1.806l-1.806,5.388l-5.39-1.806L28.237,11.234z M31.397,1.807L26.008,0l-1.807,5.39l5.389,1.807
		L31.397,1.807z M45.709,9.601l-5.391-1.809l-1.808,5.39l5.391,1.808L45.709,9.601z M52.871,23.994L58.26,25.8l1.807-5.388
		l-5.389-1.808l-1.722,5.136l-5.389-1.807l1.722-5.135L43.9,14.991l-1.807,5.389l5.389,1.807l-1.722,5.135l5.389,1.807
		L52.871,23.994z M38.564,30.905l5.389,1.806l1.807-5.389l-5.389-1.807l1.665-4.967l-5.39-1.806l-1.807,5.388l5.39,1.808
		L38.564,30.905z M85.791,31.337c0,0.006,0.002,0.013,0.002,0.019v6.781c0,0.311-0.072,0.619-0.216,0.897L66.639,76.068v26.22v3.625
		h-4.002H44.755h-3.981v-3.625V75.814L20.327,39.093c-0.163-0.293-0.249-0.623-0.249-0.958v-6.781c0-0.223,0.045-0.436,0.116-0.64
		c0.051-0.424,0.207-0.839,0.533-1.164c0.186-0.187,3.184-3.056,11.755-5.103l-0.317,0.945l5.39,1.808l-0.088,0.263
		c-6.404,1.055-10.187,2.629-12.16,3.702c3.256,1.751,11.234,4.789,27.411,4.789c16.227,0,24.43-3.058,27.809-4.822
		c-2.867-1.483-9.114-3.839-20.557-4.563l1.299-3.871c17.894,1.313,23.703,6.555,23.973,6.809
		C85.76,29.993,85.923,30.688,85.791,31.337z M78.495,44.223c-4.696,1.805-12.629,3.679-25.34,3.679
		c-12.604,0-20.614-1.835-25.426-3.619L43.76,73.074l0.886,29.216H62.76l0.982-29.216L78.495,44.223z M81.852,34.88
		c-4.244,2.099-13.039,5.018-29.131,5.018c-15.899,0-24.511-2.858-28.697-4.962v2.688l0.44,0.791
		c1.582,1.117,9.199,5.642,28.693,5.642c19.755,0,26.974-4.645,28.324-5.667l0.373-0.729V34.88H81.852z"/>
</g>
<g>
</g>
<g>
</g>
<g>
</g>
<g>
</g>
<g>
</g>
<g>
</g>
<g>
</g>
<g>
</g>
<g>
</g>
<g>
</g>
<g>
</g>
<g>
</g>
<g>
</g>
<g>
</g>
<g>
</g>
</svg>
