<?xml version="1.0" encoding="iso-8859-1"?>
<!-- Generator: Adobe Illustrator 16.0.0, SVG Export Plug-In . SVG Version: 6.00 Build 0)  -->
<!DOCTYPE svg PUBLIC "-//W3C//DTD SVG 1.1//EN" "http://www.w3.org/Graphics/SVG/1.1/DTD/svg11.dtd">
<svg version="1.1" id="Capa_1" xmlns="http://www.w3.org/2000/svg" xmlns:xlink="http://www.w3.org/1999/xlink" x="0px" y="0px"
	 width="91.221px" height="91.221px" viewBox="0 0 91.221 91.221" style="enable-background:new 0 0 91.221 91.221;"
	 xml:space="preserve">
<g>
	<path d="M37.838,35.721v27.312c-3.509-1.234-6.739-3.207-9.442-5.814c-4.999-4.824-7.819-11.307-7.942-18.251
		c-0.123-6.946,2.466-13.523,7.29-18.521c4.824-4.999,11.306-7.819,18.251-7.942c6.304-0.125,12.282,2.007,17.068,5.996H46.758v5
		h24.34V0h-5v14.527c-12.35-10.13-30.669-9.245-41.954,2.447c-11.873,12.302-11.524,31.97,0.778,43.843
		c3.643,3.515,8.087,6.069,12.915,7.464v22.939h37.921v-55.5H37.838z M70.758,86.221h-27.92v-45.5h27.92V86.221z"/>
</g>
<g>
</g>
<g>
</g>
<g>
</g>
<g>
</g>
<g>
</g>
<g>
</g>
<g>
</g>
<g>
</g>
<g>
</g>
<g>
</g>
<g>
</g>
<g>
</g>
<g>
</g>
<g>
</g>
<g>
</g>
</svg>
