<?xml version="1.0" encoding="iso-8859-1"?>
<!-- Generator: Adobe Illustrator 16.0.0, SVG Export Plug-In . SVG Version: 6.00 Build 0)  -->
<!DOCTYPE svg PUBLIC "-//W3C//DTD SVG 1.1//EN" "http://www.w3.org/Graphics/SVG/1.1/DTD/svg11.dtd">
<svg version="1.1" id="Capa_1" xmlns="http://www.w3.org/2000/svg" xmlns:xlink="http://www.w3.org/1999/xlink" x="0px" y="0px"
	 width="103.667px" height="103.667px" viewBox="0 0 103.667 103.667" style="enable-background:new 0 0 103.667 103.667;"
	 xml:space="preserve">
<g>
	<g>
		<path style="stroke:#000000;stroke-width:3;stroke-linecap:round;stroke-linejoin:round;stroke-miterlimit:10;" d="M57.834,19.848
			"/>
	</g>
	<g>
		<path d="M96.834,53.217c-0.829,0-1.5,0.672-1.5,1.5v33.862H3V18.731h55.834c0.829,0,1.5-0.671,1.5-1.5s-0.671-1.5-1.5-1.5H1.5
			c-0.829,0-1.5,0.671-1.5,1.5v72.848c0,0.829,0.671,1.5,1.5,1.5h95.334c0.829,0,1.5-0.671,1.5-1.5V54.717
			C98.334,53.889,97.662,53.217,96.834,53.217z"/>
		<path d="M103.654,37.495l-2.332-23.167c-0.004-0.04-0.018-0.076-0.023-0.116c-0.006-0.039-0.003-0.078-0.011-0.117
			c-0.009-0.044-0.028-0.083-0.039-0.127c-0.021-0.085-0.046-0.169-0.076-0.25c-0.028-0.075-0.06-0.146-0.093-0.217
			c-0.037-0.077-0.076-0.15-0.12-0.222c-0.041-0.067-0.085-0.131-0.132-0.194c-0.049-0.066-0.102-0.129-0.157-0.19
			c-0.053-0.058-0.108-0.111-0.166-0.164c-0.062-0.055-0.124-0.107-0.19-0.156c-0.062-0.046-0.125-0.089-0.192-0.129
			c-0.069-0.042-0.142-0.081-0.214-0.116c-0.072-0.034-0.146-0.065-0.221-0.092c-0.074-0.027-0.149-0.051-0.227-0.071
			c-0.082-0.021-0.165-0.038-0.25-0.051c-0.076-0.012-0.15-0.02-0.229-0.024c-0.09-0.005-0.178-0.005-0.269,0
			c-0.043,0.002-0.085-0.004-0.129,0c-0.04,0.004-0.076,0.018-0.114,0.023c-0.041,0.006-0.078,0.003-0.119,0.011l-23.668,4.667
			c-1.354,0.267-2.236,1.582-1.969,2.936c0.235,1.192,1.28,2.017,2.45,2.017c0.161,0,0.323-0.016,0.485-0.048l16.608-3.275
			c-5.967,8.313-11.498,17.216-16.868,25.86c-2.648,4.262-5.373,8.646-8.1,12.875L40.626,34.346
			c-0.553-0.473-1.286-0.682-2.006-0.571c-0.72,0.111-1.356,0.53-1.741,1.148l-27,43.333c-0.73,1.172-0.372,2.714,0.8,3.444
			c0.412,0.256,0.868,0.378,1.32,0.378c0.834,0,1.65-0.418,2.125-1.178l25.462-40.866L66.21,62.811
			c0.545,0.467,1.269,0.676,1.978,0.574c0.711-0.102,1.346-0.504,1.739-1.105c3.275-4.998,6.548-10.267,9.712-15.359
			c5.506-8.861,11.186-17.987,17.282-26.399l1.761,17.473c0.129,1.289,1.215,2.25,2.483,2.25c0.083,0,0.168-0.004,0.253-0.013
			C102.792,40.095,103.793,38.869,103.654,37.495z"/>
	</g>
</g>
<g>
</g>
<g>
</g>
<g>
</g>
<g>
</g>
<g>
</g>
<g>
</g>
<g>
</g>
<g>
</g>
<g>
</g>
<g>
</g>
<g>
</g>
<g>
</g>
<g>
</g>
<g>
</g>
<g>
</g>
</svg>
