<?xml version="1.0" encoding="iso-8859-1"?>
<!-- Generator: Adobe Illustrator 16.0.0, SVG Export Plug-In . SVG Version: 6.00 Build 0)  -->
<!DOCTYPE svg PUBLIC "-//W3C//DTD SVG 1.1//EN" "http://www.w3.org/Graphics/SVG/1.1/DTD/svg11.dtd">
<svg version="1.1" id="Capa_1" xmlns="http://www.w3.org/2000/svg" xmlns:xlink="http://www.w3.org/1999/xlink" x="0px" y="0px"
	 width="101.848px" height="101.848px" viewBox="0 0 101.848 101.848" style="enable-background:new 0 0 101.848 101.848;"
	 xml:space="preserve">
<g>
	<path d="M96.199,55.108H80.822V20.67c0-2.053-1.674-3.724-3.726-3.724H3.721C1.668,16.946,0,18.617,0,20.67v60.51
		c0,2.052,1.668,3.722,3.721,3.722h59.969c-0.006-0.042-0.006-0.085-0.01-0.126H77.1c2.053,0,3.723-1.67,3.723-3.723V66.405h15.377
		c3.115,0,5.648-2.533,5.648-5.648S99.314,55.108,96.199,55.108z M73.352,21.254c1.34,0,2.426,1.088,2.426,2.429
		c0,1.341-1.086,2.429-2.426,2.429c-1.342,0-2.428-1.088-2.428-2.429C70.924,22.342,72.01,21.254,73.352,21.254z M62.654,21.254
		c1.338,0,2.428,1.088,2.428,2.429c0,1.341-1.09,2.429-2.428,2.429c-1.344,0-2.431-1.088-2.431-2.429
		C60.224,22.342,61.311,21.254,62.654,21.254z M52.02,21.254c1.34,0,2.426,1.088,2.426,2.429c0,1.341-1.086,2.429-2.426,2.429
		c-1.342,0-2.428-1.088-2.428-2.429C49.592,22.342,50.678,21.254,52.02,21.254z M77.631,81.053c0,0.293-0.236,0.531-0.531,0.531
		H17.342c-0.002,0.043-0.004,0.086-0.006,0.127H3.721c-0.295,0-0.531-0.238-0.531-0.531V30.772h73.908
		c0.186,0,0.363-0.03,0.531-0.074v0.06l-0.004,0.015v24.336h-4.729c0.661-0.942,1.021-2.063,1.021-3.242
		c0-1.509-0.591-2.928-1.656-3.994c-1.065-1.066-2.483-1.654-3.991-1.654c-1.511,0-2.929,0.588-3.994,1.655l-9.205,9.204
		c-1.103,1.103-1.705,2.628-1.652,4.187c0.055,1.561,0.76,3.041,1.932,4.063l9.834,8.579c1.027,0.896,2.348,1.393,3.713,1.393
		c1.633,0,3.187-0.705,4.258-1.936c0.992-1.139,1.48-2.593,1.379-4.1c-0.071-1.043-0.422-2.023-1.008-2.857h4.105V81.053z
		 M96.533,63.895H67.41l3.885,3.389c1.305,1.139,1.441,3.122,0.301,4.428c-0.621,0.711-1.49,1.075-2.365,1.075
		c-0.731,0-1.469-0.254-2.062-0.772l-9.834-8.578c-0.654-0.571-1.043-1.389-1.074-2.258c-0.029-0.869,0.303-1.711,0.918-2.325
		l9.205-9.205c1.227-1.226,3.213-1.226,4.438,0c1.228,1.226,1.228,3.213,0,4.438l-3.532,3.533h29.245c1.732,0,3.14,1.405,3.14,3.139
		C99.673,62.493,98.266,63.895,96.533,63.895z"/>
</g>
<g>
</g>
<g>
</g>
<g>
</g>
<g>
</g>
<g>
</g>
<g>
</g>
<g>
</g>
<g>
</g>
<g>
</g>
<g>
</g>
<g>
</g>
<g>
</g>
<g>
</g>
<g>
</g>
<g>
</g>
</svg>
