<?xml version="1.0" encoding="iso-8859-1"?>
<!-- Generator: Adobe Illustrator 16.0.0, SVG Export Plug-In . SVG Version: 6.00 Build 0)  -->
<!DOCTYPE svg PUBLIC "-//W3C//DTD SVG 1.1//EN" "http://www.w3.org/Graphics/SVG/1.1/DTD/svg11.dtd">
<svg version="1.1" id="Capa_1" xmlns="http://www.w3.org/2000/svg" xmlns:xlink="http://www.w3.org/1999/xlink" x="0px" y="0px"
	 width="113.969px" height="113.969px" viewBox="0 0 113.969 113.969" style="enable-background:new 0 0 113.969 113.969;"
	 xml:space="preserve">
<g>
	<path d="M104.984,68.938h-6.333V10.272h6.333c1.657,0,3-1.344,3-3c0-1.657-1.343-3-3-3h-9.333H56.984V1.479
		C56.984,0.663,56.322,0,55.505,0s-1.479,0.662-1.479,1.479v2.793H18.317H8.984c-1.657,0-3,1.343-3,3c0,1.656,1.343,3,3,3h6.333
		v58.666H8.984c-1.657,0-3,1.344-3,3s1.343,3,3,3h9.333h39.437c-0.092,0.055-0.181,0.112-0.265,0.178
		c-0.05,0.041-0.099,0.078-0.146,0.121c-0.101,0.092-0.19,0.193-0.274,0.301c-0.022,0.029-0.053,0.051-0.075,0.082L40.631,98.482
		c-0.803,1.123-0.544,2.685,0.578,3.487c1.123,0.802,2.685,0.546,3.488-0.577l11.83-16.531v26.607c0,1.381,1.119,2.5,2.5,2.5
		s2.5-1.119,2.5-2.5V84.861l11.83,16.531c0.488,0.682,1.256,1.045,2.035,1.045c0.504,0,1.012-0.152,1.453-0.468
		c1.123-0.804,1.381-2.364,0.578-3.487L61.061,75.619c-0.021-0.031-0.053-0.053-0.075-0.082c-0.084-0.107-0.174-0.209-0.274-0.301
		c-0.047-0.043-0.096-0.08-0.146-0.121c-0.083-0.065-0.173-0.123-0.265-0.178h35.351h9.333c1.657,0,3-1.344,3-3
		S106.642,68.938,104.984,68.938z M25.458,32.551v-7l17.088,15.194l9.579-7.91l12.498,8.455l23.063-6.835v9.037l-22.663,6.717
		l-13.079-5.757l-9.733,4.945L25.458,32.551z M94.817,68.938h-1.739v-1.164h-3.361V31.945l-24.719,7.327l-13.002-8.796l-9.397,7.759
		L23.425,21.187v46.586H20.89v1.164h-1.739V10.272h75.667L94.817,68.938L94.817,68.938z"/>
</g>
<g>
</g>
<g>
</g>
<g>
</g>
<g>
</g>
<g>
</g>
<g>
</g>
<g>
</g>
<g>
</g>
<g>
</g>
<g>
</g>
<g>
</g>
<g>
</g>
<g>
</g>
<g>
</g>
<g>
</g>
</svg>
