<?xml version="1.0" encoding="iso-8859-1"?>
<!-- Generator: Adobe Illustrator 16.0.0, SVG Export Plug-In . SVG Version: 6.00 Build 0)  -->
<!DOCTYPE svg PUBLIC "-//W3C//DTD SVG 1.1//EN" "http://www.w3.org/Graphics/SVG/1.1/DTD/svg11.dtd">
<svg version="1.1" id="Capa_1" xmlns="http://www.w3.org/2000/svg" xmlns:xlink="http://www.w3.org/1999/xlink" x="0px" y="0px"
	 width="107.201px" height="107.201px" viewBox="0 0 107.201 107.201" style="enable-background:new 0 0 107.201 107.201;"
	 xml:space="preserve">
<g>
	<path d="M101.061,48.928c-0.074-1.423-0.291-2.81-0.625-4.153C97.652,25.62,77.697,10.716,53.553,10.716
		c-20.258,0-37.572,10.491-44.269,25.181c-0.554,1.195-1.03,2.429-1.43,3.692c-0.042,0.13-0.079,0.261-0.119,0.391
		c-0.116,0.384-0.227,0.771-0.328,1.16c-0.089,0.333-0.17,0.668-0.248,1.004c-0.022,0.1-0.044,0.199-0.065,0.299
		c-0.257,1.156-0.445,2.331-0.573,3.519c-0.333,0.953-0.568,1.951-0.668,2.992C2.567,49.317,0,52.1,0,55.48
		c0,3.365,2.54,6.146,5.803,6.532C6.615,81.159,22.438,96.485,41.78,96.485c19.388,0,35.237-15.4,35.979-34.609
		c2.889-0.695,5.045-3.295,5.045-6.396c0-2.756-1.705-5.119-4.115-6.098c-0.258-2.427-1.238-4.647-2.715-6.481
		c-0.926-4.673-2.91-9-5.715-12.756c2.154-0.674,4.45-1.044,6.838-1.044c10.826,0,19.846,7.509,21.657,17.357
		c0.087,0.884,0.147,1.773,0.154,2.673c-2.802,0.756-4.873,3.312-4.873,6.35c0,3.63,2.953,6.583,6.583,6.583
		c3.629,0,6.582-2.953,6.582-6.583C107.2,52,104.482,49.158,101.061,48.928z M52.939,50.768c2.6,0,4.714,2.114,4.714,4.713
		s-2.114,4.713-4.714,4.713c-2.599,0-4.713-2.114-4.713-4.713S50.34,50.768,52.939,50.768z M54.715,41.818
		C51.65,29.867,42.206,21.133,31.047,21.133c-2.051,0-4.043,0.301-5.95,0.856c4.841-2.572,10.434-4.051,16.393-4.051
		c10.293,0,19.508,4.389,25.605,11.264C61.444,31.695,56.975,36.231,54.715,41.818z M31.047,23.002
		c11.125,0,20.417,9.501,22.444,22.038c-0.622,1.205-1.05,2.514-1.25,3.896c-3.302,0.35-5.884,3.151-5.884,6.544
		c0,3.63,2.953,6.583,6.582,6.583c0.291,0,0.575-0.025,0.856-0.062c-0.66,5.926-5.694,10.551-11.794,10.551
		c-6.086,0-11.11-4.604-11.788-10.512c3.422-0.23,6.137-3.08,6.137-6.561c0-3.161-2.242-5.808-5.218-6.438
		c-0.583-6.515-6.027-11.639-12.642-11.639c-3.519,0-6.707,1.451-9.009,3.788C12.61,30.61,21.093,23.002,31.047,23.002z
		 M29.768,50.768c2.599,0,4.713,2.114,4.713,4.713s-2.114,4.713-4.713,4.713s-4.714-2.114-4.714-4.713S27.169,50.768,29.768,50.768z
		 M1.868,55.48c0-2.599,2.114-4.713,4.713-4.713c2.6,0,4.714,2.114,4.714,4.713s-2.114,4.713-4.714,4.713
		C3.982,60.193,1.868,58.079,1.868,55.48z M80.934,55.48c0,2.599-2.113,4.713-4.713,4.713s-4.713-2.114-4.713-4.713
		s2.113-4.713,4.713-4.713S80.934,52.882,80.934,55.48z M76.592,48.917c-0.123-0.007-0.246-0.019-0.371-0.019
		c-3.629,0-6.582,2.953-6.582,6.582c0,3.516,2.772,6.389,6.246,6.564c-0.826,18.101-15.808,32.57-34.106,32.57
		c-18.327,0-33.322-14.515-34.109-32.649c3.112-0.521,5.495-3.229,5.495-6.485c0-3.065-2.11-5.641-4.952-6.37
		c0.002-0.07,0.002-0.142,0.005-0.212h0.062c0-0.573,0.02-1.143,0.053-1.709c0.016-0.175,0.04-0.348,0.059-0.522
		c1.455-4.221,5.427-7.263,10.1-7.263c5.474,0,9.995,4.171,10.62,9.528c-3.322,0.332-5.924,3.142-5.924,6.549
		c0,3.132,2.201,5.756,5.137,6.417c0.62,7.008,6.514,12.523,13.68,12.523c7.318,0,13.303-5.756,13.702-12.976
		c2.251-1.048,3.817-3.323,3.817-5.966c0-2.618-1.541-4.878-3.76-5.938c-0.021-1.18-0.11-2.341-0.25-3.483
		c0.062-0.3,0.133-0.598,0.207-0.893c1.982-3.146,5.588-5.263,9.711-5.263c3.58,0,6.771,1.594,8.849,4.07
		c0.276,1.604,0.425,3.249,0.425,4.924h1.52h0.351c0-0.044-0.003-0.088-0.003-0.132C76.577,48.816,76.582,48.868,76.592,48.917z
		 M73.451,40.504c-2.234-1.625-5.008-2.601-8.021-2.601c-2.916,0-5.607,0.914-7.805,2.445c2.342-4.243,6.155-7.632,10.792-9.541
		C70.663,33.706,72.383,36.978,73.451,40.504z M77.096,27.101c-2.867,0-5.619,0.486-8.17,1.375
		c-6.433-7.553-16.336-12.406-27.436-12.406c-3.895,0-7.639,0.606-11.142,1.707c6.794-3.293,14.729-5.191,23.204-5.191
		c18.879,0,35.088,9.403,41.908,22.734C91.055,30.299,84.459,27.101,77.096,27.101z M100.618,60.193
		c-2.601,0-4.714-2.114-4.714-4.713s2.113-4.713,4.714-4.713c2.599,0,4.713,2.114,4.713,4.713S103.217,60.193,100.618,60.193z"/>
</g>
<g>
</g>
<g>
</g>
<g>
</g>
<g>
</g>
<g>
</g>
<g>
</g>
<g>
</g>
<g>
</g>
<g>
</g>
<g>
</g>
<g>
</g>
<g>
</g>
<g>
</g>
<g>
</g>
<g>
</g>
</svg>
