<?xml version="1.0" encoding="iso-8859-1"?>
<!-- Generator: Adobe Illustrator 16.0.0, SVG Export Plug-In . SVG Version: 6.00 Build 0)  -->
<!DOCTYPE svg PUBLIC "-//W3C//DTD SVG 1.1//EN" "http://www.w3.org/Graphics/SVG/1.1/DTD/svg11.dtd">
<svg version="1.1" id="Capa_1" xmlns="http://www.w3.org/2000/svg" xmlns:xlink="http://www.w3.org/1999/xlink" x="0px" y="0px"
	 width="112.123px" height="112.123px" viewBox="0 0 112.123 112.123" style="enable-background:new 0 0 112.123 112.123;"
	 xml:space="preserve">
<g>
	<path d="M100.178,82.214c-1.373,0-2.748,0.11-4.053,0.32L79.331,68.879c1.935-1.257,3.133-2.854,3.133-4.77
		c0-2.17-1.534-3.93-3.94-5.252l15.229-9.449c1.936,0.556,4.186,0.839,6.428,0.839c5.937,0,11.943-1.98,11.943-5.765
		s-6.008-5.765-11.943-5.765c-5.934,0-11.94,1.979-11.94,5.765c0,1.46,0.897,2.648,2.338,3.561l-15.248,9.463
		c-3.117-1.018-6.896-1.543-10.576-1.543c-1.399,0-2.815,0.077-4.203,0.228l-9.076-8.157c4.141-1.096,7.271-3.136,7.271-6.03
		c0-2.364-2.092-4.158-5.113-5.334l7.548-9.6c3.995-0.155,7.825-1.637,7.825-4.337c0-2.858-4.289-4.354-8.526-4.354
		c-4.236,0-8.525,1.496-8.525,4.354c0,2.231,2.617,3.628,5.781,4.135l-6.85,8.709l0.461,0.362c-2.303-0.596-4.904-0.903-7.455-0.903
		c-1.963,0-3.961,0.184-5.826,0.539l0.094-0.087l-6.438-6.92c1.223-0.713,2.008-1.681,2.008-2.899c0-2.857-4.289-4.354-8.527-4.354
		c-4.236,0-8.525,1.496-8.525,4.354s4.289,4.354,8.525,4.354c1.248,0,2.496-0.133,3.641-0.389l6.236,6.704
		c-3.514,1.156-6.041,3.066-6.041,5.666c0,0.647,0.162,1.251,0.451,1.813l-14.144,2.164c-1.211-1.728-4.4-2.533-7.416-2.533
		C4.11,43.448,0,44.733,0,47.553c0,2.821,4.109,4.106,7.928,4.106c3.189,0,6.572-0.9,7.604-2.84l16.471-2.522
		c2.887,1.754,7.471,2.674,11.885,2.674c1.367,0,2.75-0.089,4.096-0.263l8.963,8.056c-5.537,1.189-9.91,3.686-9.91,7.348
		c0,1.451,0.691,2.719,1.865,3.796L25.315,82.551c-1.338-0.222-2.75-0.337-4.16-0.337c-5.934,0-11.943,1.979-11.943,5.765
		s6.01,5.766,11.943,5.766c5.933,0,11.941-1.98,11.941-5.766c0-1.972-1.637-3.447-4.039-4.416l22.434-13.928
		c3.451,1.725,8.438,2.625,13.26,2.625c4.181,0,8.483-0.679,11.808-1.984l16.139,13.123c-2.631,0.961-4.459,2.494-4.459,4.58
		c0,3.785,6.008,5.766,11.941,5.766c5.936,0,11.942-1.98,11.942-5.766S106.114,82.214,100.178,82.214z M100.178,41.552
		c5.65,0,9.109,1.897,9.109,2.931c0,1.034-3.459,2.931-9.109,2.931s-9.107-1.897-9.107-2.931
		C91.07,43.449,94.527,41.552,100.178,41.552z M54.799,22.733c0.268-0.472,2.193-1.52,5.676-1.52c3.484,0,5.41,1.048,5.678,1.52
		c-0.268,0.47-2.194,1.519-5.678,1.519C56.992,24.252,55.067,23.203,54.799,22.733z M19.52,25.668c0.27-0.471,2.195-1.52,5.678-1.52
		c3.483,0,5.408,1.049,5.678,1.52c-0.27,0.471-2.195,1.52-5.678,1.52C21.715,27.188,19.79,26.139,19.52,25.668z M7.928,48.826
		c-2.92,0-4.674-0.844-5.049-1.272c0.375-0.428,2.129-1.271,5.049-1.271c2.92,0,4.672,0.844,5.047,1.271
		C12.6,47.982,10.848,48.826,7.928,48.826z M31.868,42.003c0-1.686,4.684-4.133,12.02-4.133c7.34,0,12.021,2.447,12.021,4.133
		s-4.682,4.133-12.021,4.133C36.551,46.136,31.868,43.689,31.868,42.003z M30.262,87.979c0,1.033-3.457,2.931-9.107,2.931
		c-5.65,0-9.107-1.896-9.107-2.931c0-1.033,3.457-2.931,9.107-2.931C26.805,85.048,30.262,86.945,30.262,87.979z M49.87,64.111
		c0-2.219,5.662-5.313,14.881-5.313c9.22,0,14.879,3.095,14.879,5.313c0,2.22-5.659,5.314-14.879,5.314
		C55.532,69.426,49.87,66.331,49.87,64.111z M100.178,90.909c-5.65,0-9.107-1.896-9.107-2.931c0-1.033,3.457-2.931,9.107-2.931
		s9.109,1.897,9.109,2.931C109.287,89.014,105.829,90.909,100.178,90.909z"/>
</g>
<g>
</g>
<g>
</g>
<g>
</g>
<g>
</g>
<g>
</g>
<g>
</g>
<g>
</g>
<g>
</g>
<g>
</g>
<g>
</g>
<g>
</g>
<g>
</g>
<g>
</g>
<g>
</g>
<g>
</g>
</svg>
