<?xml version="1.0" encoding="iso-8859-1"?>
<!-- Generator: Adobe Illustrator 16.0.0, SVG Export Plug-In . SVG Version: 6.00 Build 0)  -->
<!DOCTYPE svg PUBLIC "-//W3C//DTD SVG 1.1//EN" "http://www.w3.org/Graphics/SVG/1.1/DTD/svg11.dtd">
<svg version="1.1" id="Capa_1" xmlns="http://www.w3.org/2000/svg" xmlns:xlink="http://www.w3.org/1999/xlink" x="0px" y="0px"
	 width="111.103px" height="111.103px" viewBox="0 0 111.103 111.103" style="enable-background:new 0 0 111.103 111.103;"
	 xml:space="preserve">
<g>
	<g>
		<path d="M91.361,61.764c-1.479,0-2.88-0.714-3.75-1.91c-0.358-0.497-0.611-1.045-0.754-1.632
			c-0.289-1.205-0.083-2.486,0.563-3.527l2.998-4.896l-8.186-4.514c-0.005,0.052-0.016,0.103-0.016,0.156v45.334
			c0,0.827,0.672,1.5,1.5,1.5h20.334c0.829,0,1.5-0.673,1.5-1.5V58.489l-13.107,3.146C92.09,61.721,91.725,61.764,91.361,61.764z"/>
		<path d="M45.884,41.286v49.489c0,0.827,0.671,1.5,1.5,1.5h20.334c0.828,0,1.5-0.673,1.5-1.5V38.108l-11.499-6.343L45.884,41.286z"
			/>
		<path d="M24.703,53.331l-13.152-6.854v44.3c0,0.827,0.671,1.5,1.5,1.5h20.334c0.828,0,1.5-0.673,1.5-1.5V50.134l-3.105,2.498
			C29.812,54.211,26.935,54.493,24.703,53.331z"/>
		<path d="M111.071,50.621l-4.1-17.074c-0.107-0.448-0.474-0.784-0.927-0.855c-0.454-0.071-0.905,0.138-1.146,0.527l-4.914,8.021
			L60.021,19.199c-1.067-0.588-2.381-0.473-3.329,0.289l-27.808,22.37L4.387,29.09c-1.468-0.768-3.281-0.195-4.047,1.273
			c-0.766,1.47-0.196,3.28,1.273,4.047l26.236,13.674c1.057,0.55,2.338,0.423,3.267-0.322l27.769-22.337l37.962,20.937l-4.922,8.033
			c-0.162,0.262-0.206,0.57-0.138,0.857c0.035,0.143,0.098,0.279,0.187,0.402c0.27,0.371,0.737,0.543,1.184,0.436l17.074-4.1
			C110.842,51.844,111.218,51.231,111.071,50.621z"/>
	</g>
</g>
<g>
</g>
<g>
</g>
<g>
</g>
<g>
</g>
<g>
</g>
<g>
</g>
<g>
</g>
<g>
</g>
<g>
</g>
<g>
</g>
<g>
</g>
<g>
</g>
<g>
</g>
<g>
</g>
<g>
</g>
</svg>
