<?xml version="1.0" encoding="iso-8859-1"?>
<!-- Generator: Adobe Illustrator 16.0.0, SVG Export Plug-In . SVG Version: 6.00 Build 0)  -->
<!DOCTYPE svg PUBLIC "-//W3C//DTD SVG 1.1//EN" "http://www.w3.org/Graphics/SVG/1.1/DTD/svg11.dtd">
<svg version="1.1" id="Capa_1" xmlns="http://www.w3.org/2000/svg" xmlns:xlink="http://www.w3.org/1999/xlink" x="0px" y="0px"
	 width="112.342px" height="112.342px" viewBox="0 0 112.342 112.342" style="enable-background:new 0 0 112.342 112.342;"
	 xml:space="preserve">
<g>
	<g>
		<path d="M39.199,85.089c0.944-0.104,2.094-2.353,1.396-2.735l-5.323,0.59L39.199,85.089z"/>
		<path d="M41.064,78.082l-5.058,4.615l6.279-1.26C43.186,80.617,42.182,77.859,41.064,78.082z"/>
		<path d="M37.336,74.168l-0.798,7.756l5.412-5.914C42.09,74.631,38.302,73.118,37.336,74.168z"/>
		<path d="M36.23,71.76c-1.216-1.255-6.727,0.424-6.711,2.045l6.817,7.065L36.23,71.76z"/>
		<path d="M35.082,80.148l-9.119-7.486c-2.528-0.104-6.711,5.564-5.092,6.9L35.082,80.148z"/>
		<path d="M17.396,91.047L33.04,80.521l-17.065,0.846C13.192,83.238,14.361,91.191,17.396,91.047z"/>
		<path d="M13.99,96.343c-1.1,3.712,8.002,9.416,11.075,6.942l6.176-20.869L13.99,96.343z"/>
		<path d="M26.69,110.327c2.505,3.937,17.787,1.625,18.6-2.813L31.21,85.382L26.69,110.327z"/>
		<path d="M34.107,87.873l19.865,24.234c6.546,1.33,20.459-12.436,16.935-16.754L34.107,87.873z"/>
		<path d="M86.038,65.393L39.64,87.695l45.008,4.748C92.901,88.475,94.044,66.251,86.038,65.393z"/>
		<path d="M72.463,28.768L45.33,83.261l52.396-30.936C102.553,42.632,81.797,23.276,72.463,28.768z"/>
		<path d="M71.938,8.848c-4.466-11.796-45.595-11.798-50.063,0l25.104,66.317L71.938,8.848z"/>
	</g>
</g>
<g>
</g>
<g>
</g>
<g>
</g>
<g>
</g>
<g>
</g>
<g>
</g>
<g>
</g>
<g>
</g>
<g>
</g>
<g>
</g>
<g>
</g>
<g>
</g>
<g>
</g>
<g>
</g>
<g>
</g>
</svg>
