<?xml version="1.0" encoding="iso-8859-1"?>
<!-- Generator: Adobe Illustrator 16.0.0, SVG Export Plug-In . SVG Version: 6.00 Build 0)  -->
<!DOCTYPE svg PUBLIC "-//W3C//DTD SVG 1.1//EN" "http://www.w3.org/Graphics/SVG/1.1/DTD/svg11.dtd">
<svg version="1.1" id="Capa_1" xmlns="http://www.w3.org/2000/svg" xmlns:xlink="http://www.w3.org/1999/xlink" x="0px" y="0px"
	 width="96.168px" height="96.168px" viewBox="0 0 96.168 96.168" style="enable-background:new 0 0 96.168 96.168;"
	 xml:space="preserve">
<g>
	<g>
		<polygon points="3,46.584 3,3.796 0,3.796 0,92.372 3,92.372 3,49.584 96.168,49.584 96.168,46.584 		"/>
		<rect x="5.167" y="8.18" width="5.667" height="2.475"/>
		<rect x="5.167" y="21.514" width="5.667" height="2.475"/>
		<rect x="5.167" y="34.908" width="5.667" height="2.475"/>
		<rect x="5.167" y="56.743" width="5.667" height="2.475"/>
		<rect x="5.167" y="70.077" width="5.667" height="2.475"/>
		<rect x="5.167" y="83.472" width="5.667" height="2.475"/>
		<rect x="49.334" y="21.751" width="4.667" height="21.334"/>
		<rect x="65.001" y="15.35" width="4.667" height="27.735"/>
		<rect x="81.334" y="7.085" width="4.667" height="36"/>
		<rect x="49" y="53.313" width="4.667" height="21.334"/>
		<rect x="33.333" y="53.313" width="4.667" height="27.735"/>
		<rect x="17" y="53.313" width="4.667" height="36"/>
	</g>
</g>
<g>
</g>
<g>
</g>
<g>
</g>
<g>
</g>
<g>
</g>
<g>
</g>
<g>
</g>
<g>
</g>
<g>
</g>
<g>
</g>
<g>
</g>
<g>
</g>
<g>
</g>
<g>
</g>
<g>
</g>
</svg>
