<?xml version="1.0" encoding="iso-8859-1"?>
<!-- Generator: Adobe Illustrator 16.0.0, SVG Export Plug-In . SVG Version: 6.00 Build 0)  -->
<!DOCTYPE svg PUBLIC "-//W3C//DTD SVG 1.1//EN" "http://www.w3.org/Graphics/SVG/1.1/DTD/svg11.dtd">
<svg version="1.1" id="Capa_1" xmlns="http://www.w3.org/2000/svg" xmlns:xlink="http://www.w3.org/1999/xlink" x="0px" y="0px"
	 width="103.834px" height="103.833px" viewBox="0 0 103.834 103.833" style="enable-background:new 0 0 103.834 103.833;"
	 xml:space="preserve">
<g>
	<path d="M98.909,94.896c0.104-0.307,0.175-0.629,0.175-0.971V22.91c0-1.654-1.346-3-3-3h-20.5c-1.654,0-3,1.346-3,3v27.486h-9.25
		c-1.654,0-3,1.346-3,3V94.41c0,0.166,0.023,0.326,0.049,0.486H47.075c0.105-0.308,0.175-0.629,0.175-0.972V8.91
		c0-1.654-1.346-3-3-3h-20.5c-1.654,0-3,1.346-3,3v27.486H11.5c-1.654,0-3,1.346-3,3V94.41c0,0.166,0.023,0.326,0.049,0.486H0v3.028
		h103.834v-3.028H98.909L98.909,94.896z M10.644,94.896c-0.083-0.146-0.144-0.307-0.144-0.485V39.396c0-0.553,0.448-1,1-1h9.25
		v55.529c0,0.342,0.069,0.664,0.175,0.971H10.644z M62.479,94.896c-0.084-0.146-0.145-0.307-0.145-0.485V53.396c0-0.553,0.448-1,1-1
		h9.25v41.529c0,0.342,0.068,0.664,0.175,0.971H62.479z"/>
</g>
<g>
</g>
<g>
</g>
<g>
</g>
<g>
</g>
<g>
</g>
<g>
</g>
<g>
</g>
<g>
</g>
<g>
</g>
<g>
</g>
<g>
</g>
<g>
</g>
<g>
</g>
<g>
</g>
<g>
</g>
</svg>
