<?xml version="1.0" encoding="iso-8859-1"?>
<!-- Generator: Adobe Illustrator 18.0.0, SVG Export Plug-In . SVG Version: 6.00 Build 0)  -->
<!DOCTYPE svg PUBLIC "-//W3C//DTD SVG 1.1//EN" "http://www.w3.org/Graphics/SVG/1.1/DTD/svg11.dtd">
<svg version="1.1" id="Capa_1" xmlns="http://www.w3.org/2000/svg" xmlns:xlink="http://www.w3.org/1999/xlink" x="0px" y="0px"
	 viewBox="0 0 384.026 384.026" style="enable-background:new 0 0 384.026 384.026;" xml:space="preserve">
<g>
	<path d="M306.32,186.543l22.854-14.789h46.011c4.883,0,8.841-3.958,8.841-8.84c0-4.882-3.958-8.84-8.841-8.84h-48.621
		c-1.704,0-3.372,0.493-4.804,1.419l-22.853,14.789h-25.474l-2.62,17.681h30.704C303.221,187.962,304.889,187.469,306.32,186.543z"
		/>
	<path d="M375.185,273.417h-46.011l-22.854-14.789c-1.431-0.925-3.099-1.418-4.803-1.418h-40.964l-2.619,17.681h40.973
		l22.853,14.789c1.432,0.925,3.1,1.418,4.804,1.418h48.621c4.883,0,8.841-3.958,8.841-8.84
		C384.026,277.375,380.068,273.417,375.185,273.417z"/>
	<path d="M371.411,231.426c4.883,0,8.841-3.958,8.841-8.84c0-4.882-3.958-8.84-8.841-8.84H266.994l-2.62,17.681H371.411z"/>
	<path d="M261.056,145.128c-3.048-3.528-7.386-5.652-12.018-5.907V103.54c0-17.384-14.143-31.527-31.524-31.527h-51.197
		c-17.038,0-26.081,7.194-32.687,12.443c-5.311,4.222-8.51,6.774-15.385,6.774H44.271c-15.49,0-28.1,12.28-28.1,27.378v20.613
		c-4.632,0.256-8.97,2.379-12.018,5.907c-3.249,3.768-4.699,8.765-3.969,13.687L20.72,297.409
		c1.24,8.391,8.439,14.605,16.922,14.605h189.927c8.48,0,15.68-6.214,16.921-14.605l20.534-138.593
		C265.752,153.893,264.311,148.896,261.056,145.128z M233.431,139.197H41.777v-20.588c0-4.241,3.808-6.778,7.494-6.778h73.975
		c14.066,0,21.909-6.238,28.209-11.248c5.819-4.629,10.018-7.969,19.862-7.969h51.197c6.016,0,10.917,4.898,10.917,10.925V139.197z"
		/>
</g>
<g>
</g>
<g>
</g>
<g>
</g>
<g>
</g>
<g>
</g>
<g>
</g>
<g>
</g>
<g>
</g>
<g>
</g>
<g>
</g>
<g>
</g>
<g>
</g>
<g>
</g>
<g>
</g>
<g>
</g>
</svg>
