<?xml version="1.0" encoding="iso-8859-1"?>
<!-- Generator: Adobe Illustrator 16.0.0, SVG Export Plug-In . SVG Version: 6.00 Build 0)  -->
<!DOCTYPE svg PUBLIC "-//W3C//DTD SVG 1.1//EN" "http://www.w3.org/Graphics/SVG/1.1/DTD/svg11.dtd">
<svg version="1.1" id="Capa_1" xmlns="http://www.w3.org/2000/svg" xmlns:xlink="http://www.w3.org/1999/xlink" x="0px" y="0px"
	 width="96.891px" height="96.891px" viewBox="0 0 96.891 96.891" style="enable-background:new 0 0 96.891 96.891;"
	 xml:space="preserve">
<g>
	<path d="M94.425,22.283C94.425,9.996,84.429,0,72.142,0c-8.865,0-16.535,5.205-20.121,12.718c-2.33-0.398-4.719-0.617-7.16-0.617
		c-23.376,0-42.395,19.018-42.395,42.395s19.019,42.395,42.395,42.395c23.376,0,42.395-19.019,42.395-42.395
		c0-4.896-0.845-9.599-2.379-13.979C90.769,36.386,94.425,29.575,94.425,22.283z M71.802,4.108c9.807,0,17.783,7.978,17.783,17.783
		c0,4.145-1.488,8.095-4.042,11.219l-0.328-1.412c-0.325-0.334-0.708-0.613-1.153-0.841c-2.222-1.14-4.521-2.085-6.848-2.978
		c-0.173-0.065-0.381-0.199-0.453-0.35c-0.189-0.42-0.32-0.866-0.458-1.304c-0.084-0.283-0.159-0.547-0.467-0.684
		c-0.084-0.037-0.159-0.198-0.159-0.303c0.018-1.021-0.22-2.093,0.539-2.985c0.023-0.027,0.033-0.067,0.048-0.1
		c0.41-0.894,0.479-1.917,1.052-2.75c0.014-0.019,0.018-0.046,0.021-0.07c0.066-0.638,0.134-1.27,0.189-1.904
		c0.004-0.078-0.063-0.219-0.131-0.243c-0.314-0.11-0.299-0.364-0.297-0.617c0-1.241,0-1.421-0.002-2.662
		c0-0.722-0.212-1.362-0.757-1.853c-0.622-0.558-1.259-1.098-1.897-1.636c-0.307-0.261-0.334-0.461-0.045-0.748
		c0.129-0.126,0.289-0.218,0.438-0.324c-0.034-0.049-0.065-0.097-0.099-0.146c-0.191,0-0.387-0.025-0.572,0.003
		c-0.707,0.114-1.416,0.214-2.107,0.376c-1.324,0.313-2.607,0.726-3.681,1.612c-0.733,0.604-1.32,1.31-1.396,2.307
		c-0.035,0.523-0.031,1.049-0.035,1.57c-0.006,0.854,0.008,0.646-0.012,1.497c-0.004,0.139-0.08,0.367-0.179,0.397
		c-0.345,0.113-0.354,0.333-0.308,0.62c0.035,0.197,0.009,0.404,0.052,0.597c0.118,0.532,0.245,1.066,0.399,1.59
		c0.113,0.391,0.334,0.76,0.397,1.157c0.121,0.793,0.417,1.483,0.954,2.083c0.087,0.1,0.154,0.265,0.145,0.397
		c-0.043,0.609-0.105,1.22-0.188,1.827c-0.017,0.118-0.142,0.294-0.242,0.317c-0.405,0.083-0.468,0.395-0.565,0.713
		c-0.125,0.417-0.263,0.833-0.424,1.236c-0.05,0.126-0.177,0.256-0.301,0.313c-0.72,0.313-1.456,0.603-2.184,0.907
		c-0.772,0.325-1.553,0.636-2.31,0.994c-0.778,0.374-1.534,0.792-2.296,1.201c-0.449,0.24-0.869,0.506-1.218,0.836l-0.379,1.616
		c-2.683-3.159-4.271-7.211-4.271-11.479C54.019,12.085,61.995,4.108,71.802,4.108z M84.007,44.522
		c-0.553-0.813-1.178-1.603-1.857-2.372c0.334-0.169,0.67-0.337,0.994-0.522C83.464,42.579,83.757,43.542,84.007,44.522z
		 M53.622,47.793c5.693,0.229,10.73,0.671,15.014,1.246c0.145,1.786,0.225,3.605,0.225,5.457s-0.08,3.671-0.225,5.457
		c-4.283,0.575-9.32,1.018-15.014,1.246c0.076-2.32,0.113-4.576,0.113-6.703S53.698,50.113,53.622,47.793z M67.78,39.808
		c0.938,0.319,1.941,0.564,3.066,0.661l-1.98-2.734l3.072-8.403l-0.951-2.041h1.903l-0.952,2.041l3.071,8.403l-1.929,2.667
		c1.431-0.239,3.175-0.857,4.959-1.542c-1.998,1.52-4.268,3.726-5.967,6.752C70.935,43.144,69.42,41.118,67.78,39.808z
		 M64.075,43.033c0.062,0.024,0.125,0.046,0.188,0.066c0.903,0.285,2.35,1.641,3.576,3.865c-4.592-0.571-9.529-0.95-14.292-1.152
		c-0.185-4.339-0.521-8.815-1.009-13.052C55.01,37.349,59.049,41.072,64.075,43.033z M53.546,63.182
		c4.97-0.211,10.139-0.609,14.896-1.223c-0.526,4.727-1.541,9.167-2.957,13.162c-3.996,1.416-8.436,2.432-13.162,2.958
		C52.937,73.32,53.335,68.151,53.546,63.182z M51.735,54.496c0,2.344-0.035,4.604-0.101,6.773c-2.17,0.066-4.43,0.102-6.774,0.102
		s-4.604-0.035-6.774-0.102c-0.066-2.17-0.101-4.43-0.101-6.773s0.035-4.604,0.101-6.774c2.17-0.066,4.43-0.101,6.774-0.101
		s4.604,0.035,6.774,0.101C51.7,49.893,51.735,52.152,51.735,54.496z M51.563,63.257c-0.229,5.693-0.67,10.73-1.246,15.015
		c-1.786,0.144-3.604,0.225-5.457,0.225s-3.671-0.081-5.457-0.225c-0.575-4.284-1.018-9.32-1.246-15.015
		c2.32,0.077,4.576,0.114,6.703,0.114S49.244,63.334,51.563,63.257z M44.861,45.621c-2.127,0-4.383,0.037-6.703,0.114
		c0.229-5.693,0.671-10.73,1.246-15.014c1.786-0.144,3.605-0.225,5.457-0.225s3.671,0.081,5.457,0.225
		c0.576,4.284,1.019,9.32,1.246,15.014C49.244,45.658,46.988,45.621,44.861,45.621z M50.938,15.438
		c-0.408,1.261-0.703,2.57-0.882,3.917c-0.592-1.979-1.259-3.66-2.017-4.889C49.028,14.688,49.993,15.021,50.938,15.438z
		 M44.861,14.101c1.676,0,3.738,5.249,5.166,14.594c-1.695-0.126-3.416-0.199-5.166-0.199s-3.47,0.073-5.165,0.2
		C41.123,19.35,43.185,14.101,44.861,14.101z M37.677,28.877c-4.449,0.468-8.663,1.36-12.526,2.61
		c3.765-9.109,9.697-15.491,16.531-17.021C39.894,17.365,38.586,22.665,37.677,28.877z M36.1,61.199
		c-5.693-0.229-10.73-0.671-15.014-1.246c-0.144-1.786-0.225-3.605-0.225-5.457s0.081-3.671,0.225-5.457
		c4.284-0.575,9.32-1.018,15.014-1.246c-0.077,2.32-0.114,4.576-0.114,6.703S36.023,58.879,36.1,61.199z M36.176,63.182
		c0.211,4.97,0.609,10.139,1.222,14.896c-4.727-0.527-9.167-1.542-13.162-2.958c-1.416-3.996-2.431-8.435-2.958-13.162
		C26.037,62.572,31.206,62.971,36.176,63.182z M36.176,45.811c-4.97,0.211-10.139,0.609-14.897,1.222
		c0.527-4.727,1.542-9.167,2.958-13.162c3.996-1.416,8.435-2.431,13.162-2.958C36.785,35.672,36.387,40.841,36.176,45.811z
		 M34.887,15.35c-5.07,3.447-9.331,9.437-12.182,16.99c-7.553,2.851-13.543,7.112-16.99,12.182
		C9.354,30.248,20.613,18.989,34.887,15.35z M21.852,34.786c-1.25,3.864-2.143,8.077-2.61,12.526
		c-6.212,0.909-11.512,2.216-14.41,4.004C6.361,44.483,12.743,38.551,21.852,34.786z M19.061,49.331
		c-0.127,1.695-0.2,3.415-0.2,5.165s0.073,3.47,0.2,5.165c-9.346-1.427-14.595-3.489-14.595-5.165S9.715,50.758,19.061,49.331z
		 M19.242,61.68c0.468,4.449,1.36,8.664,2.61,12.526c-9.109-3.765-15.491-9.696-17.021-16.53C7.73,59.463,13.03,60.771,19.242,61.68
		z M5.715,64.471c3.447,5.069,9.437,9.33,16.99,12.182c2.851,7.553,7.112,13.543,12.182,16.99
		C20.613,90.003,9.354,78.744,5.715,64.471z M25.151,77.505c3.864,1.25,8.077,2.144,12.526,2.61
		c0.908,6.212,2.216,11.512,4.004,14.41C34.848,92.996,28.916,86.614,25.151,77.505z M44.861,94.891
		c-1.676,0-3.738-5.248-5.165-14.594c1.695,0.126,3.415,0.199,5.165,0.199s3.47-0.073,5.166-0.2
		C48.599,89.643,46.537,94.891,44.861,94.891z M52.045,80.115c4.448-0.469,8.663-1.36,12.526-2.61
		c-3.766,9.109-9.697,15.491-16.531,17.021C49.827,91.627,51.136,86.327,52.045,80.115z M54.835,93.643
		c5.07-3.447,9.331-9.438,12.182-16.99c7.553-2.852,13.543-7.112,16.99-12.182C80.368,78.744,69.108,90.003,54.835,93.643z
		 M67.87,74.206c1.25-3.864,2.143-8.077,2.609-12.526c6.213-0.908,11.512-2.216,14.41-4.004C83.36,64.51,76.979,70.441,67.87,74.206
		z M85.256,54.496c0,1.676-5.249,3.738-14.595,5.165c0.127-1.695,0.199-3.415,0.199-5.165c0-0.621-0.02-1.232-0.037-1.848
		c0.414,0.229,0.885,0.365,1.379,0.378c0.027,0,0.054,0.001,0.08,0.001c1.295,0,2.449-0.833,2.852-2.071
		c0.087-0.269,0.201-0.515,0.301-0.771C81.774,51.512,85.256,53.131,85.256,54.496z M84.89,51.316
		c-1.938-1.194-4.964-2.172-8.604-2.961c1.246-2.251,2.883-3.932,4.262-5.067C82.741,45.744,84.248,48.449,84.89,51.316z"/>
</g>
<g>
</g>
<g>
</g>
<g>
</g>
<g>
</g>
<g>
</g>
<g>
</g>
<g>
</g>
<g>
</g>
<g>
</g>
<g>
</g>
<g>
</g>
<g>
</g>
<g>
</g>
<g>
</g>
<g>
</g>
</svg>
