<?xml version="1.0" encoding="iso-8859-1"?>
<!-- Generator: Adobe Illustrator 18.0.0, SVG Export Plug-In . SVG Version: 6.00 Build 0)  -->
<!DOCTYPE svg PUBLIC "-//W3C//DTD SVG 1.1//EN" "http://www.w3.org/Graphics/SVG/1.1/DTD/svg11.dtd">
<svg version="1.1" id="Capa_1" xmlns="http://www.w3.org/2000/svg" xmlns:xlink="http://www.w3.org/1999/xlink" x="0px" y="0px"
	 viewBox="0 0 330.582 330.582" style="enable-background:new 0 0 330.582 330.582;" xml:space="preserve">
<g>
	<path d="M206.156,282.189c2.922-4.007,5.707-8.352,8.338-13.033c4.693-8.335,8.74-17.487,12.127-27.243
		c3.582-1.243,7.079-2.577,10.486-3.997l-12.293-44.162c-2.578,1.784-5.464,3.121-8.542,3.975c-1.39,9.778-3.38,19.148-5.895,27.939
		c-18.154,5.196-38.748,8.173-60.377,8.173s-42.225-2.977-60.377-8.173c-5.197-18.153-8.174-38.748-8.174-60.377
		c0-21.63,2.977-42.223,8.174-60.377c18.152-5.195,38.748-8.172,60.377-8.172c17.35,0,34.028,1.919,49.32,5.358l2.369-7.872
		c2.889-9.585,10.339-16.665,19.57-19.223c-2.082-4.725-4.336-9.265-6.766-13.582c-2.631-4.678-5.416-9.025-8.338-13.031
		c18.939,9.134,35.313,22.757,47.785,39.455c-6.34-18.19-14.846-35.049-25.139-50.134C205.887,23.507,178.887,15.291,150,15.291
		c-82.711,0-150,67.29-150,150s67.289,150,150,150c28.887,0,55.887-8.217,78.803-22.423c7.557-11.075,14.139-23.114,19.62-35.927
		c-1.296-0.988-2.502-2.094-3.616-3.291C233.859,265.401,220.777,275.138,206.156,282.189z M150,35.595
		c20.533,0,39.299,18.14,51.988,46.231c-16.426-3.523-33.969-5.387-51.988-5.387c-18.021,0-35.563,1.864-51.99,5.387
		C110.699,53.734,129.467,35.595,150,35.595z M93.842,48.393c-2.922,4.005-5.707,8.353-8.338,13.031
		c-4.693,8.336-8.74,17.487-12.127,27.244c-9.756,3.391-18.908,7.436-27.242,12.127c-4.682,2.634-9.027,5.42-13.033,8.34
		C45.869,82.663,67.371,61.161,93.842,48.393z M66.533,113.304c-3.523,16.425-5.387,33.967-5.387,51.987s1.863,35.563,5.387,51.985
		c-28.09-12.687-46.231-31.453-46.231-51.985S38.443,125.991,66.533,113.304z M33.102,221.447c4.006,2.923,8.352,5.708,13.033,8.339
		c8.334,4.693,17.486,8.739,27.242,12.127c3.389,9.756,7.434,18.908,12.127,27.243c2.633,4.681,5.416,9.026,8.34,13.033
		C67.371,269.421,45.869,247.919,33.102,221.447z M150,294.987c-20.533,0-39.301-18.14-51.99-46.23
		c16.428,3.524,33.969,5.387,51.99,5.387c18.02,0,35.563-1.862,51.988-5.387C189.299,276.848,170.531,294.987,150,294.987z"/>
	<path d="M271.498,181.791c-4.264,0-7.867,3.159-8.426,7.387l-0.363,2.738l-25.541-91.747c-1.014-3.645-4.316-6.18-8.1-6.22
		c-0.045-0.001-0.089-0.001-0.134-0.001c-3.743,0-7.016,2.471-8.095,6.051l-18.596,61.792h-30.206
		c1.297,2.648,2.046,5.612,2.046,8.755c0,2.941-0.654,5.728-1.8,8.245h36.278c3.752,0,7.059-2.459,8.141-6.051l11.959-39.74
		l28.832,103.57c1.029,3.696,4.393,6.221,8.182,6.221h0.002c0.199,0,0.4-0.007,0.6-0.021c4.029-0.283,7.303-3.361,7.832-7.366
		l4.84-36.613h23.506c-1.19-2.558-1.873-5.396-1.873-8.398c0-3.082,0.722-5.992,1.973-8.602H271.498z"/>
	<path d="M144.084,170.546c0,5.515,4.486,10.001,10,10.001c5.514,0,10-4.486,10-10.001c0-5.514-4.486-9.999-10-9.999
		C148.57,160.547,144.084,165.032,144.084,170.546z"/>
	<path d="M320.582,180.395c-5.514,0-10,4.485-10,9.999c0,5.515,4.486,10.001,10,10.001s10-4.486,10-10.001
		C330.582,184.88,326.096,180.395,320.582,180.395z"/>
</g>
<g>
</g>
<g>
</g>
<g>
</g>
<g>
</g>
<g>
</g>
<g>
</g>
<g>
</g>
<g>
</g>
<g>
</g>
<g>
</g>
<g>
</g>
<g>
</g>
<g>
</g>
<g>
</g>
<g>
</g>
</svg>
