<?xml version="1.0" encoding="iso-8859-1"?>
<!-- Generator: Adobe Illustrator 16.0.0, SVG Export Plug-In . SVG Version: 6.00 Build 0)  -->
<!DOCTYPE svg PUBLIC "-//W3C//DTD SVG 1.1//EN" "http://www.w3.org/Graphics/SVG/1.1/DTD/svg11.dtd">
<svg version="1.1" id="Capa_1" xmlns="http://www.w3.org/2000/svg" xmlns:xlink="http://www.w3.org/1999/xlink" x="0px" y="0px"
	 width="80.299px" height="80.299px" viewBox="0 0 80.299 80.299" style="enable-background:new 0 0 80.299 80.299;"
	 xml:space="preserve">
<g>
	<g>
		<path d="M72.902,41.054c-1.149-0.25-2.291,0.477-2.541,1.629l-2.029,9.28H27.621L13.142,5.217
			c-0.277-0.894-1.104-1.503-2.04-1.503H2.135C0.956,3.714,0,4.67,0,5.849c0,1.18,0.956,2.135,2.135,2.135h7.393l14.479,46.748
			c0.277,0.894,1.104,1.502,2.039,1.502H70.05c1.003,0,1.872-0.699,2.086-1.68l2.396-10.96
			C74.783,42.442,74.054,41.306,72.902,41.054z"/>
		<path d="M79.807,14.306c-0.406-0.489-1.008-0.771-1.643-0.771H27.755c-1.179,0-2.135,0.956-2.135,2.135
			c0,1.18,0.956,2.136,2.135,2.136H38.65c3.059-2.558,6.993-4.102,11.281-4.102c4.289,0,8.224,1.544,11.281,4.102h14.379
			l-3.042,16.226h-8.23c-0.231,1.491-0.635,2.926-1.217,4.27H74.32c1.027,0,1.91-0.732,2.099-1.741l3.843-20.495
			C80.379,15.44,80.212,14.795,79.807,14.306z"/>
		<path d="M30.175,60.931c-4.316,0-7.828,3.51-7.828,7.827c0,4.315,3.512,7.827,7.828,7.827s7.828-3.512,7.828-7.827
			C38.003,64.44,34.491,60.931,30.175,60.931z M30.175,72.315c-1.962,0-3.558-1.597-3.558-3.558c0-1.962,1.596-3.558,3.558-3.558
			s3.558,1.596,3.558,3.558C33.733,70.719,32.137,72.315,30.175,72.315z"/>
		<path d="M62.507,60.931c-4.315,0-7.828,3.51-7.828,7.827c0,4.315,3.513,7.827,7.828,7.827s7.828-3.512,7.828-7.827
			C70.335,64.44,66.822,60.931,62.507,60.931z M62.507,72.315c-1.962,0-3.558-1.597-3.558-3.558c0-1.962,1.596-3.558,3.558-3.558
			s3.558,1.596,3.558,3.558C66.066,70.719,64.469,72.315,62.507,72.315z"/>
		<path d="M63.451,29.487c0-7.51-6.108-13.618-13.618-13.618c-7.511,0-13.619,6.108-13.619,13.618
			c0,7.51,6.108,13.618,13.619,13.618C57.343,43.104,63.451,36.997,63.451,29.487z M45.396,26.059
			c-0.096,1.13-0.146,2.285-0.146,3.428s0.049,2.298,0.146,3.428c-1.564-0.179-2.955-0.445-4.127-0.769
			c-0.127-0.858-0.195-1.747-0.195-2.659s0.068-1.801,0.195-2.659C42.441,26.504,43.832,26.238,45.396,26.059z M41.443,25.836
			c0.267-1.282,0.668-2.479,1.182-3.557c1.076-0.515,2.275-0.916,3.556-1.181c-0.308,1.229-0.542,2.604-0.698,4.038
			C44.048,25.293,42.674,25.526,41.443,25.836z M45.482,33.838c0.156,1.435,0.391,2.809,0.698,4.038
			c-1.28-0.265-2.479-0.666-3.556-1.181c-0.514-1.077-0.915-2.274-1.182-3.557C42.674,33.448,44.048,33.681,45.482,33.838z
			 M46.164,29.487c0-1.24,0.054-2.417,0.15-3.519c1.103-0.097,2.278-0.151,3.519-0.151c1.239,0,2.417,0.055,3.519,0.151
			c0.096,1.102,0.15,2.278,0.15,3.519c0,1.241-0.055,2.417-0.15,3.519c-1.103,0.097-2.279,0.151-3.519,0.151
			c-1.24,0-2.417-0.055-3.519-0.151C46.218,31.904,46.164,30.727,46.164,29.487z M46.406,25.049
			c0.179-1.564,0.445-2.955,0.769-4.128c0.858-0.127,1.747-0.195,2.659-0.195s1.801,0.068,2.658,0.195
			c0.324,1.173,0.591,2.563,0.769,4.128c-1.129-0.096-2.284-0.145-3.427-0.145S47.536,24.954,46.406,25.049z M54.271,32.915
			c0.096-1.13,0.146-2.285,0.146-3.428s-0.05-2.298-0.146-3.428c1.564,0.179,2.955,0.445,4.127,0.769
			c0.127,0.858,0.194,1.747,0.194,2.659s-0.067,1.801-0.194,2.659C57.225,32.469,55.836,32.736,54.271,32.915z M58.223,33.138
			c-0.266,1.282-0.667,2.479-1.181,3.557c-1.077,0.515-2.274,0.916-3.556,1.181c0.308-1.229,0.541-2.604,0.697-4.038
			C55.619,33.681,56.992,33.448,58.223,33.138z M54.184,25.136c-0.156-1.435-0.39-2.809-0.697-4.038
			c1.281,0.265,2.479,0.666,3.556,1.181c0.513,1.077,0.915,2.274,1.181,3.557C56.992,25.526,55.619,25.293,54.184,25.136z
			 M49.834,34.07c1.143,0,2.298-0.05,3.427-0.146c-0.178,1.564-0.444,2.954-0.769,4.128c-0.857,0.127-1.746,0.194-2.658,0.194
			s-1.801-0.067-2.659-0.194c-0.323-1.174-0.59-2.563-0.769-4.128C47.536,34.02,48.691,34.07,49.834,34.07z M53.213,38.857
			c1.104-0.199,2.15-0.496,3.128-0.875c-1.175,1.89-2.735,3.266-4.498,3.869C52.383,41.11,52.841,40.081,53.213,38.857z
			 M54.766,41.196c1.162-0.975,2.168-2.281,2.949-3.829c1.546-0.781,2.854-1.786,3.828-2.949
			C60.255,37.464,57.812,39.907,54.766,41.196z M58.329,35.994c0.378-0.976,0.675-2.024,0.876-3.126
			c1.222-0.374,2.252-0.832,2.992-1.37C61.594,33.26,60.219,34.82,58.329,35.994z M59.357,31.854c0.097-0.77,0.148-1.56,0.148-2.367
			c0-0.807-0.053-1.598-0.148-2.367c2.017,0.684,3.182,1.548,3.182,2.367C62.539,30.306,61.374,31.171,59.357,31.854z
			 M59.205,26.106c-0.201-1.102-0.498-2.15-0.876-3.126c1.891,1.174,3.266,2.733,3.868,4.497
			C61.457,26.938,60.426,26.48,59.205,26.106z M61.543,24.555c-0.975-1.163-2.282-2.168-3.828-2.949
			c-0.783-1.546-1.788-2.854-2.949-3.829C57.811,19.066,60.255,21.509,61.543,24.555z M56.341,20.992
			c-0.978-0.379-2.024-0.676-3.128-0.876c-0.373-1.223-0.831-2.253-1.37-2.993C53.607,17.726,55.167,19.101,56.341,20.992z
			 M49.834,16.782c0.818,0,1.684,1.165,2.367,3.181c-0.771-0.096-1.561-0.148-2.367-0.148s-1.598,0.053-2.367,0.148
			C48.15,17.947,49.014,16.782,49.834,16.782z M46.454,20.116c-1.103,0.2-2.151,0.497-3.128,0.876
			c1.175-1.891,2.734-3.266,4.498-3.869C47.283,17.863,46.826,18.893,46.454,20.116z M44.902,17.777
			c-1.162,0.975-2.168,2.283-2.951,3.829c-1.545,0.781-2.853,1.786-3.827,2.949C39.412,21.509,41.855,19.066,44.902,17.777z
			 M41.338,22.98c-0.378,0.976-0.675,2.024-0.876,3.126c-1.222,0.374-2.252,0.832-2.993,1.371
			C38.073,25.713,39.448,24.154,41.338,22.98z M40.31,27.12c-0.097,0.771-0.149,1.561-0.149,2.367c0,0.807,0.053,1.598,0.149,2.367
			c-2.017-0.684-3.182-1.548-3.182-2.367C37.128,28.668,38.293,27.803,40.31,27.12z M40.463,32.868
			c0.201,1.102,0.498,2.15,0.876,3.126c-1.891-1.174-3.266-2.733-3.869-4.496C38.21,32.036,39.241,32.494,40.463,32.868z
			 M38.125,34.419c0.974,1.163,2.282,2.168,3.828,2.949c0.783,1.547,1.787,2.854,2.949,3.829
			C41.855,39.907,39.412,37.464,38.125,34.419z M43.326,37.982c0.977,0.379,2.025,0.676,3.128,0.875
			c0.372,1.224,0.831,2.253,1.37,2.994C46.061,41.248,44.501,39.872,43.326,37.982z M47.467,39.011
			c0.77,0.096,1.561,0.148,2.367,0.148s1.597-0.053,2.367-0.148c-0.684,2.016-1.547,3.182-2.367,3.182S48.15,41.026,47.467,39.011z"
			/>
	</g>
</g>
<g>
</g>
<g>
</g>
<g>
</g>
<g>
</g>
<g>
</g>
<g>
</g>
<g>
</g>
<g>
</g>
<g>
</g>
<g>
</g>
<g>
</g>
<g>
</g>
<g>
</g>
<g>
</g>
<g>
</g>
</svg>
