<?xml version="1.0" encoding="iso-8859-1"?>
<!-- Generator: Adobe Illustrator 16.0.0, SVG Export Plug-In . SVG Version: 6.00 Build 0)  -->
<!DOCTYPE svg PUBLIC "-//W3C//DTD SVG 1.1//EN" "http://www.w3.org/Graphics/SVG/1.1/DTD/svg11.dtd">
<svg version="1.1" id="Capa_1" xmlns="http://www.w3.org/2000/svg" xmlns:xlink="http://www.w3.org/1999/xlink" x="0px" y="0px"
	 width="94.668px" height="94.667px" viewBox="0 0 94.668 94.667" style="enable-background:new 0 0 94.668 94.667;"
	 xml:space="preserve">
<g>
	<g>
		<path d="M87.76,16.298c1.043-1.109,1.688-2.598,1.688-4.237c0-3.417-2.779-6.197-6.196-6.197s-6.196,2.78-6.196,6.197
			c0,0.981,0.246,1.9,0.655,2.726l-8.808,7.903c-1.055-0.828-2.379-1.326-3.818-1.326c-2.271,0-4.257,1.232-5.336,3.062l-5.68-4.407
			c0.242-0.663,0.379-1.378,0.379-2.124c0-3.417-2.78-6.197-6.197-6.197s-6.197,2.78-6.197,6.197c0,0.022,0.003,0.044,0.003,0.065
			l-4.693,2.816c-1.106-1.7-3.021-2.829-5.195-2.829c-3.417,0-6.197,2.78-6.197,6.197c0,0.138,0.025,0.269,0.035,0.405l-6.886,6.547
			c-1.097-0.979-2.537-1.58-4.119-1.58c-3.417,0-6.197,2.78-6.197,6.197c0,1.596,0.612,3.049,1.606,4.148v40.035h9.346V39.682
			c0.899-1.076,1.442-2.459,1.442-3.968c0-1.113-0.299-2.155-0.814-3.059l6.194-5.891c0.204,0.431,0.438,0.844,0.73,1.214v51.918
			h9.346V28.407c1.058-1.111,1.711-2.611,1.711-4.263c0-0.525-0.072-1.032-0.196-1.52l4.281-2.568
			c0.276,0.734,0.686,1.404,1.202,1.978v57.862h9.346V21.871c0.025-0.03,0.044-0.067,0.068-0.099l5.938,4.606
			c-0.074,0.384-0.115,0.778-0.115,1.183c0,1.627,0.635,3.105,1.664,4.213v48.123h9.344V31.459c0.865-1.066,1.387-2.422,1.387-3.898
			c0-1.256-0.379-2.424-1.021-3.4l8.157-7.321v63.058h9.345v-63.6H87.76z M19.32,35.744c0,2.314-1.883,4.197-4.197,4.197
			s-4.197-1.883-4.197-4.197s1.883-4.197,4.197-4.197S19.32,33.43,19.32,35.744z M36.487,24.174c0,2.314-1.883,4.197-4.197,4.197
			s-4.197-1.883-4.197-4.197c0-2.314,1.883-4.197,4.197-4.197S36.487,21.859,36.487,24.174z M52.57,17.924
			c0,2.314-1.883,4.197-4.197,4.197c-2.314,0-4.197-1.883-4.197-4.197c0-2.314,1.883-4.197,4.197-4.197
			C50.688,13.728,52.57,15.609,52.57,17.924z M69.404,27.591c0,2.314-1.883,4.197-4.197,4.197s-4.197-1.883-4.197-4.197
			c0-2.314,1.883-4.197,4.197-4.197S69.404,25.276,69.404,27.591z M87.57,12.091c0,2.314-1.883,4.197-4.196,4.197
			s-4.197-1.883-4.197-4.197c0-2.314,1.884-4.197,4.197-4.197S87.57,9.776,87.57,12.091z"/>
		<rect y="81.87" width="94.668" height="6.934"/>
	</g>
</g>
<g>
</g>
<g>
</g>
<g>
</g>
<g>
</g>
<g>
</g>
<g>
</g>
<g>
</g>
<g>
</g>
<g>
</g>
<g>
</g>
<g>
</g>
<g>
</g>
<g>
</g>
<g>
</g>
<g>
</g>
</svg>
