<?xml version="1.0" encoding="iso-8859-1"?>
<!-- Generator: Adobe Illustrator 16.0.0, SVG Export Plug-In . SVG Version: 6.00 Build 0)  -->
<!DOCTYPE svg PUBLIC "-//W3C//DTD SVG 1.1//EN" "http://www.w3.org/Graphics/SVG/1.1/DTD/svg11.dtd">
<svg version="1.1" id="Capa_1" xmlns="http://www.w3.org/2000/svg" xmlns:xlink="http://www.w3.org/1999/xlink" x="0px" y="0px"
	 width="104.03px" height="104.03px" viewBox="0 0 104.03 104.03" style="enable-background:new 0 0 104.03 104.03;"
	 xml:space="preserve">
<g>
	<g>
		<path d="M9.349,72.195h85.334c2.206,0,4-1.795,4-4V18.727c0-2.207-1.794-4-4-4H9.349c-2.206,0-4,1.793-4,4v49.469
			C5.349,70.4,7.143,72.195,9.349,72.195z M9.349,18.727h85.334l0.003,49.469H9.349V18.727z"/>
		<path d="M103.032,84.234c-0.122,0.053-0.257,0.084-0.397,0.084c-0.007-0.001-0.013-0.001-0.02,0H1.417
			c-0.135,0-0.262-0.035-0.382-0.086l0,0c-0.395,0-0.752,0.23-0.918,0.588c-0.184,0.4-0.151,0.844,0.089,1.219
			c0.422,0.658,1.128,1.763,17.189,2.563c9.076,0.453,21.174,0.701,34.063,0.701c11.574,0,49.539-0.228,52.212-3.147
			c0.261-0.285,0.387-0.64,0.354-1C103.981,84.637,103.551,84.24,103.032,84.234z M59.166,87.367h-14.3c-0.331,0-0.6-0.269-0.6-0.6
			s0.269-0.6,0.6-0.6h14.3c0.331,0,0.6,0.269,0.6,0.6S59.497,87.367,59.166,87.367z"/>
		<path d="M1.037,83.232h101.985c0.003,0,0.007,0.002,0.011,0.002c0.354-0.152,0.603-0.505,0.603-0.916
			c0-0.285-0.121-0.545-0.312-0.727l-6.151-8.366c-0.188-0.256-0.488-0.407-0.806-0.407H7.948c-0.311,0-0.604,0.146-0.793,0.391
			l-6.529,8.5c-0.232,0.303-0.272,0.711-0.104,1.053C0.629,82.98,0.816,83.141,1.037,83.232z M8.439,74.818h87.418l4.779,6.5H3.447
			L8.439,74.818z"/>
		<path d="M67.644,48.364L67.644,48.364c0.003-0.019-0.001-0.035-0.002-0.053c0-0.021,0.002-0.043-0.003-0.063
			c-0.004-0.018-0.015-0.032-0.021-0.049c-0.009-0.018-0.014-0.037-0.025-0.053c-0.011-0.016-0.027-0.025-0.041-0.038
			c-0.014-0.013-0.025-0.028-0.042-0.039c-0.016-0.009-0.035-0.013-0.052-0.019c-0.02-0.008-0.035-0.018-0.055-0.021H67.4l0,0
			l-5.312-0.819c-0.019-0.003-0.037,0.002-0.055,0.003c-0.021,0-0.04-0.002-0.06,0.002c-0.021,0.006-0.038,0.018-0.057,0.026
			c-0.015,0.007-0.031,0.011-0.044,0.021c-0.02,0.013-0.032,0.032-0.047,0.05c-0.01,0.011-0.021,0.02-0.029,0.031
			c-0.011,0.019-0.016,0.041-0.023,0.062c-0.005,0.016-0.015,0.029-0.017,0.046c-0.356,2.147-1.37,4.094-2.93,5.625
			c-1.932,1.896-4.482,2.94-7.187,2.94c-5.656,0-10.258-4.602-10.258-10.257c0-5.655,4.602-10.257,10.258-10.257
			c1.187,0,2.354,0.202,3.466,0.602l0,0l0,0c0.032,0.012,0.065,0.017,0.099,0.017c0.003,0,0.006-0.001,0.009-0.001
			c0.009,0,0.017-0.003,0.026-0.004c0.024-0.003,0.05-0.01,0.073-0.019c0.011-0.005,0.021-0.01,0.03-0.015
			c0.021-0.012,0.041-0.026,0.059-0.043c0.008-0.007,0.016-0.014,0.022-0.021c0.022-0.025,0.041-0.055,0.053-0.088
			c0-0.001,0.001-0.002,0.002-0.003v-0.001l1.794-5.066c0.008-0.021,0.007-0.041,0.01-0.062c0.002-0.018,0.008-0.035,0.007-0.053
			c-0.001-0.022-0.01-0.043-0.018-0.064c-0.004-0.015-0.005-0.03-0.011-0.044c-0.011-0.021-0.028-0.04-0.043-0.059
			c-0.008-0.011-0.013-0.022-0.022-0.031c-0.019-0.017-0.041-0.026-0.063-0.038c-0.013-0.007-0.021-0.017-0.037-0.022
			c0,0,0,0-0.001,0c-1.752-0.626-3.588-0.943-5.456-0.943c-8.942,0-16.216,7.274-16.216,16.216c0,8.942,7.274,16.216,16.216,16.216
			c4.293,0,8.341-1.663,11.396-4.684C65.5,54.857,67.094,51.771,67.644,48.364L67.644,48.364z M62.827,56.67l-3.391-3.391
			c1.464-1.518,2.438-3.39,2.836-5.45l4.742,0.73C66.459,51.633,65.018,54.426,62.827,56.67z"/>
		<path d="M58.648,32.726c0.009,0.018,0.022,0.031,0.034,0.046c0.012,0.016,0.02,0.031,0.032,0.044
			c0.016,0.015,0.037,0.023,0.056,0.034c0.016,0.009,0.027,0.021,0.043,0.025c4.062,1.459,6.792,5.339,6.792,9.656
			c0,0.557-0.047,1.125-0.141,1.69v0.001c0,0.001,0,0.001,0,0.001c-0.003,0.021,0.001,0.04,0.003,0.06
			c0.001,0.019-0.002,0.038,0.002,0.056c0.005,0.019,0.017,0.035,0.024,0.052s0.013,0.035,0.022,0.05
			c0.013,0.017,0.028,0.027,0.043,0.04c0.014,0.013,0.023,0.026,0.039,0.036c0.018,0.011,0.039,0.016,0.059,0.022
			c0.017,0.006,0.03,0.016,0.049,0.019c0,0,0.001,0,0.002,0c0,0,0,0,0.001,0l5.31,0.819l0,0h0.002
			c0.016,0.002,0.03,0.004,0.045,0.004c0.035,0,0.069-0.007,0.102-0.02c0.013-0.004,0.021-0.013,0.034-0.02
			c0.018-0.009,0.037-0.018,0.053-0.031c0.011-0.009,0.019-0.022,0.029-0.034c0.012-0.015,0.025-0.027,0.036-0.043
			c0.007-0.013,0.009-0.028,0.014-0.042c0.007-0.019,0.017-0.036,0.021-0.057c0,0,0-0.001,0-0.002
			c0.141-0.865,0.21-1.741,0.21-2.602c0-6.835-4.323-12.973-10.759-15.271c0-0.001,0-0.001,0-0.001
			c-0.071-0.024-0.145-0.019-0.209,0.008c-0.004,0.002-0.01,0.002-0.014,0.004c-0.021,0.01-0.036,0.025-0.053,0.039
			c-0.014,0.01-0.027,0.016-0.037,0.027c-0.015,0.016-0.022,0.036-0.033,0.055c-0.009,0.015-0.021,0.027-0.027,0.044v0.001
			l-1.794,5.066c-0.006,0.019-0.005,0.037-0.008,0.056c-0.003,0.02-0.009,0.04-0.008,0.059c0.001,0.018,0.009,0.033,0.013,0.051
			C58.639,32.688,58.641,32.708,58.648,32.726z"/>
		<polygon points="67.256,53.969 66.346,54.877 69.698,58.23 74.092,58.23 74.092,56.943 70.23,56.943 		"/>
		<polygon points="28.101,55.361 22.486,55.361 22.486,56.648 28.452,56.648 34.69,52.98 34.039,51.871 		"/>
		<polygon points="81.566,28.206 74.417,28.206 69.992,32.631 70.9,33.541 74.95,29.494 81.566,29.494 		"/>
		<rect x="88.849" y="41.348" width="5" height="0.667"/>
		<rect x="83.016" y="42.793" width="10.833" height="0.667"/>
		<rect x="86.204" y="44.381" width="7.646" height="0.667"/>
		<rect x="87.233" y="46.024" width="6.615" height="0.667"/>
		<rect x="79.516" y="47.471" width="14.333" height="0.667"/>
		<rect x="83.732" y="49.058" width="10.116" height="0.667"/>
		<path d="M86.016,52.656c-1.328,0-2.552,0.438-3.547,1.172l-1.605-1.606h-5.534v0.301h5.409l1.487,1.487
			c-1.348,1.102-2.21,2.773-2.21,4.646c0,3.309,2.691,6,6,6c3.31,0,6-2.691,6-6C92.016,55.347,89.325,52.656,86.016,52.656z
			 M86.016,64.156c-3.033,0-5.5-2.469-5.5-5.5c0-1.733,0.81-3.281,2.066-4.289l1.344,1.344c-0.923,0.656-1.53,1.729-1.53,2.945
			c0,1.996,1.624,3.618,3.62,3.618s3.62-1.622,3.62-3.618s-1.624-3.619-3.62-3.619c-0.668,0-1.288,0.193-1.826,0.512l-1.364-1.364
			c0.9-0.646,2-1.028,3.189-1.028c3.033,0,5.5,2.469,5.5,5.5C91.515,61.688,89.049,64.156,86.016,64.156z M86.016,55.337
			c1.83,0,3.318,1.489,3.318,3.317c0,1.829-1.488,3.319-3.318,3.319s-3.317-1.489-3.317-3.317
			C82.698,56.826,84.186,55.337,86.016,55.337z"/>
		<rect x="11.016" y="22.182" width="8.667" height="1.334"/>
		<rect x="20.683" y="22.182" width="8.667" height="1.334"/>
		<rect x="11.016" y="34.933" width="9.333" height="0.333"/>
		<rect x="11.016" y="33.016" width="14.999" height="0.333"/>
		<rect x="11.016" y="30.975" width="6.77" height="0.333"/>
		<rect x="11.016" y="29.058" width="10.88" height="0.333"/>
		<rect x="11.016" y="26.766" width="13.249" height="0.333"/>
		<rect x="11.016" y="24.849" width="10.88" height="0.333"/>
	</g>
</g>
<g>
</g>
<g>
</g>
<g>
</g>
<g>
</g>
<g>
</g>
<g>
</g>
<g>
</g>
<g>
</g>
<g>
</g>
<g>
</g>
<g>
</g>
<g>
</g>
<g>
</g>
<g>
</g>
<g>
</g>
</svg>
