<?xml version="1.0" encoding="iso-8859-1"?>
<!-- Generator: Adobe Illustrator 16.0.0, SVG Export Plug-In . SVG Version: 6.00 Build 0)  -->
<!DOCTYPE svg PUBLIC "-//W3C//DTD SVG 1.1//EN" "http://www.w3.org/Graphics/SVG/1.1/DTD/svg11.dtd">
<svg version="1.1" id="Capa_1" xmlns="http://www.w3.org/2000/svg" xmlns:xlink="http://www.w3.org/1999/xlink" x="0px" y="0px"
	 width="104.03px" height="104.03px" viewBox="0 0 104.03 104.03" style="enable-background:new 0 0 104.03 104.03;"
	 xml:space="preserve">
<g>
	<g>
		<path d="M9.349,72.195h85.334c2.206,0,4-1.795,4-4V18.727c0-2.207-1.794-4-4-4H9.349c-2.206,0-4,1.793-4,4v49.469
			C5.349,70.4,7.143,72.195,9.349,72.195z M9.349,18.727h85.334l0.003,49.469H9.349V18.727z"/>
		<path d="M103.032,84.234c-0.122,0.053-0.257,0.084-0.397,0.084c-0.007-0.001-0.013-0.001-0.02,0H1.417
			c-0.135,0-0.262-0.035-0.382-0.086l0,0c-0.395,0-0.752,0.23-0.918,0.588c-0.184,0.4-0.151,0.844,0.089,1.219
			c0.422,0.658,1.128,1.763,17.189,2.563c9.076,0.453,21.174,0.701,34.063,0.701c11.574,0,49.539-0.228,52.212-3.147
			c0.261-0.285,0.387-0.64,0.354-1C103.981,84.637,103.551,84.24,103.032,84.234z M59.166,87.367h-14.3c-0.331,0-0.6-0.269-0.6-0.6
			s0.269-0.6,0.6-0.6h14.3c0.331,0,0.6,0.269,0.6,0.6S59.497,87.367,59.166,87.367z"/>
		<path d="M1.037,83.232h101.985c0.003,0,0.007,0.002,0.011,0.002c0.354-0.152,0.603-0.505,0.603-0.916
			c0-0.285-0.121-0.545-0.312-0.727l-6.151-8.366c-0.188-0.256-0.488-0.407-0.806-0.407H7.948c-0.311,0-0.604,0.146-0.793,0.391
			l-6.529,8.5c-0.232,0.303-0.272,0.711-0.104,1.053C0.629,82.98,0.816,83.141,1.037,83.232z M8.439,74.818h87.418l4.779,6.5H3.447
			L8.439,74.818z"/>
		<path d="M62.426,38.459c0.179-0.825,0.278-1.679,0.278-2.556c0-6.646-5.407-12.054-12.055-12.054
			c-6.647,0-12.054,5.407-12.054,12.054c0,0.868,0.098,1.714,0.272,2.53c-5.247,1.304-9.153,6.042-9.153,11.687
			c0,6.646,5.407,12.054,12.054,12.054c3.489,0,6.627-1.499,8.83-3.876c2.203,2.377,5.341,3.876,8.83,3.876
			c6.646,0,12.054-5.407,12.054-12.054C71.482,44.511,67.625,39.797,62.426,38.459z M50.649,24.85
			c6.097,0,11.055,4.958,11.055,11.054c0,0.806-0.092,1.589-0.256,2.346c-0.658-0.111-1.329-0.183-2.02-0.183
			c-3.489,0-6.627,1.499-8.83,3.877c-2.203-2.378-5.341-3.877-8.83-3.877c-0.655,0-1.293,0.067-1.92,0.168
			c-0.162-0.752-0.253-1.531-0.253-2.331C39.597,29.808,44.556,24.85,50.649,24.85z M50.599,43.5
			c0.746,0.993,1.338,2.107,1.719,3.318c-0.546,0.083-1.1,0.14-1.668,0.14c-0.602,0-1.188-0.062-1.764-0.154
			C49.266,45.598,49.855,44.488,50.599,43.5z M47.904,46.598c-3.702-0.952-6.665-3.767-7.803-7.392c0.546-0.083,1.1-0.14,1.668-0.14
			c3.241,0,6.152,1.411,8.176,3.641C49.044,43.857,48.342,45.168,47.904,46.598z M51.253,42.708
			c2.024-2.229,4.935-3.641,8.176-3.641c0.603,0,1.188,0.062,1.766,0.154c-1.151,3.649-4.151,6.476-7.894,7.401
			C52.864,45.184,52.16,43.864,51.253,42.708z M41.769,61.175c-6.096,0-11.054-4.958-11.054-11.054c0-5.18,3.586-9.526,8.402-10.719
			c1.217,4.002,4.465,7.116,8.537,8.163c-0.18,0.825-0.279,1.679-0.279,2.556c0,2.795,0.966,5.366,2.569,7.413
			C47.921,59.764,45.011,61.175,41.769,61.175z M48.375,50.121c0-0.806,0.092-1.589,0.257-2.347
			c0.657,0.112,1.329,0.184,2.018,0.184c0.655,0,1.293-0.067,1.92-0.168c0.162,0.752,0.253,1.531,0.253,2.331
			c0,2.485-0.834,4.773-2.224,6.622C49.209,54.894,48.375,52.605,48.375,50.121z M59.43,61.175c-3.241,0-6.151-1.411-8.176-3.642
			c1.604-2.047,2.57-4.617,2.57-7.413c0-0.868-0.099-1.714-0.272-2.531c4.108-1.021,7.395-4.142,8.626-8.163
			c4.769,1.227,8.307,5.549,8.307,10.694C70.482,56.217,65.524,61.175,59.43,61.175z"/>
		<polygon points="27.141,37.578 18.204,37.578 31.579,42.015 		"/>
		<rect x="11.891" y="30.328" width="13.813" height="0.938"/>
		<rect x="11.891" y="32.203" width="1.313" height="0.938"/>
		<rect x="13.954" y="32.203" width="1.313" height="0.938"/>
		<rect x="16.141" y="32.203" width="1.313" height="0.938"/>
		<rect x="18.204" y="32.203" width="1.313" height="0.938"/>
		<rect x="11.891" y="34.046" width="1.684" height="0.938"/>
		<rect x="14.537" y="34.046" width="1.684" height="0.938"/>
		<rect x="17.343" y="34.046" width="1.684" height="0.938"/>
		<rect x="19.989" y="34.046" width="1.684" height="0.938"/>
		<path d="M69.439,33.64h8.382c0.229,1.07,1.182,1.875,2.319,1.875c1.311,0,2.375-1.065,2.375-2.375s-1.064-2.375-2.375-2.375
			c-1.138,0-2.089,0.805-2.319,1.875h-8.796l-4.584,4.584l0.707,0.707L69.439,33.64z M80.141,31.765
			c0.758,0,1.375,0.617,1.375,1.375s-0.617,1.375-1.375,1.375s-1.375-0.617-1.375-1.375S79.383,31.765,80.141,31.765z"/>
		<path d="M86.722,42.015c-0.959,0-1.762,0.679-1.957,1.582h-7.419l-3.867,3.867l0.597,0.597l3.62-3.62h7.068
			c0.195,0.902,0.998,1.582,1.957,1.582c1.105,0,2.003-0.898,2.003-2.003C88.725,42.914,87.827,42.015,86.722,42.015z
			 M86.722,45.178c-0.64,0-1.16-0.52-1.16-1.16s0.521-1.16,1.16-1.16c0.641,0,1.16,0.52,1.16,1.16S87.361,45.178,86.722,45.178z"/>
		<rect x="78.597" y="59.89" width="1.625" height="6.125"/>
		<rect x="81.995" y="57.765" width="1.625" height="8.25"/>
		<rect x="85.408" y="55.265" width="1.625" height="10.75"/>
		<rect x="88.806" y="52.453" width="1.625" height="13.563"/>
	</g>
</g>
<g>
</g>
<g>
</g>
<g>
</g>
<g>
</g>
<g>
</g>
<g>
</g>
<g>
</g>
<g>
</g>
<g>
</g>
<g>
</g>
<g>
</g>
<g>
</g>
<g>
</g>
<g>
</g>
<g>
</g>
</svg>
