<?xml version="1.0" encoding="iso-8859-1"?>
<!-- Generator: Adobe Illustrator 16.0.0, SVG Export Plug-In . SVG Version: 6.00 Build 0)  -->
<!DOCTYPE svg PUBLIC "-//W3C//DTD SVG 1.1//EN" "http://www.w3.org/Graphics/SVG/1.1/DTD/svg11.dtd">
<svg version="1.1" id="Capa_1" xmlns="http://www.w3.org/2000/svg" xmlns:xlink="http://www.w3.org/1999/xlink" x="0px" y="0px"
	 width="112.413px" height="112.413px" viewBox="0 0 112.413 112.413" style="enable-background:new 0 0 112.413 112.413;"
	 xml:space="preserve">
<g>
	<g>
		<path d="M103.197,84.634c-0.107,0.046-0.227,0.074-0.352,0.074c-0.006,0-0.012,0-0.018,0H13.546c-0.119,0-0.231-0.033-0.337-0.076
			l0,0c-0.348,0-0.663,0.203-0.81,0.519c-0.162,0.354-0.134,0.745,0.078,1.075c0.373,0.581,0.995,1.555,15.166,2.262
			c8.008,0.399,18.681,0.618,30.053,0.618c10.211,0,43.706-0.2,46.065-2.778c0.229-0.25,0.34-0.562,0.313-0.881
			C104.035,84.989,103.655,84.638,103.197,84.634z M64.495,87.396H51.878c-0.292,0-0.529-0.237-0.529-0.528
			c0-0.293,0.237-0.529,0.529-0.529h12.617c0.292,0,0.529,0.236,0.529,0.529C65.024,87.159,64.787,87.396,64.495,87.396z"/>
		<path d="M13.209,83.749h89.979c0.004,0,0.007,0.002,0.01,0.002c0.312-0.135,0.531-0.446,0.531-0.809
			c0-0.252-0.105-0.48-0.276-0.641l-5.427-7.381c-0.167-0.227-0.43-0.359-0.711-0.359H19.306c-0.274,0-0.533,0.127-0.7,0.346
			l-5.76,7.498c-0.205,0.268-0.241,0.627-0.092,0.928C12.85,83.526,13.015,83.667,13.209,83.749z M19.741,76.325h77.126l4.217,5.735
			H15.336L19.741,76.325z"/>
		<path d="M52.712,42.513c0.424-1.051,1.035-2.005,1.791-2.824c-1.25-1.193-2.94-1.926-4.804-1.926
			c-2.929,0-5.433,1.809-6.465,4.369c-3.047,0.747-5.31,3.488-5.31,6.765c0,3.851,3.122,6.974,6.973,6.974h1.836
			c-0.692-1.299-1.086-2.781-1.086-4.354C45.646,47.155,48.658,43.506,52.712,42.513z"/>
		<path d="M72.081,43.771c-1.323-3.508-4.704-6.009-8.675-6.009c-3.898,0-7.23,2.407-8.604,5.813
			c-4.054,0.994-7.065,4.641-7.065,9.002c0,5.125,4.154,9.28,9.28,9.28h12.154c5.125,0,9.279-4.154,9.279-9.28
			C78.45,48.472,75.779,44.993,72.081,43.771z"/>
		<path d="M105.145,33.575c0.238,1.788,1.758,3.177,3.609,3.177c2.018,0,3.659-1.642,3.659-3.659c0-2.017-1.642-3.659-3.659-3.659
			c-1.852,0-3.371,1.389-3.609,3.177H99.36v-5.774c0-1.947-1.583-3.529-3.529-3.529H20.543c-1.946,0-3.529,1.582-3.529,3.529v7.313
			H6.658c-0.219-1.638-1.61-2.91-3.307-2.91C1.503,31.24,0,32.743,0,34.59c0,1.848,1.503,3.351,3.351,3.351
			c1.697,0,3.088-1.272,3.307-2.91h10.356v6.221h-6.622c-0.179-1.34-1.317-2.38-2.705-2.38c-1.511,0-2.741,1.23-2.741,2.741
			c0,1.511,1.23,2.741,2.741,2.741c1.388,0,2.526-1.041,2.705-2.38h6.622v28.508c0,1.945,1.583,3.529,3.529,3.529h75.288
			c1.946,0,3.529-1.583,3.529-3.529v-28.53h4.829c0.185,1.375,1.353,2.444,2.777,2.444c1.551,0,2.814-1.262,2.814-2.814
			c0-1.551-1.264-2.814-2.814-2.814c-1.425,0-2.593,1.068-2.777,2.443H99.36v-7.637H105.145z M108.756,30.397
			c1.485,0,2.694,1.209,2.694,2.695c0,1.486-1.209,2.695-2.694,2.695c-1.486,0-2.695-1.209-2.695-2.695
			C106.059,31.606,107.27,30.397,108.756,30.397z M3.351,37.06c-1.361,0-2.469-1.107-2.469-2.469c0-1.362,1.107-2.469,2.469-2.469
			c1.362,0,2.469,1.107,2.469,2.469C5.82,35.953,4.713,37.06,3.351,37.06z M7.688,43.632c-1.114,0-2.02-0.906-2.02-2.02
			c0-1.114,0.906-2.021,2.02-2.021c1.114,0,2.019,0.906,2.019,2.021C9.707,42.727,8.802,43.632,7.688,43.632z M106.967,39.508
			c1.144,0,2.073,0.93,2.073,2.073s-0.93,2.073-2.073,2.073c-1.143,0-2.072-0.93-2.072-2.073S105.824,39.508,106.967,39.508z
			 M95.832,41.211h-5.879L76.98,46.124l0.263,0.692l12.776-4.863h5.812l0.002,28.53h-75.29V41.975h3.651l12.447,4.737l0.256-0.675
			l-12.636-4.784h-3.718v-6.221h2.989l15.217,5.792l0.313-0.825l-15.449-5.849h-3.07v-7.313h75.288v5.774h-9.196L69.77,38.997
			l0.342,0.9l16.611-6.323h9.108L95.832,41.211z"/>
	</g>
</g>
<g>
</g>
<g>
</g>
<g>
</g>
<g>
</g>
<g>
</g>
<g>
</g>
<g>
</g>
<g>
</g>
<g>
</g>
<g>
</g>
<g>
</g>
<g>
</g>
<g>
</g>
<g>
</g>
<g>
</g>
</svg>
