<?xml version="1.0" encoding="iso-8859-1"?>
<!-- Generator: Adobe Illustrator 18.0.0, SVG Export Plug-In . SVG Version: 6.00 Build 0)  -->
<!DOCTYPE svg PUBLIC "-//W3C//DTD SVG 1.1//EN" "http://www.w3.org/Graphics/SVG/1.1/DTD/svg11.dtd">
<svg version="1.1" id="Capa_1" xmlns="http://www.w3.org/2000/svg" xmlns:xlink="http://www.w3.org/1999/xlink" x="0px" y="0px"
	 viewBox="0 0 392.581 392.581" style="enable-background:new 0 0 392.581 392.581;" xml:space="preserve">
<g>
	<path d="M385.821,311.946h-21.003l-0.001-115.444v-77.137c0-8.174-6.628-14.805-14.804-14.805h-16.735l-10.594,25.759h16.375
		v171.496H53.655V130.319h37.559l31.221-25.759H42.702c-8.177,0-14.806,6.63-14.806,14.805v192.581H6.761
		c-3.734,0-6.761,3.027-6.761,6.764c0,16.051,13.06,29.112,29.113,29.112h235.222v-12.588c0-4.478,3.63-8.109,8.11-8.109
		c4.478,0,8.108,3.632,8.108,8.109v12.588h13.298v-12.588c0-4.478,3.631-8.109,8.109-8.109c4.479,0,8.11,3.632,8.11,8.109v12.588
		h53.396c16.055,0,29.115-13.062,29.115-29.112C392.581,314.973,389.555,311.946,385.821,311.946z"/>
	<path d="M92.124,161.54l49.748-36.008l35.725,43.174l4.294,5.19l6.339-4.294l94.742-64.162l15.304,18.536
		c0.648,0.786,1.61,1.231,2.612,1.231c0.168,0,0.337-0.013,0.506-0.038c1.177-0.178,2.174-0.961,2.627-2.062l30.301-73.673
		c0.476-1.157,0.276-2.481-0.521-3.445c-0.65-0.789-1.615-1.231-2.613-1.231c-0.223,0-0.448,0.022-0.671,0.067L252.44,60.63
		c-1.167,0.236-2.124,1.067-2.521,2.189c-0.397,1.122-0.177,2.37,0.581,3.288l13.948,16.894l-80.761,69.602l-37.71-36.095
		l-3.132-2.998l-2.875,2.513L89.04,158.04C89.316,158.37,91.869,161.194,92.124,161.54z"/>
	<path d="M203.624,249.858v26.333c0,4.419,3.582,8,8,8c4.419,0,8-3.581,8-8v-26.333c0-4.419-3.581-8-8-8
		C207.206,241.858,203.624,245.439,203.624,249.858z"/>
	<path d="M181.624,208.858c-4.418,0-8,3.581-8,8v59.333c0,4.419,3.582,8,8,8c4.419,0,8-3.581,8-8v-59.333
		C189.624,212.439,186.042,208.858,181.624,208.858z"/>
	<path d="M143.624,249.858v26.333c0,4.419,3.582,8,8,8c4.419,0,8-3.581,8-8v-26.333c0-4.419-3.581-8-8-8
		C147.206,241.858,143.624,245.439,143.624,249.858z"/>
	<path d="M113.624,216.858v59.333c0,4.419,3.582,8,8,8c4.419,0,8-3.581,8-8v-59.333c0-4.419-3.581-8-8-8
		C117.205,208.858,113.624,212.439,113.624,216.858z"/>
	<path d="M89.453,188.163c-0.696,0.196-1.351,0.484-1.956,0.85c-2.318,1.401-3.873,3.938-3.873,6.845v80.333c0,4.419,3.582,8,8,8
		c4.419,0,8-3.581,8-8v-80.333c0-4.419-3.581-8-8-8C90.871,187.858,90.144,187.969,89.453,188.163z"/>
	<path d="M313.29,228.025h-36.667c-4.418,0-8,3.581-8,8c0,4.418,3.582,8,8,8h36.667c4.418,0,8-3.582,8-8
		C321.29,231.606,317.709,228.025,313.29,228.025z"/>
	<path d="M313.29,263.025h-36.667c-4.418,0-8,3.581-8,8c0,4.418,3.582,8,8,8h36.667c4.418,0,8-3.582,8-8
		C321.29,266.606,317.709,263.025,313.29,263.025z"/>
</g>
<g>
</g>
<g>
</g>
<g>
</g>
<g>
</g>
<g>
</g>
<g>
</g>
<g>
</g>
<g>
</g>
<g>
</g>
<g>
</g>
<g>
</g>
<g>
</g>
<g>
</g>
<g>
</g>
<g>
</g>
</svg>
