<?xml version="1.0" encoding="iso-8859-1"?>
<!-- Generator: Adobe Illustrator 16.0.0, SVG Export Plug-In . SVG Version: 6.00 Build 0)  -->
<!DOCTYPE svg PUBLIC "-//W3C//DTD SVG 1.1//EN" "http://www.w3.org/Graphics/SVG/1.1/DTD/svg11.dtd">
<svg version="1.1" id="Capa_1" xmlns="http://www.w3.org/2000/svg" xmlns:xlink="http://www.w3.org/1999/xlink" x="0px" y="0px"
	 width="104.03px" height="104.03px" viewBox="0 0 104.03 104.03" style="enable-background:new 0 0 104.03 104.03;"
	 xml:space="preserve">
<g>
	<g>
		<path d="M9.349,72.195h85.334c2.206,0,4-1.795,4-4V18.727c0-2.207-1.794-4-4-4H9.349c-2.206,0-4,1.793-4,4v49.469
			C5.349,70.4,7.143,72.195,9.349,72.195z M59.75,37.522l2.381-0.589l-0.59-2.38l2.382-0.592l0.59,2.381l-2.381,0.591l0.59,2.381
			l-2.381,0.59l0.562,2.268l2.381-0.589l-0.543-2.194l2.381-0.59l0.59,2.381l-2.381,0.591l0.544,2.194l-2.382,0.59l-0.59-2.383
			l-2.381,0.591l-0.562-2.269l-2.38,0.591l-0.59-2.382l2.38-0.59l0.562,2.269l2.381-0.59L59.75,37.522z M62.882,31.286l2.38-0.59
			l0.59,2.382l-2.381,0.589L62.882,31.286z M9.349,18.727h85.334l0.003,49.469H62.271c0.088-0.223,0.099-0.482-0.023-0.765
			c-2.622-6.005,4.144-11.776,5.777-17.209c0.036-0.117,0.046-0.229,0.044-0.334c0.771-3.479,0.4-7-0.874-10.104l3.43-0.85
			l-1.006-4.056l-4.057,1.005l0.345,1.389c-0.154-0.247-0.313-0.489-0.479-0.726l-0.563-2.276l2.024-0.501l-1.005-4.058
			l-4.056,1.006l0.655,2.651c-2.018-1.659-4.476-2.843-7.272-3.325c-0.034-0.005-0.063-0.003-0.095-0.007
			c-0.002-0.001-0.004-0.001-0.008-0.001c-9.434-1.09-19.823,3.602-19.823,14.31c0,0.045,0.008,0.084,0.012,0.124
			c-0.021,0.11-0.031,0.224-0.014,0.352c0.323,2.47-0.647,4.54-2.76,5.867c-0.097,0.061-0.173,0.133-0.241,0.21
			c-0.212,0.116-0.387,0.306-0.493,0.544c-0.461,1.044-0.265,2.157,0.533,2.975c0.131,0.135,0.287,0.23,0.455,0.289
			c0.528,0.353,1.091,0.602,1.68,0.791c-0.177,0.656-0.171,1.336,0.099,1.996c-0.694,1.119-0.401,2.439,0.726,3.237
			c0.063,0.045,0.127,0.081,0.191,0.109c0.182,0.255,0.17,0.641,0.066,1.005c-0.032,0.109-0.044,0.222-0.044,0.333
			c-0.014,0.101-0.018,0.203-0.007,0.307c0.18,1.659,1.503,2.677,3.101,2.835c0.085,0.01,0.165,0.008,0.242-0.003
			c0.073,0.009,0.151,0.011,0.232,0.007c2.511-0.203,5.3,0.233,6.152,2.873H9.349V18.727z M66.618,36.453l2.381-0.59l0.59,2.381
			l-2.381,0.59L66.618,36.453z"/>
		<path d="M103.032,84.234c-0.122,0.053-0.257,0.084-0.397,0.084c-0.007-0.001-0.013-0.001-0.02,0H1.417
			c-0.135,0-0.262-0.035-0.382-0.086l0,0c-0.395,0-0.752,0.23-0.918,0.588c-0.184,0.4-0.151,0.844,0.089,1.219
			c0.422,0.658,1.128,1.763,17.189,2.563c9.076,0.453,21.174,0.701,34.063,0.701c11.574,0,49.539-0.228,52.212-3.147
			c0.261-0.285,0.387-0.64,0.354-1C103.981,84.637,103.551,84.24,103.032,84.234z M59.166,87.367h-14.3c-0.331,0-0.6-0.269-0.6-0.6
			s0.269-0.6,0.6-0.6h14.3c0.331,0,0.6,0.269,0.6,0.6S59.497,87.367,59.166,87.367z"/>
		<path d="M1.037,83.232h101.985c0.003,0,0.007,0.002,0.011,0.002c0.354-0.152,0.603-0.505,0.603-0.916
			c0-0.285-0.121-0.545-0.312-0.727l-6.151-8.366c-0.188-0.256-0.488-0.407-0.806-0.407H7.948c-0.311,0-0.604,0.146-0.793,0.391
			l-6.529,8.5c-0.232,0.303-0.272,0.711-0.104,1.053C0.629,82.98,0.816,83.141,1.037,83.232z M8.439,74.818h87.418l4.779,6.5H3.447
			L8.439,74.818z"/>
		<path d="M66.913,31.127l1.005,4.057l4.057-1.005l-1.006-4.057L66.913,31.127z M68.557,34.078l-0.59-2.38l2.381-0.591l0.59,2.382
			L68.557,34.078z"/>
		<path d="M68.238,29.015l-1.006-4.058l-4.057,1.005l1.005,4.058L68.238,29.015z M66.611,25.942l0.59,2.381l-2.381,0.59l-0.59-2.382
			L66.611,25.942z"/>
		<path d="M75.523,28.81l-1.005-4.057l-4.057,1.005l1.005,4.056L75.523,28.81z M73.897,25.738l0.59,2.381l-2.381,0.59l-0.59-2.381
			L73.897,25.738z"/>
	</g>
</g>
<g>
</g>
<g>
</g>
<g>
</g>
<g>
</g>
<g>
</g>
<g>
</g>
<g>
</g>
<g>
</g>
<g>
</g>
<g>
</g>
<g>
</g>
<g>
</g>
<g>
</g>
<g>
</g>
<g>
</g>
</svg>
