<?xml version="1.0" encoding="iso-8859-1"?>
<!-- Generator: Adobe Illustrator 16.0.0, SVG Export Plug-In . SVG Version: 6.00 Build 0)  -->
<!DOCTYPE svg PUBLIC "-//W3C//DTD SVG 1.1//EN" "http://www.w3.org/Graphics/SVG/1.1/DTD/svg11.dtd">
<svg version="1.1" id="Capa_1" xmlns="http://www.w3.org/2000/svg" xmlns:xlink="http://www.w3.org/1999/xlink" x="0px" y="0px"
	 width="100.787px" height="100.787px" viewBox="0 0 100.787 100.787" style="enable-background:new 0 0 100.787 100.787;"
	 xml:space="preserve">
<g>
	<g>
		<path d="M96.394,97.787h-8.167v-4.016c0-0.276-0.224-0.5-0.5-0.5s-0.5,0.224-0.5,0.5v4.016h-9v-4.016c0-0.276-0.224-0.5-0.5-0.5
			s-0.5,0.224-0.5,0.5v4.016h-9v-4.016c0-0.276-0.224-0.5-0.5-0.5s-0.5,0.224-0.5,0.5v4.016h-9v-4.016c0-0.276-0.224-0.5-0.5-0.5
			s-0.5,0.224-0.5,0.5v4.016h-9v-4.016c0-0.276-0.224-0.5-0.5-0.5s-0.5,0.224-0.5,0.5v4.016h-9v-4.016c0-0.276-0.224-0.5-0.5-0.5
			s-0.5,0.224-0.5,0.5v4.016h-9v-4.016c0-0.276-0.224-0.5-0.5-0.5s-0.5,0.224-0.5,0.5v4.016h-9v-4.016c0-0.276-0.224-0.5-0.5-0.5
			s-0.5,0.224-0.5,0.5v4.016H5.894V79.621h4.834c0.275,0,0.5-0.225,0.5-0.5s-0.225-0.5-0.5-0.5H5.894v-9h4.834
			c0.275,0,0.5-0.225,0.5-0.5s-0.225-0.5-0.5-0.5H5.894v-9h4.834c0.275,0,0.5-0.225,0.5-0.5s-0.225-0.5-0.5-0.5H5.894v-9h4.834
			c0.275,0,0.5-0.224,0.5-0.5s-0.225-0.5-0.5-0.5H5.894v-9h4.834c0.275,0,0.5-0.224,0.5-0.5s-0.225-0.5-0.5-0.5H5.894v-9h4.834
			c0.275,0,0.5-0.224,0.5-0.5s-0.225-0.5-0.5-0.5H5.894v-9h4.834c0.275,0,0.5-0.224,0.5-0.5s-0.225-0.5-0.5-0.5H5.894v-9h4.834
			c0.275,0,0.5-0.224,0.5-0.5s-0.225-0.5-0.5-0.5H5.894V1.5c0-0.828-0.672-1.5-1.5-1.5s-1.5,0.672-1.5,1.5v97.787
			c0,0.828,0.672,1.5,1.5,1.5h92c0.828,0,1.5-0.672,1.5-1.5S97.222,97.787,96.394,97.787z"/>
		<path d="M26.394,56.143c1.698,0,3.221-0.744,4.274-1.918l12.131,7.154c-0.437,0.811-0.686,1.736-0.686,2.719
			c0,3.17,2.58,5.75,5.75,5.75c3.169,0,5.75-2.58,5.75-5.75c0-1.844-0.876-3.482-2.23-4.537l8.302-21.994
			c0.457,0.117,0.933,0.186,1.426,0.186c1.812,0,3.429-0.845,4.483-2.159l12.996,11.397c-0.702,0.954-1.123,2.128-1.123,3.401
			c0,3.17,2.58,5.75,5.75,5.75s5.75-2.58,5.75-5.75c0-3.17-2.58-5.75-5.75-5.75c-1.538,0-2.934,0.61-3.967,1.598L66.155,34.758
			c0.449-0.818,0.705-1.757,0.705-2.754c0-3.17-2.58-5.75-5.75-5.75s-5.75,2.58-5.75,5.75c0,2.325,1.391,4.328,3.381,5.233
			l-8.218,21.769c-0.796-0.418-1.701-0.658-2.661-0.658c-1.829,0-3.457,0.861-4.511,2.196l-12.08-7.124
			c0.549-0.881,0.871-1.916,0.871-3.028c0-3.17-2.58-5.75-5.75-5.75s-5.75,2.58-5.75,5.75
			C20.643,53.562,23.224,56.143,26.394,56.143z M83.217,47.643c1.517,0,2.75,1.233,2.75,2.75s-1.233,2.75-2.75,2.75
			s-2.75-1.232-2.75-2.75S81.7,47.643,83.217,47.643z M61.11,29.254c1.518,0,2.75,1.233,2.75,2.75s-1.232,2.75-2.75,2.75
			c-1.517,0-2.75-1.233-2.75-2.75S59.594,29.254,61.11,29.254z M47.864,61.35c1.517,0,2.75,1.232,2.75,2.75
			c0,1.517-1.233,2.75-2.75,2.75c-1.517,0-2.75-1.233-2.75-2.75C45.114,62.582,46.347,61.35,47.864,61.35z M26.394,47.643
			c1.517,0,2.75,1.233,2.75,2.75s-1.233,2.75-2.75,2.75s-2.75-1.232-2.75-2.75S24.876,47.643,26.394,47.643z"/>
	</g>
</g>
<g>
</g>
<g>
</g>
<g>
</g>
<g>
</g>
<g>
</g>
<g>
</g>
<g>
</g>
<g>
</g>
<g>
</g>
<g>
</g>
<g>
</g>
<g>
</g>
<g>
</g>
<g>
</g>
<g>
</g>
</svg>
