<?xml version="1.0" encoding="iso-8859-1"?>
<!-- Generator: Adobe Illustrator 16.0.0, SVG Export Plug-In . SVG Version: 6.00 Build 0)  -->
<!DOCTYPE svg PUBLIC "-//W3C//DTD SVG 1.1//EN" "http://www.w3.org/Graphics/SVG/1.1/DTD/svg11.dtd">
<svg version="1.1" id="Capa_1" xmlns="http://www.w3.org/2000/svg" xmlns:xlink="http://www.w3.org/1999/xlink" x="0px" y="0px"
	 width="96.128px" height="96.128px" viewBox="0 0 96.128 96.128" style="enable-background:new 0 0 96.128 96.128;"
	 xml:space="preserve">
<g>
	<path d="M88.471,79.508V66.112H74.812v-5.989h-7.658v-7.06h-7.657v-8.298h-8.164v-5.322c0-3.564-2.078-6.636-5.084-8.093V15.93
		c0-7.151-5.818-12.97-12.969-12.97H18.053c-7.152,0-12.971,5.818-12.971,12.97v15.42C2.076,32.807,0,35.878,0,39.443v30.432
		c0,4.972,4.029,9,9,9h29.18v2.806h13.658v-7.299h1.658v7.299h7.658v7.658h13.658v-9.568h7.657v13.397h13.658v-13.66H88.471z
		 M48.307,47.612h7.658v7.659h-7.658V47.612z M28.012,63.681v5.381c0,1.297-1.051,2.348-2.346,2.348
		c-1.297,0-2.348-1.051-2.348-2.348v-5.381c-1.813-0.875-3.064-2.726-3.064-4.871c0-2.99,2.422-5.412,5.412-5.412
		c2.988,0,5.412,2.422,5.412,5.412C31.079,60.956,29.825,62.806,28.012,63.681z M40.61,30.443H10.721V15.93
		c0-4.042,3.289-7.33,7.332-7.33H33.28c4.041,0,7.33,3.288,7.33,7.33V30.443z M71.284,70.627h-7.66v-7.058h-7.659v7.297h7.658v7.658
		h7.66v7.66h-7.66v-7.66h-7.658v-7.297h-7.658v7.297h-7.658v-7.658h7.658v-7.297h-7.658V55.91h7.658v7.659h7.658V55.91h7.658v7.06
		h7.66L71.284,70.627L71.284,70.627z M77.583,76.616v-7.657h7.657v7.657H77.583z M92.898,90.015H85.24v-7.66h7.658V90.015z"/>
</g>
<g>
</g>
<g>
</g>
<g>
</g>
<g>
</g>
<g>
</g>
<g>
</g>
<g>
</g>
<g>
</g>
<g>
</g>
<g>
</g>
<g>
</g>
<g>
</g>
<g>
</g>
<g>
</g>
<g>
</g>
</svg>
