<?xml version="1.0" encoding="iso-8859-1"?>
<!-- Generator: Adobe Illustrator 16.0.0, SVG Export Plug-In . SVG Version: 6.00 Build 0)  -->
<!DOCTYPE svg PUBLIC "-//W3C//DTD SVG 1.1//EN" "http://www.w3.org/Graphics/SVG/1.1/DTD/svg11.dtd">
<svg version="1.1" id="Capa_1" xmlns="http://www.w3.org/2000/svg" xmlns:xlink="http://www.w3.org/1999/xlink" x="0px" y="0px"
	 width="105.371px" height="105.37px" viewBox="0 0 105.371 105.37" style="enable-background:new 0 0 105.371 105.37;"
	 xml:space="preserve">
<g>
	<path d="M80.685,28c0-15.439-12.561-28-28-28c-15.439,0-28,12.561-28,28c0,14.081,10.449,25.764,24,27.71v6.866
		c-1.958,1.298-3.25,3.52-3.25,6.044v29.5c0,4.004,3.246,7.25,7.25,7.25s7.25-3.246,7.25-7.25v-29.5c0-2.524-1.292-4.746-3.25-6.044
		V55.71C70.236,53.764,80.685,42.081,80.685,28z M32.685,28c0-11.028,8.972-20,20-20c11.027,0,20,8.972,20,20s-8.973,20-20,20
		C41.657,48,32.685,39.028,32.685,28z"/>
</g>
<g>
</g>
<g>
</g>
<g>
</g>
<g>
</g>
<g>
</g>
<g>
</g>
<g>
</g>
<g>
</g>
<g>
</g>
<g>
</g>
<g>
</g>
<g>
</g>
<g>
</g>
<g>
</g>
<g>
</g>
</svg>
