<?xml version="1.0" encoding="iso-8859-1"?>
<!-- Generator: Adobe Illustrator 18.0.0, SVG Export Plug-In . SVG Version: 6.00 Build 0)  -->
<!DOCTYPE svg PUBLIC "-//W3C//DTD SVG 1.1//EN" "http://www.w3.org/Graphics/SVG/1.1/DTD/svg11.dtd">
<svg version="1.1" id="Capa_1" xmlns="http://www.w3.org/2000/svg" xmlns:xlink="http://www.w3.org/1999/xlink" x="0px" y="0px"
	 viewBox="0 0 405.008 405.008" style="enable-background:new 0 0 405.008 405.008;" xml:space="preserve">
<g>
	<path d="M316.232,73.365l-50.75-50.75c-1.48-1.48-3.88-1.48-5.361,0l-78.268,78.269c-1.48,1.48-1.48,3.881,0,5.361l49.544,49.544
		c-10.073-0.506-20.795-0.781-31.921-0.781c-56.835,0-103.2,7.126-105.696,16.066c-0.229,0.629-0.231,1.16-0.234,1.558v66.443
		c0,1.382,1.116,2.499,2.499,2.499h3.567l71.358,99.28v61.657c0,1.379,1.118,2.497,2.496,2.497h52.022
		c1.378,0,2.495-1.117,2.495-2.497v-61.653l63.015-86.811c0.579-0.792,0.634-1.841,0.16-2.693c-0.481-0.854-1.404-1.355-2.386-1.267
		c-5.885,0.483-12.207,0.725-18.793,0.725c-22.639,0-44.844-2.903-58.057-5.027c7.463,0.101,17.541,0.206,28.188,0.206
		c26.477,0,59.094-0.642,64.098-3.684c0.749-0.454,1.201-1.261,1.201-2.137l-0.003-67.545c-0.002-0.399-0.005-0.929-0.235-1.56
		c-1.912-6.752-28.85-12.468-66.419-14.858l77.481-77.481C317.712,77.246,317.712,74.845,316.232,73.365z M273.098,173.885
		c0,0-32.96,5.142-73.623,5.142c-40.661,0-73.623-5.142-73.623-5.142s32.962-5.145,73.623-5.145
		C240.138,168.74,273.098,173.885,273.098,173.885z M266.064,42.732l-14.777,46.943c-0.356,1.132-1.243,2.019-2.376,2.375
		l-46.942,14.776c-0.362,0.114-0.73,0.168-1.092,0.168c-1.545,0-2.978-0.992-3.466-2.544c-0.603-1.915,0.461-3.956,2.376-4.558
		l45.135-14.208l14.209-45.136c0.603-1.914,2.642-2.979,4.559-2.375C265.603,38.777,266.666,40.818,266.064,42.732z"/>
	<path d="M139.363,126.419l30.961-30.961c0.903-0.903,0.903-2.367,0-3.271l-47.749-47.749c-0.903-0.903-2.367-0.903-3.271,0
		l-30.961,30.96c-0.902,0.903-0.902,2.368,0,3.271l47.75,47.75C136.995,127.321,138.46,127.321,139.363,126.419z M127.964,85.349
		l-9.016-28.638c-0.367-1.168,0.281-2.413,1.449-2.781c1.168-0.367,2.414,0.281,2.781,1.449l8.668,27.536l27.536,8.668
		c1.168,0.368,1.816,1.612,1.449,2.78c-0.298,0.947-1.172,1.552-2.114,1.552c-0.221,0-0.445-0.033-0.667-0.103l-28.638-9.015
		C128.723,86.58,128.182,86.039,127.964,85.349z"/>
	<path d="M176.615,60.809c0.664,0.664,1.741,0.664,2.405,0l35.129-35.128c0.664-0.664,0.664-1.742,0-2.406L191.371,0.498
		c-0.664-0.664-1.741-0.664-2.406,0l-35.127,35.127c-0.665,0.665-0.665,1.742,0,2.406L176.615,60.809z M161.887,35.18l20.257-6.376
		l6.377-20.257c0.27-0.859,1.186-1.339,2.046-1.066c0.858,0.27,1.336,1.187,1.065,2.046L185,30.595
		c-0.16,0.508-0.558,0.906-1.066,1.066l-21.068,6.631c-0.162,0.051-0.327,0.076-0.489,0.076c-0.693,0-1.337-0.446-1.556-1.142
		C160.55,36.367,161.028,35.451,161.887,35.18z"/>
</g>
<g>
</g>
<g>
</g>
<g>
</g>
<g>
</g>
<g>
</g>
<g>
</g>
<g>
</g>
<g>
</g>
<g>
</g>
<g>
</g>
<g>
</g>
<g>
</g>
<g>
</g>
<g>
</g>
<g>
</g>
</svg>
