<?xml version="1.0" encoding="iso-8859-1"?>
<!-- Generator: Adobe Illustrator 16.0.0, SVG Export Plug-In . SVG Version: 6.00 Build 0)  -->
<!DOCTYPE svg PUBLIC "-//W3C//DTD SVG 1.1//EN" "http://www.w3.org/Graphics/SVG/1.1/DTD/svg11.dtd">
<svg version="1.1" id="Capa_1" xmlns="http://www.w3.org/2000/svg" xmlns:xlink="http://www.w3.org/1999/xlink" x="0px" y="0px"
	 width="93.219px" height="93.219px" viewBox="0 0 93.219 93.219" style="enable-background:new 0 0 93.219 93.219;"
	 xml:space="preserve">
<g>
	<g>
		<polygon points="30.374,86.225 30.374,89.005 34.705,89.005 34.705,86.222 32.56,83.963 		"/>
		<path d="M88.325,23.407c-0.873-1.269-2.252-2.09-3.782-2.25l-14.865-1.564c-2.899-0.256-5.419,1.852-5.716,4.684
			c-0.305,2.884,1.794,5.477,4.678,5.781l0.229,0.023l-7.758,5.123V4.674C61.11,2.097,59.014,0,56.437,0H8.642
			C6.064,0,3.968,2.097,3.968,4.674v83.871c0,2.578,2.096,4.674,4.674,4.674h47.794c2.577,0,4.674-2.096,4.674-4.674V47.807
			l14.217-9.388l-0.115,0.435c-0.363,1.356-0.176,2.772,0.527,3.989c0.703,1.218,1.836,2.087,3.207,2.453
			c0.441,0.115,0.895,0.175,1.348,0.175c2.375,0,4.463-1.603,5.078-3.899l3.701-13.828C89.47,26.256,89.196,24.675,88.325,23.407z
			 M35.618,89.917h-6.157v-4.062l3.104-3.211l3.054,3.215L35.618,89.917L35.618,89.917z M8.642,80.949V4.673h47.794v33.615
			l-2.906,1.919c-0.504,0.335-0.944,0.752-1.315,1.248l-6.614,8.91l-8.977-11.084c-1-1.234-2.485-1.944-4.085-1.948
			c-1.587,0-3.072,0.705-4.074,1.934L10.939,60.74c-0.888,1.088-1.299,2.457-1.158,3.854s0.818,2.656,1.906,3.544
			c0.937,0.764,2.117,1.186,3.324,1.186c1.587,0,3.072-0.705,4.075-1.934l13.438-16.464l9.174,11.327
			c0.999,1.23,2.496,1.939,4.195,1.945c1.613-0.032,3.15-0.827,4.112-2.123l6.434-8.666v27.539H8.642L8.642,80.949z M85.743,26.548
			l-3.7,13.826c-0.21,0.783-0.918,1.3-1.692,1.3c-0.15,0-0.302-0.019-0.453-0.059c-0.936-0.25-1.49-1.212-1.24-2.146l2.502-9.353
			L57.72,45.592L47.247,59.697c-0.323,0.436-0.829,0.695-1.37,0.707c-0.569-0.002-1.059-0.229-1.399-0.648L32.591,45.08
			L16.427,64.882c-0.346,0.425-0.851,0.646-1.359,0.646c-0.39,0-0.782-0.129-1.107-0.396c-0.75-0.61-0.862-1.716-0.25-2.466
			l17.527-21.474c0.333-0.408,0.832-0.645,1.358-0.645c0.001,0,0.002,0,0.003,0c0.527,0.001,1.026,0.24,1.358,0.649l11.821,14.595
			l9.308-12.538c0.122-0.163,0.271-0.305,0.44-0.418l23.49-15.509l-9.953-1.048c-0.963-0.102-1.662-0.964-1.56-1.927
			c0.101-0.964,0.969-1.644,1.927-1.561l14.801,1.559c0.51,0.054,0.971,0.329,1.262,0.751
			C85.784,25.525,85.875,26.053,85.743,26.548z"/>
		<rect x="14.818" y="13.599" width="12.658" height="0.973"/>
		<rect x="14.818" y="10.873" width="6.037" height="0.974"/>
		<rect x="14.818" y="16.326" width="23.954" height="0.974"/>
		<path d="M38.472,30.59c-0.335-0.336-0.551-0.761-0.625-1.226l-0.583,0.092c0.094,0.59,0.367,1.127,0.791,1.551
			c0.548,0.548,1.269,0.822,1.989,0.822c0.72,0,1.441-0.274,1.99-0.822c0.532-0.531,0.824-1.239,0.824-1.99
			c0-0.753-0.292-1.459-0.824-1.99l-0.417,0.417c0.42,0.421,0.651,0.979,0.651,1.573c0,0.594-0.231,1.153-0.651,1.573
			C40.75,31.458,39.339,31.458,38.472,30.59z"/>
		<path d="M34.742,21.517h-5.693c-0.131-0.48-0.566-0.837-1.087-0.837c-0.623,0-1.131,0.508-1.131,1.132
			c0,0.623,0.508,1.13,1.131,1.13c0.521,0,0.957-0.355,1.087-0.835h5.411l1.906,2.366c-1.492,1.124-2.461,2.905-2.461,4.913
			c0,3.395,2.761,6.156,6.156,6.156c1.353,0,2.637-0.432,3.712-1.245l-0.356-0.472c-0.973,0.737-2.133,1.126-3.356,1.126
			c-3.069,0-5.566-2.497-5.566-5.565c0-1.822,0.883-3.438,2.241-4.454l0.715,0.888c-0.185,0.135-0.364,0.282-0.528,0.447
			c-0.686,0.685-1.119,1.554-1.25,2.511l0.584,0.08c0.115-0.829,0.489-1.581,1.083-2.175c0.15-0.148,0.312-0.282,0.481-0.403
			l1.224,1.521l0.459-0.37l-1.175-1.46c0.525-0.263,1.107-0.407,1.713-0.407c1.02,0,1.98,0.398,2.702,1.12
			c0.719,0.72,1.116,1.675,1.119,2.691l-1.76,2.187l0.459,0.371l1.125-1.397c-0.182,0.58-0.5,1.112-0.943,1.555
			c-1.49,1.489-3.915,1.489-5.405,0c-0.576-0.576-0.947-1.305-1.073-2.106l-0.583,0.093c0.146,0.925,0.574,1.765,1.239,2.43
			c0.859,0.859,1.989,1.291,3.12,1.291c1.129,0,2.259-0.432,3.119-1.291c0.784-0.782,1.231-1.811,1.283-2.91l1.07-1.331
			c0.074,0.363,0.113,0.737,0.113,1.122c0,1.184-0.367,2.315-1.062,3.271l0.478,0.347c0.768-1.059,1.175-2.311,1.175-3.619
			c0-0.588-0.088-1.155-0.243-1.694l1.17-1.454h5.226c0.131,0.48,0.565,0.835,1.087,0.835c0.624,0,1.131-0.505,1.131-1.13
			c0-0.624-0.507-1.131-1.131-1.131c-0.521,0-0.956,0.355-1.087,0.836h-5.507l-1.116,1.385c-0.925-2.229-3.125-3.803-5.687-3.803
			c-1.175,0-2.271,0.336-3.206,0.91L34.742,21.517z M27.961,22.353c-0.298,0-0.541-0.242-0.541-0.541
			c0-0.299,0.243-0.541,0.541-0.541c0.299,0,0.541,0.242,0.541,0.541C28.502,22.111,28.26,22.353,27.961,22.353z M53.457,25.403
			c0.298,0,0.541,0.241,0.541,0.54c0,0.298-0.243,0.541-0.541,0.541s-0.541-0.243-0.541-0.541
			C52.916,25.644,53.157,25.403,53.457,25.403z M40.06,23.82c2.433,0,4.501,1.571,5.256,3.75l-0.92,1.142
			c-0.14-0.922-0.563-1.774-1.236-2.444c-0.833-0.834-1.941-1.294-3.119-1.294c-0.742,0-1.457,0.183-2.092,0.527l-0.722-0.896
			C38.058,24.109,39.025,23.82,40.06,23.82z"/>
	</g>
</g>
<g>
</g>
<g>
</g>
<g>
</g>
<g>
</g>
<g>
</g>
<g>
</g>
<g>
</g>
<g>
</g>
<g>
</g>
<g>
</g>
<g>
</g>
<g>
</g>
<g>
</g>
<g>
</g>
<g>
</g>
</svg>
