<?xml version="1.0" encoding="iso-8859-1"?>
<!-- Generator: Adobe Illustrator 18.0.0, SVG Export Plug-In . SVG Version: 6.00 Build 0)  -->
<!DOCTYPE svg PUBLIC "-//W3C//DTD SVG 1.1//EN" "http://www.w3.org/Graphics/SVG/1.1/DTD/svg11.dtd">
<svg version="1.1" id="Capa_1" xmlns="http://www.w3.org/2000/svg" xmlns:xlink="http://www.w3.org/1999/xlink" x="0px" y="0px"
	 viewBox="0 0 332.039 332.039" style="enable-background:new 0 0 332.039 332.039;" xml:space="preserve">
<g>
	<path d="M216.879,68.733l21.749-4.402V9.149c0-5.053-4.096-9.149-9.148-9.149H50.167c-5.052,0-9.147,4.096-9.147,9.149v313.742
		c0,5.054,4.096,9.148,9.147,9.148H229.48c5.052,0,9.148-4.095,9.148-9.148V150.383l-23.198,15.71v97.449H64.217V25.464H215.43
		v43.624C215.907,68.954,216.39,68.832,216.879,68.733z M139.824,279.303c8.541,0,15.464,6.924,15.464,15.466
		s-6.923,15.464-15.464,15.464s-15.465-6.922-15.465-15.464S131.283,279.303,139.824,279.303z"/>
	<path d="M290.352,73.006c-0.559-0.679-1.392-1.059-2.25-1.059c-0.192,0-0.385,0.019-0.577,0.058l-67.229,13.607
		c-1.005,0.203-1.829,0.919-2.171,1.885c-0.342,0.966-0.152,2.041,0.501,2.831l12.009,14.547l-69.54,59.929l-32.469-31.079
		l-2.697-2.581l-2.477,2.164l-33.979,30.206l3.173,3.88l32.446-25.898l30.761,37.174l3.698,4.471l5.459-3.698l81.577-55.247
		l13.178,15.961c0.558,0.676,1.386,1.06,2.249,1.06c0.145,0,0.29-0.011,0.435-0.034c1.014-0.153,1.872-0.827,2.263-1.774
		l26.09-63.436C291.21,74.977,291.037,73.836,290.352,73.006z"/>
</g>
<g>
</g>
<g>
</g>
<g>
</g>
<g>
</g>
<g>
</g>
<g>
</g>
<g>
</g>
<g>
</g>
<g>
</g>
<g>
</g>
<g>
</g>
<g>
</g>
<g>
</g>
<g>
</g>
<g>
</g>
</svg>
