<?xml version="1.0" encoding="iso-8859-1"?>
<!-- Generator: Adobe Illustrator 16.0.0, SVG Export Plug-In . SVG Version: 6.00 Build 0)  -->
<!DOCTYPE svg PUBLIC "-//W3C//DTD SVG 1.1//EN" "http://www.w3.org/Graphics/SVG/1.1/DTD/svg11.dtd">
<svg version="1.1" id="Capa_1" xmlns="http://www.w3.org/2000/svg" xmlns:xlink="http://www.w3.org/1999/xlink" x="0px" y="0px"
	 width="102.543px" height="102.544px" viewBox="0 0 102.543 102.544" style="enable-background:new 0 0 102.543 102.544;"
	 xml:space="preserve">
<g>
	<g>
		<path d="M65.415,89.048h-52.58V5.141h52.576v7.558c1.664-0.351,3.385-0.534,5.141-0.579V5.141C70.551,2.306,68.247,0,65.411,0
			H12.835C9.999,0,7.694,2.306,7.694,5.141v92.261c0,2.836,2.305,5.142,5.141,5.142h52.576c2.836,0,5.141-2.306,5.141-5.142V68.764
			c-1.756-0.045-3.475-0.229-5.137-0.578V89.048z M42.51,98.912h-6.775v-4.467l3.414-3.531l3.361,3.533V98.912z"/>
		<polygon points="36.739,94.852 36.739,97.909 41.503,97.909 41.503,94.85 39.146,92.363 		"/>
		<path d="M71.198,16.501c-13.042,0-23.651,10.608-23.651,23.649c0,13.042,10.609,23.65,23.651,23.65
			c13.041,0,23.652-10.608,23.652-23.65C94.85,27.109,84.239,16.501,71.198,16.501z M87.736,36.041
			c3.505,1.186,5.526,2.687,5.526,4.109c0,1.424-2.021,2.924-5.526,4.111c0.168-1.336,0.261-2.709,0.261-4.111
			C87.997,38.749,87.904,37.376,87.736,36.041z M87.471,34.279c-0.35-1.913-0.864-3.734-1.52-5.429
			c3.281,2.039,5.67,4.747,6.717,7.81C91.381,35.724,89.594,34.928,87.471,34.279z M71.198,46.523c-2.154,0-4.195-0.095-6.111-0.263
			c-0.166-1.913-0.262-3.956-0.262-6.11c0-2.153,0.096-4.196,0.262-6.109c1.916-0.169,3.957-0.264,6.111-0.264
			c2.153,0,4.195,0.095,6.112,0.264c0.166,1.913,0.261,3.956,0.261,6.109c0,2.154-0.095,4.197-0.261,6.11
			C75.393,46.428,73.351,46.523,71.198,46.523z M77.149,47.857c-0.309,2.716-0.771,5.129-1.334,7.168
			c-1.49,0.221-3.033,0.338-4.617,0.338s-3.128-0.117-4.617-0.338c-0.562-2.039-1.024-4.453-1.334-7.168
			c1.961,0.166,3.967,0.252,5.951,0.252S75.188,48.023,77.149,47.857z M63.493,34.198c-0.168,1.962-0.253,3.968-0.253,5.952
			s0.085,3.991,0.253,5.953c-2.718-0.311-5.132-0.773-7.17-1.335c-0.218-1.49-0.338-3.033-0.338-4.618
			c0-1.583,0.12-3.127,0.338-4.617C58.361,34.97,60.775,34.507,63.493,34.198z M56.629,33.809c0.461-2.227,1.158-4.307,2.047-6.176
			c1.875-0.894,3.953-1.592,6.179-2.05c-0.536,2.134-0.938,4.52-1.21,7.011C61.151,32.867,58.764,33.271,56.629,33.809z
			 M63.645,47.706c0.271,2.491,0.674,4.878,1.21,7.013c-2.226-0.459-4.304-1.156-6.179-2.051c-0.889-1.87-1.586-3.95-2.047-6.176
			C58.764,47.029,61.151,47.434,63.645,47.706z M65.247,32.444c0.31-2.717,0.771-5.132,1.334-7.168
			c1.489-0.221,3.033-0.339,4.617-0.339s3.127,0.118,4.617,0.339c0.562,2.036,1.025,4.451,1.334,7.168
			c-1.961-0.166-3.967-0.251-5.951-0.251S67.208,32.278,65.247,32.444z M77.542,25.584c2.225,0.458,4.305,1.156,6.176,2.05
			c0.891,1.869,1.589,3.949,2.05,6.176c-2.136-0.538-4.521-0.942-7.015-1.215C78.48,30.103,78.077,27.717,77.542,25.584z
			 M78.75,47.706c2.494-0.271,4.879-0.677,7.016-1.214c-0.461,2.226-1.159,4.306-2.049,6.176c-1.873,0.895-3.952,1.592-6.178,2.051
			C78.077,52.584,78.48,50.197,78.75,47.706z M78.905,46.103c0.165-1.962,0.25-3.969,0.25-5.953s-0.085-3.99-0.25-5.952
			c2.717,0.31,5.129,0.772,7.167,1.335c0.22,1.49,0.339,3.034,0.339,4.617c0,1.585-0.119,3.128-0.339,4.618
			C84.034,45.33,81.622,45.793,78.905,46.103z M91.532,31.585c-1.691-2.02-3.962-3.765-6.646-5.121
			c-1.358-2.684-3.104-4.957-5.122-6.649C85.051,22.053,89.295,26.296,91.532,31.585z M82.5,25.398
			c-1.696-0.658-3.519-1.174-5.434-1.521c-0.646-2.124-1.441-3.912-2.379-5.198C77.75,19.726,80.459,22.114,82.5,25.398z
			 M71.198,18.086c1.424,0,2.924,2.022,4.111,5.522c-1.336-0.165-2.711-0.257-4.111-0.257s-2.773,0.092-4.109,0.257
			C68.274,20.109,69.774,18.086,71.198,18.086z M65.329,23.876c-1.914,0.348-3.736,0.863-5.433,1.521
			c2.04-3.284,4.749-5.672,7.812-6.72C66.772,19.964,65.974,21.752,65.329,23.876z M62.633,19.815
			c-2.02,1.692-3.764,3.966-5.121,6.649c-2.688,1.356-4.955,3.102-6.649,5.121C53.098,26.296,57.344,22.053,62.633,19.815z
			 M56.445,28.85c-0.657,1.694-1.172,3.516-1.521,5.429c-2.123,0.649-3.91,1.445-5.198,2.381
			C50.774,33.597,53.163,30.889,56.445,28.85z M54.661,36.041c-0.17,1.336-0.262,2.708-0.262,4.109c0,1.402,0.092,2.775,0.262,4.111
			c-3.506-1.188-5.527-2.688-5.527-4.111C49.133,38.727,51.155,37.226,54.661,36.041z M54.922,46.021
			c0.351,1.913,0.865,3.734,1.521,5.43c-3.283-2.039-5.671-4.747-6.72-7.808C51.013,44.578,52.801,45.373,54.922,46.021z
			 M50.863,48.715c1.694,2.02,3.962,3.766,6.649,5.122c1.357,2.687,3.103,4.956,5.121,6.647
			C57.342,58.247,53.098,54.003,50.863,48.715z M59.896,54.902c1.696,0.658,3.519,1.174,5.433,1.521
			c0.646,2.124,1.443,3.914,2.379,5.199C64.645,60.574,61.936,58.186,59.896,54.902z M71.198,62.214
			c-1.424,0-2.924-2.022-4.109-5.522c1.336,0.166,2.709,0.258,4.109,0.258s2.775-0.092,4.111-0.258
			C74.122,60.191,72.622,62.214,71.198,62.214z M77.067,56.423c1.915-0.349,3.736-0.862,5.434-1.521
			c-2.041,3.281-4.75,5.67-7.812,6.72C75.625,60.337,76.42,58.547,77.067,56.423z M79.762,60.486
			c2.019-1.692,3.764-3.963,5.121-6.648c2.687-1.357,4.955-3.103,6.647-5.122C89.295,54.003,85.053,58.247,79.762,60.486z
			 M85.952,51.451c0.655-1.695,1.17-3.517,1.521-5.43c2.123-0.648,3.911-1.443,5.198-2.378
			C91.622,46.704,89.234,49.412,85.952,51.451z"/>
		<rect x="14.918" y="58.398" width="15.406" height="1.185"/>
		<rect x="14.918" y="55.08" width="7.348" height="1.186"/>
		<rect x="14.918" y="61.717" width="29.156" height="1.186"/>
		<rect x="17.275" y="13.606" width="15.406" height="1.185"/>
		<rect x="17.275" y="10.288" width="7.348" height="1.185"/>
		<rect x="17.275" y="16.925" width="29.156" height="1.185"/>
		<path d="M43.71,79.079c-0.407-0.408-0.672-0.927-0.76-1.492l-0.712,0.112c0.114,0.719,0.447,1.371,0.964,1.888
			c0.667,0.667,1.545,1,2.421,1c0.877,0,1.755-0.333,2.421-1c0.647-0.647,1.004-1.508,1.004-2.422c0-0.917-0.356-1.776-1.004-2.422
			l-0.507,0.506c0.511,0.513,0.793,1.192,0.793,1.916c0,0.722-0.282,1.401-0.793,1.914C46.481,80.133,44.764,80.133,43.71,79.079z"
			/>
		<path d="M60.625,73.781c0.158,0.584,0.688,1.017,1.321,1.017c0.759,0,1.378-0.614,1.378-1.375c0-0.76-0.619-1.376-1.378-1.376
			c-0.634,0-1.163,0.432-1.321,1.018h-6.703l-1.358,1.686c-1.126-2.715-3.803-4.629-6.922-4.629c-1.431,0-2.764,0.41-3.901,1.107
			l-2.571-3.191h-6.931c-0.158-0.585-0.688-1.02-1.321-1.02c-0.759,0-1.379,0.619-1.379,1.379c0,0.758,0.62,1.375,1.379,1.375
			c0.633,0,1.163-0.435,1.321-1.018h6.587l2.319,2.88c-1.814,1.368-2.995,3.537-2.995,5.979c0,4.132,3.361,7.492,7.492,7.492
			c1.646,0,3.209-0.524,4.52-1.516l-0.434-0.572c-1.185,0.896-2.598,1.369-4.086,1.369c-3.734,0-6.775-3.039-6.775-6.773
			c0-2.219,1.075-4.184,2.729-5.422l0.869,1.082c-0.226,0.162-0.441,0.342-0.642,0.543c-0.837,0.834-1.361,1.892-1.522,3.057
			l0.711,0.098c0.139-1.009,0.595-1.924,1.318-2.646c0.182-0.182,0.379-0.344,0.586-0.49l1.49,1.85l0.559-0.449l-1.431-1.776
			c0.64-0.319,1.349-0.495,2.086-0.495c1.241,0,2.409,0.484,3.289,1.361c0.875,0.877,1.358,2.039,1.361,3.277l-2.142,2.66
			l0.558,0.451l1.37-1.699c-0.223,0.705-0.61,1.354-1.147,1.891c-1.813,1.813-4.767,1.813-6.579,0
			c-0.701-0.7-1.151-1.586-1.306-2.562l-0.71,0.112c0.178,1.127,0.699,2.147,1.509,2.959c1.046,1.045,2.421,1.569,3.797,1.569
			c1.374,0,2.75-0.524,3.796-1.569c0.954-0.953,1.498-2.205,1.561-3.543l1.303-1.62c0.092,0.441,0.139,0.896,0.139,1.365
			c0,1.439-0.446,2.818-1.293,3.982l0.583,0.422c0.935-1.287,1.431-2.812,1.431-4.404c0-0.715-0.108-1.405-0.296-2.063l1.425-1.771
			H60.625L60.625,73.781z M61.947,72.764c0.363,0,0.658,0.295,0.658,0.658s-0.295,0.658-0.658,0.658
			c-0.362,0-0.659-0.295-0.659-0.658S61.584,72.764,61.947,72.764z M30.917,69.053c-0.364,0-0.659-0.296-0.659-0.658
			c0-0.363,0.295-0.66,0.659-0.66c0.363,0,0.658,0.297,0.658,0.66C31.575,68.757,31.28,69.053,30.917,69.053z M50.918,76.793
			c-0.171-1.122-0.686-2.16-1.504-2.977c-1.014-1.014-2.362-1.573-3.796-1.573c-0.904,0-1.773,0.222-2.547,0.641l-0.878-1.091
			c1.011-0.604,2.188-0.954,3.447-0.954c2.961,0,5.478,1.912,6.396,4.563L50.918,76.793z"/>
	</g>
</g>
<g>
</g>
<g>
</g>
<g>
</g>
<g>
</g>
<g>
</g>
<g>
</g>
<g>
</g>
<g>
</g>
<g>
</g>
<g>
</g>
<g>
</g>
<g>
</g>
<g>
</g>
<g>
</g>
<g>
</g>
</svg>
