<?xml version="1.0" encoding="iso-8859-1"?>
<!-- Generator: Adobe Illustrator 16.0.0, SVG Export Plug-In . SVG Version: 6.00 Build 0)  -->
<!DOCTYPE svg PUBLIC "-//W3C//DTD SVG 1.1//EN" "http://www.w3.org/Graphics/SVG/1.1/DTD/svg11.dtd">
<svg version="1.1" id="Capa_1" xmlns="http://www.w3.org/2000/svg" xmlns:xlink="http://www.w3.org/1999/xlink" x="0px" y="0px"
	 width="115.215px" height="115.215px" viewBox="0 0 115.215 115.215" style="enable-background:new 0 0 115.215 115.215;"
	 xml:space="preserve">
<g>
	<g>
		<polygon points="57.686,56.728 72.166,49.614 43.946,49.614 		"/>
		<path d="M43.946,50.415v18.064c0,0.403,0.328,0.729,0.73,0.729h26.569c0.403,0,0.729-0.328,0.729-0.729V50.832l-14.027,8.015
			L43.946,50.415z"/>
		<path d="M77.592,21.307H38.519c-2.107,0-3.821,1.714-3.821,3.821v68.568c0,2.106,1.714,3.821,3.821,3.821h39.073
			c2.107,0,3.821-1.713,3.821-3.821V25.127C81.414,23.021,79.699,21.307,77.592,21.307z M60.572,94.816h-5.033v-3.319l2.537-2.625
			l2.496,2.627V94.816z M38.519,87.486V25.127h39.073l0.002,62.359H38.519z"/>
		<polygon points="56.285,91.798 56.285,94.071 59.826,94.071 59.826,91.798 58.073,89.95 		"/>
		<path d="M27.486,31.479V19.727c0-1.119-0.909-2.028-2.027-2.028H2.028C0.91,17.698,0,18.607,0,19.727v16.419
			c0,1.119,0.91,2.028,2.028,2.028h19.188l9.421,6.162c0.159,0.104,0.342,0.156,0.523,0.156c0.213,0,0.427-0.072,0.602-0.213
			c0.322-0.262,0.439-0.702,0.288-1.089L27.486,31.479z M22.503,36.732c-0.002-0.004-0.004-0.007-0.006-0.011
			c-0.174-0.285-0.482-0.459-0.816-0.459H2.028c-0.064,0-0.118-0.053-0.118-0.118V19.727c0-0.065,0.054-0.118,0.118-0.118h23.431
			c0.064,0,0.117,0.052,0.117,0.118V31.66c0,0.119,0.022,0.236,0.065,0.347l3.545,9.097L22.503,36.732z"/>
		<path d="M113.186,47.524H89.755c-1.118,0-2.026,0.911-2.026,2.029v11.754l-4.563,11.708c-0.151,0.387-0.034,0.827,0.288,1.089
			c0.175,0.143,0.389,0.213,0.602,0.213c0.184,0,0.364-0.051,0.523-0.156l9.421-6.16h19.188c1.119,0,2.027-0.912,2.027-2.029V49.553
			C115.214,48.436,114.305,47.524,113.186,47.524z M113.304,65.972c0,0.064-0.054,0.119-0.118,0.119H93.533
			c-0.334,0-0.643,0.173-0.816,0.459c-0.002,0.002-0.004,0.007-0.006,0.011l-6.684,4.37l3.545-9.098
			c0.043-0.109,0.066-0.229,0.066-0.347V49.553c0-0.065,0.053-0.119,0.116-0.119h23.431c0.064,0,0.118,0.053,0.118,0.119V65.972z"/>
	</g>
</g>
<g>
</g>
<g>
</g>
<g>
</g>
<g>
</g>
<g>
</g>
<g>
</g>
<g>
</g>
<g>
</g>
<g>
</g>
<g>
</g>
<g>
</g>
<g>
</g>
<g>
</g>
<g>
</g>
<g>
</g>
</svg>
