<?xml version="1.0" encoding="iso-8859-1"?>
<!-- Generator: Adobe Illustrator 16.0.0, SVG Export Plug-In . SVG Version: 6.00 Build 0)  -->
<!DOCTYPE svg PUBLIC "-//W3C//DTD SVG 1.1//EN" "http://www.w3.org/Graphics/SVG/1.1/DTD/svg11.dtd">
<svg version="1.1" id="Capa_1" xmlns="http://www.w3.org/2000/svg" xmlns:xlink="http://www.w3.org/1999/xlink" x="0px" y="0px"
	 width="108.8px" height="108.799px" viewBox="0 0 108.8 108.799" style="enable-background:new 0 0 108.8 108.799;"
	 xml:space="preserve">
<g>
	<g>
		<path d="M74.32,48.732c-0.39-0.861-0.422-1.82-0.088-2.703l5.643-14.963c0.264-0.703,0.764-1.273,1.378-1.67V16.52
			c0-3.488-2.503-6.344-5.636-6.51L6.36,2.203L5.922,2.18C2.656,2.18,0,5.106,0,8.698v67.438c0,3.595,2.656,6.521,5.922,6.521h0.273
			l23.677-3.336V93.97c0,8.396,11.737,12.528,12.159,12.612c0.126,0.023,0.252,0.037,0.379,0.037c0.159,0,0.317-0.021,0.473-0.059
			l20.051-7.5c0.936-0.234,1.562-1.117,1.475-2.076c-0.088-0.963-0.862-1.715-1.826-1.774c-7.027-0.438-6.895-7.425-6.854-8.32
			V75.677l19.961-2.813c3.101-0.205,5.563-3.045,5.563-6.506V52.451l-4.96-1.869C75.41,50.25,74.709,49.593,74.32,48.732z
			 M55.888,96.78L42.4,102.651c-1.505-0.395-8.615-4.179-8.615-8.683V78.767l18.032-2.541l0.002,10.552
			C51.666,89.534,52.509,94.038,55.888,96.78z M73.431,65.284L7.822,74.526V10.24l65.609,7.393V65.284z"/>
		<path d="M107.777,39.375l-23.644-8.914c-0.813-0.307-1.726,0.105-2.032,0.922L76.46,46.342c-0.308,0.816,0.106,1.729,0.921,2.037
			l23.643,8.914c0.815,0.305,1.728-0.107,2.032-0.922l5.644-14.959C109.004,40.595,108.592,39.683,107.777,39.375z M105.967,40.381
			l-13.513,5.518l-7.802-13.553L105.967,40.381z M101.581,55.817L77.936,46.9l5.215-13.828c0.004,0.008,0.004,0.014,0.008,0.02
			l8.216,14.271c0.101,0.172,0.251,0.297,0.427,0.365c0.191,0.07,0.408,0.07,0.612-0.01l14.224-5.811
			c0.096-0.037,0.176-0.098,0.248-0.162L101.581,55.817z"/>
		<path d="M32.675,44.556l11.53,11.078c0.627,0.603,1.629,0.582,2.232-0.045l17.506-18.223c0.603-0.627,0.58-1.627-0.045-2.23
			L52.368,24.058c-0.628-0.602-1.628-0.582-2.232,0.045L32.63,42.324C32.027,42.953,32.047,43.953,32.675,44.556z M51.521,42.08
			c0.14-0.148,0.228-0.348,0.231-0.568l0.263-15.361c0.001-0.104-0.021-0.201-0.054-0.291l10.845,10.413L45.3,54.496L34.643,44.258
			c0.008-0.002,0.015,0,0.021,0l16.354-1.932C51.216,42.302,51.388,42.213,51.521,42.08z M50.346,26.164l-0.25,14.592l-15.529,1.832
			L50.346,26.164z"/>
		<path d="M18.887,38.58l11.681,3.746c0.635,0.203,1.318-0.15,1.523-0.787l5.918-18.457c0.203-0.637-0.147-1.318-0.782-1.521
			l-11.682-3.746c-0.637-0.205-1.318,0.145-1.524,0.781l-5.918,18.461C17.9,37.693,18.252,38.377,18.887,38.58z M36.856,22.713
			L30.94,41.172l-10.798-3.461c0.005-0.002,0.009-0.006,0.016-0.008l10.616-6.846c0.129-0.082,0.219-0.203,0.265-0.34
			c0.045-0.148,0.04-0.316-0.031-0.469l-5-10.676c-0.036-0.07-0.082-0.131-0.135-0.186L36.856,22.713z M24.862,19.945l4.749,10.141
			l-10.083,6.5L24.862,19.945z"/>
	</g>
</g>
<g>
</g>
<g>
</g>
<g>
</g>
<g>
</g>
<g>
</g>
<g>
</g>
<g>
</g>
<g>
</g>
<g>
</g>
<g>
</g>
<g>
</g>
<g>
</g>
<g>
</g>
<g>
</g>
<g>
</g>
</svg>
