<?xml version="1.0" encoding="iso-8859-1"?>
<!-- Generator: Adobe Illustrator 16.0.0, SVG Export Plug-In . SVG Version: 6.00 Build 0)  -->
<!DOCTYPE svg PUBLIC "-//W3C//DTD SVG 1.1//EN" "http://www.w3.org/Graphics/SVG/1.1/DTD/svg11.dtd">
<svg version="1.1" id="Capa_1" xmlns="http://www.w3.org/2000/svg" xmlns:xlink="http://www.w3.org/1999/xlink" x="0px" y="0px"
	 width="103.787px" height="103.787px" viewBox="0 0 103.787 103.787" style="enable-background:new 0 0 103.787 103.787;"
	 xml:space="preserve">
<g>
	<g>
		<path d="M102.288,96.394H3v-90.5c0-0.828-0.672-1.5-1.5-1.5S0,5.065,0,5.894v92c0,0.828,0.672,1.5,1.5,1.5h100.787
			c0.828,0,1.5-0.672,1.5-1.5S103.116,96.394,102.288,96.394z"/>
		<path d="M101,18.636L73.423,46.212l-13.516-12.55L41.203,47.892L5.647,36.04v57.958h95.354L101,18.636L101,18.636z M98.077,37.019
			L73.98,64.269l-14-8l-18.813,9.312L8.571,54.716V40.098l33.173,11.058l17.977-13.677l13.777,12.795l24.579-24.577V37.019z"/>
	</g>
</g>
<g>
</g>
<g>
</g>
<g>
</g>
<g>
</g>
<g>
</g>
<g>
</g>
<g>
</g>
<g>
</g>
<g>
</g>
<g>
</g>
<g>
</g>
<g>
</g>
<g>
</g>
<g>
</g>
<g>
</g>
</svg>
