<?xml version="1.0" encoding="iso-8859-1"?>
<!-- Generator: Adobe Illustrator 16.0.0, SVG Export Plug-In . SVG Version: 6.00 Build 0)  -->
<!DOCTYPE svg PUBLIC "-//W3C//DTD SVG 1.1//EN" "http://www.w3.org/Graphics/SVG/1.1/DTD/svg11.dtd">
<svg version="1.1" id="Capa_1" xmlns="http://www.w3.org/2000/svg" xmlns:xlink="http://www.w3.org/1999/xlink" x="0px" y="0px"
	 width="100.787px" height="100.787px" viewBox="0 0 100.787 100.787" style="enable-background:new 0 0 100.787 100.787;"
	 xml:space="preserve">
<g>
	<g>
		<path d="M96.394,97.787h-8.167v-4.016c0-0.276-0.224-0.5-0.5-0.5s-0.5,0.224-0.5,0.5v4.016h-9v-4.016c0-0.276-0.224-0.5-0.5-0.5
			s-0.5,0.224-0.5,0.5v4.016h-9v-4.016c0-0.276-0.224-0.5-0.5-0.5s-0.5,0.224-0.5,0.5v4.016h-9v-4.016c0-0.276-0.224-0.5-0.5-0.5
			s-0.5,0.224-0.5,0.5v4.016h-9v-4.016c0-0.276-0.224-0.5-0.5-0.5s-0.5,0.224-0.5,0.5v4.016h-9v-4.016c0-0.276-0.224-0.5-0.5-0.5
			s-0.5,0.224-0.5,0.5v4.016h-9v-4.016c0-0.276-0.224-0.5-0.5-0.5s-0.5,0.224-0.5,0.5v4.016h-9v-4.016c0-0.276-0.224-0.5-0.5-0.5
			s-0.5,0.224-0.5,0.5v4.016H5.894V79.621h4.834c0.275,0,0.5-0.225,0.5-0.5s-0.225-0.5-0.5-0.5H5.894v-9h4.834
			c0.275,0,0.5-0.225,0.5-0.5s-0.225-0.5-0.5-0.5H5.894v-9h4.834c0.275,0,0.5-0.225,0.5-0.5s-0.225-0.5-0.5-0.5H5.894v-9h4.834
			c0.275,0,0.5-0.224,0.5-0.5s-0.225-0.5-0.5-0.5H5.894v-9h4.834c0.275,0,0.5-0.224,0.5-0.5s-0.225-0.5-0.5-0.5H5.894v-9h4.834
			c0.275,0,0.5-0.224,0.5-0.5s-0.225-0.5-0.5-0.5H5.894v-9h4.834c0.275,0,0.5-0.224,0.5-0.5s-0.225-0.5-0.5-0.5H5.894v-9h4.834
			c0.275,0,0.5-0.224,0.5-0.5s-0.225-0.5-0.5-0.5H5.894V1.5c0-0.828-0.672-1.5-1.5-1.5s-1.5,0.672-1.5,1.5v97.787
			c0,0.828,0.672,1.5,1.5,1.5h92c0.828,0,1.5-0.672,1.5-1.5S97.222,97.787,96.394,97.787z"/>
		<polygon points="45.223,33.665 66.464,43.99 94.266,25.991 93.778,35.728 95.776,35.828 96.436,22.649 82.245,21.954 
			82.146,23.952 92.919,24.479 66.323,41.698 44.564,31.121 30.632,50.988 14.891,41.976 13.896,43.712 31.223,53.631 		"/>
		<polygon points="94.116,56.838 97.749,44.153 84.085,40.257 83.536,42.18 93.661,45.067 67.081,56.926 50.454,41.537 
			27.462,59.236 15.055,57.122 14.719,59.094 27.991,61.354 50.333,44.152 66.691,59.289 94.942,46.685 92.194,56.288 		"/>
	</g>
</g>
<g>
</g>
<g>
</g>
<g>
</g>
<g>
</g>
<g>
</g>
<g>
</g>
<g>
</g>
<g>
</g>
<g>
</g>
<g>
</g>
<g>
</g>
<g>
</g>
<g>
</g>
<g>
</g>
<g>
</g>
</svg>
