<?xml version="1.0" encoding="iso-8859-1"?>
<!-- Generator: Adobe Illustrator 16.0.0, SVG Export Plug-In . SVG Version: 6.00 Build 0)  -->
<!DOCTYPE svg PUBLIC "-//W3C//DTD SVG 1.1//EN" "http://www.w3.org/Graphics/SVG/1.1/DTD/svg11.dtd">
<svg version="1.1" id="Capa_1" xmlns="http://www.w3.org/2000/svg" xmlns:xlink="http://www.w3.org/1999/xlink" x="0px" y="0px"
	 width="100.787px" height="100.787px" viewBox="0 0 100.787 100.787" style="enable-background:new 0 0 100.787 100.787;"
	 xml:space="preserve">
<g>
	<g>
		<path d="M99.288,94.894h-7.121V90.06c0-0.275-0.224-0.5-0.5-0.5s-0.5,0.225-0.5,0.5v4.834h-9V90.06c0-0.275-0.224-0.5-0.5-0.5
			s-0.5,0.225-0.5,0.5v4.834h-9V90.06c0-0.275-0.224-0.5-0.5-0.5s-0.5,0.225-0.5,0.5v4.834h-9V90.06c0-0.275-0.224-0.5-0.5-0.5
			s-0.5,0.225-0.5,0.5v4.834h-9V90.06c0-0.275-0.224-0.5-0.5-0.5s-0.5,0.225-0.5,0.5v4.834h-9V90.06c0-0.275-0.224-0.5-0.5-0.5
			s-0.5,0.225-0.5,0.5v4.834h-9V90.06c0-0.275-0.224-0.5-0.5-0.5s-0.5,0.225-0.5,0.5v4.834h-9V90.06c0-0.275-0.224-0.5-0.5-0.5
			s-0.5,0.225-0.5,0.5v4.834H3V83.561h4.016c0.276,0,0.5-0.224,0.5-0.5s-0.224-0.5-0.5-0.5H3v-9h4.016c0.276,0,0.5-0.224,0.5-0.5
			s-0.224-0.5-0.5-0.5H3v-9h4.016c0.276,0,0.5-0.224,0.5-0.5s-0.224-0.5-0.5-0.5H3v-9h4.016c0.276,0,0.5-0.224,0.5-0.5
			s-0.224-0.5-0.5-0.5H3v-9h4.016c0.276,0,0.5-0.224,0.5-0.5s-0.224-0.5-0.5-0.5H3v-9h4.016c0.276,0,0.5-0.224,0.5-0.5
			s-0.224-0.5-0.5-0.5H3v-9h4.016c0.276,0,0.5-0.224,0.5-0.5s-0.224-0.5-0.5-0.5H3v-9h4.016c0.276,0,0.5-0.224,0.5-0.5
			s-0.224-0.5-0.5-0.5H3V4.394c0-0.829-0.672-1.5-1.5-1.5S0,3.564,0,4.394v92c0,0.828,0.672,1.5,1.5,1.5h97.787
			c0.828,0,1.5-0.672,1.5-1.5S100.116,94.894,99.288,94.894z"/>
		<g>
			<path d="M26.894,85.29h-12.25V15.497h12.25V85.29z M16.644,83.29h8.25V37.497h-8.25V83.29z"/>
		</g>
		<g>
			<path d="M48.644,85.29h-12.25v-43.5h12.25V85.29z M38.394,83.29h8.25v-19.5h-8.25V83.29z"/>
		</g>
		<g>
			<path d="M70.145,85.29h-12.25v-57.75h12.25V85.29z M59.895,83.29h8.25v-34.75h-8.25V83.29z"/>
		</g>
		<g>
			<path d="M92.645,85.29h-12.25v-51h12.25V85.29z M82.395,83.29h8.25v-7h-8.25V83.29z"/>
		</g>
	</g>
</g>
<g>
</g>
<g>
</g>
<g>
</g>
<g>
</g>
<g>
</g>
<g>
</g>
<g>
</g>
<g>
</g>
<g>
</g>
<g>
</g>
<g>
</g>
<g>
</g>
<g>
</g>
<g>
</g>
<g>
</g>
</svg>
