<?xml version="1.0" encoding="iso-8859-1"?>
<!-- Generator: Adobe Illustrator 16.0.0, SVG Export Plug-In . SVG Version: 6.00 Build 0)  -->
<!DOCTYPE svg PUBLIC "-//W3C//DTD SVG 1.1//EN" "http://www.w3.org/Graphics/SVG/1.1/DTD/svg11.dtd">
<svg version="1.1" id="Capa_1" xmlns="http://www.w3.org/2000/svg" xmlns:xlink="http://www.w3.org/1999/xlink" x="0px" y="0px"
	 width="100.787px" height="100.787px" viewBox="0 0 100.787 100.787" style="enable-background:new 0 0 100.787 100.787;"
	 xml:space="preserve">
<g>
	<g>
		<path d="M96.394,97.787h-8.167v-4.016c0-0.276-0.224-0.5-0.5-0.5s-0.5,0.224-0.5,0.5v4.016h-9v-4.016c0-0.276-0.224-0.5-0.5-0.5
			s-0.5,0.224-0.5,0.5v4.016h-9v-4.016c0-0.276-0.224-0.5-0.5-0.5s-0.5,0.224-0.5,0.5v4.016h-9v-4.016c0-0.276-0.224-0.5-0.5-0.5
			s-0.5,0.224-0.5,0.5v4.016h-9v-4.016c0-0.276-0.224-0.5-0.5-0.5s-0.5,0.224-0.5,0.5v4.016h-9v-4.016c0-0.276-0.224-0.5-0.5-0.5
			s-0.5,0.224-0.5,0.5v4.016h-9v-4.016c0-0.276-0.224-0.5-0.5-0.5s-0.5,0.224-0.5,0.5v4.016h-9v-4.016c0-0.276-0.224-0.5-0.5-0.5
			s-0.5,0.224-0.5,0.5v4.016H5.894V79.621h4.834c0.275,0,0.5-0.225,0.5-0.5s-0.225-0.5-0.5-0.5H5.894v-9h4.834
			c0.275,0,0.5-0.225,0.5-0.5s-0.225-0.5-0.5-0.5H5.894v-9h4.834c0.275,0,0.5-0.225,0.5-0.5s-0.225-0.5-0.5-0.5H5.894v-9h4.834
			c0.275,0,0.5-0.224,0.5-0.5s-0.225-0.5-0.5-0.5H5.894v-9h4.834c0.275,0,0.5-0.224,0.5-0.5s-0.225-0.5-0.5-0.5H5.894v-9h4.834
			c0.275,0,0.5-0.224,0.5-0.5s-0.225-0.5-0.5-0.5H5.894v-9h4.834c0.275,0,0.5-0.224,0.5-0.5s-0.225-0.5-0.5-0.5H5.894v-9h4.834
			c0.275,0,0.5-0.224,0.5-0.5s-0.225-0.5-0.5-0.5H5.894V1.5c0-0.828-0.672-1.5-1.5-1.5s-1.5,0.672-1.5,1.5v97.787
			c0,0.828,0.672,1.5,1.5,1.5h92c0.828,0,1.5-0.672,1.5-1.5S97.222,97.787,96.394,97.787z"/>
		<polygon points="40.816,53.646 43.333,55.383 43.912,54.566 40.637,52.311 38.649,54.665 39.374,55.357 		"/>
		<polygon points="23.287,52.368 24.39,53.957 25.098,53.223 23.5,50.922 15.083,57.586 15.705,58.371 		"/>
		<polygon points="65.975,44.446 68.641,48.654 69.264,47.769 66.145,42.844 58.919,50.224 59.862,50.688 		"/>
		<polygon points="90.849,50.766 91.271,49.858 81.652,45.393 72.514,52.898 70.423,49.599 69.798,50.484 72.273,54.391 
			81.801,46.564 		"/>
		<polygon points="38.082,56.889 37.356,56.197 31.765,62.824 26.261,54.896 25.554,55.633 31.688,64.467 		"/>
		<polygon points="57.446,51.727 50.332,58.995 45.558,55.703 44.979,56.518 50.457,60.295 58.391,52.191 		"/>
		<polygon points="18.302,62.32 30.957,49.18 42.015,59.734 50.604,47.611 65.854,55.111 73.745,43.912 84.932,40.993 
			94.798,43.953 95.085,42.995 84.952,39.955 73.138,43.037 65.528,53.837 50.28,46.337 41.869,58.213 30.927,47.768 17.582,61.627 
					"/>
		<polygon points="18.146,64.01 17.738,64.924 23.606,67.546 27.478,65.01 36.292,67.518 45.068,62.499 58.687,65.04 61.9,57.82 
			69.915,65.258 75.682,55.396 80.307,55.396 83.415,58.967 95.126,54.311 94.757,53.381 83.706,57.775 80.762,54.396 
			75.107,54.396 69.682,63.676 61.555,56.137 58.095,63.912 44.891,61.449 36.163,66.439 27.312,63.924 23.515,66.411 		"/>
	</g>
</g>
<g>
</g>
<g>
</g>
<g>
</g>
<g>
</g>
<g>
</g>
<g>
</g>
<g>
</g>
<g>
</g>
<g>
</g>
<g>
</g>
<g>
</g>
<g>
</g>
<g>
</g>
<g>
</g>
<g>
</g>
</svg>
