<?xml version="1.0" encoding="iso-8859-1"?>
<!-- Generator: Adobe Illustrator 16.0.0, SVG Export Plug-In . SVG Version: 6.00 Build 0)  -->
<!DOCTYPE svg PUBLIC "-//W3C//DTD SVG 1.1//EN" "http://www.w3.org/Graphics/SVG/1.1/DTD/svg11.dtd">
<svg version="1.1" id="Capa_1" xmlns="http://www.w3.org/2000/svg" xmlns:xlink="http://www.w3.org/1999/xlink" x="0px" y="0px"
	 width="98.524px" height="98.524px" viewBox="0 0 98.524 98.524" style="enable-background:new 0 0 98.524 98.524;"
	 xml:space="preserve">
<g>
	<path d="M82.513,60.495c-2.134,0-4.005,1.123-5.069,2.806l-18.589-7.746c0.101-0.435,0.159-0.885,0.159-1.351
		c0-2.401-1.421-4.472-3.464-5.43l4.354-15.779c0.2,0.021,0.403,0.031,0.609,0.031c3.309,0,6-2.691,6-6s-2.691-6-6-6s-6,2.691-6,6
		c0,0.108,0.012,0.214,0.016,0.32l-32.967,7.416c-0.638-1.553-1.909-2.774-3.489-3.355l3.602-19.445
		C24.673,11.63,27.013,9.085,27.013,6c0-3.309-2.691-6-6-6s-6,2.691-6,6c0,2.844,1.991,5.227,4.65,5.842l-3.557,19.197
		c-0.032,0-0.062-0.005-0.094-0.005c-3.309,0-6,2.691-6,6s2.691,6,6,6s6-2.691,6-6c0-0.108-0.011-0.214-0.016-0.32l32.967-7.415
		c0.572,1.394,1.656,2.521,3.014,3.157l-4.354,15.78c-0.201-0.021-0.404-0.031-0.61-0.031c-3.309,0-6,2.691-6,6s2.691,6,6,6
		c2.134,0,4.005-1.122,5.069-2.805l18.59,7.744c-0.102,0.436-0.159,0.887-0.159,1.352c0,0.68,0.119,1.33,0.328,1.939l-37.61,20.394
		c-1.1-1.399-2.803-2.305-4.718-2.305c-3.309,0-6,2.69-6,6c0,3.309,2.691,6,6,6s6-2.691,6-6c0-0.681-0.119-1.33-0.328-1.938
		l37.61-20.395c1.099,1.4,2.803,2.305,4.717,2.305c3.309,0,6-2.691,6-6S85.823,60.495,82.513,60.495z M17.013,6c0-2.205,1.794-4,4-4
		s4,1.795,4,4c0,2.206-1.794,4-4,4S17.013,8.206,17.013,6z M16.013,41.034c-2.206,0-4-1.794-4-4c0-2.205,1.794-4,4-4s4,1.795,4,4
		C20.013,39.241,18.219,41.034,16.013,41.034z M56.513,27.027c0-2.206,1.794-4,4-4s4,1.794,4,4c0,2.205-1.794,4-4,4
		S56.513,29.232,56.513,27.027z M53.013,58.204c-2.206,0-4-1.794-4-4c0-2.205,1.794-4,4-4s4,1.795,4,4
		C57.013,56.41,55.219,58.204,53.013,58.204z M34.513,96.524c-2.206,0-4-1.796-4-4c0-2.206,1.794-4,4-4s4,1.794,4,4
		C38.513,94.729,36.719,96.524,34.513,96.524z M82.513,70.495c-2.206,0-4-1.794-4-4c0-2.205,1.794-4,4-4s4,1.795,4,4
		C86.513,68.701,84.719,70.495,82.513,70.495z"/>
</g>
<g>
</g>
<g>
</g>
<g>
</g>
<g>
</g>
<g>
</g>
<g>
</g>
<g>
</g>
<g>
</g>
<g>
</g>
<g>
</g>
<g>
</g>
<g>
</g>
<g>
</g>
<g>
</g>
<g>
</g>
</svg>
