<?xml version="1.0" encoding="iso-8859-1"?>
<!-- Generator: Adobe Illustrator 16.0.0, SVG Export Plug-In . SVG Version: 6.00 Build 0)  -->
<!DOCTYPE svg PUBLIC "-//W3C//DTD SVG 1.1//EN" "http://www.w3.org/Graphics/SVG/1.1/DTD/svg11.dtd">
<svg version="1.1" id="Capa_1" xmlns="http://www.w3.org/2000/svg" xmlns:xlink="http://www.w3.org/1999/xlink" x="0px" y="0px"
	 width="96.476px" height="96.476px" viewBox="0 0 96.476 96.476" style="enable-background:new 0 0 96.476 96.476;"
	 xml:space="preserve">
<g>
	<g>
		<path d="M17.477,38.128c2.243-0.896,3.339-3.449,2.445-5.691c-0.895-2.242-3.448-3.339-5.691-2.445
			c-2.242,0.895-3.339,3.447-2.445,5.688C12.681,37.925,15.233,39.022,17.477,38.128z M14.004,34.796
			c-0.405-1.018,0.094-2.18,1.112-2.586c1.021-0.406,2.181,0.092,2.587,1.111c0.406,1.019-0.091,2.182-1.111,2.588
			C15.572,36.315,14.412,35.817,14.004,34.796z"/>
		<path d="M26.429,24.952L15.255,50.949c-0.013,0.031-0.008,0.063-0.02,0.095c0.568,0.333,1.152,0.632,1.759,0.883
			c0.042-0.058,0.093-0.106,0.123-0.175L28.328,25.66C27.711,25.384,27.079,25.139,26.429,24.952z"/>
		<path d="M32.397,39.713c-0.895-2.244-3.447-3.342-5.691-2.447c-2.243,0.896-3.339,3.449-2.445,5.691
			c0.894,2.241,3.448,3.339,5.691,2.446C32.194,44.508,33.29,41.955,32.397,39.713z M29.067,43.183
			c-1.021,0.406-2.181-0.092-2.588-1.112c-0.407-1.019,0.092-2.179,1.111-2.588c1.021-0.404,2.181,0.092,2.587,1.112
			C30.584,41.617,30.085,42.777,29.067,43.183z"/>
		<path d="M48.238,0C21.597,0,0,21.598,0,48.238c0,26.64,21.597,48.237,48.238,48.237s48.238-21.597,48.238-48.237
			C96.476,21.597,74.879,0,48.238,0z M48.238,3.238c23.386,0,42.6,17.841,44.788,40.653l-43.91,2.788L28.711,7.684
			C34.617,4.836,41.241,3.238,48.238,3.238z M3.238,48.238c0-16.787,9.198-31.416,22.822-39.149l20.146,38.5L7.46,67.271
			C4.757,61.488,3.238,55.043,3.238,48.238z M8.818,69.945l37.125-18.859L35.404,91.371C23.986,87.977,14.467,80.182,8.818,69.945z
			 M48.238,93.238c-3.414,0-6.734-0.394-9.931-1.113l11.107-42.458l43.789-2.78c0.014,0.45,0.035,0.898,0.035,1.352
			C93.238,73.091,73.091,93.238,48.238,93.238z"/>
		<path d="M59.301,35.424v2.516c0,0.276,0.225,0.5,0.5,0.5h1.868c0.276,0,0.5-0.224,0.5-0.5v-2.672
			c2.819-0.631,4.687-2.778,4.687-5.454c0-2.728-1.469-4.488-4.906-5.888c-2.612-1.081-3.367-1.735-3.367-2.919
			c0-0.946,0.691-2.052,2.644-2.052c1.837,0,2.993,0.661,3.487,0.943c0.126,0.073,0.279,0.085,0.417,0.037
			c0.138-0.05,0.246-0.156,0.299-0.293l0.742-1.96c0.087-0.228-0.004-0.485-0.216-0.608c-1.062-0.619-2.246-0.974-3.607-1.077
			v-2.405c0-0.276-0.224-0.5-0.5-0.5H60.01c-0.275,0-0.5,0.224-0.5,0.5v2.583c-2.734,0.604-4.479,2.603-4.479,5.188
			c0,3.119,2.504,4.533,5.205,5.595c2.158,0.873,3.039,1.762,3.039,3.064c0,1.439-1.219,2.406-3.029,2.406
			c-1.399,0-2.855-0.434-3.993-1.19c-0.127-0.086-0.287-0.106-0.435-0.059c-0.146,0.047-0.262,0.161-0.312,0.306l-0.712,1.985
			c-0.075,0.211-0.002,0.446,0.181,0.576C56.013,34.789,57.67,35.31,59.301,35.424z"/>
	</g>
</g>
<g>
</g>
<g>
</g>
<g>
</g>
<g>
</g>
<g>
</g>
<g>
</g>
<g>
</g>
<g>
</g>
<g>
</g>
<g>
</g>
<g>
</g>
<g>
</g>
<g>
</g>
<g>
</g>
<g>
</g>
</svg>
