<?xml version="1.0" encoding="iso-8859-1"?>
<!-- Generator: Adobe Illustrator 16.0.0, SVG Export Plug-In . SVG Version: 6.00 Build 0)  -->
<!DOCTYPE svg PUBLIC "-//W3C//DTD SVG 1.1//EN" "http://www.w3.org/Graphics/SVG/1.1/DTD/svg11.dtd">
<svg version="1.1" id="Capa_1" xmlns="http://www.w3.org/2000/svg" xmlns:xlink="http://www.w3.org/1999/xlink" x="0px" y="0px"
	 width="112.987px" height="112.988px" viewBox="0 0 112.987 112.988" style="enable-background:new 0 0 112.987 112.988;"
	 xml:space="preserve">
<g>
	<g>
		<path d="M58.938,35.662c-1.063,0.426-1.584,1.637-1.159,2.699c0.425,1.064,1.635,1.584,2.698,1.16
			c1.063-0.424,1.582-1.635,1.158-2.699S60.002,35.24,58.938,35.662z"/>
		<circle cx="44.791" cy="29.475" r="2.077"/>
		<path d="M36.585,18.537c-8.542,8.934-8.224,23.15,0.708,31.691c8.932,8.542,23.148,8.227,31.691-0.707
			c8.541-8.932,8.223-23.148-0.709-31.689C59.344,9.289,45.127,9.604,36.585,18.537z M40.548,31.166
			c-0.932-2.338,0.212-5,2.551-5.934c2.34-0.932,5.002,0.211,5.936,2.551c0.933,2.338-0.211,5.002-2.551,5.936
			C44.144,34.653,41.481,33.508,40.548,31.166z M46.085,51.128c-0.036,0.082-0.1,0.146-0.15,0.215
			c-0.746-0.309-1.464-0.676-2.163-1.086c0.014-0.037,0.009-0.076,0.024-0.115l13.74-31.969c0.8,0.23,1.576,0.531,2.336,0.871
			L46.085,51.128z M61.4,41.835c-2.34,0.932-5.003-0.213-5.936-2.551c-0.933-2.338,0.211-5.002,2.549-5.936
			c2.342-0.934,5.004,0.211,5.938,2.551C64.883,38.24,63.739,40.902,61.4,41.835z"/>
		<path d="M110.462,79.046L98.514,67.621c0.178-1.699,0.287-3.414,0.287-5.162c0-7.373-1.629-14.363-4.524-20.648L84.54,46.76
			c0.604-1.65,1.072-3.334,1.412-5.035l6.58-3.344c-1.8-3.217-3.95-6.209-6.396-8.93c-1.176-7.004-4.541-13.68-10.02-18.92
			c-6.34-6.064-14.674-9.404-23.467-9.404c-9.371,0-18.091,3.723-24.551,10.477c-2.911,3.045-5.138,6.496-6.695,10.164
			c-6.086,4.199-11.185,9.726-14.879,16.165l13.673,7.129c0.577,1.883,1.321,3.725,2.23,5.504L4.736,41.341
			C1.703,47.744,0,54.902,0,62.458c0,27.285,22.117,49.402,49.4,49.402c9.271,0,17.94-2.561,25.353-7.002L51.362,68.992
			c0.422,0.014,0.844,0.029,1.268,0.029c1.085,0,2.161-0.07,3.234-0.174l22.106,33.899c6.381-4.533,11.635-10.545,15.271-17.53
			l5.911,5.651c1.529,1.465,3.537,2.271,5.654,2.271c2.223,0,4.379-0.922,5.91-2.527c1.512-1.578,2.316-3.648,2.269-5.836
			C112.938,82.589,112.041,80.556,110.462,79.046z M107.383,86.24c-1.285,1.344-3.418,1.393-4.763,0.105L71.381,56.47
			c-11.229,9.318-27.949,8.947-38.743-1.373C21.022,43.989,20.608,25.5,31.716,13.883c11.11-11.619,29.6-12.029,41.215-0.922
			c10.793,10.322,11.908,27.01,3.104,38.643l31.239,29.873C108.621,82.763,108.668,84.896,107.383,86.24z"/>
	</g>
</g>
<g>
</g>
<g>
</g>
<g>
</g>
<g>
</g>
<g>
</g>
<g>
</g>
<g>
</g>
<g>
</g>
<g>
</g>
<g>
</g>
<g>
</g>
<g>
</g>
<g>
</g>
<g>
</g>
<g>
</g>
</svg>
