<?xml version="1.0" encoding="iso-8859-1"?>
<!-- Generator: Adobe Illustrator 16.0.0, SVG Export Plug-In . SVG Version: 6.00 Build 0)  -->
<!DOCTYPE svg PUBLIC "-//W3C//DTD SVG 1.1//EN" "http://www.w3.org/Graphics/SVG/1.1/DTD/svg11.dtd">
<svg version="1.1" id="Capa_1" xmlns="http://www.w3.org/2000/svg" xmlns:xlink="http://www.w3.org/1999/xlink" x="0px" y="0px"
	 width="112.356px" height="112.356px" viewBox="0 0 112.356 112.356" style="enable-background:new 0 0 112.356 112.356;"
	 xml:space="preserve">
<g>
	<g>
		<path d="M100.15,67.485c-0.014-0.054-0.047-0.099-0.069-0.148c-0.024-0.057-0.042-0.116-0.077-0.166
			c-0.035-0.046-0.084-0.078-0.125-0.118c-0.043-0.041-0.078-0.088-0.13-0.12c-0.049-0.03-0.108-0.04-0.163-0.062
			c-0.058-0.021-0.109-0.054-0.172-0.063c-0.001,0-0.002,0-0.003,0s-0.002-0.001-0.002-0.001l-16.515-2.546
			c-0.059-0.009-0.113,0.005-0.17,0.008c-0.062,0.002-0.125-0.006-0.185,0.009c-0.063,0.017-0.118,0.052-0.176,0.08
			c-0.046,0.023-0.097,0.035-0.14,0.065c-0.057,0.042-0.1,0.101-0.146,0.155c-0.029,0.034-0.066,0.061-0.091,0.099
			c-0.036,0.057-0.05,0.126-0.073,0.191c-0.017,0.049-0.045,0.09-0.054,0.142c-1.108,6.677-4.259,12.726-9.108,17.491
			c-6.002,5.895-13.936,9.142-22.341,9.142c-17.583,0-31.887-14.305-31.887-31.887s14.305-31.887,31.887-31.887
			c3.691,0,7.316,0.629,10.774,1.871c0,0,0,0,0.002,0c0,0,0,0.001,0.001,0.001c0.1,0.036,0.202,0.052,0.303,0.052
			c0.011,0,0.021-0.004,0.028-0.004c0.029-0.001,0.055-0.009,0.082-0.013c0.08-0.01,0.156-0.028,0.229-0.058
			c0.032-0.014,0.062-0.028,0.093-0.045c0.065-0.036,0.125-0.081,0.18-0.133c0.025-0.022,0.05-0.042,0.072-0.067
			c0.067-0.079,0.125-0.168,0.164-0.271c0.002-0.004,0.004-0.006,0.006-0.01v-0.001c0-0.001,0.002-0.001,0.002-0.002l5.578-15.75
			c0.022-0.062,0.02-0.128,0.026-0.192c0.007-0.055,0.026-0.11,0.022-0.164c-0.004-0.07-0.031-0.134-0.051-0.2
			c-0.014-0.046-0.016-0.095-0.035-0.137c-0.033-0.068-0.086-0.124-0.135-0.183c-0.025-0.032-0.041-0.07-0.072-0.098
			c-0.053-0.05-0.125-0.08-0.192-0.117c-0.04-0.021-0.071-0.054-0.115-0.069c0,0-0.001,0-0.002,0l0,0l0,0
			c-5.448-1.946-11.154-2.934-16.961-2.934C22.614,9.345,0,31.959,0,59.756s22.614,50.411,50.411,50.411
			c13.347,0,25.929-5.171,35.429-14.559c7.664-7.573,12.617-17.172,14.328-27.759c0-0.001,0-0.002,0-0.003s0-0.002,0-0.003
			c0.008-0.056-0.006-0.106-0.008-0.16C100.158,67.615,100.166,67.549,100.15,67.485z M85.192,93.669l-10.539-10.54
			c4.551-4.715,7.58-10.533,8.817-16.941l14.738,2.272C96.484,78.012,92.002,86.69,85.192,93.669z"/>
		<path d="M78.908,2.24C78.908,2.24,78.907,2.24,78.908,2.24c-0.001,0-0.002-0.001-0.002-0.001c-0.221-0.078-0.449-0.058-0.65,0.025
			c-0.013,0.005-0.029,0.005-0.041,0.011c-0.062,0.029-0.111,0.079-0.166,0.122c-0.039,0.03-0.084,0.049-0.115,0.085
			c-0.045,0.047-0.069,0.111-0.103,0.169c-0.026,0.047-0.065,0.085-0.084,0.139c0,0,0,0,0,0.001v0.001l-5.577,15.75
			c-0.021,0.058-0.018,0.116-0.025,0.174c-0.008,0.061-0.029,0.122-0.026,0.181c0.004,0.055,0.026,0.104,0.04,0.156
			c0.016,0.061,0.02,0.125,0.046,0.182c0.026,0.053,0.07,0.095,0.106,0.143c0.033,0.046,0.058,0.098,0.101,0.137
			c0.05,0.045,0.114,0.071,0.175,0.105c0.045,0.026,0.082,0.063,0.133,0.081c12.627,4.534,21.112,16.596,21.112,30.016
			c0,1.731-0.147,3.5-0.438,5.254c0,0.002,0,0.003,0,0.005s0,0.003,0,0.005c-0.01,0.063,0.005,0.121,0.008,0.182
			c0.003,0.058-0.006,0.118,0.008,0.173c0.016,0.059,0.049,0.109,0.075,0.163c0.024,0.051,0.039,0.107,0.071,0.152
			c0.037,0.05,0.088,0.084,0.134,0.126c0.041,0.037,0.073,0.082,0.12,0.111c0.055,0.034,0.121,0.047,0.183,0.069
			c0.052,0.018,0.095,0.048,0.151,0.057c0.002,0,0.004,0,0.007,0c0.001,0,0.002,0.001,0.003,0.001l16.507,2.545l0,0l0.006,0.001
			c0.048,0.007,0.095,0.011,0.14,0.011c0.11,0,0.217-0.02,0.315-0.058c0.038-0.014,0.069-0.042,0.104-0.062
			c0.058-0.029,0.117-0.056,0.166-0.097c0.037-0.03,0.06-0.072,0.091-0.108c0.038-0.044,0.083-0.083,0.112-0.135
			c0.021-0.039,0.028-0.087,0.045-0.129c0.022-0.058,0.052-0.112,0.062-0.176c0-0.002,0-0.004,0.001-0.006
			c0.435-2.691,0.654-5.413,0.654-8.088C112.354,28.468,98.913,9.389,78.908,2.24z"/>
	</g>
</g>
<g>
</g>
<g>
</g>
<g>
</g>
<g>
</g>
<g>
</g>
<g>
</g>
<g>
</g>
<g>
</g>
<g>
</g>
<g>
</g>
<g>
</g>
<g>
</g>
<g>
</g>
<g>
</g>
<g>
</g>
</svg>
