<?xml version="1.0" encoding="iso-8859-1"?>
<!-- Generator: Adobe Illustrator 16.0.0, SVG Export Plug-In . SVG Version: 6.00 Build 0)  -->
<!DOCTYPE svg PUBLIC "-//W3C//DTD SVG 1.1//EN" "http://www.w3.org/Graphics/SVG/1.1/DTD/svg11.dtd">
<svg version="1.1" id="Capa_1" xmlns="http://www.w3.org/2000/svg" xmlns:xlink="http://www.w3.org/1999/xlink" x="0px" y="0px"
	 width="108.909px" height="108.908px" viewBox="0 0 108.909 108.908" style="enable-background:new 0 0 108.909 108.908;"
	 xml:space="preserve">
<g>
	<g>
		<path d="M98.409,49.794l0.015,1.359h10.223l-0.013-1.387c-0.251-27.184-22.57-49.503-49.754-49.753L57.493,0v10.222l1.358,0.015
			C80.428,10.473,98.173,28.218,98.409,49.794z"/>
		<path d="M90.499,59.116C90.377,70.098,85.9,80.293,77.891,87.823c-7.45,7.004-17.18,10.862-27.393,10.862
			c-6.998,0-13.896-1.845-19.946-5.332C19.257,86.841,11.82,75.232,10.658,62.297v-0.002c-0.115-1.277-0.172-2.462-0.172-3.622
			c0-8.125,2.428-15.95,7.019-22.632c3.513-5.109,8.231-9.395,13.647-12.394c5.744-3.18,12.281-4.898,18.903-4.972l1.358-0.015
			V8.439l-1.387,0.014c-7.877,0.072-15.652,2.025-22.596,5.619l-0.021-0.038L26.206,14.7l-1.201,0.665l0.02,0.035
			c-5.906,3.487-11.095,8.199-15.139,13.748l-0.033-0.022l-0.777,1.131l-0.779,1.134l0.021,0.015
			c-5.271,8.132-8.056,17.527-8.056,27.269c0,1.027,0.048,2.089,0.119,3.177H0.354l0.122,1.365c0,0.002,0,0.002,0,0.002l0.124,1.37
			l0.041-0.004c1.802,15.317,10.597,28.981,23.827,37.021l-0.02,0.035l1.168,0.668l1.219,0.695l0.022-0.04
			c7.254,3.878,15.389,5.944,23.64,5.944c12.382,0,24.186-4.523,33.404-12.75l0.021,0.023l0.996-0.938l1.005-0.946L85.9,94.273
			c9.438-9.371,14.697-21.785,14.82-35.129l0.014-1.388H90.513L90.499,59.116z M48.666,11.234v4.73
			c-6.147,0.264-12.19,1.852-17.631,4.633l-2.286-4.14C34.887,13.294,41.719,11.502,48.666,11.234z M26.344,17.789l2.287,4.14
			c-4.896,2.923-9.21,6.841-12.595,11.438l-3.899-2.675C15.938,25.492,20.809,21.068,26.344,17.789z M3.356,64.339l4.709-0.428
			c1.572,12.832,8.93,24.308,19.963,31.136l-1.835,3.381l-0.423,0.779C13.345,91.612,5.073,78.746,3.356,64.339z M84.019,92.291
			l-3.255-3.427c7.617-7.623,11.996-17.601,12.445-28.358h4.73C97.489,72.571,92.586,83.764,84.019,92.291z"/>
	</g>
</g>
<g>
</g>
<g>
</g>
<g>
</g>
<g>
</g>
<g>
</g>
<g>
</g>
<g>
</g>
<g>
</g>
<g>
</g>
<g>
</g>
<g>
</g>
<g>
</g>
<g>
</g>
<g>
</g>
<g>
</g>
</svg>
