<?xml version="1.0" encoding="iso-8859-1"?>
<!-- Generator: Adobe Illustrator 16.0.0, SVG Export Plug-In . SVG Version: 6.00 Build 0)  -->
<!DOCTYPE svg PUBLIC "-//W3C//DTD SVG 1.1//EN" "http://www.w3.org/Graphics/SVG/1.1/DTD/svg11.dtd">
<svg version="1.1" id="Capa_1" xmlns="http://www.w3.org/2000/svg" xmlns:xlink="http://www.w3.org/1999/xlink" x="0px" y="0px"
	 width="109.668px" height="109.668px" viewBox="0 0 109.668 109.668" style="enable-background:new 0 0 109.668 109.668;"
	 xml:space="preserve">
<g>
	<path d="M109.667,54.833C109.667,24.598,85.069,0,54.834,0c-8.766,0-17.43,2.139-25.178,6.15l-0.023-0.042L28.32,6.835
		l-1.311,0.726L27.03,7.6c-6.445,3.806-12.108,8.949-16.523,15.006l-0.036-0.025l-0.849,1.235l-0.85,1.237l0.023,0.016
		C3.041,33.945,0.001,44.2,0.001,54.833c0,1.12,0.053,2.276,0.13,3.466l-0.03,0.003l0.133,1.493l0.135,1.496l0.045-0.004
		c1.968,16.72,11.567,31.635,26.008,40.406l-0.021,0.041l1.274,0.728l1.331,0.761l0.012-0.021
		c7.918,4.232,16.809,6.467,25.815,6.467c13.516,0,26.398-4.939,36.461-13.917l0.023,0.024l1.088-1.023l1.097-1.033l-0.026-0.027
		C103.921,83.323,109.667,69.59,109.667,54.833z M54.834,3c5.597,0,10.983,0.903,16.038,2.551l-1.604,4.904
		C64.72,8.972,59.871,8.16,54.834,8.16c-7.387,0-14.699,1.764-21.244,5.113l-2.496-4.52C38.399,4.985,46.574,3,54.834,3z
		 M3.106,58.029C3.035,56.926,3,55.87,3,54.833c0-10.024,2.852-19.697,8.261-28.071l4.257,2.92
		C10.7,37.195,8.161,45.858,8.161,54.833c0,0.89,0.028,1.792,0.085,2.729L3.106,58.029z M11.348,58.788
		c-0.126-1.399-0.187-2.692-0.187-3.955c0-8.868,2.649-17.41,7.661-24.703c3.833-5.577,8.984-10.255,14.896-13.527
		c6.432-3.561,13.734-5.443,21.116-5.443c4.712,0,9.248,0.759,13.503,2.146L54.834,54.629l37.543-22.075
		c3.888,6.527,6.13,14.145,6.13,22.278c0,12.167-4.893,23.467-13.773,31.816c-8.131,7.646-18.75,11.856-29.899,11.856
		c-7.638,0-15.167-2.013-21.772-5.819C20.733,85.579,12.615,72.906,11.348,58.788z M54.834,106.666
		c-8.507,0-16.906-2.105-24.386-6.102l2.461-4.534c6.729,3.586,14.275,5.475,21.925,5.475c11.417,0,22.313-4.131,30.851-11.665
		l3.555,3.742C79.735,102.032,67.579,106.666,54.834,106.666z M91.423,91.527l-2.99-3.149l-0.562-0.591
		c8.805-8.809,13.636-20.453,13.636-32.954c0-8.688-2.395-16.825-6.545-23.798l4.446-2.614c4.604,7.741,7.259,16.771,7.259,26.413
		C106.667,68.76,101.267,81.732,91.423,91.527z"/>
</g>
<g>
</g>
<g>
</g>
<g>
</g>
<g>
</g>
<g>
</g>
<g>
</g>
<g>
</g>
<g>
</g>
<g>
</g>
<g>
</g>
<g>
</g>
<g>
</g>
<g>
</g>
<g>
</g>
<g>
</g>
</svg>
