<?xml version="1.0" encoding="iso-8859-1"?>
<!-- Generator: Adobe Illustrator 16.0.0, SVG Export Plug-In . SVG Version: 6.00 Build 0)  -->
<!DOCTYPE svg PUBLIC "-//W3C//DTD SVG 1.1//EN" "http://www.w3.org/Graphics/SVG/1.1/DTD/svg11.dtd">
<svg version="1.1" id="Capa_1" xmlns="http://www.w3.org/2000/svg" xmlns:xlink="http://www.w3.org/1999/xlink" x="0px" y="0px"
	 width="99.565px" height="99.564px" viewBox="0 0 99.565 99.564" style="enable-background:new 0 0 99.565 99.564;"
	 xml:space="preserve">
<g>
	<g>
		<path d="M98.5,29.816C98.5,13.375,85.125,0,68.684,0C59.909,0,51.663,3.827,45.98,10.504C41.414,7.817,36.208,6.39,30.881,6.39
			C14.44,6.39,1.065,19.765,1.065,36.205c0,14.834,10.96,27.419,25.579,29.5c-0.182,1.335-0.288,2.69-0.288,4.044
			c0,16.44,13.375,29.815,29.814,29.815c16.441,0,29.816-13.375,29.816-29.815c0-4.739-1.148-9.436-3.305-13.625
			C92.448,50.922,98.5,40.895,98.5,29.816z M96.205,21.502l-1.682-0.721l0.778-1.817C95.639,19.792,95.943,20.637,96.205,21.502z
			 M46.219,11.897c1.917,1.211,3.647,2.625,5.191,4.19l-6.633-2.216C45.228,13.195,45.708,12.536,46.219,11.897z M81.111,55.725
			c-2.942,1.416-6.043,2.312-9.259,2.666l6.76-6.584c0.957,1.195,1.828,2.47,2.592,3.82L81.111,55.725z M70.285,58.522
			c-0.53,0.028-1.065,0.045-1.603,0.045c-1.986,0-3.955-0.213-5.877-0.616l11.311-10.633c1.393,1.113,2.682,2.357,3.854,3.72
			L70.285,58.522z M61.637,57.678c-1.785-0.453-3.521-1.08-5.19-1.867l12.409-11.833c1.566,0.771,3.058,1.682,4.457,2.722
			L61.637,57.678z M55.493,55.34c-0.412-0.215-0.824-0.428-1.227-0.66c2.263-2.861,3.967-6.104,5.051-9.555l3.253-3.38
			c1.838,0.42,3.619,1.012,5.319,1.772L55.493,55.34z M28.091,63.645c0.641-2.947,1.738-5.75,3.233-8.318l1.631,9.548
			c-0.688,0.05-1.378,0.083-2.074,0.083c-0.833,0-1.683-0.056-2.55-0.138L28.091,63.645z M33.957,64.792l-1.839-10.754
			c1.339-2.045,2.939-3.914,4.759-5.566l2.329,15.247C37.503,64.234,35.749,64.6,33.957,64.792z M37.77,47.695
			c1.389-1.161,2.893-2.196,4.5-3.088l2.669,16.667c-1.521,0.854-3.115,1.575-4.769,2.141L37.77,47.695z M55.328,51.334
			l-2.731-2.293l2.492-2.092l1.813,1.474C56.43,49.422,55.91,50.393,55.328,51.334z M46.803,48.456l1.893-1.383l2.345,1.968
			l-2.047,1.719C48.22,50.032,47.49,49.262,46.803,48.456z M58.949,42.404l-0.933,0.783l-1.896-1.541l0.857-0.627
			c0.731,0.021,1.468,0.063,2.228,0.145C59.133,41.581,59.04,41.992,58.949,42.404z M57.236,43.842l-2.158,1.811l-2.101-1.708
			l2.31-1.688L57.236,43.842z M53.863,41.098l0.622,0.506l-2.311,1.688l-2.034-1.654C51.363,41.376,52.604,41.198,53.863,41.098z
			 M48.917,41.93l2.424,1.971l-2.603,1.902l-3.263-2.737C46.602,42.612,47.751,42.235,48.917,41.93z M44.446,43.508l3.461,2.903
			l-1.734,1.268c-0.948-1.193-1.813-2.455-2.564-3.791C43.886,43.753,44.167,43.634,44.446,43.508z M49.526,46.466l2.615-1.912
			l2.156,1.753l-2.479,2.082L49.526,46.466z M57.323,47.477l-1.455-1.183l2.158-1.811l0.291,0.236l-0.02,0.02
			c-0.01,0.085-0.027,0.168-0.045,0.252C57.983,45.835,57.67,46.663,57.323,47.477z M59.352,40.12
			c-1.086-0.117-2.137-0.188-3.182-0.188c-2.351,0-4.647,0.274-6.884,0.807l-8.149-2.723c-0.572-1.918-0.939-3.897-1.103-5.898
			l19.379,7.412C59.391,39.726,59.379,39.925,59.352,40.12z M47.55,41.214c-1.511,0.46-2.99,1.036-4.432,1.74
			c-0.623-1.21-1.146-2.468-1.592-3.753L47.55,41.214z M45.864,60.735l-2.412-15.072c1.609,2.559,3.596,4.851,5.885,6.808l1,4.887
			C48.95,58.635,47.452,59.762,45.864,60.735z M51.188,56.531l-0.628-3.073c0.683,0.524,1.379,1.029,2.106,1.494
			C52.194,55.502,51.696,56.022,51.188,56.531z M49.747,51.432l2.071-1.738l2.958,2.482c-0.449,0.672-0.917,1.332-1.424,1.967
			C52.075,53.336,50.876,52.422,49.747,51.432z M59.881,43.095c0.141-0.592,0.264-1.189,0.367-1.791
			c0.391,0.056,0.777,0.129,1.163,0.2L59.881,43.095z M39.968,31.021c-0.017-0.401-0.036-0.803-0.036-1.205
			c0-1.387,0.123-2.763,0.322-4.124l19.211,7.506c0.103,0.992,0.168,1.993,0.168,3.007c0,0.766-0.045,1.532-0.109,2.297
			L39.968,31.021z M40.41,24.68c0.319-1.74,0.808-3.44,1.437-5.089l15.699,5.815v-0.001c0.856,2.12,1.454,4.356,1.784,6.665
			L40.41,24.68z M42.218,18.663c0.572-1.354,1.252-2.66,2.025-3.915l8.537,2.853l0.006-0.02c1.703,1.99,3.117,4.192,4.208,6.556
			L42.218,18.663z M2.175,37.432l1.6,1.6l-1.339,1.339C2.294,39.406,2.218,38.423,2.175,37.432z M19.217,62.483l0.034-0.034
			l0.089,0.089C19.299,62.52,19.258,62.502,19.217,62.483z M21.526,63.389l0.086-0.086l-1.607-1.607l1.607-1.607l-0.754-0.754
			l-1.607,1.607l-1.607-1.607l-0.754,0.754l1.607,1.607l-0.307,0.309C10.008,57.971,4.092,50.18,2.539,41.012l0.382,0.382
			l1.607-1.607l1.607,1.607l0.754-0.754l-1.607-1.608l1.607-1.607l-0.754-0.754l-1.607,1.607l-1.607-1.607l-0.747,0.747
			c-0.017-0.404-0.045-0.806-0.045-1.213c0-4.397,0.995-8.565,2.769-12.296l1.238,1.238l0.754-0.754l-1.487-1.487
			c0.089-0.169,0.175-0.34,0.267-0.507l1.221-1.221L6.58,20.867c5.102-8.053,14.084-13.414,24.302-13.414
			c5.078,0,10.048,1.336,14.413,3.869c-4.149,5.244-6.427,11.786-6.427,18.493c0,0.142,0.011,0.283,0.013,0.425l-1.57-1.57
			l-0.754,0.754l1.607,1.607l-1.607,1.607l0.754,0.754l1.607-1.607l0.023,0.023c0.271,4.049,1.364,8.022,3.213,11.621l-0.005,0.002
			l0.003,0.004c-8.111,4.332-13.809,12.2-15.363,21.222C24.97,64.399,23.212,63.969,21.526,63.389z M56.34,98.495l0.195-0.677
			l2.004,0.576C57.813,98.454,57.082,98.491,56.34,98.495z M84.922,69.749c0,6.253-2.013,12.041-5.416,16.765l0.379-1.315
			l-1.024-0.294l-0.628,2.186l-2.186-0.629l-0.293,1.025l2.185,0.627l-0.167,0.581c-2.895,3.296-6.525,5.927-10.639,7.63
			l-0.211-0.062l0.627-2.185l-1.024-0.294l-0.628,2.186l-2.186-0.629l-0.293,1.025l2.041,0.586c-2.139,0.732-4.389,1.221-6.72,1.428
			l0.274-0.957l-2.186-0.627l0.628-2.186l-1.024-0.295L55.805,96.5l-2.186-0.628l-0.295,1.024l2.186,0.628l-0.272,0.952
			c-3.55-0.114-6.938-0.87-10.053-2.162l0.385-1.342l2.185,0.629l0.295-1.025l-2.185-0.627l0.627-2.186l-1.024-0.295l-0.628,2.186
			l-2.185-0.627l-0.295,1.023l2.186,0.629l-0.345,1.199c-9.893-4.55-16.781-14.548-16.781-26.131c0-1.306,0.089-2.617,0.264-3.906
			c0.247,0.027,0.485,0.041,0.729,0.062c0.048,0.007,0.097,0.017,0.145,0.022l-0.002-0.012c0.786,0.062,1.562,0.106,2.326,0.106
			c2.913,0,5.765-0.431,8.487-1.239l0.001,0.007c0.327-0.063,0.654-0.136,0.98-0.206l-0.017-0.109
			c1.445-0.483,2.854-1.065,4.206-1.764l0.25,0.073l-0.627,2.185l1.024,0.295l0.628-2.186l2.185,0.628l0.294-1.024l-2.185-0.627
			l0.071-0.248c2.759-1.65,5.264-3.758,7.404-6.271l0.004,0.002l0.002-0.002c4.562,2.683,9.771,4.099,15.094,4.099
			c4.582,0,8.975-1.016,13.067-3.019C83.827,60.651,84.922,65.182,84.922,69.749z M88.708,48.477l-0.895,2.09l0.528,0.228
			c-1.822,1.7-3.877,3.188-6.147,4.397c-4.537-8.094-12.606-13.637-21.767-14.947l0.002-0.005l-0.006-0.001
			c0.182-1.334,0.271-2.689,0.271-4.034c0-3.131-0.482-6.173-1.393-9.05l1.99,0.852l0.42-0.979l-2.091-0.896l0.896-2.089
			l-0.979-0.42l-0.81,1.888c-2.243-5.874-6.322-10.946-11.832-14.458c5.477-6.355,13.382-9.988,21.785-9.988
			c0.977,0,1.941,0.05,2.895,0.146l-0.805,1.88l-2.09-0.895l-0.42,0.979l2.09,0.896L69.457,6.16l0.979,0.42l0.896-2.089l2.091,0.895
			l0.418-0.98l-2.088-0.895l0.895-2.09l-0.252-0.107c10.252,1.329,18.828,8.07,22.748,17.263l-0.705-0.303l-0.896,2.089l-2.09-0.895
			l-0.42,0.98l2.09,0.895l-0.896,2.09l0.98,0.42l0.896-2.09l2.089,0.895l0.204-0.477c0.672,2.434,1.037,4.992,1.037,7.637
			c0,6.874-2.422,13.322-6.65,18.39l-0.675-0.288l0.896-2.09l-0.979-0.42l-0.896,2.09l-2.09-0.896l-0.42,0.979L88.708,48.477z
			 M89.689,48.897l0.366,0.157c-0.254,0.28-0.521,0.552-0.787,0.822L89.689,48.897z"/>
		<polygon points="20.858,12.175 19.251,13.782 17.643,12.175 16.889,12.928 18.497,14.536 16.889,16.143 17.643,16.897 
			19.251,15.29 20.858,16.897 21.612,16.143 20.005,14.536 21.612,12.928 		"/>
		<polygon points="30.858,12.175 29.251,13.782 27.643,12.175 26.889,12.928 28.497,14.536 26.889,16.143 27.643,16.897 
			29.251,15.29 30.858,16.897 31.612,16.143 30.005,14.536 31.612,12.928 		"/>
		<polygon points="37.643,16.897 39.251,15.29 40.858,16.897 41.612,16.143 40.005,14.536 41.612,12.928 40.858,12.175 
			39.251,13.782 37.643,12.175 36.889,12.928 38.497,14.536 36.889,16.143 		"/>
		<polygon points="12.921,25.147 14.528,23.54 16.136,25.147 16.889,24.393 15.282,22.786 16.889,21.178 16.136,20.425 
			14.528,22.032 12.921,20.425 12.167,21.178 13.774,22.786 12.167,24.393 		"/>
		<polygon points="22.921,25.147 24.528,23.54 26.136,25.147 26.889,24.393 25.282,22.786 26.889,21.178 26.136,20.425 
			24.528,22.032 22.921,20.425 22.167,21.178 23.774,22.786 22.167,24.393 		"/>
		<polygon points="32.921,25.147 34.528,23.54 36.136,25.147 36.889,24.393 35.282,22.786 36.889,21.178 36.136,20.425 
			34.528,22.032 32.921,20.425 32.167,21.178 33.774,22.786 32.167,24.393 		"/>
		<polygon points="10.858,28.671 9.251,30.278 7.643,28.671 6.889,29.425 8.497,31.032 6.889,32.639 7.643,33.393 9.251,31.786 
			10.858,33.393 11.612,32.639 10.005,31.032 11.612,29.425 		"/>
		<polygon points="20.858,28.671 19.251,30.278 17.643,28.671 16.889,29.425 18.497,31.032 16.889,32.639 17.643,33.393 
			19.251,31.786 20.858,33.393 21.612,32.639 20.005,31.032 21.612,29.425 		"/>
		<polygon points="20.858,45.292 19.251,46.899 17.643,45.292 16.889,46.046 18.497,47.653 16.889,49.262 17.643,50.014 
			19.251,48.407 20.858,50.014 21.612,49.262 20.005,47.653 21.612,46.046 		"/>
		<polygon points="30.858,28.671 29.251,30.278 27.643,28.671 26.889,29.425 28.497,31.032 26.889,32.639 27.643,33.393 
			29.251,31.786 30.858,33.393 31.612,32.639 30.005,31.032 31.612,29.425 		"/>
		<polygon points="15.282,39.032 16.889,37.425 16.136,36.671 14.528,38.278 12.921,36.671 12.167,37.425 13.774,39.032 
			12.167,40.639 12.921,41.393 14.528,39.786 16.136,41.393 16.889,40.639 		"/>
		<polygon points="25.282,39.032 26.889,37.425 26.136,36.671 24.528,38.278 22.921,36.671 22.167,37.425 23.774,39.032 
			22.167,40.639 22.921,41.393 24.528,39.786 26.136,41.393 26.889,40.639 		"/>
		<polygon points="36.889,40.639 35.282,39.032 36.889,37.425 36.136,36.671 34.528,38.278 32.921,36.671 32.167,37.425 
			33.774,39.032 32.167,40.639 32.921,41.393 34.528,39.786 36.136,41.393 		"/>
		<polygon points="15.858,52.48 14.251,54.088 12.643,52.48 11.889,53.234 13.497,54.842 11.889,56.449 12.643,57.203 
			14.251,55.596 15.858,57.203 16.612,56.449 15.005,54.842 16.612,53.234 		"/>
		<polygon points="25.858,52.48 24.251,54.088 22.643,52.48 21.889,53.234 23.497,54.842 21.889,56.449 22.643,57.203 
			24.251,55.596 25.858,57.203 26.612,56.449 25.005,54.842 26.612,53.234 		"/>
		<polygon points="10.858,45.292 9.251,46.899 7.643,45.292 6.889,46.046 8.497,47.653 6.889,49.262 7.643,50.014 9.251,48.407 
			10.858,50.014 11.612,49.262 10.005,47.653 11.612,46.046 		"/>
		<polygon points="30.858,45.292 29.251,46.899 27.643,45.292 26.889,46.046 28.497,47.653 26.889,49.262 27.643,50.014 
			29.251,48.407 30.858,50.014 31.612,49.262 30.005,47.653 31.612,46.046 		"/>
		<polygon points="41.831,85.062 40.806,84.768 40.178,86.952 37.994,86.325 37.7,87.35 39.885,87.977 39.257,90.162 40.282,90.457 
			40.909,88.271 43.095,88.899 43.388,87.875 41.204,87.247 		"/>
		<polygon points="38.545,79.126 36.359,78.499 36.987,76.313 35.963,76.02 35.335,78.204 33.15,77.577 32.855,78.602 35.04,79.229 
			34.413,81.414 35.437,81.708 36.065,79.523 38.25,80.151 		"/>
		<polygon points="33.7,70.379 31.515,69.751 32.142,67.565 31.118,67.271 30.49,69.456 28.305,68.829 28.011,69.854 30.196,70.481 
			29.568,72.666 30.594,72.96 31.22,70.775 33.406,71.402 		"/>
		<polygon points="51.336,85.197 50.311,84.903 49.684,87.088 47.499,86.46 47.205,87.485 49.389,88.112 48.762,90.299 
			49.787,90.592 50.415,88.407 52.598,89.034 52.893,88.01 50.708,87.383 		"/>
		<polygon points="48.05,79.262 45.865,78.635 46.492,76.449 45.468,76.154 44.84,78.34 42.655,77.713 42.36,78.736 44.546,79.364 
			43.918,81.549 44.943,81.844 45.57,79.658 47.755,80.286 		"/>
		<polygon points="39.074,72.801 40.098,73.096 40.726,70.91 42.911,71.538 43.205,70.512 41.02,69.887 41.648,67.7 40.623,67.406 
			39.996,69.592 37.81,68.965 37.516,69.988 39.701,70.616 		"/>
		<polygon points="61.107,85.819 60.082,85.525 59.455,87.71 57.268,87.082 56.975,88.107 59.16,88.734 58.533,90.92 59.557,91.215 
			60.184,89.029 62.37,89.656 62.664,88.633 60.479,88.004 		"/>
		<polygon points="57.82,79.885 55.635,79.256 56.262,77.071 55.238,76.776 54.61,78.963 52.426,78.334 52.131,79.358 
			54.316,79.986 53.688,82.172 54.713,82.467 55.34,80.28 57.525,80.908 		"/>
		<polygon points="66.672,71.307 68.856,71.934 68.229,74.12 69.254,74.414 69.881,72.229 72.066,72.856 72.36,71.832 
			70.176,71.204 70.803,69.02 69.778,68.725 69.151,70.91 66.965,70.282 		"/>
		<polygon points="48.845,73.424 49.869,73.719 50.496,71.532 52.68,72.16 52.975,71.137 50.791,70.508 51.418,68.323 
			50.393,68.028 49.765,70.215 47.581,69.586 47.287,70.61 49.471,71.238 		"/>
		<polygon points="70.393,86.075 69.368,85.781 68.741,87.967 66.555,87.34 66.26,88.363 68.446,88.991 67.819,91.176 
			68.844,91.471 69.471,89.285 71.656,89.913 71.951,88.887 69.764,88.262 		"/>
		<polygon points="67.106,80.139 64.922,79.512 65.549,77.327 64.524,77.033 63.895,79.219 61.711,78.59 61.418,79.615 
			63.602,80.242 62.973,82.428 64,82.721 64.627,80.537 66.811,81.164 		"/>
		<polygon points="56.573,70.866 58.758,71.494 58.131,73.678 59.155,73.973 59.783,71.788 61.967,72.416 62.26,71.391 
			60.077,70.764 60.705,68.579 59.678,68.284 59.053,70.471 56.868,69.842 		"/>
		<polygon points="53.286,64.93 54.311,65.225 54.938,63.04 57.124,63.668 57.418,62.643 55.233,62.016 55.86,59.831 54.836,59.536 
			54.208,61.721 52.023,61.094 51.729,62.118 53.914,62.746 		"/>
		<polygon points="79.512,69.911 78.488,69.617 77.861,71.803 75.676,71.176 75.381,72.199 77.566,72.827 76.939,75.012 
			77.963,75.307 78.592,73.121 80.776,73.749 81.07,72.723 78.885,72.096 		"/>
		<polygon points="72.094,66.264 73.12,66.557 73.747,64.373 75.93,65.001 76.225,63.975 74.042,63.348 74.668,61.163 
			73.643,60.869 73.016,63.053 70.832,62.428 70.537,63.451 72.721,64.079 		"/>
		<polygon points="75.647,77.768 74.623,77.473 73.995,79.658 71.809,79.03 71.514,80.055 73.701,80.682 73.073,82.868 
			74.098,83.162 74.725,80.977 76.91,81.604 77.205,80.58 75.018,79.952 		"/>
		<polygon points="63.385,65.371 64.41,65.666 65.037,63.48 67.221,64.108 67.516,63.083 65.331,62.456 65.958,60.27 64.934,59.977 
			64.305,62.161 62.122,61.534 61.828,62.559 64.012,63.186 		"/>
		<polygon points="81.704,60.869 81.076,63.053 78.891,62.428 78.596,63.451 80.782,64.079 80.154,66.264 81.178,66.559 
			81.805,64.373 83.991,65.001 84.286,63.975 82.1,63.348 82.727,61.163 		"/>
		<polygon points="60.174,9.875 61.154,10.295 62.049,8.205 64.137,9.1 64.557,8.12 62.469,7.225 63.364,5.136 62.385,4.716 
			61.489,6.805 59.399,5.91 58.979,6.89 61.069,7.785 		"/>
		<polygon points="54.08,8.851 53.1,8.431 52.205,10.521 50.115,9.626 49.695,10.606 51.785,11.501 50.89,13.591 51.87,14.011 
			52.764,11.921 54.855,12.816 55.275,11.836 53.184,10.941 		"/>
		<polygon points="76.908,12.064 77.887,12.484 78.783,10.394 80.873,11.289 81.293,10.309 79.203,9.414 80.098,7.324 79.118,6.904 
			78.223,8.994 76.133,8.099 75.713,9.079 77.803,9.974 		"/>
		<polygon points="67.624,15.779 68.604,16.199 69.5,14.11 71.588,15.005 72.008,14.025 69.918,13.13 70.814,11.04 69.833,10.62 
			68.939,12.71 66.848,11.815 66.428,12.795 68.518,13.69 		"/>
		<polygon points="61.53,14.756 60.551,14.336 59.655,16.426 57.565,15.53 57.145,16.511 59.235,17.406 58.34,19.495 59.32,19.915 
			60.215,17.826 62.303,18.72 62.723,17.74 60.635,16.845 		"/>
		<polygon points="84.872,17.759 85.85,18.178 86.747,16.089 88.836,16.984 89.256,16.004 87.167,15.109 88.061,13.019 
			87.082,12.599 86.186,14.689 84.096,13.794 83.678,14.774 85.766,15.669 		"/>
		<polygon points="75.588,21.474 76.568,21.894 77.463,19.804 79.553,20.7 79.971,19.72 77.883,18.825 78.777,16.735 77.797,16.315 
			76.902,18.405 74.813,17.51 74.393,18.49 76.482,19.385 		"/>
		<polygon points="84.954,32.166 83.973,31.746 83.078,33.836 80.989,32.941 80.569,33.921 82.658,34.816 81.762,36.906 
			82.744,37.325 83.637,35.236 85.727,36.131 86.148,35.151 84.057,34.256 		"/>
		<polygon points="69.494,20.451 68.512,20.031 67.619,22.121 65.529,21.225 65.109,22.206 67.199,23.1 66.303,25.19 67.284,25.61 
			68.178,23.52 70.268,24.416 70.688,23.435 68.598,22.54 		"/>
		<polygon points="85.24,24.497 86.135,22.407 85.155,21.988 84.26,24.077 82.17,23.182 81.75,24.162 83.84,25.057 82.945,27.147 
			83.924,27.566 84.82,25.477 86.91,26.372 87.33,25.392 		"/>
		<polygon points="76.85,26.123 75.871,25.703 74.975,27.793 72.885,26.898 72.467,27.878 74.555,28.773 73.661,30.862 
			74.639,31.282 75.536,29.193 77.625,30.088 78.045,29.107 75.956,28.213 		"/>
		<polygon points="67.566,29.839 66.586,29.419 65.691,31.509 63.6,30.613 63.182,31.594 65.27,32.489 64.377,34.578 65.357,34.998 
			66.252,32.908 68.342,33.803 68.76,32.823 66.672,31.928 		"/>
		<polygon points="92.266,36.982 91.287,36.562 90.391,38.652 88.301,37.757 87.883,38.737 89.971,39.632 89.077,41.721 
			90.055,42.141 90.952,40.052 93.041,40.947 93.461,39.967 91.372,39.072 		"/>
		<polygon points="82.982,40.698 82.002,40.278 81.107,42.368 79.016,41.472 78.596,42.453 80.686,43.347 79.793,45.438 
			80.772,45.857 81.668,43.767 83.758,44.663 84.178,43.682 82.088,42.787 		"/>
		<polygon points="91.047,33.19 92.027,33.609 92.922,31.52 95.012,32.415 95.432,31.435 93.342,30.54 94.238,28.45 93.258,28.031 
			92.362,30.12 90.273,29.225 89.852,30.205 91.943,31.1 		"/>
		<polygon points="75.67,35.882 74.689,35.462 73.795,37.552 71.705,36.656 71.285,37.636 73.375,38.532 72.479,40.621 
			73.459,41.041 74.354,38.951 76.444,39.846 76.864,38.866 74.774,37.971 		"/>
	</g>
</g>
<g>
</g>
<g>
</g>
<g>
</g>
<g>
</g>
<g>
</g>
<g>
</g>
<g>
</g>
<g>
</g>
<g>
</g>
<g>
</g>
<g>
</g>
<g>
</g>
<g>
</g>
<g>
</g>
<g>
</g>
</svg>
