<?xml version="1.0" encoding="iso-8859-1"?>
<!-- Generator: Adobe Illustrator 18.0.0, SVG Export Plug-In . SVG Version: 6.00 Build 0)  -->
<!DOCTYPE svg PUBLIC "-//W3C//DTD SVG 1.1//EN" "http://www.w3.org/Graphics/SVG/1.1/DTD/svg11.dtd">
<svg version="1.1" id="Capa_1" xmlns="http://www.w3.org/2000/svg" xmlns:xlink="http://www.w3.org/1999/xlink" x="0px" y="0px"
	 viewBox="0 0 400 400" style="enable-background:new 0 0 400 400;" xml:space="preserve">
<g>
	<path d="M384.375,285.229H95.835V42.881c0-8.629-6.996-15.625-15.625-15.625c-8.628,0-15.625,6.996-15.625,15.625v242.349h-48.96
		C6.997,285.229,0,292.226,0,300.854c0,8.628,6.997,15.625,15.625,15.625h48.96v40.64c0,8.631,6.997,15.625,15.625,15.625
		c8.629,0,15.625-6.994,15.625-15.625v-40.64h288.54c8.628,0,15.625-6.997,15.625-15.625
		C400,292.226,393.003,285.229,384.375,285.229z"/>
	<path d="M128,249.096c0,2.761,2.238,5,5,5h43c2.762,0,5-2.239,5-5V123.121L128,164.5V249.096z"/>
	<path d="M273,254.096h43c2.762,0,5-2.239,5-5V104.73l-53,41.41v102.955C268,251.857,270.238,254.096,273,254.096z"/>
	<path d="M231.064,164.333c-7.227-1.135-13.724-5.261-17.824-11.316L198,130.521v118.575c0,2.761,2.238,5,5,5h43
		c2.762,0,5-2.239,5-5v-89.705c-4.553,3.389-10.139,5.264-15.821,5.264C233.808,164.654,232.424,164.546,231.064,164.333z"/>
	<path d="M125.181,149.655c2.872,0,5.623-1.066,7.746-3.003l58.183-53.048l34.549,51c1.779,2.628,4.599,4.418,7.732,4.91
		c0.592,0.093,1.192,0.14,1.788,0.14c2.553,0,5.067-0.865,7.079-2.436l88.668-69.278c4.996-3.903,5.886-11.145,1.982-16.143
		c-2.196-2.809-5.501-4.42-9.068-4.42c-2.55,0-5.063,0.866-7.074,2.438l-78.969,61.7l-35.098-51.811
		c-1.873-2.766-4.85-4.576-8.166-4.97c-0.448-0.054-0.906-0.081-1.357-0.081c-2.872,0-5.623,1.066-7.746,3.004l-67.999,61.999
		c-2.27,2.069-3.599,4.898-3.739,7.968c-0.143,3.068,0.92,6.008,2.989,8.278C118.854,148.287,121.952,149.655,125.181,149.655z"/>
</g>
<g>
</g>
<g>
</g>
<g>
</g>
<g>
</g>
<g>
</g>
<g>
</g>
<g>
</g>
<g>
</g>
<g>
</g>
<g>
</g>
<g>
</g>
<g>
</g>
<g>
</g>
<g>
</g>
<g>
</g>
</svg>
