<?xml version="1.0" encoding="iso-8859-1"?>
<!-- Generator: Adobe Illustrator 18.0.0, SVG Export Plug-In . SVG Version: 6.00 Build 0)  -->
<!DOCTYPE svg PUBLIC "-//W3C//DTD SVG 1.1//EN" "http://www.w3.org/Graphics/SVG/1.1/DTD/svg11.dtd">
<svg version="1.1" id="Capa_1" xmlns="http://www.w3.org/2000/svg" xmlns:xlink="http://www.w3.org/1999/xlink" x="0px" y="0px"
	 viewBox="0 0 340 340" style="enable-background:new 0 0 340 340;" xml:space="preserve">
<g>
	<path d="M175.768,249.376c-7.777,0-15.315-1.011-22.498-2.902l-25.371,63.008c15.085,4.867,31.167,7.507,47.868,7.507
		c4.032,0,8.026-0.161,11.979-0.457l26.583,17.697l18.731-28.134c18.514-7.329,35.29-18.102,49.531-31.538l-47.842-47.838
		C219.133,240.801,198.455,249.376,175.768,249.376z M228.058,293.457l-3.953,1.565l-2.357,3.541l-11.199,16.822l-15.269-10.169
		l-3.89-2.588l-4.659,0.35c-3.707,0.278-7.395,0.421-10.963,0.421c-9.978,0-19.861-1.035-29.527-3.077l15.432-38.326
		c4.658,0.645,9.369,0.971,14.095,0.971c20.844,0,40.989-6.352,57.915-18.094l28.921,28.919
		C252.075,281.938,240.502,288.532,228.058,293.457z"/>
	<path d="M87.67,161.28c0-45.96,35.187-83.687,80.091-87.735V5.772C99.095,9.25,42.174,57.213,25.219,121.413L0,145.954
		l20.154,20.718c2.088,61.315,39.632,113.633,92.773,137.102l25.284-62.785C108.341,226.884,87.67,196.5,87.67,161.28z"/>
	<path d="M340,90.947l-33.504-14.294c-26.39-40.684-71.258-68.274-122.718-70.882v67.773c44.899,4.049,80.088,41.775,80.088,87.735
		c0,20.196-6.804,38.805-18.236,53.669l48.042,48.035c23.557-27.279,37.807-62.829,37.807-101.704c0-13.422-1.707-26.444-4.9-38.871
		L340,90.947z M197.37,20.802c5.198,0.798,10.346,1.893,15.419,3.26l-15.419,15.42V20.802z M197.37,61.876V55.5l27.571-27.572
		c6.788,2.498,13.387,5.504,19.711,9.011l-30.19,30.188C208.999,64.909,203.29,63.138,197.37,61.876z M225.302,72.305l29.296-29.294
		c5.857,3.918,11.422,8.277,16.644,13.02L242.752,84.52C237.414,79.869,231.571,75.77,225.302,72.305z M250.852,92.437
		l28.467-28.466c5.158,5.482,9.881,11.368,14.108,17.591l-29.211,29.21C260.458,104.154,255.963,98.014,250.852,92.437z
		 M292.402,242.494l-11.519-11.518l31.874-31.874C308.489,214.567,301.625,229.254,292.402,242.494z M316.745,179.099l-43.87,43.87
		l-9.693-9.693c1.775-2.966,3.389-6.011,4.84-9.119l49.686-49.686c0.108,2.266,0.179,4.535,0.179,6.81
		C317.887,167.265,317.488,173.215,316.745,179.099z M277.363,156.913l35.043-35.043l1.009,3.923
		c1.192,4.643,2.137,9.349,2.855,14.096l-40.629,40.63c1.195-6.277,1.816-12.707,1.816-19.238
		C277.458,159.816,277.424,158.361,277.363,156.913z M275.744,142.515c-1.342-7.304-3.456-14.331-6.255-20.995l32.158-32.158
		l19.101,8.149L275.744,142.515z"/>
</g>
<g>
</g>
<g>
</g>
<g>
</g>
<g>
</g>
<g>
</g>
<g>
</g>
<g>
</g>
<g>
</g>
<g>
</g>
<g>
</g>
<g>
</g>
<g>
</g>
<g>
</g>
<g>
</g>
<g>
</g>
</svg>
