<?xml version="1.0" encoding="iso-8859-1"?>
<!-- Generator: Adobe Illustrator 16.0.0, SVG Export Plug-In . SVG Version: 6.00 Build 0)  -->
<!DOCTYPE svg PUBLIC "-//W3C//DTD SVG 1.1//EN" "http://www.w3.org/Graphics/SVG/1.1/DTD/svg11.dtd">
<svg version="1.1" id="Capa_1" xmlns="http://www.w3.org/2000/svg" xmlns:xlink="http://www.w3.org/1999/xlink" x="0px" y="0px"
	 width="94.39px" height="94.39px" viewBox="0 0 94.39 94.39" style="enable-background:new 0 0 94.39 94.39;" xml:space="preserve"
	>
<g>
	<g>
		<path d="M92.889,0.669H7.646C7.458,0.592,7.253,0.548,7.037,0.548c-0.895,0-1.621,0.726-1.621,1.621v5.426H3.5
			c-1.93,0-3.5,1.57-3.5,3.5v12.437c0,1.93,1.57,3.5,3.5,3.5h1.916V63.16H3.5c-1.93,0-3.5,1.569-3.5,3.5v12.436
			c0,1.93,1.57,3.5,3.5,3.5h1.916v1.5c0,0.216,0.044,0.421,0.121,0.609v3.316c0,0.829,0.671,1.5,1.5,1.5H92.89
			c0.829,0,1.5-0.671,1.5-1.5V2.169C94.389,1.34,93.718,0.669,92.889,0.669z M3.5,24.032c-0.276,0-0.5-0.224-0.5-0.5V11.095
			c0-0.276,0.224-0.5,0.5-0.5h1.916v13.437H3.5z M3.5,79.595c-0.276,0-0.5-0.225-0.5-0.5V66.658c0-0.275,0.224-0.5,0.5-0.5h1.916
			v13.438H3.5z M91.389,86.521H8.537v-1.816c0.077-0.188,0.121-0.394,0.121-0.609V3.669H91.39L91.389,86.521L91.389,86.521z"/>
		<path d="M36.224,33.339c-2.672,3.146-4.294,7.211-4.294,11.653s1.622,8.507,4.294,11.653l-5.88,5.88
			c-0.632,0.633-0.632,1.659,0,2.293c0.316,0.315,0.731,0.475,1.146,0.475s0.83-0.158,1.146-0.475l5.893-5.894
			c3.114,2.562,7.097,4.101,11.434,4.101c4.284,0,8.219-1.508,11.316-4.012l6.01,6.01c0.316,0.316,0.73,0.475,1.146,0.475
			c0.414,0,0.83-0.157,1.146-0.475c0.632-0.633,0.632-1.658,0-2.292l-5.978-5.978c2.729-3.161,4.393-7.268,4.393-11.761
			c0-4.389-1.58-8.414-4.196-11.545l5.782-5.782c0.632-0.633,0.632-1.659,0-2.292c-0.633-0.633-1.659-0.633-2.292,0l-5.782,5.782
			c-3.131-2.616-7.156-4.196-11.545-4.196c-4.337,0-8.32,1.54-11.434,4.101l-5.892-5.892c-0.633-0.633-1.659-0.633-2.292,0
			c-0.632,0.633-0.632,1.659,0,2.292L36.224,33.339z M49.963,59.783c-3.442,0-6.606-1.191-9.122-3.17l5.045-5.045
			c1.186,0.738,2.58,1.172,4.077,1.172c1.443,0,2.791-0.403,3.949-1.094l5.055,5.055C56.469,58.625,53.352,59.783,49.963,59.783z
			 M45.456,44.992c0-0.704,0.176-1.362,0.465-1.956l1.956,1.956l-1.956,1.956C45.632,46.354,45.456,45.696,45.456,44.992z
			 M50.066,42.596l-1.781-1.78c0.52-0.209,1.082-0.331,1.677-0.331c0.649,0,1.265,0.144,1.821,0.393L50.066,42.596z M51.482,49.216
			c-0.477,0.172-0.983,0.281-1.52,0.281c-0.593,0-1.157-0.121-1.677-0.33l1.573-1.574L51.482,49.216z M52.048,45.198l2.028-2.028
			c0.248,0.559,0.393,1.173,0.393,1.822c0,0.758-0.206,1.462-0.538,2.089L52.048,45.198z M64.755,44.992
			c0,3.601-1.296,6.902-3.442,9.47l-5.019-5.02c0.89-1.261,1.417-2.793,1.417-4.451c0-1.551-0.462-2.993-1.25-4.206l5.035-5.035
			C63.529,38.286,64.755,41.497,64.755,44.992z M49.963,30.2c3.495,0,6.706,1.225,9.24,3.26l-5.035,5.035
			c-1.212-0.788-2.655-1.25-4.206-1.25c-1.497,0-2.891,0.434-4.077,1.172l-5.045-5.045C43.357,31.392,46.52,30.2,49.963,30.2z
			 M43.544,40.658c-0.838,1.238-1.329,2.729-1.329,4.333s0.49,3.096,1.329,4.333l-5.024,5.025c-2.09-2.552-3.348-5.811-3.348-9.358
			c0-3.547,1.258-6.807,3.348-9.358L43.544,40.658z"/>
		<rect x="11.63" y="91.095" width="18.24" height="2.746"/>
		<rect x="71.63" y="91.095" width="18.24" height="2.746"/>
	</g>
</g>
<g>
</g>
<g>
</g>
<g>
</g>
<g>
</g>
<g>
</g>
<g>
</g>
<g>
</g>
<g>
</g>
<g>
</g>
<g>
</g>
<g>
</g>
<g>
</g>
<g>
</g>
<g>
</g>
<g>
</g>
</svg>
