<?xml version="1.0" encoding="iso-8859-1"?>
<!-- Generator: Adobe Illustrator 16.0.0, SVG Export Plug-In . SVG Version: 6.00 Build 0)  -->
<!DOCTYPE svg PUBLIC "-//W3C//DTD SVG 1.1//EN" "http://www.w3.org/Graphics/SVG/1.1/DTD/svg11.dtd">
<svg version="1.1" id="Capa_1" xmlns="http://www.w3.org/2000/svg" xmlns:xlink="http://www.w3.org/1999/xlink" x="0px" y="0px"
	 width="103.927px" height="103.928px" viewBox="0 0 103.927 103.928" style="enable-background:new 0 0 103.927 103.928;"
	 xml:space="preserve">
<g>
	<g>
		<path d="M57.09,37.882c0.15,0.056,0.306,0.082,0.458,0.082c0.549,0,1.062-0.339,1.262-0.884L70.54,4.853
			c0.254-0.697-0.105-1.466-0.803-1.72c-0.691-0.252-1.466,0.105-1.72,0.802L56.289,36.162
			C56.033,36.859,56.394,37.629,57.09,37.882z"/>
		<path d="M61.597,40.485c0.252,0.211,0.558,0.314,0.861,0.314c0.385,0,0.764-0.163,1.028-0.479l22.045-26.272
			c0.477-0.568,0.401-1.415-0.166-1.891c-0.569-0.477-1.414-0.402-1.891,0.165L61.431,38.594
			C60.956,39.162,61.029,40.008,61.597,40.485z"/>
		<path d="M64.943,44.472c0.248,0.431,0.699,0.671,1.163,0.671c0.229,0,0.458-0.058,0.67-0.18l29.7-17.148
			c0.643-0.371,0.861-1.191,0.491-1.833c-0.37-0.643-1.192-0.862-1.833-0.491l-29.7,17.148
			C64.792,43.009,64.572,43.83,64.943,44.472z"/>
		<path d="M66.722,49.363c0.115,0.651,0.682,1.109,1.32,1.109c0.078,0,0.155-0.007,0.234-0.021l33.773-5.956
			c0.729-0.128,1.217-0.825,1.089-1.555c-0.13-0.729-0.832-1.215-1.556-1.088L67.81,47.808
			C67.082,47.937,66.594,48.633,66.722,49.363z"/>
		<path d="M102.051,59.432l-33.773-5.953c-0.732-0.127-1.426,0.357-1.556,1.088c-0.128,0.729,0.359,1.426,1.089,1.555l33.773,5.953
			c0.079,0.015,0.156,0.021,0.234,0.021c0.64,0,1.205-0.458,1.32-1.109C103.268,60.257,102.78,59.561,102.051,59.432z"/>
		<path d="M96.476,76.113l-29.7-17.146c-0.641-0.371-1.462-0.15-1.833,0.491c-0.37,0.642-0.15,1.462,0.491,1.833l29.7,17.146
			c0.211,0.123,0.44,0.18,0.67,0.18c0.463,0,0.914-0.24,1.163-0.67C97.337,77.304,97.118,76.484,96.476,76.113z"/>
		<path d="M63.487,63.609c-0.476-0.566-1.322-0.642-1.891-0.164c-0.567,0.476-0.642,1.322-0.166,1.891l22.045,26.27
			c0.266,0.316,0.646,0.479,1.029,0.479c0.305,0,0.61-0.103,0.86-0.313c0.568-0.477,0.644-1.324,0.166-1.892L63.487,63.609z"/>
		<path d="M58.81,66.849c-0.254-0.696-1.026-1.055-1.72-0.802c-0.697,0.254-1.058,1.023-0.802,1.72l11.729,32.226
			c0.198,0.546,0.713,0.884,1.261,0.884c0.153,0,0.309-0.026,0.459-0.081c0.697-0.254,1.058-1.023,0.803-1.721L58.81,66.849z"/>
		<path d="M51.964,66.949c-0.741,0-1.342,0.602-1.342,1.343v34.294c0,0.74,0.602,1.342,1.343,1.342s1.342-0.601,1.342-1.342
			l-0.001-34.294C53.306,67.551,52.705,66.949,51.964,66.949z"/>
		<path d="M46.838,66.047c-0.692-0.253-1.466,0.105-1.72,0.802L33.39,99.074c-0.254,0.697,0.106,1.467,0.803,1.721
			c0.15,0.055,0.306,0.081,0.459,0.081c0.547,0,1.063-0.338,1.26-0.884l11.729-32.226C47.895,67.07,47.534,66.3,46.838,66.047z"/>
		<path d="M42.332,63.443c-0.569-0.477-1.416-0.4-1.891,0.166L18.397,89.88c-0.477,0.567-0.402,1.414,0.166,1.892
			c0.251,0.211,0.557,0.313,0.861,0.313c0.383,0,0.764-0.163,1.029-0.479l22.043-26.271C42.973,64.767,42.899,63.921,42.332,63.443z
			"/>
		<path d="M38.985,59.457c-0.371-0.643-1.193-0.861-1.833-0.491L7.453,76.113c-0.642,0.371-0.861,1.19-0.491,1.832
			c0.248,0.432,0.7,0.672,1.163,0.672c0.228,0,0.458-0.057,0.67-0.18L38.494,61.29C39.136,60.92,39.356,60.099,38.985,59.457z"/>
		<path d="M37.207,54.566c-0.13-0.73-0.83-1.213-1.556-1.088L1.877,59.434c-0.729,0.129-1.217,0.825-1.089,1.555
			c0.115,0.65,0.682,1.109,1.32,1.109c0.078,0,0.156-0.007,0.235-0.021l33.773-5.955C36.847,55.992,37.334,55.297,37.207,54.566z"/>
		<path d="M1.877,44.496l33.773,5.955c0.079,0.014,0.157,0.021,0.235,0.021c0.639,0,1.205-0.458,1.32-1.109
			c0.128-0.729-0.359-1.426-1.089-1.554L2.344,41.853c-0.73-0.129-1.426,0.358-1.556,1.088C0.66,43.671,1.148,44.367,1.877,44.496z"
			/>
		<path d="M7.452,27.816l29.7,17.147c0.212,0.122,0.442,0.18,0.67,0.18c0.463,0,0.915-0.241,1.163-0.671
			c0.37-0.642,0.15-1.462-0.491-1.833l-29.7-17.147c-0.641-0.37-1.463-0.151-1.833,0.491C6.591,26.624,6.811,27.445,7.452,27.816z"
			/>
		<path d="M18.396,14.048l22.045,26.271c0.266,0.316,0.645,0.479,1.029,0.479c0.304,0,0.61-0.103,0.861-0.314
			c0.567-0.477,0.642-1.323,0.166-1.891L20.452,12.322c-0.476-0.566-1.323-0.643-1.891-0.165c-0.283,0.238-0.444,0.569-0.475,0.911
			C18.059,13.411,18.158,13.764,18.396,14.048z"/>
		<path d="M33.39,4.854L45.119,37.08c0.199,0.545,0.712,0.884,1.261,0.884c0.151,0,0.307-0.026,0.458-0.082
			c0.696-0.254,1.056-1.023,0.802-1.72L35.911,3.936c-0.254-0.696-1.024-1.057-1.72-0.802c-0.522,0.19-0.855,0.671-0.882,1.193
			C33.301,4.501,33.325,4.68,33.39,4.854z"/>
		<path d="M51.964,36.979c0.74,0,1.342-0.601,1.342-1.342V1.342l0,0C53.306,0.601,52.705,0,51.964,0
			c-0.741,0-1.342,0.601-1.342,1.342l0,0v34.295C50.623,36.378,51.223,36.979,51.964,36.979z"/>
		<path d="M51.964,41.453c-5.796,0-10.512,4.715-10.512,10.511s4.716,10.513,10.512,10.513s10.512-4.717,10.512-10.513
			S57.76,41.453,51.964,41.453z M51.964,59.792c-4.316,0-7.827-3.511-7.827-7.828c0-4.316,3.511-7.827,7.827-7.827
			c4.315,0,7.827,3.511,7.827,7.827C59.792,56.279,56.28,59.792,51.964,59.792z"/>
	</g>
</g>
<g>
</g>
<g>
</g>
<g>
</g>
<g>
</g>
<g>
</g>
<g>
</g>
<g>
</g>
<g>
</g>
<g>
</g>
<g>
</g>
<g>
</g>
<g>
</g>
<g>
</g>
<g>
</g>
<g>
</g>
</svg>
