<?xml version="1.0" encoding="iso-8859-1"?>
<!-- Generator: Adobe Illustrator 16.0.0, SVG Export Plug-In . SVG Version: 6.00 Build 0)  -->
<!DOCTYPE svg PUBLIC "-//W3C//DTD SVG 1.1//EN" "http://www.w3.org/Graphics/SVG/1.1/DTD/svg11.dtd">
<svg version="1.1" id="Capa_1" xmlns="http://www.w3.org/2000/svg" xmlns:xlink="http://www.w3.org/1999/xlink" x="0px" y="0px"
	 width="105.371px" height="105.37px" viewBox="0 0 105.371 105.37" style="enable-background:new 0 0 105.371 105.37;"
	 xml:space="preserve">
<g>
	<g>
		<path d="M80.685,28c0-15.439-12.561-28-28-28c-15.439,0-28,12.561-28,28c0,14.081,10.449,25.764,24,27.71v6.866
			c-1.958,1.298-3.25,3.52-3.25,6.044v29.5c0,4.004,3.246,7.25,7.25,7.25s7.25-3.246,7.25-7.25v-29.5
			c0-2.524-1.292-4.746-3.25-6.044V55.71C70.236,53.764,80.685,42.081,80.685,28z M52.685,48c-11.028,0-20-8.972-20-20
			s8.972-20,20-20c11.027,0,20,8.972,20,20S63.712,48,52.685,48z"/>
		<path d="M65.462,30.736c0,2.385,1.805,4.337,4.115,4.614c0.211-0.5,0.396-1.015,0.563-1.535c-0.004,0-0.008,0.001-0.013,0.001
			c-1.696,0-3.08-1.383-3.08-3.08c0-1.697,1.384-3.08,3.08-3.08c0.322,0,0.629,0.063,0.92,0.156c-0.006-0.559-0.03-1.113-0.084-1.66
			c-0.271-0.049-0.549-0.084-0.836-0.084C67.556,26.068,65.462,28.162,65.462,30.736z"/>
		<path d="M62.902,34.062c-1.838-3.994-0.094-8.721,3.898-10.561c1.14-0.524,2.339-0.748,3.514-0.72
			c-1.104-3.853-3.388-7.204-6.443-9.639c-0.121,0.033-0.24,0.069-0.356,0.123l-2.354,1.084c-1.158,0.535-1.668,1.912-1.135,3.07
			l0.855,1.857c-1.123,0.908-2.09,1.963-2.885,3.125l-1.92-0.709c-1.158-0.43-2.545,0.209-2.976,1.369l-0.896,2.43
			c-0.215,0.582-0.189,1.209,0.068,1.771c0.26,0.561,0.724,0.988,1.302,1.201l1.922,0.709c-0.152,1.4-0.104,2.83,0.162,4.252
			L53.8,34.278c-1.158,0.535-1.668,1.912-1.133,3.07l1.084,2.354c0.533,1.158,1.91,1.666,3.067,1.133l1.857-0.855
			c0.907,1.125,1.963,2.092,3.127,2.887l-0.677,1.825c2.765-1.508,5.105-3.688,6.826-6.312
			C65.798,37.766,63.914,36.257,62.902,34.062z"/>
	</g>
</g>
<g>
</g>
<g>
</g>
<g>
</g>
<g>
</g>
<g>
</g>
<g>
</g>
<g>
</g>
<g>
</g>
<g>
</g>
<g>
</g>
<g>
</g>
<g>
</g>
<g>
</g>
<g>
</g>
<g>
</g>
</svg>
