<?xml version="1.0" encoding="iso-8859-1"?>
<!-- Generator: Adobe Illustrator 16.0.0, SVG Export Plug-In . SVG Version: 6.00 Build 0)  -->
<!DOCTYPE svg PUBLIC "-//W3C//DTD SVG 1.1//EN" "http://www.w3.org/Graphics/SVG/1.1/DTD/svg11.dtd">
<svg version="1.1" id="Capa_1" xmlns="http://www.w3.org/2000/svg" xmlns:xlink="http://www.w3.org/1999/xlink" x="0px" y="0px"
	 width="104.635px" height="104.635px" viewBox="0 0 104.635 104.635" style="enable-background:new 0 0 104.635 104.635;"
	 xml:space="preserve">
<g>
	<g>
		<path d="M94.19,57.729l-4.938-1.822c0.391-3.597,0.263-7.266-0.416-10.914l4.769-2.197c2.976-1.369,4.28-4.904,2.909-7.884
			l-2.432-5.279c-2.431,2.347-5.729,3.799-9.367,3.799H69.151c2.292,2.167,4.221,4.794,5.622,7.834
			c1.537,3.338,2.283,6.836,2.33,10.288l-1.249-0.461c-0.307-0.113-0.63-0.17-0.961-0.17c-1.205,0-2.33,0.771-2.738,1.874
			l-0.314,0.852c-0.728-0.035-1.459-0.007-2.182,0.083l-0.379-0.823c-0.47-1.017-1.496-1.673-2.617-1.673
			c-0.418,0-0.822,0.088-1.203,0.264l-1.91,0.88c-1.44,0.665-2.074,2.378-1.411,3.819l0.379,0.823
			c-0.538,0.492-1.033,1.028-1.481,1.605l-0.849-0.314c-0.308-0.114-0.632-0.172-0.964-0.172c-1.204,0-2.329,0.771-2.738,1.875
			l-0.727,1.973c-0.268,0.719-0.237,1.5,0.086,2.208c0.324,0.699,0.9,1.229,1.615,1.491l0.854,0.315
			c-0.034,0.729-0.007,1.46,0.083,2.184l-0.821,0.378c-0.699,0.322-1.232,0.897-1.498,1.621c-0.267,0.722-0.234,1.503,0.086,2.197
			l0.881,1.913c0.469,1.017,1.496,1.674,2.617,1.674c0.129,0,0.256-0.024,0.383-0.042C47.811,80.21,34.1,74.566,28.564,62.556
			c-5.878-12.762-0.301-27.87,12.459-33.751c7.524-3.462,15.86-2.943,22.644,0.677c-0.022-0.182-0.057-0.36-0.057-0.548
			c0-2.481,2.02-4.5,4.5-4.5h9.506c-1.432-1.35-2.949-2.587-4.559-3.688l1.82-4.933c1.135-3.072-0.443-6.5-3.517-7.634l-6.239-2.305
			c-2.979-1.098-6.535,0.539-7.634,3.517l-1.819,4.935c-3.6-0.391-7.271-0.263-10.917,0.414l-2.196-4.765
			c-1.372-2.979-4.908-4.283-7.886-2.914l-6.041,2.783c-2.974,1.372-4.282,4.908-2.914,7.885l2.197,4.768
			c-2.884,2.332-5.366,5.04-7.41,8.027l-4.928-1.821C12.6,27.6,9.037,29.237,7.936,32.217l-2.302,6.242
			c-0.553,1.491-0.487,3.104,0.175,4.546c0.667,1.439,1.855,2.541,3.34,3.085l4.934,1.823c-0.39,3.596-0.265,7.268,0.417,10.916
			l-4.768,2.193c-2.978,1.372-4.284,4.91-2.912,7.882l2.392,5.196c0.962-0.218,1.958-0.343,2.984-0.343h6.185
			c-0.437-1.321-0.258-2.826,0.613-4.04c0.844-1.176,2.21-1.877,3.656-1.877c0.944,0,1.851,0.291,2.619,0.841l8.254,5.919
			c1.139,0.818,1.82,2.088,1.873,3.484c0.058,1.385-0.521,2.704-1.589,3.607l-4.381,3.699l-0.967,2.614
			c-0.552,1.49-0.489,3.1,0.176,4.544c0.661,1.441,1.851,2.541,3.34,3.09l6.239,2.305c1.49,0.551,3.105,0.489,4.544-0.176
			c1.444-0.664,2.541-1.854,3.091-3.337l1.819-4.936c3.597,0.388,7.268,0.263,10.919-0.417l2.19,4.768
			c1.375,2.977,4.91,4.283,7.886,2.914l6.043-2.786c2.979-1.372,4.283-4.908,2.912-7.885l-1.926-4.177
			c0.457,0.03,0.922-0.031,1.354-0.23l1.91-0.881c0.698-0.322,1.23-0.896,1.498-1.619c0.266-0.722,0.234-1.503-0.086-2.201
			l-0.152-0.329c0.556-0.641,1.088-1.298,1.596-1.973l0.511,0.188c0.718,0.266,1.517,0.231,2.198-0.085
			c0.307-0.139,0.572-0.335,0.809-0.563l2.438,0.901c1.489,0.552,3.104,0.485,4.544-0.182c1.441-0.659,2.537-1.851,3.09-3.335
			l2.303-6.242C98.837,62.289,97.261,58.864,94.19,57.729z M68.284,71.171c-0.853-0.553-1.554-1.338-1.992-2.293
			c-1.262-2.736-0.062-5.989,2.676-7.25c0.725-0.333,1.492-0.502,2.281-0.502c1.33,0,2.59,0.486,3.564,1.323
			C73.312,65.75,71.105,68.738,68.284,71.171z M75.593,60.544c-1.246-0.895-2.754-1.418-4.344-1.418
			c-1.08,0-2.129,0.229-3.119,0.686c-3.736,1.723-5.377,6.166-3.654,9.903c0.506,1.099,1.273,2.022,2.195,2.743
			c-0.971,0.707-2.002,1.352-3.09,1.927c-0.295-0.291-0.59-0.585-0.851-0.909l-0.487-0.604l-2.22,1.019
			c-0.428,0.202-0.97-0.006-1.165-0.43l-0.881-1.914c-0.098-0.211-0.105-0.448-0.025-0.668c0.082-0.223,0.244-0.398,0.457-0.496
			l2.217-1.021l-0.144-0.767c-0.194-1.04-0.235-2.104-0.121-3.161l0.084-0.775l-2.295-0.848c-0.218-0.08-0.394-0.243-0.489-0.451
			c-0.102-0.219-0.109-0.453-0.027-0.677l0.728-1.973c0.152-0.41,0.704-0.682,1.132-0.521l2.291,0.847l0.439-0.644
			c0.602-0.877,1.322-1.66,2.146-2.326l0.604-0.489l-1.02-2.214c-0.203-0.44-0.01-0.965,0.432-1.168l1.91-0.879
			c0.432-0.198,0.972,0.005,1.168,0.432l1.019,2.213l0.767-0.143c1.039-0.192,2.108-0.233,3.162-0.12l0.774,0.084l0.847-2.292
			c0.151-0.41,0.717-0.673,1.131-0.52l1.885,0.697C76.884,56.024,76.39,58.339,75.593,60.544z M78.577,78.49
			c-0.08,0.222-0.242,0.396-0.457,0.495l-0.175,0.081c0.22-0.212,0.431-0.432,0.644-0.648C78.583,78.441,78.587,78.467,78.577,78.49
			z"/>
		<path d="M32.801,77.988c-0.012-0.308-0.166-0.593-0.416-0.772l-8.25-5.917c-0.451-0.323-1.074-0.218-1.396,0.229
			c-0.322,0.449-0.219,1.074,0.229,1.396l5.723,4.104H13.099c-5.514,0-10,4.486-10,10v16.607c0,0.552,0.447,1,1,1
			c0.553,0,1-0.448,1-1V87.027c0-4.411,3.589-8,8-8h15.97l-5.411,4.569c-0.422,0.355-0.475,0.987-0.118,1.409
			c0.197,0.233,0.479,0.354,0.765,0.354c0.228,0,0.456-0.078,0.645-0.235l7.5-6.333C32.684,78.593,32.813,78.297,32.801,77.988z"/>
		<path d="M101.349,8.667l-5.916-8.25c-0.18-0.25-0.465-0.404-0.773-0.416c-0.308-0.013-0.604,0.118-0.803,0.354l-6.334,7.5
			c-0.158,0.188-0.236,0.417-0.236,0.645c0,0.285,0.121,0.567,0.355,0.765c0.422,0.356,1.053,0.304,1.408-0.118l4.57-5.411v15.97
			c0,4.411-3.59,8-8,8H69.013c-0.553,0-1,0.447-1,1c0,0.553,0.447,1,1,1H85.62c5.514,0,10-4.486,10-10V4.11l4.104,5.723
			c0.322,0.448,0.947,0.552,1.396,0.229C101.566,9.741,101.671,9.118,101.349,8.667z"/>
	</g>
</g>
<g>
</g>
<g>
</g>
<g>
</g>
<g>
</g>
<g>
</g>
<g>
</g>
<g>
</g>
<g>
</g>
<g>
</g>
<g>
</g>
<g>
</g>
<g>
</g>
<g>
</g>
<g>
</g>
<g>
</g>
</svg>
