<?xml version="1.0" encoding="iso-8859-1"?>
<!-- Generator: Adobe Illustrator 16.0.0, SVG Export Plug-In . SVG Version: 6.00 Build 0)  -->
<!DOCTYPE svg PUBLIC "-//W3C//DTD SVG 1.1//EN" "http://www.w3.org/Graphics/SVG/1.1/DTD/svg11.dtd">
<svg version="1.1" id="Capa_1" xmlns="http://www.w3.org/2000/svg" xmlns:xlink="http://www.w3.org/1999/xlink" x="0px" y="0px"
	 width="85.343px" height="85.344px" viewBox="0 0 85.343 85.344" style="enable-background:new 0 0 85.343 85.344;"
	 xml:space="preserve">
<g>
	<g>
		<path d="M82.867,82.875L76.422,56.09V11c0-6.065-4.935-11-11-11H13.421c-6.065,0-11,4.935-11,11v43.566c0,6.064,4.935,11,11,11
			h40.064l26.248,19.386c0.353,0.26,0.771,0.392,1.188,0.392c0.384,0,0.771-0.111,1.104-0.334
			C82.728,84.546,83.064,83.693,82.867,82.875z M55.333,61.957c-0.344-0.254-0.76-0.391-1.188-0.391H13.421c-3.86,0-7-3.141-7-7V11
			c0-3.86,3.14-7,7-7h52.001c3.86,0,7,3.14,7,7v45.326c0,0.158,0.019,0.314,0.056,0.468l5.215,21.679L55.333,61.957z"/>
		<path d="M21.596,25.576c-3.722,0-6.75,3.028-6.75,6.75s3.028,6.75,6.75,6.75c3.722,0,6.75-3.028,6.75-6.75
			S25.318,25.576,21.596,25.576z"/>
		<path d="M40.172,25.576c-3.722,0-6.75,3.028-6.75,6.75s3.028,6.75,6.75,6.75s6.75-3.028,6.75-6.75S43.895,25.576,40.172,25.576z"
			/>
		<path d="M59.007,25.576c-3.723,0-6.75,3.028-6.75,6.75s3.027,6.75,6.75,6.75s6.75-3.028,6.75-6.75S62.73,25.576,59.007,25.576z"/>
	</g>
</g>
<g>
</g>
<g>
</g>
<g>
</g>
<g>
</g>
<g>
</g>
<g>
</g>
<g>
</g>
<g>
</g>
<g>
</g>
<g>
</g>
<g>
</g>
<g>
</g>
<g>
</g>
<g>
</g>
<g>
</g>
</svg>
