<?xml version="1.0" encoding="iso-8859-1"?>
<!-- Generator: Adobe Illustrator 16.0.0, SVG Export Plug-In . SVG Version: 6.00 Build 0)  -->
<!DOCTYPE svg PUBLIC "-//W3C//DTD SVG 1.1//EN" "http://www.w3.org/Graphics/SVG/1.1/DTD/svg11.dtd">
<svg version="1.1" id="Capa_1" xmlns="http://www.w3.org/2000/svg" xmlns:xlink="http://www.w3.org/1999/xlink" x="0px" y="0px"
	 width="100.787px" height="100.787px" viewBox="0 0 100.787 100.787" style="enable-background:new 0 0 100.787 100.787;"
	 xml:space="preserve">
<g>
	<g>
		<path d="M99.288,94.894h-7.121v-4.833c0-0.276-0.224-0.5-0.5-0.5s-0.5,0.224-0.5,0.5v4.833h-9v-4.833c0-0.276-0.224-0.5-0.5-0.5
			s-0.5,0.224-0.5,0.5v4.833h-9v-4.833c0-0.276-0.224-0.5-0.5-0.5s-0.5,0.224-0.5,0.5v4.833h-9v-4.833c0-0.276-0.224-0.5-0.5-0.5
			s-0.5,0.224-0.5,0.5v4.833h-9v-4.833c0-0.276-0.224-0.5-0.5-0.5s-0.5,0.224-0.5,0.5v4.833h-9v-4.833c0-0.276-0.224-0.5-0.5-0.5
			s-0.5,0.224-0.5,0.5v4.833h-9v-4.833c0-0.276-0.224-0.5-0.5-0.5s-0.5,0.224-0.5,0.5v4.833h-9v-4.833c0-0.276-0.224-0.5-0.5-0.5
			s-0.5,0.224-0.5,0.5v4.833H3V83.561h4.016c0.276,0,0.5-0.224,0.5-0.5s-0.224-0.5-0.5-0.5H3v-9h4.016c0.276,0,0.5-0.224,0.5-0.5
			s-0.224-0.5-0.5-0.5H3v-9h4.016c0.276,0,0.5-0.224,0.5-0.5s-0.224-0.5-0.5-0.5H3v-9h4.016c0.276,0,0.5-0.224,0.5-0.5
			s-0.224-0.5-0.5-0.5H3v-9h4.016c0.276,0,0.5-0.224,0.5-0.5s-0.224-0.5-0.5-0.5H3v-9h4.016c0.276,0,0.5-0.224,0.5-0.5
			s-0.224-0.5-0.5-0.5H3v-9h4.016c0.276,0,0.5-0.224,0.5-0.5s-0.224-0.5-0.5-0.5H3v-9h4.016c0.276,0,0.5-0.224,0.5-0.5
			s-0.224-0.5-0.5-0.5H3V4.394c0-0.829-0.672-1.5-1.5-1.5S0,3.564,0,4.394v92c0,0.829,0.672,1.5,1.5,1.5h97.787
			c0.828,0,1.5-0.671,1.5-1.5S100.116,94.894,99.288,94.894z"/>
		<polygon points="51.166,56.061 53.166,56.061 53.166,52.061 57.166,52.061 57.166,50.061 53.166,50.061 53.166,46.061 
			51.166,46.061 51.166,50.061 47.166,50.061 47.166,52.061 51.166,52.061 		"/>
		<polygon points="56.166,40.811 58.166,40.811 58.166,36.811 62.166,36.811 62.166,34.811 58.166,34.811 58.166,30.811 
			56.166,30.811 56.166,34.811 52.166,34.811 52.166,36.811 56.166,36.811 		"/>
		<polygon points="70.666,48.561 72.666,48.561 72.666,44.561 76.666,44.561 76.666,42.561 72.666,42.561 72.666,38.561 
			70.666,38.561 70.666,42.561 66.666,42.561 66.666,44.561 70.666,44.561 		"/>
		<polygon points="77.166,28.061 79.166,28.061 79.166,24.061 83.166,24.061 83.166,22.061 79.166,22.061 79.166,18.061 
			77.166,18.061 77.166,22.061 73.166,22.061 73.166,24.061 77.166,24.061 		"/>
		<polygon points="88.666,42.561 90.666,42.561 90.666,38.561 94.666,38.561 94.666,36.561 90.666,36.561 90.666,32.561 
			88.666,32.561 88.666,36.561 84.666,36.561 84.666,38.561 88.666,38.561 		"/>
		<polygon points="33.666,67.561 35.666,67.561 35.666,63.561 39.666,63.561 39.666,61.561 35.666,61.561 35.666,57.561 
			33.666,57.561 33.666,61.561 29.666,61.561 29.666,63.561 33.666,63.561 		"/>
		<polygon points="67.166,72.561 69.166,72.561 69.166,68.561 73.166,68.561 73.166,66.561 69.166,66.561 69.166,62.561 
			67.166,62.561 67.166,66.561 63.166,66.561 63.166,68.561 67.166,68.561 		"/>
	</g>
</g>
<g>
</g>
<g>
</g>
<g>
</g>
<g>
</g>
<g>
</g>
<g>
</g>
<g>
</g>
<g>
</g>
<g>
</g>
<g>
</g>
<g>
</g>
<g>
</g>
<g>
</g>
<g>
</g>
<g>
</g>
</svg>
