<?xml version="1.0" encoding="iso-8859-1"?>
<!-- Generator: Adobe Illustrator 16.0.0, SVG Export Plug-In . SVG Version: 6.00 Build 0)  -->
<!DOCTYPE svg PUBLIC "-//W3C//DTD SVG 1.1//EN" "http://www.w3.org/Graphics/SVG/1.1/DTD/svg11.dtd">
<svg version="1.1" id="Capa_1" xmlns="http://www.w3.org/2000/svg" xmlns:xlink="http://www.w3.org/1999/xlink" x="0px" y="0px"
	 width="113.671px" height="113.671px" viewBox="0 0 113.671 113.671" style="enable-background:new 0 0 113.671 113.671;"
	 xml:space="preserve">
<g>
	<g>
		<path d="M86.942,70.26L72.306,57.59c-1.937-1.678-4.868-1.467-6.544,0.471l-1.988,2.297c-1.675,1.939-1.466,4.867,0.473,6.543
			l14.637,12.67c1.938,1.679,4.869,1.468,6.545-0.469l1.986-2.297C89.09,74.865,88.881,71.936,86.942,70.26z"/>
		<path d="M47.962,65.824c1.624-1.982,1.332-4.906-0.651-6.527l-2.351-1.924c-1.983-1.621-4.905-1.33-6.526,0.654l-12.26,14.979
			c-1.623,1.984-1.331,4.908,0.651,6.531l2.351,1.924c1.982,1.619,4.905,1.326,6.527-0.653L47.962,65.824z"/>
		<path d="M76.181,84.488l-4.964-3.851c-0.242-0.188-0.527-0.276-0.812-0.286c-0.547-0.188-1.175-0.027-1.551,0.454
			c-1.607,2.07-3.475,3.146-5.708,3.302c-5.613,0.379-11.479-5.291-11.537-5.349c-0.309-0.307-0.745-0.444-1.173-0.383
			c-0.428,0.062-0.805,0.319-1.017,0.696c-2.125,3.814-4.612,4.613-5.484,4.777c-0.635-0.408-0.785-0.727-0.837-0.943
			c-0.13-0.516,0.036-1.612,1.559-3.903c3.505-5.276,7.19-5.248,10.152-5.222c0.78,0.005,1.517,0.011,2.186-0.086
			c3.632-0.526,5.034-3.981,5.089-4.127c0.283-0.715-0.067-1.522-0.783-1.805c-0.713-0.279-1.521,0.07-1.805,0.781
			c-0.009,0.023-0.882,2.104-2.903,2.396c-0.458,0.065-1.063,0.061-1.762,0.055c-3.051-0.023-8.155-0.064-12.492,6.467
			c-1.745,2.625-2.344,4.514-1.943,6.119c0.298,1.197,1.14,2.154,2.572,2.928c0.143,0.078,0.299,0.129,0.459,0.152
			c0.073,0.012,0.145,0.016,0.219,0.016c0.176-0.002,4.03-0.102,7.297-4.793c2.274,1.871,7.234,5.346,12.38,5
			c2.668-0.178,5.001-1.342,6.952-3.455l4.17,3.234c2.947,2.414,3.385,6.773,0.973,9.721l-5.871,7.174
			c-1.17,1.428-2.824,2.314-4.66,2.5c-1.836,0.183-3.631-0.361-5.061-1.531l-4.016-3.284c-0.09-0.076-0.191-0.132-0.292-0.181
			L39.265,87.76c-0.285-0.23-0.654-0.346-1.019-0.309c-0.368,0.037-0.706,0.219-0.939,0.504l-3.285,4.018
			c-1.64,2-2.403,4.525-2.146,7.1c0.258,2.576,1.503,4.896,3.507,6.537l7.171,5.871c1.357,1.111,2.99,1.834,4.717,2.088
			c3.355,0.496,6.775-0.825,8.921-3.45l2.466-3.013c1.241,0.871,2.638,1.451,4.116,1.668c0.784,0.117,1.585,0.138,2.393,0.056
			c2.573-0.257,4.896-1.502,6.537-3.507l5.87-7.172c1.64-2.004,2.402-4.522,2.144-7.1C79.459,88.475,78.213,86.154,76.181,84.488z
			 M54.036,108.357c-1.555,1.896-3.932,2.815-6.362,2.459c-1.229-0.183-2.391-0.695-3.36-1.49l-7.17-5.871
			c-1.428-1.166-2.316-2.822-2.5-4.66c-0.182-1.836,0.359-3.631,1.528-5.059l2.405-2.939l17.865,14.621L54.036,108.357z"/>
		<path d="M49.806,37.672L55.43,52.84c0.218,0.588,0.779,0.979,1.406,0.979c0.627,0,1.188-0.391,1.406-0.979l5.624-15.168
			c7.483-2.893,12.461-10.109,12.461-18.18C76.326,8.744,67.582,0,56.834,0C46.086,0,37.342,8.744,37.342,19.492
			C37.343,27.563,42.321,34.779,49.806,37.672z M56.835,3c9.094,0,16.493,7.398,16.493,16.492c0,7.033-4.468,13.299-11.117,15.59
			c-0.424,0.146-0.762,0.477-0.916,0.896l-4.459,12.026l-4.458-12.025c-0.156-0.42-0.493-0.75-0.917-0.896
			c-6.648-2.291-11.116-8.557-11.116-15.59C40.343,10.399,47.741,3,56.835,3z"/>
	</g>
</g>
<g>
</g>
<g>
</g>
<g>
</g>
<g>
</g>
<g>
</g>
<g>
</g>
<g>
</g>
<g>
</g>
<g>
</g>
<g>
</g>
<g>
</g>
<g>
</g>
<g>
</g>
<g>
</g>
<g>
</g>
</svg>
