<?xml version="1.0" encoding="iso-8859-1"?>
<!-- Generator: Adobe Illustrator 16.0.0, SVG Export Plug-In . SVG Version: 6.00 Build 0)  -->
<!DOCTYPE svg PUBLIC "-//W3C//DTD SVG 1.1//EN" "http://www.w3.org/Graphics/SVG/1.1/DTD/svg11.dtd">
<svg version="1.1" id="Capa_1" xmlns="http://www.w3.org/2000/svg" xmlns:xlink="http://www.w3.org/1999/xlink" x="0px" y="0px"
	 width="95.012px" height="95.012px" viewBox="0 0 95.012 95.012" style="enable-background:new 0 0 95.012 95.012;"
	 xml:space="preserve">
<g>
	<g>
		<path d="M9.724,61.894l0.448-0.292c-7.416-11.384-2.679-15.931,3.978-21.12l-0.299,6.587l2.146,0.097l0.464-10.269L6.192,36.431
			l-0.098,2.145l6.849,0.311C6.122,44.205,0.33,49.616,8.062,62.003C3.506,62.696,0,66.63,0,71.377c0,5.233,4.259,9.493,9.494,9.493
			c5.235,0,9.494-4.26,9.494-9.493C18.988,66.219,14.853,62.018,9.724,61.894z"/>
		<path d="M52.77,74.088l0.307-0.276c-5.012-5.541-15.442-17.068-12.125-27.355c1.298-4.022,5.081-6.732,8.74-9.354
			c4.91-3.518,9.961-7.153,8.689-13.883l5.061,4.146l1.361-1.662L56.85,19.19l-6.514,7.951l1.661,1.361l4.343-5.303
			c1.286,5.75-2.949,8.79-7.814,12.275c-3.922,2.81-7.977,5.715-9.477,10.365c-3.441,10.669,5.954,21.967,11.482,28.135
			c-4.936,0.333-8.852,4.443-8.852,9.461c0,5.235,4.259,9.494,9.494,9.494c5.234,0,9.494-4.259,9.494-9.494
			C60.668,78.746,57.246,74.85,52.77,74.088z"/>
		<path d="M86.171,62.218c6.41-10.9-2.548-21.654-9.835-30.396c-1.043-1.251-2.043-2.451-2.955-3.601l6.018,2.092l0.707-2.029
			l-9.709-3.374l-3.377,9.709l2.028,0.706l2.263-6.509c1.062,1.367,2.242,2.789,3.49,4.287c7.497,8.993,15.962,19.161,8.895,29.261
			c-4.365,0.854-7.672,4.703-7.672,9.313c0,5.235,4.26,9.494,9.494,9.494c5.235,0,9.494-4.259,9.494-9.494
			C95.009,66.664,91.1,62.557,86.171,62.218z"/>
		<polygon points="70.168,42.605 66.083,46.69 61.998,42.605 60.54,44.063 64.625,48.147 60.54,52.233 61.998,53.69 66.083,49.606 
			70.168,53.69 71.626,52.233 67.541,48.147 71.626,44.063 		"/>
		<polygon points="29.913,18.509 25.828,22.594 21.743,18.509 20.285,19.967 24.37,24.052 20.285,28.137 21.743,29.595 
			25.828,25.51 29.913,29.595 31.371,28.137 27.286,24.052 31.371,19.967 		"/>
		<polygon points="53.502,13.169 57.587,9.084 61.672,13.169 63.13,11.711 59.045,7.626 63.13,3.541 61.672,2.083 57.587,6.168 
			53.502,2.083 52.044,3.541 56.129,7.626 52.044,11.711 		"/>
	</g>
</g>
<g>
</g>
<g>
</g>
<g>
</g>
<g>
</g>
<g>
</g>
<g>
</g>
<g>
</g>
<g>
</g>
<g>
</g>
<g>
</g>
<g>
</g>
<g>
</g>
<g>
</g>
<g>
</g>
<g>
</g>
</svg>
