<?xml version="1.0" encoding="iso-8859-1"?>
<!-- Generator: Adobe Illustrator 16.0.0, SVG Export Plug-In . SVG Version: 6.00 Build 0)  -->
<!DOCTYPE svg PUBLIC "-//W3C//DTD SVG 1.1//EN" "http://www.w3.org/Graphics/SVG/1.1/DTD/svg11.dtd">
<svg version="1.1" id="Capa_1" xmlns="http://www.w3.org/2000/svg" xmlns:xlink="http://www.w3.org/1999/xlink" x="0px" y="0px"
	 width="112.25px" height="112.25px" viewBox="0 0 112.25 112.25" style="enable-background:new 0 0 112.25 112.25;"
	 xml:space="preserve">
<g>
	<path d="M112.25,55.721c0-0.552-0.448-1-1-1h-0.07c0.062-0.195,0.086-0.399,0.024-0.6l-8.25-26.25
		c-0.136-0.428-0.562-0.734-0.985-0.7c-0.447,0.014-0.832,0.324-0.939,0.759L94.994,52.3l-6.487-7.533
		c-0.2-0.234-0.504-0.357-0.807-0.347c-0.308,0.015-0.593,0.171-0.769,0.423l-0.461,0.655l-2.408-7.665
		c-0.095-0.299-0.358-0.494-0.689-0.49c-0.314,0.01-0.583,0.227-0.658,0.531l-3.087,12.469l-9.082-12.189
		c-0.204-0.274-0.528-0.424-0.877-0.399c-0.342,0.026-0.646,0.225-0.808,0.528l-5.211,9.803l-2.273-3.052
		c-0.145-0.192-0.369-0.29-0.615-0.28c-0.238,0.019-0.451,0.158-0.564,0.37l-1.59,2.99l-15.344-24.23
		c-0.366-0.579-1.323-0.579-1.689,0l-5.379,8.493l-8.511-17.292c-0.168-0.342-0.516-0.559-0.897-0.559c-0.002,0-0.003,0-0.005,0
		c-0.383,0.002-0.731,0.223-0.896,0.568l-11.298,23.59l-2.271-4.698c-0.17-0.353-0.537-0.578-0.921-0.565
		c-0.391,0.008-0.742,0.244-0.897,0.603l-8.667,20c-0.097,0.224-0.105,0.471-0.034,0.697H1c-0.552,0-1,0.448-1,1
		c0,0.145,0,0.663,0,0.809c0,0.551,0.448,1,1,1h0.071c-0.063,0.194-0.087,0.398-0.025,0.6l8.25,26.25
		c0.135,0.428,0.561,0.734,0.985,0.699c0.448-0.014,0.832-0.324,0.94-0.759l6.035-24.37l6.487,7.532
		c0.201,0.233,0.504,0.356,0.807,0.347c0.308-0.015,0.592-0.17,0.769-0.422l0.46-0.656l2.409,7.666
		c0.094,0.299,0.358,0.494,0.689,0.49c0.314-0.011,0.583-0.228,0.658-0.531l3.087-12.469l9.082,12.188
		c0.204,0.274,0.528,0.424,0.877,0.399c0.342-0.027,0.646-0.226,0.807-0.529l5.211-9.803l2.274,3.053
		c0.144,0.191,0.369,0.289,0.615,0.279c0.239-0.019,0.452-0.158,0.565-0.369l1.589-2.99l15.344,24.23
		c0.367,0.578,1.324,0.578,1.689,0l5.379-8.494l8.512,17.293c0.168,0.342,0.516,0.559,0.896,0.559c0.002,0,0.003,0,0.005,0
		c0.384-0.002,0.731-0.223,0.896-0.568l11.296-23.588l2.271,4.698c0.17,0.353,0.537,0.577,0.922,0.565
		c0.391-0.008,0.741-0.244,0.896-0.604l8.667-20c0.097-0.225,0.104-0.471,0.034-0.697h0.799c0.552,0,1-0.447,1-1
		C112.25,56.383,112.25,55.866,112.25,55.721z M80.71,51.799l2.765-11.165l1.982,6.307l2.445,7.779h-7.916L80.71,51.799z
		 M73.475,51.257l2.981,3.463h-5.418L73.475,51.257z M59.469,49.477l1.445-2.718l2.01,2.697l3.924,5.265H56.681L59.469,49.477z
		 M20.018,44.101l1.558,3.224c0.117,0.242,0.362,0.396,0.63,0.396h0.001c0.269,0,0.514-0.155,0.63-0.398l7.913-16.524l5.873,11.932
		c0.112,0.227,0.337,0.376,0.59,0.39c0.255,0.012,0.494-0.111,0.629-0.325l3.842-6.066l11.395,17.992H15.416L20.018,44.101z
		 M31.54,60.45l-2.765,11.164l-1.982-6.307l-2.445-7.779h7.915L31.54,60.45z M38.775,60.991l-2.981-3.463h5.418L38.775,60.991z
		 M52.781,62.772l-1.445,2.719l-2.01-2.697l-3.923-5.266h10.165L52.781,62.772z M92.232,68.148l-1.559-3.224
		c-0.117-0.242-0.361-0.396-0.63-0.396h-0.001c-0.27,0-0.514,0.155-0.63,0.398L81.5,81.45l-5.873-11.932
		c-0.111-0.227-0.337-0.376-0.59-0.391c-0.255-0.012-0.494,0.111-0.629,0.326l-3.842,6.065L59.17,57.528h37.664L92.232,68.148z"/>
</g>
<g>
</g>
<g>
</g>
<g>
</g>
<g>
</g>
<g>
</g>
<g>
</g>
<g>
</g>
<g>
</g>
<g>
</g>
<g>
</g>
<g>
</g>
<g>
</g>
<g>
</g>
<g>
</g>
<g>
</g>
</svg>
