<?xml version="1.0" encoding="iso-8859-1"?>
<!-- Generator: Adobe Illustrator 16.0.0, SVG Export Plug-In . SVG Version: 6.00 Build 0)  -->
<!DOCTYPE svg PUBLIC "-//W3C//DTD SVG 1.1//EN" "http://www.w3.org/Graphics/SVG/1.1/DTD/svg11.dtd">
<svg version="1.1" id="Capa_1" xmlns="http://www.w3.org/2000/svg" xmlns:xlink="http://www.w3.org/1999/xlink" x="0px" y="0px"
	 width="103.858px" height="103.859px" viewBox="0 0 103.858 103.859" style="enable-background:new 0 0 103.858 103.859;"
	 xml:space="preserve">
<g>
	<g>
		<path d="M66.819,55.351c-1.697,0-3.08,1.384-3.08,3.08c0,1.697,1.383,3.08,3.08,3.08c1.698,0,3.08-1.383,3.08-3.08
			C69.899,56.735,68.518,55.351,66.819,55.351z"/>
		<path d="M63.489,51.198c-3.992,1.84-5.735,6.565-3.897,10.562c1.84,3.991,6.565,5.735,10.561,3.897
			c3.992-1.84,5.738-6.565,3.898-10.562C72.209,51.104,67.483,49.36,63.489,51.198z M66.819,63.101c-2.574,0-4.668-2.096-4.668-4.67
			s2.094-4.668,4.668-4.668c2.573,0,4.67,2.094,4.67,4.668S69.393,63.101,66.819,63.101z"/>
		<path d="M86.84,29.469c-2.391,1.102-3.436,3.932-2.334,6.322c1.103,2.39,3.932,3.436,6.322,2.334
			c2.391-1.1,3.436-3.932,2.334-6.322S89.23,28.368,86.84,29.469z M88.834,36.596c-1.543,0-2.797-1.254-2.797-2.795
			s1.254-2.797,2.797-2.797c1.541,0,2.795,1.256,2.795,2.797S90.375,36.596,88.834,36.596z"/>
		<circle cx="88.834" cy="33.801" r="1.844"/>
		<path d="M102.809,33.232c0.191-0.309,0.353-0.637,0.48-0.986c0.498-1.348,0.441-2.811-0.158-4.117l-0.65-1.412
			c-0.764-1.652-2.313-2.797-4.081-3.068c-0.085-0.354-0.203-0.699-0.357-1.037c-0.604-1.307-1.68-2.301-3.021-2.795l-1.461-0.539
			c-1.688-0.623-3.648-0.299-5.049,0.725c-1.482-0.926-3.457-1.088-5.105-0.328l-1.416,0.65c-1.703,0.787-2.803,2.361-3.066,4.094
			c-1.738,0.41-3.201,1.662-3.834,3.371l-0.422,1.145V7.451c0-2.756-2.242-5-5-5H5c-2.756,0-5,2.244-5,5v88.957c0,2.756,2.244,5,5,5
			h64.666c2.758,0,5-2.244,5-5V79.75c0.221-0.074,0.438-0.158,0.652-0.258l2.352-1.084c1.531-0.705,2.697-1.967,3.281-3.549
			c0.396-1.076,0.494-2.215,0.293-3.314c0.211,0.021,0.426,0.033,0.641,0.033c0.918,0,1.812-0.197,2.631-0.578
			c1.533-0.701,2.701-1.959,3.293-3.553l0.896-2.43c1.016-2.754-0.02-5.775-2.328-7.377c0.867-0.705,1.535-1.633,1.932-2.711
			c0.586-1.582,0.519-3.297-0.188-4.829l-0.742-1.615c0.43-0.08,0.85-0.207,1.256-0.395c0.338-0.156,0.654-0.342,0.945-0.557
			c1.48,0.92,3.453,1.078,5.096,0.32l1.412-0.65c1.703-0.785,2.801-2.352,3.066-4.08c0.354-0.082,0.697-0.199,1.027-0.354
			c1.305-0.598,2.301-1.668,2.809-3.029l0.537-1.459C104.174,36.528,103.842,34.643,102.809,33.232z M74.666,33.225
			c0.021,0.051,0.029,0.102,0.053,0.15c0.152,0.33,0.336,0.641,0.547,0.928c-0.19,0.309-0.352,0.639-0.479,0.986
			c-0.056,0.146-0.08,0.299-0.119,0.449L74.666,33.225L74.666,33.225z M29.043,5.076h13.25v0.75h-13.25V5.076z M39,99.362
			c-1.473,0-2.668-1.192-2.668-2.666s1.195-2.668,2.668-2.668c1.473,0,2.666,1.194,2.666,2.668S40.473,99.362,39,99.362z
			 M68.666,91.409H6V8.451h62.666v28.555c-0.953,0.473-1.783,1.17-2.395,2.043c-1.182-1.449-2.979-2.332-4.9-2.332
			c-0.916,0-1.803,0.195-2.639,0.58l-2.354,1.084c-2.671,1.23-4.074,4.102-3.57,6.871c-0.197-0.021-0.398-0.029-0.601-0.029
			c-2.658,0-5.057,1.654-5.967,4.119l-0.896,2.427c-0.584,1.58-0.518,3.293,0.191,4.838c0.482,1.041,1.219,1.91,2.133,2.544
			c-0.867,0.704-1.533,1.631-1.93,2.706c-0.586,1.585-0.52,3.302,0.186,4.828l1.086,2.355c1.027,2.23,3.279,3.67,5.738,3.67
			c0.38,0,0.755-0.033,1.123-0.1c-0.114,1.111,0.067,2.238,0.547,3.277c0.705,1.535,1.968,2.703,3.552,3.287l2.432,0.897
			c0.705,0.26,1.441,0.392,2.188,0.392c0.918,0,1.807-0.195,2.637-0.578c1.045-0.48,1.918-1.22,2.556-2.144
			c0.267,0.324,0.563,0.614,0.885,0.879L68.666,91.409L68.666,91.409z M84.746,63.666l-0.896,2.43
			c-0.215,0.578-0.641,1.043-1.203,1.299c-0.561,0.261-1.188,0.285-1.77,0.07l-1.922-0.709c-0.795,1.162-1.762,2.215-2.885,3.125
			l0.855,1.855c0.532,1.16,0.024,2.537-1.136,3.07l-2.354,1.086c-1.157,0.533-2.534,0.022-3.069-1.135L69.512,72.9
			c-1.422,0.266-2.852,0.314-4.252,0.162l-0.709,1.922c-0.213,0.578-0.641,1.041-1.203,1.301c-0.561,0.258-1.188,0.281-1.77,0.068
			l-2.43-0.898c-0.58-0.213-1.043-0.641-1.301-1.203s-0.283-1.189-0.068-1.77l0.711-1.92c-1.164-0.795-2.219-1.762-3.127-2.887
			l-1.857,0.854c-1.158,0.532-2.535,0.024-3.068-1.134l-1.084-2.354c-0.535-1.158-0.025-2.535,1.133-3.07l1.856-0.854
			c-0.266-1.422-0.313-2.852-0.162-4.252l-1.921-0.709c-0.578-0.213-1.041-0.641-1.301-1.201c-0.258-0.562-0.283-1.189-0.068-1.771
			l0.896-2.429c0.43-1.16,1.816-1.799,2.975-1.369l1.92,0.709c0.795-1.162,1.763-2.217,2.886-3.125l-0.854-1.857
			c-0.533-1.158-0.023-2.535,1.135-3.07l2.354-1.084c1.158-0.533,2.535-0.025,3.07,1.135l0.854,1.855
			c1.421-0.264,2.851-0.313,4.25-0.16l0.709-1.922c0.429-1.16,1.813-1.797,2.974-1.369l2.43,0.896
			c1.197,0.441,1.811,1.777,1.369,2.973l-0.709,1.922c1.164,0.795,2.217,1.762,3.125,2.887l1.857-0.857
			c1.157-0.533,2.534-0.023,3.069,1.135l1.082,2.352c0.535,1.16,0.024,2.537-1.133,3.07l-1.855,0.855
			c0.265,1.422,0.313,2.85,0.16,4.25l1.925,0.711C84.575,61.134,85.188,62.468,84.746,63.666z M99.569,36.934l-0.537,1.457
			c-0.129,0.346-0.384,0.623-0.722,0.777c-0.336,0.154-0.711,0.17-1.059,0.041l-1.15-0.424c-0.477,0.695-1.055,1.326-1.729,1.871
			l0.512,1.111c0.32,0.693,0.017,1.518-0.678,1.838l-1.41,0.65c-0.693,0.318-1.518,0.014-1.838-0.68l-0.512-1.111
			c-0.852,0.158-1.707,0.188-2.547,0.096l-0.424,1.152c-0.127,0.346-0.383,0.623-0.721,0.777c-0.337,0.154-0.712,0.17-1.06,0.041
			l-1.455-0.537c-0.349-0.129-0.625-0.385-0.778-0.721c-0.154-0.336-0.171-0.713-0.041-1.059l0.426-1.15
			c-0.697-0.477-1.328-1.055-1.873-1.729l-1.111,0.512c-0.693,0.32-1.518,0.016-1.838-0.678l-0.648-1.41
			c-0.32-0.693-0.016-1.518,0.678-1.838l1.111-0.512c-0.158-0.852-0.188-1.707-0.096-2.545l-1.15-0.426
			c-0.348-0.127-0.623-0.383-0.779-0.719c-0.153-0.336-0.17-0.713-0.041-1.061l0.537-1.455c0.256-0.695,1.088-1.076,1.781-0.82
			l1.148,0.426c0.477-0.697,1.057-1.328,1.729-1.873l-0.512-1.111c-0.32-0.693-0.016-1.518,0.678-1.838l1.41-0.648
			c0.693-0.32,1.518-0.016,1.838,0.678l0.512,1.111c0.853-0.156,1.707-0.188,2.547-0.096l0.425-1.15
			c0.256-0.695,1.086-1.076,1.778-0.82l1.455,0.537c0.717,0.264,1.084,1.064,0.82,1.779l-0.424,1.15
			c0.695,0.477,1.326,1.057,1.871,1.729l1.111-0.512c0.692-0.32,1.518-0.016,1.838,0.68l0.647,1.408
			c0.32,0.693,0.017,1.52-0.678,1.838l-1.111,0.512c0.158,0.852,0.188,1.707,0.097,2.545l1.151,0.426
			C99.465,35.42,99.832,36.217,99.569,36.934z"/>
		<path d="M16.024,17.049h-3.643c-1.291,0-2.342,1.051-2.342,2.342v7.284c0,1.291,1.051,2.341,2.342,2.341h3.643
			c1.291,0,2.34-1.05,2.34-2.341v-7.284C18.364,18.1,17.315,17.049,16.024,17.049z M16.803,26.675c0,0.431-0.35,0.78-0.779,0.78
			h-3.643c-0.43,0-0.781-0.35-0.781-0.78v-7.284c0-0.431,0.352-0.78,0.781-0.78h3.643c0.43,0,0.779,0.35,0.779,0.78V26.675z"/>
		<path d="M39.047,17.049h-3.643c-1.291,0-2.34,1.051-2.34,2.342v7.284c0,1.291,1.049,2.341,2.34,2.341h3.643
			c1.291,0,2.342-1.05,2.342-2.341v-7.284C41.389,18.1,40.338,17.049,39.047,17.049z M39.828,26.675c0,0.431-0.352,0.78-0.781,0.78
			h-3.643c-0.43,0-0.779-0.35-0.779-0.78v-7.284c0-0.431,0.35-0.78,0.779-0.78h3.643c0.43,0,0.781,0.35,0.781,0.78V26.675z"/>
		<path d="M28.641,34.74h-3.643c-1.291,0-2.34,1.05-2.34,2.341v7.284c0,1.291,1.049,2.342,2.34,2.342h3.643
			c1.291,0,2.342-1.051,2.342-2.342V37.08C30.983,35.789,29.932,34.74,28.641,34.74z M29.42,44.365c0,0.431-0.35,0.78-0.779,0.78
			h-3.643c-0.43,0-0.779-0.35-0.779-0.78V37.08c0-0.43,0.35-0.78,0.779-0.78h3.643c0.43,0,0.779,0.351,0.779,0.78V44.365z"/>
		<path d="M15.309,50.463h-3.643c-1.291,0-2.342,1.05-2.342,2.341v7.285c0,1.291,1.051,2.34,2.342,2.34h3.643
			c1.291,0,2.34-1.049,2.34-2.34v-7.285C17.649,51.513,16.6,50.463,15.309,50.463z M16.088,60.089c0,0.43-0.35,0.779-0.779,0.779
			h-3.643c-0.43,0-0.781-0.35-0.781-0.779v-7.285c0-0.431,0.352-0.779,0.781-0.779h3.643c0.43,0,0.779,0.35,0.779,0.779V60.089z"/>
		<path d="M28.641,50.463h-3.643c-1.291,0-2.34,1.05-2.34,2.341v7.285c0,1.291,1.049,2.34,2.34,2.34h3.643
			c1.291,0,2.342-1.049,2.342-2.34v-7.285C30.983,51.513,29.932,50.463,28.641,50.463z M29.42,60.089c0,0.43-0.35,0.779-0.779,0.779
			h-3.643c-0.43,0-0.779-0.35-0.779-0.779v-7.285c0-0.431,0.35-0.779,0.779-0.779h3.643c0.43,0,0.779,0.35,0.779,0.779V60.089z"/>
		<path d="M26.039,18.544v9.691c0,0.432,0.35,0.78,0.781,0.78c0.43,0,0.779-0.349,0.779-0.78V17.049
			c0-0.291-0.162-0.558-0.418-0.692c-0.26-0.136-0.57-0.114-0.809,0.052l-4.292,2.991c-0.354,0.247-0.439,0.733-0.193,1.087
			s0.732,0.44,1.086,0.194L26.039,18.544z"/>
		<path d="M15.633,47.097c0.432,0,0.781-0.349,0.781-0.78V35.129c0-0.29-0.162-0.557-0.42-0.691
			c-0.258-0.134-0.568-0.114-0.807,0.052l-4.293,2.991c-0.354,0.246-0.439,0.733-0.193,1.086c0.246,0.354,0.732,0.44,1.086,0.194
			l3.066-2.136v9.691C14.854,46.748,15.201,47.097,15.633,47.097z"/>
		<path d="M39.735,34.438c-0.258-0.135-0.57-0.114-0.809,0.052l-4.291,2.991c-0.355,0.246-0.441,0.733-0.195,1.086
			c0.246,0.354,0.732,0.44,1.086,0.194l3.066-2.136v9.691c0,0.432,0.35,0.78,0.781,0.78c0.43,0,0.779-0.349,0.779-0.78V35.129
			C40.153,34.839,39.991,34.573,39.735,34.438z"/>
		<path d="M39.735,49.771c-0.258-0.136-0.57-0.114-0.809,0.052l-4.291,2.991c-0.355,0.246-0.441,0.732-0.195,1.087
			c0.246,0.354,0.732,0.44,1.086,0.194l3.066-2.138v9.69c0,0.433,0.35,0.781,0.781,0.781c0.43,0,0.779-0.35,0.779-0.781V50.463
			C40.153,50.172,39.991,49.906,39.735,49.771z"/>
	</g>
</g>
<g>
</g>
<g>
</g>
<g>
</g>
<g>
</g>
<g>
</g>
<g>
</g>
<g>
</g>
<g>
</g>
<g>
</g>
<g>
</g>
<g>
</g>
<g>
</g>
<g>
</g>
<g>
</g>
<g>
</g>
</svg>
