<?xml version="1.0" encoding="iso-8859-1"?>
<!-- Generator: Adobe Illustrator 16.0.0, SVG Export Plug-In . SVG Version: 6.00 Build 0)  -->
<!DOCTYPE svg PUBLIC "-//W3C//DTD SVG 1.1//EN" "http://www.w3.org/Graphics/SVG/1.1/DTD/svg11.dtd">
<svg version="1.1" id="Capa_1" xmlns="http://www.w3.org/2000/svg" xmlns:xlink="http://www.w3.org/1999/xlink" x="0px" y="0px"
	 width="103.797px" height="103.797px" viewBox="0 0 103.797 103.797" style="enable-background:new 0 0 103.797 103.797;"
	 xml:space="preserve">
<g>
	<g>
		<path d="M20.6,23.311c-1.857,0-3.369-1.511-3.369-3.369c0-1.857,1.511-3.369,3.369-3.369s3.369,1.511,3.369,3.369
			S22.458,23.311,20.6,23.311z M29.871,23.311c-1.857,0-3.368-1.511-3.368-3.369c0-1.857,1.511-3.369,3.368-3.369
			c1.858,0,3.369,1.511,3.369,3.369S31.729,23.311,29.871,23.311z M39.272,23.311c-1.857,0-3.369-1.511-3.369-3.369
			c0-1.857,1.512-3.369,3.369-3.369s3.369,1.511,3.369,3.369S41.129,23.311,39.272,23.311z"/>
		<path d="M93.522,72.109l-3.854-1.424c0.306-2.807,0.206-5.67-0.323-8.52l3.721-1.715c2.322-1.069,3.342-3.829,2.271-6.155
			l-2.171-4.714c-1.072-2.324-3.832-3.345-6.153-2.275l-3.725,1.717c-1.821-2.256-3.934-4.192-6.266-5.788l1.422-3.851
			c0.886-2.398-0.346-5.075-2.746-5.959l-4.87-1.799c-2.326-0.857-5.103,0.421-5.96,2.745l-1.422,3.853
			c-2.809-0.305-5.676-0.206-8.521,0.323l-1.715-3.72c-0.238-0.516-0.563-0.963-0.943-1.342l-0.518-2.154V9.276
			C51.749,4.161,47.588,0,42.473,0H16.521c-5.115,0-9.276,4.161-9.276,9.276V31.02c0,5.115,4.162,9.276,9.276,9.276h18.75
			l6.198,4.578c-2.115,1.76-3.954,3.775-5.474,5.995l-3.847-1.421c-2.322-0.862-5.104,0.417-5.964,2.744l-1.797,4.873
			c-0.431,1.166-0.38,2.424,0.137,3.549c0.521,1.125,1.448,1.984,2.608,2.408l3.851,1.424c-0.303,2.808-0.206,5.674,0.325,8.521
			l-3.722,1.713c-2.324,1.071-3.344,3.834-2.273,6.154l2.173,4.721c1.071,2.321,3.832,3.34,6.154,2.27l3.723-1.715
			c1.821,2.256,3.934,4.191,6.267,5.787l-1.423,3.851c-0.43,1.163-0.382,2.419,0.137,3.547c0.517,1.126,1.445,1.983,2.607,2.412
			l4.871,1.8c1.164,0.43,2.424,0.383,3.548-0.137c1.127-0.52,1.982-1.447,2.412-2.605l1.421-3.854
			c2.808,0.304,5.674,0.205,8.524-0.325l1.709,3.722c1.073,2.324,3.834,3.344,6.155,2.275l4.72-2.176
			c2.323-1.069,3.342-3.832,2.272-6.154l-1.715-3.723c2.253-1.822,4.19-3.932,5.784-6.264l3.854,1.422
			c1.164,0.432,2.424,0.381,3.549-0.141c1.125-0.516,1.98-1.445,2.411-2.604l1.798-4.873C97.149,75.669,95.919,72.997,93.522,72.109
			z M36.516,36.532H16.52c-3.027,0-5.49-2.462-5.49-5.49V9.298c0-3.027,2.463-5.49,5.49-5.49h25.953c3.027,0,5.49,2.462,5.49,5.49
			v22.503L51.18,45.17c0.098,0.408-0.069,0.833-0.419,1.066c-0.167,0.11-0.359,0.166-0.552,0.166c-0.208,0-0.417-0.065-0.592-0.195
			L36.516,36.532z M67.002,82.061c-8.006,3.687-17.481,0.188-21.169-7.816c-3.687-8.006-0.188-17.483,7.814-21.172
			c8.008-3.685,17.483-0.188,21.172,7.818C78.505,68.895,75.008,78.373,67.002,82.061z"/>
	</g>
</g>
<g>
</g>
<g>
</g>
<g>
</g>
<g>
</g>
<g>
</g>
<g>
</g>
<g>
</g>
<g>
</g>
<g>
</g>
<g>
</g>
<g>
</g>
<g>
</g>
<g>
</g>
<g>
</g>
<g>
</g>
</svg>
