<?xml version="1.0" encoding="iso-8859-1"?>
<!-- Generator: Adobe Illustrator 16.0.0, SVG Export Plug-In . SVG Version: 6.00 Build 0)  -->
<!DOCTYPE svg PUBLIC "-//W3C//DTD SVG 1.1//EN" "http://www.w3.org/Graphics/SVG/1.1/DTD/svg11.dtd">
<svg version="1.1" id="Capa_1" xmlns="http://www.w3.org/2000/svg" xmlns:xlink="http://www.w3.org/1999/xlink" x="0px" y="0px"
	 width="118.489px" height="118.49px" viewBox="0 0 118.489 118.49" style="enable-background:new 0 0 118.489 118.49;"
	 xml:space="preserve">
<g>
	<g>
		<polygon points="59.245,16.083 34.995,49.778 83.495,49.778 		"/>
		<path d="M103.645,81.779H14.845L0,102.406h118.489L103.645,81.779z M9.169,94.801h100.152l0.687,0.953H8.483L9.169,94.801z
			 M106.066,90.279H12.424l0.72-1h92.202L106.066,90.279z M106.786,91.279l1.782,2.477H9.922l1.823-2.533v0.057H106.786z
			 M16.382,84.779h85.725l2.52,3.5H13.863L16.382,84.779z M5.856,99.406l1.889-2.625v0.021h103.017l1.873,2.604H5.856z"/>
		<path d="M84.215,52.778H34.276l-18.711,26h87.361L84.215,52.778z M87.674,62.72L79.12,75.779h-0.634l8.761-13.649L87.674,62.72z
			 M88.285,63.572l4.561,6.336l-4.154,5.871h-8.402L88.285,63.572z M93.448,70.746l0.425,0.592l-3.371,4.441h-0.613L93.448,70.746z
			 M94.471,72.167l2.6,3.611h-5.34L94.471,72.167z M86.633,61.275l-9.308,14.504h-7.672l12.964-20h0.061L86.633,61.275z
			 M40.29,55.778h6.837l-12.823,20h-6.837L40.29,55.778z M26.305,75.779h-0.833l12.825-20h0.833L26.305,75.779z M48.289,55.778
			h0.833l-12.823,20h-0.834L48.289,55.778z M50.284,55.778h8.538l-12.823,20H37.46L50.284,55.778z M59.983,55.778h0.832l-12.821,20
			H47.16L59.983,55.778z M61.977,55.778h6.84L56.033,75.715l0.099,0.063h-6.978L61.977,55.778z M69.977,55.778h0.834l-12.75,19.883
			l0.183,0.117h-1.091L69.977,55.778z M71.971,55.778h7.487l-12.963,20h-7.347L71.971,55.778z M80.622,55.778h0.83l-12.964,20
			h-0.829L80.622,55.778z M35.813,55.778h1.322l-12.825,20h-2.89L35.813,55.778z"/>
	</g>
</g>
<g>
</g>
<g>
</g>
<g>
</g>
<g>
</g>
<g>
</g>
<g>
</g>
<g>
</g>
<g>
</g>
<g>
</g>
<g>
</g>
<g>
</g>
<g>
</g>
<g>
</g>
<g>
</g>
<g>
</g>
</svg>
