<?xml version="1.0" encoding="iso-8859-1"?>
<!-- Generator: Adobe Illustrator 16.0.0, SVG Export Plug-In . SVG Version: 6.00 Build 0)  -->
<!DOCTYPE svg PUBLIC "-//W3C//DTD SVG 1.1//EN" "http://www.w3.org/Graphics/SVG/1.1/DTD/svg11.dtd">
<svg version="1.1" id="Capa_1" xmlns="http://www.w3.org/2000/svg" xmlns:xlink="http://www.w3.org/1999/xlink" x="0px" y="0px"
	 width="104.88px" height="104.879px" viewBox="0 0 104.88 104.879" style="enable-background:new 0 0 104.88 104.879;"
	 xml:space="preserve">
<g>
	<g>
		<path d="M62.434,44.156c0.006,0.215,0.014,0.43,0.019,0.644c0.745,0.663,1.001,1.513,1.153,2.026l0.097,0.306
			c0.188,0.609,0.37,1.191,0.587,1.729c1.296,0.5,2.66,1.037,4.062,1.607l5.598-8.266l-9.602-1.498l-1.931,2.852
			C62.42,43.746,62.426,43.944,62.434,44.156z"/>
		<path d="M74.166,52.976l2.886,1.043l11.328-7.213l-8.062-2.915L69.35,50.875C70.918,51.525,72.533,52.223,74.166,52.976z"/>
		<path d="M79.322,55.637c0.097,0.068,0.193,0.135,0.287,0.205l3.687,2.622L98.9,53.416l-5.645-4.018l-15.605,5.05L79.322,55.637z"
			/>
		<polygon points="86.184,63.645 104.365,61.304 101.753,56.627 83.57,58.964 		"/>
		<polygon points="86.104,64.159 85.398,68.992 104.177,69.622 104.88,64.791 		"/>
		<polygon points="81.029,73.923 98.357,77.455 102.3,72.998 84.973,69.464 		"/>
		<polygon points="73.55,77.906 87.539,83.952 94.293,80.351 80.305,74.307 		"/>
		<polygon points="63.777,80.503 72.902,88.404 81.73,86.055 72.605,78.154 		"/>
		<polygon points="52.773,81.432 56.042,90.329 65.982,89.485 62.714,80.591 		"/>
		<polygon points="38.794,89.513 48.764,90.269 51.71,81.349 41.74,80.591 		"/>
		<polygon points="31.877,78.074 23.04,86.047 31.952,88.322 40.79,80.347 		"/>
		<polygon points="24.261,74.151 10.494,80.31 17.378,83.853 31.145,77.694 		"/>
		<polygon points="19.72,69.252 2.525,72.926 6.629,77.349 23.826,73.677 		"/>
		<polygon points="18.752,63.913 0,64.699 0.879,69.524 19.63,68.739 		"/>
		<polygon points="21.459,58.711 3.194,56.527 0.753,61.226 19.016,63.412 		"/>
		<polygon points="27.547,54.217 11.759,49.298 6.263,53.36 22.049,58.279 		"/>
		<polygon points="36.353,50.919 24.764,43.801 16.81,46.783 28.399,53.9 		"/>
		<path d="M37.484,50.543c0.584-0.245,1.171-0.486,1.757-0.727c0.743-0.305,1.484-0.608,2.219-0.923
			c0.211-0.557,0.418-1.178,0.657-1.966l0.042-0.137c0.155-0.517,0.476-1.56,1.47-2.2l-2.839-3.957l-9.544,1.578l6.039,8.414
			L37.484,50.543z"/>
		<path d="M55.037,76.488c7.77-1.3,20.17-8.194,26.184-8.194l-2.104-9.075c-0.646-0.663-1.405-1.218-2.288-1.672
			c-4.409-2.262-8.976-4.139-13.591-5.909c-0.344-0.13-0.756-0.394-0.898-0.693c-0.377-0.836-0.637-1.72-0.908-2.59
			c-0.168-0.56-0.316-1.083-0.929-1.356c-0.166-0.073-0.315-0.394-0.315-0.602c0.035-2.027-0.437-4.154,1.069-5.922
			c0.045-0.057,0.063-0.135,0.097-0.199c0.813-1.771,0.953-3.804,2.088-5.458c0.026-0.034,0.033-0.091,0.041-0.139
			c0.131-1.265,0.266-2.517,0.375-3.777c0.01-0.156-0.127-0.434-0.26-0.481c-0.625-0.221-0.593-0.723-0.589-1.226
			c0-2.46,0-2.819-0.004-5.28c0-1.434-0.42-2.703-1.501-3.678c-1.234-1.109-2.499-2.179-3.768-3.249
			c-0.607-0.516-0.664-0.914-0.09-1.481c0.254-0.251,0.576-0.434,0.871-0.646c-0.065-0.095-0.129-0.19-0.193-0.29
			c-0.383,0-0.768-0.048-1.139,0.009c-1.402,0.226-2.809,0.425-4.182,0.745c-2.627,0.619-5.177,1.442-7.306,3.201
			c-1.456,1.199-2.618,2.6-2.769,4.578c-0.071,1.036-0.063,2.08-0.071,3.115c-0.011,1.693,0.016,1.282-0.021,2.972
			c-0.009,0.272-0.16,0.728-0.354,0.788c-0.683,0.221-0.702,0.658-0.609,1.23c0.067,0.39,0.018,0.801,0.102,1.183
			c0.236,1.057,0.488,2.118,0.793,3.157c0.226,0.775,0.665,1.508,0.791,2.297c0.24,1.572,0.827,2.941,1.893,4.132
			c0.174,0.199,0.306,0.528,0.286,0.788c-0.085,1.209-0.208,2.422-0.372,3.626c-0.035,0.234-0.28,0.585-0.481,0.633
			c-0.806,0.165-0.929,0.784-1.122,1.412c-0.251,0.827-0.521,1.655-0.842,2.456c-0.1,0.252-0.352,0.507-0.599,0.619
			c-1.429,0.62-2.89,1.196-4.331,1.803c-1.534,0.646-3.085,1.26-4.584,1.972c-1.544,0.739-3.045,1.571-4.557,2.383
			c-0.891,0.477-1.725,1.005-2.417,1.658l-2.105,8.968c10.253,0,15.607,7.416,26.276,8.33l-3.931-5.429l6.097-16.674l-1.887-4.05
			h3.777l-1.891,4.05l6.098,16.674L55.037,76.488z"/>
	</g>
</g>
<g>
</g>
<g>
</g>
<g>
</g>
<g>
</g>
<g>
</g>
<g>
</g>
<g>
</g>
<g>
</g>
<g>
</g>
<g>
</g>
<g>
</g>
<g>
</g>
<g>
</g>
<g>
</g>
<g>
</g>
</svg>
