<?xml version="1.0" encoding="iso-8859-1"?>
<!-- Generator: Adobe Illustrator 16.0.0, SVG Export Plug-In . SVG Version: 6.00 Build 0)  -->
<!DOCTYPE svg PUBLIC "-//W3C//DTD SVG 1.1//EN" "http://www.w3.org/Graphics/SVG/1.1/DTD/svg11.dtd">
<svg version="1.1" id="Capa_1" xmlns="http://www.w3.org/2000/svg" xmlns:xlink="http://www.w3.org/1999/xlink" x="0px" y="0px"
	 width="109.035px" height="109.035px" viewBox="0 0 109.035 109.035" style="enable-background:new 0 0 109.035 109.035;"
	 xml:space="preserve">
<g>
	<g>
		<path d="M102.533,82.781l-0.35-0.129c-0.002-0.5-0.021-0.996-0.06-1.494l0.336-0.154c1.437-0.659,2.526-1.84,3.074-3.323
			c0.547-1.481,0.483-3.086-0.177-4.521l-1.362-2.961c-0.963-2.088-3.072-3.438-5.373-3.438c-0.856,0-1.688,0.182-2.47,0.541
			l-0.34,0.156c-0.354-0.351-0.719-0.688-1.098-1.015l0.131-0.352c1.127-3.06-0.443-6.466-3.498-7.593l-3.061-1.131
			c-0.635-0.233-1.305-0.354-1.99-0.354c-2.498,0-4.75,1.547-5.602,3.852l-0.129,0.353c-0.498,0.002-0.996,0.02-1.492,0.057
			l-0.156-0.338c-0.963-2.088-3.072-3.438-5.375-3.438c-0.857,0-1.688,0.183-2.469,0.541l-2.961,1.363
			c-2.959,1.363-4.26,4.883-2.896,7.844l0.156,0.338c-0.352,0.355-0.689,0.722-1.014,1.101l-0.342-0.127
			c-0.64-0.238-1.313-0.356-2.002-0.356c-0.439,0-0.867,0.062-1.285,0.153c-0.603-0.233-1.201-0.476-1.806-0.707
			c-0.521-0.196-1.146-0.598-1.36-1.053c-0.57-1.265-0.965-2.603-1.379-3.92c-0.252-0.851-0.479-1.644-1.402-2.054
			c-0.254-0.11-0.479-0.598-0.479-0.912c0.055-3.067-0.66-6.291,1.619-8.968c0.068-0.082,0.099-0.201,0.147-0.299
			c1.229-2.688,1.439-5.764,3.158-8.266c0.043-0.055,0.054-0.137,0.063-0.209c0.199-1.916,0.401-3.814,0.565-5.725
			c0.019-0.232-0.188-0.654-0.393-0.727c-0.945-0.332-0.896-1.096-0.889-1.854c0-3.729,0-4.271-0.008-8
			c0-2.168-0.637-4.092-2.271-5.568c-1.871-1.676-3.785-3.299-5.705-4.916c-0.922-0.785-1.006-1.389-0.137-2.248
			c0.387-0.379,0.871-0.654,1.322-0.973c-0.104-0.148-0.197-0.293-0.293-0.439c-0.58,0-1.164-0.076-1.725,0.01
			c-2.123,0.34-4.254,0.643-6.334,1.131c-3.979,0.938-7.838,2.182-11.063,4.844c-2.203,1.818-3.965,3.936-4.188,6.934
			c-0.111,1.57-0.1,3.152-0.111,4.721c-0.014,2.564,0.021,1.941-0.033,4.496c-0.014,0.416-0.242,1.102-0.535,1.193
			c-1.033,0.338-1.066,1-0.924,1.863c0.102,0.594,0.025,1.213,0.154,1.793c0.357,1.602,0.736,3.205,1.199,4.779
			c0.342,1.174,1.008,2.283,1.197,3.477c0.363,2.385,1.256,4.457,2.867,6.262c0.262,0.297,0.463,0.797,0.432,1.193
			c-0.127,1.83-0.314,3.666-0.563,5.49c-0.053,0.354-0.424,0.885-0.729,0.955c-1.221,0.248-1.408,1.186-1.699,2.141
			c-0.381,1.254-0.791,2.502-1.275,3.717c-0.152,0.379-0.531,0.77-0.906,0.941c-2.164,0.938-4.375,1.811-6.559,2.725
			c-2.322,0.977-4.67,1.912-6.939,2.988c-2.34,1.121-4.611,2.377-6.902,3.606C5.5,77.5,4.241,78.299,3.188,79.291L0,92.869
			c15.527,0,23.635,11.227,39.791,12.61l-5.953-8.217l9.232-25.25l-2.857-6.134h5.721l-2.863,6.134l9.232,25.25l-5.799,8.016
			c5.602-0.936,12.793-3.795,19.775-6.532c0.107,0.098,0.209,0.2,0.318,0.295l-0.127,0.342c-0.552,1.482-0.49,3.09,0.172,4.522
			c0.657,1.437,1.838,2.529,3.321,3.078l3.058,1.127c0.66,0.246,1.352,0.369,2.051,0.369c0.855,0,1.688-0.183,2.471-0.543
			c1.434-0.66,2.525-1.84,3.072-3.319l0.129-0.353c0.498-0.002,0.996-0.021,1.494-0.06l0.156,0.34
			c0.963,2.089,3.071,3.438,5.375,3.438c0.856,0,1.688-0.184,2.469-0.543l2.959-1.362c2.961-1.363,4.26-4.884,2.896-7.845
			l-0.155-0.338c0.352-0.354,0.688-0.721,1.014-1.099l0.352,0.132c1.471,0.545,3.104,0.477,4.52-0.179
			c1.435-0.657,2.525-1.838,3.074-3.319l1.127-3.06C107.16,87.32,105.591,83.914,102.533,82.781z M103.574,89.304l-1.129,3.059
			c-0.271,0.729-0.807,1.312-1.512,1.635c-0.707,0.326-1.498,0.357-2.229,0.088l-2.418-0.893c-1,1.463-2.218,2.787-3.632,3.932
			l1.076,2.336c0.672,1.459,0.033,3.191-1.426,3.863l-2.961,1.363c-1.457,0.672-3.191,0.031-3.863-1.426l-1.073-2.336
			c-1.789,0.332-3.589,0.395-5.351,0.203l-0.893,2.418c-0.27,0.729-0.807,1.311-1.514,1.637c-0.707,0.324-1.498,0.355-2.228,0.086
			l-3.06-1.129c-0.729-0.27-1.311-0.809-1.635-1.516c-0.326-0.707-0.356-1.496-0.086-2.228l0.894-2.416
			c-1.466-1-2.791-2.217-3.935-3.631l-2.336,1.076c-1.459,0.672-3.19,0.03-3.863-1.427l-1.362-2.963
			c-0.672-1.457-0.033-3.188,1.426-3.86l2.337-1.076c-0.332-1.787-0.396-3.586-0.203-5.349l-2.418-0.895
			c-0.728-0.268-1.31-0.805-1.638-1.512c-0.323-0.705-0.354-1.496-0.086-2.227l1.129-3.06c0.539-1.461,2.285-2.265,3.742-1.722
			l2.414,0.892c1.002-1.463,2.219-2.789,3.633-3.935L68.3,65.958c-0.672-1.457-0.03-3.19,1.427-3.862l2.961-1.363
			c1.459-0.672,3.19-0.03,3.862,1.429l1.076,2.334c1.787-0.33,3.586-0.394,5.349-0.203l0.893-2.418
			c0.539-1.457,2.281-2.26,3.74-1.724l3.059,1.132c1.506,0.555,2.277,2.233,1.723,3.739l-0.893,2.416
			c1.463,1.002,2.789,2.217,3.932,3.633l2.338-1.077c1.457-0.673,3.189-0.031,3.861,1.428l1.363,2.959
			c0.672,1.459,0.033,3.193-1.426,3.863l-2.336,1.075c0.332,1.789,0.395,3.586,0.205,5.351l2.418,0.893
			C103.357,86.121,104.13,87.798,103.574,89.304z"/>
		<path d="M81.012,71.195c-1.669,0-3.287,0.355-4.814,1.059c-5.766,2.656-8.297,9.51-5.641,15.276c1.875,4.069,5.982,6.7,10.465,6.7
			c1.668,0,3.287-0.355,4.813-1.061c5.767-2.655,8.297-9.508,5.642-15.276C89.602,73.824,85.494,71.195,81.012,71.195z
			 M84.58,90.446c-1.129,0.521-2.326,0.784-3.557,0.784c-3.314,0-6.354-1.945-7.74-4.956c-1.963-4.265-0.092-9.332,4.172-11.297
			c1.129-0.521,2.324-0.782,3.557-0.782c3.316,0,6.354,1.944,7.74,4.953C90.714,83.414,88.843,88.482,84.58,90.446z"/>
		<path d="M62.378,29.597l13.444,3.247c3.628,3.879,8.707,6.094,14.021,6.094c10.582,0,19.191-8.608,19.191-19.19
			S100.427,0.556,89.846,0.556c-10.582,0-19.191,8.609-19.191,19.191c0,0.419,0.016,0.841,0.045,1.274l-8.809,5.725
			c-0.527,0.343-0.802,0.967-0.693,1.586C61.302,28.953,61.768,29.45,62.378,29.597z M73.212,23.144
			c0.502-0.326,0.774-0.908,0.707-1.502c-0.078-0.67-0.116-1.289-0.116-1.895c0-8.846,7.196-16.043,16.043-16.043
			c8.846,0,16.043,7.197,16.043,16.043s-7.197,16.042-16.043,16.042c-4.582,0-8.957-1.971-12.005-5.407
			c-0.213-0.24-0.495-0.41-0.809-0.485l-10.361-2.502L73.212,23.144z"/>
		<path d="M81.352,28.75h2.664c0.186,0,0.334-0.149,0.334-0.333v-8.883c0-0.184-0.148-0.333-0.334-0.333h-2.664
			c-0.185,0-0.334,0.149-0.334,0.333v8.883C81.018,28.601,81.167,28.75,81.352,28.75z"/>
		<path d="M88.264,28.75h2.663c0.185,0,0.335-0.149,0.335-0.333V15.871c0-0.184-0.15-0.333-0.335-0.333h-2.663
			c-0.187,0-0.334,0.149-0.334,0.333v12.547C87.93,28.601,88.078,28.75,88.264,28.75z"/>
		<path d="M94.869,28.75h2.666c0.184,0,0.332-0.149,0.332-0.333V8.75c0-0.185-0.148-0.333-0.332-0.333h-2.666
			c-0.184,0-0.332,0.148-0.332,0.333v19.667C94.537,28.601,94.686,28.75,94.869,28.75z"/>
	</g>
</g>
<g>
</g>
<g>
</g>
<g>
</g>
<g>
</g>
<g>
</g>
<g>
</g>
<g>
</g>
<g>
</g>
<g>
</g>
<g>
</g>
<g>
</g>
<g>
</g>
<g>
</g>
<g>
</g>
<g>
</g>
</svg>
