<?xml version="1.0" encoding="iso-8859-1"?>
<!-- Generator: Adobe Illustrator 16.0.0, SVG Export Plug-In . SVG Version: 6.00 Build 0)  -->
<!DOCTYPE svg PUBLIC "-//W3C//DTD SVG 1.1//EN" "http://www.w3.org/Graphics/SVG/1.1/DTD/svg11.dtd">
<svg version="1.1" id="Capa_1" xmlns="http://www.w3.org/2000/svg" xmlns:xlink="http://www.w3.org/1999/xlink" x="0px" y="0px"
	 width="98.521px" height="98.521px" viewBox="0 0 98.521 98.521" style="enable-background:new 0 0 98.521 98.521;"
	 xml:space="preserve">
<g>
	<g>
		<circle cx="24.811" cy="17.372" r="2.84"/>
		<circle cx="16.994" cy="17.372" r="2.84"/>
		<circle cx="32.737" cy="17.372" r="2.84"/>
		<path d="M92.812,87.205l-2.859-12.336c-0.877-0.899-1.91-1.653-3.105-2.27c-5.995-3.072-12.199-5.622-18.472-8.029
			c-0.47-0.177-1.027-0.535-1.222-0.944c-0.511-1.134-0.865-2.334-1.236-3.517c-0.227-0.764-0.428-1.476-1.26-1.844
			c-0.228-0.1-0.428-0.535-0.428-0.818c0.047-2.754-0.595-5.645,1.451-8.049c0.062-0.074,0.088-0.181,0.133-0.269
			c1.104-2.411,1.293-5.172,2.834-7.417c0.038-0.05,0.047-0.124,0.057-0.188c0.18-1.719,0.361-3.423,0.51-5.136
			c0.018-0.209-0.171-0.588-0.354-0.654c-0.849-0.297-0.805-0.982-0.799-1.663c0-3.347,0-3.833-0.006-7.179
			c0-1.946-0.57-3.673-2.04-4.998c-1.678-1.504-3.396-2.961-5.118-4.412c-0.826-0.704-0.9-1.245-0.119-2.017
			c0.344-0.341,0.778-0.588,1.183-0.874c-0.089-0.132-0.177-0.262-0.263-0.395c-0.521,0-1.045-0.067-1.547,0.009
			c-1.904,0.307-3.818,0.577-5.685,1.016c-3.569,0.842-7.035,1.957-9.928,4.348c-0.245,0.202-0.483,0.408-0.714,0.619V8.828
			C43.825,3.96,39.865,0,34.997,0H14.536C9.669,0,5.708,3.96,5.708,8.828V25.97c0,4.868,3.961,8.828,8.828,8.828H28.82l9.128,6.742
			c0.759,0.563,1.638,0.892,2.565,0.994c0.017,0.057,0.03,0.114,0.047,0.171c0.303,1.054,0.9,2.049,1.071,3.12
			c0.326,2.14,1.127,4,2.572,5.619c0.235,0.269,0.418,0.715,0.389,1.071c-0.115,1.644-0.283,3.291-0.507,4.927
			c-0.047,0.318-0.379,0.795-0.653,0.856c-1.095,0.224-1.263,1.065-1.524,1.922c-0.342,1.125-0.709,2.246-1.145,3.334
			c-0.136,0.342-0.478,0.692-0.81,0.845c-1.945,0.842-3.93,1.625-5.89,2.446c-2.084,0.877-4.191,1.716-6.229,2.681
			c-2.096,1.006-4.135,2.135-6.192,3.238c-1.21,0.646-2.34,1.366-3.285,2.254l-2.86,12.186c13.934,0,21.209,10.076,35.708,11.317
			l-5.341-7.373l8.285-22.659l-2.562-5.504h5.133l-2.568,5.504l8.284,22.659l-5.202,7.193
			C67.789,96.576,84.639,87.205,92.812,87.205z M42.423,39.543c-0.142,0.093-0.303,0.139-0.465,0.139
			c-0.176,0-0.352-0.054-0.499-0.164L30.413,31.36H13.554c-2.553,0-4.629-2.077-4.629-4.629V8.398c0-2.553,2.076-4.629,4.629-4.629
			h21.882c2.553,0,4.629,2.076,4.629,4.629v18.973l2.712,11.272C42.86,38.988,42.718,39.346,42.423,39.543z"/>
	</g>
</g>
<g>
</g>
<g>
</g>
<g>
</g>
<g>
</g>
<g>
</g>
<g>
</g>
<g>
</g>
<g>
</g>
<g>
</g>
<g>
</g>
<g>
</g>
<g>
</g>
<g>
</g>
<g>
</g>
<g>
</g>
</svg>
