<?xml version="1.0" encoding="iso-8859-1"?>
<!-- Generator: Adobe Illustrator 18.0.0, SVG Export Plug-In . SVG Version: 6.00 Build 0)  -->
<!DOCTYPE svg PUBLIC "-//W3C//DTD SVG 1.1//EN" "http://www.w3.org/Graphics/SVG/1.1/DTD/svg11.dtd">
<svg version="1.1" id="Capa_1" xmlns="http://www.w3.org/2000/svg" xmlns:xlink="http://www.w3.org/1999/xlink" x="0px" y="0px"
	 viewBox="0 0 446.668 446.668" style="enable-background:new 0 0 446.668 446.668;" xml:space="preserve">
<g>
	<rect x="337" y="63.358" width="78" height="28"/>
	<rect x="0" y="173.079" width="78" height="28"/>
	<rect x="369.668" y="356.31" width="77" height="27"/>
	<path d="M329.807,351.143c30.532-12.968,52-43.255,52-78.463c0-39.63-27.197-73.027-63.905-82.506
		c3.424-9.218,5.302-19.182,5.302-29.577c0-25.226-11.029-47.915-28.509-63.529l12.725-17.209h22.239v-5h-24.761l-14.04,18.989
		c-14.538-11.536-32.9-18.452-52.857-18.452c-46.98,0-85.203,38.221-85.203,85.201c0,10.396,1.879,20.358,5.302,29.577
		c-12.214,3.155-23.375,8.958-32.832,16.756l-16.525-22.351H83.98v5h22.239l15.104,20.428l2.646-1.957
		c-18.209,15.638-29.777,38.801-29.777,64.63c0,46.98,38.221,85.2,85.199,85.2c22.691,0,43.323-8.934,58.608-23.447
		c15.285,14.513,35.917,23.447,58.608,23.447c9.94,0,19.481-1.728,28.359-4.872l14.27,19.302H364v-5h-22.239L329.807,351.143z
		 M294.803,115.272l-79.962,79.961c-5.447-2.503-11.198-4.45-17.187-5.763l85.673-85.674
		C287.565,107.185,291.414,111.034,294.803,115.272z M276.084,98.682l-89.149,89.15c-2.487-0.219-4.999-0.353-7.542-0.353
		c-2.958,0-5.881,0.153-8.762,0.449c-0.659-1.619-1.263-3.265-1.807-4.938l91.564-91.568
		C265.941,93.223,271.203,95.669,276.084,98.682z M211.077,93.067l-40.609,40.611C177.857,115.207,192.605,100.458,211.077,93.067z
		 M165.997,150.508l61.91-61.913c3.301-0.46,6.667-0.716,10.093-0.716c4.256,0,8.422,0.389,12.479,1.094l-84.104,84.106
		c-0.705-4.059-1.094-8.225-1.094-12.483C165.281,157.172,165.537,153.808,165.997,150.508z M229.6,325.207
		c-13.063,12.491-30.748,20.189-50.207,20.189c-40.096,0-72.715-32.621-72.715-72.716c0-40.096,32.619-72.717,72.715-72.717
		c19.459,0,37.144,7.698,50.207,20.189c-11.38,14.485-18.193,32.72-18.193,52.528C211.406,292.487,218.22,310.722,229.6,325.207z
		 M236.165,209.218c-4.074-3.649-8.5-6.91-13.221-9.73l76.974-76.973c3.012,4.879,5.457,10.14,7.258,15.69L236.165,209.218z
		 M310.003,170.686l-16.881,16.881c-10.425,0.422-20.375,2.711-29.515,6.566l46.018-46.018c0.705,4.059,1.094,8.224,1.094,12.481
		C310.719,164.021,310.463,167.386,310.003,170.686z"/>
</g>
<g>
</g>
<g>
</g>
<g>
</g>
<g>
</g>
<g>
</g>
<g>
</g>
<g>
</g>
<g>
</g>
<g>
</g>
<g>
</g>
<g>
</g>
<g>
</g>
<g>
</g>
<g>
</g>
<g>
</g>
</svg>
